<svg width="97" height="93" viewBox="0 0 97 93" fill="none" xmlns="http://www.w3.org/2000/svg">
<path d="M60.6256 9.40234V23.1866C60.6256 25.7242 62.7971 27.7813 65.4756 27.7813H80.0256M33.9506 27.7813H43.6506M33.9506 41.5655H63.0506M33.9506 55.3497H63.0506M72.7506 16.2945C70.5921 14.4648 68.3522 12.2946 66.9381 10.8852C65.9972 9.94734 64.6971 9.40234 63.3312 9.40234H26.6745C21.3174 9.40234 16.9745 13.5166 16.9745 18.5918L16.9741 73.7284C16.9741 78.8037 21.3169 82.918 26.6741 82.918L70.3243 82.9181C75.6813 82.9182 80.0242 78.804 80.0243 73.7289L80.0256 25.0162C80.0256 23.8413 79.5525 22.7119 78.6918 21.8661C77.1002 20.302 74.4424 17.7285 72.7506 16.2945Z" stroke="#D354CA" stroke-width="2" stroke-linecap="round" stroke-linejoin="round"/>
</svg>
