<svg width="355" height="304" viewBox="0 0 355 304" fill="none" xmlns="http://www.w3.org/2000/svg">
<g clip-path="url(#clip0_163_1044)">
<path d="M247.004 295.893L240.451 295.893L237.334 268.903H247.005L247.004 295.893Z" fill="#FFB6B6"/>
<path d="M246.829 293.608L239.833 290.569L239.632 290.481L235.769 293.608C233.588 293.608 231.497 294.533 229.955 296.18C228.413 297.827 227.546 300.061 227.546 302.39V302.675H248.673V293.608H246.829Z" fill="#2F2E41"/>
<path d="M306.211 286.796L300.346 289.917L286.281 267.246L294.937 262.639L306.211 286.796Z" fill="#FFB6B6"/>
<path d="M306.753 283.953L305.253 284.749L305.099 284.831L297.579 285.451L297.353 285.467L295.201 290.102C294.234 290.617 293.372 291.329 292.663 292.2C291.955 293.07 291.414 294.081 291.071 295.175C290.729 296.269 290.591 297.424 290.667 298.574C290.743 299.724 291.03 300.848 291.513 301.879L291.631 302.132L310.539 292.072L306.753 283.953Z" fill="#2F2E41"/>
<path d="M242.559 150.824L278.691 152.175L278.943 151.784C278.943 151.784 282.025 159.464 282.025 166.046C282.025 168.235 280.6 182.549 281.324 185.257C281.414 185.594 280.794 186.419 280.998 187.987C281.13 189.005 281.858 188.222 282.025 189.633C282.145 190.645 280.864 191.204 280.998 192.376C281.144 193.655 282.907 197.8 283.066 199.223C284.755 214.377 287.004 236.331 287.004 236.331C287.004 236.331 296.038 262.168 297.949 262.588C301.156 263.293 303.322 269.521 301.544 270.816C300.698 271.433 289.759 275.582 289.759 275.582C289.157 275.698 287.277 274.691 288.475 272.309C288.696 271.871 287.38 272.987 287.162 272.462C286.929 271.903 287.386 269.682 287.119 269.063C284.729 263.499 281.058 255.788 277.58 251.829C272.44 245.979 269.185 238.529 268.29 230.565L260.312 183.322L257.577 196.57L255.314 198.958L255.935 204.525L255.828 209.929L250.178 232.419C250.178 232.419 249.33 274.419 250.691 275.753C251.429 276.475 254.556 285.373 248.637 286.175L237.881 285.289C237.881 285.289 236.432 282.028 237.157 280.867C237.881 279.707 237.838 280.023 236.954 278.124C236.07 276.225 236.432 273.006 236.432 273.006C235.023 257.881 234.468 242.679 234.768 227.482C235.307 202.522 238.574 173.848 238.574 173.263C238.601 172.666 238.498 172.07 238.273 171.523V169.948L239.661 164.365L242.559 150.824Z" fill="#2F2E41"/>
<path d="M293.406 155.542C301.287 155.542 307.676 148.72 307.676 140.304C307.676 131.888 301.287 125.066 293.406 125.066C285.525 125.066 279.136 131.888 279.136 140.304C279.136 148.72 285.525 155.542 293.406 155.542Z" fill="#75A575"/>
<path d="M291.459 148.235C291.213 148.235 290.97 148.174 290.749 148.056C290.529 147.938 290.337 147.767 290.189 147.557L286.296 142.014C286.171 141.836 286.08 141.633 286.029 141.417C285.977 141.202 285.965 140.977 285.995 140.757C286.024 140.537 286.094 140.325 286.201 140.133C286.307 139.942 286.447 139.774 286.614 139.641C286.781 139.507 286.97 139.41 287.172 139.355C287.374 139.3 287.584 139.287 287.791 139.319C287.997 139.35 288.196 139.425 288.375 139.538C288.554 139.652 288.711 139.802 288.836 139.98L291.383 143.606L297.924 133.128C298.04 132.942 298.189 132.783 298.362 132.659C298.535 132.535 298.73 132.449 298.934 132.405C299.139 132.361 299.349 132.361 299.554 132.404C299.758 132.447 299.953 132.533 300.127 132.656C300.3 132.78 300.449 132.939 300.565 133.124C300.681 133.309 300.762 133.517 300.803 133.735C300.843 133.954 300.844 134.178 300.803 134.397C300.762 134.615 300.682 134.823 300.566 135.008L292.78 147.48C292.639 147.706 292.45 147.892 292.228 148.023C292.005 148.154 291.757 148.227 291.503 148.234C291.489 148.235 291.474 148.235 291.459 148.235Z" fill="white"/>
<path d="M300.462 156.414C300.601 155.791 300.61 155.142 300.49 154.515C300.369 153.888 300.121 153.296 299.762 152.782C299.404 152.268 298.945 151.844 298.417 151.54C297.889 151.237 297.305 151.06 296.706 151.023L289.394 124.42L284.448 130.55L292.317 155.459C292.326 156.537 292.705 157.575 293.383 158.375C294.06 159.175 294.988 159.682 295.992 159.799C296.996 159.917 298.006 159.637 298.83 159.013C299.653 158.389 300.234 157.464 300.462 156.414Z" fill="#FFB8B8"/>
<path d="M295.304 143.435L294.353 139.716L295.442 137.495L295.36 137.237L295.031 136.239L293.326 134.779L293.937 132.92L291.78 126.376L291.251 125.24L278.866 98.6859L275.897 92.3174L275.209 91.1655L273.067 87.5781L270.139 82.6797C269.674 81.8968 269.067 81.2205 268.354 80.6904C267.642 80.1602 266.838 79.7866 265.989 79.5915C265.714 79.527 265.436 79.4812 265.156 79.4543L264.956 79.4378C264.456 79.4084 263.955 79.4397 263.461 79.5311H263.451C262.582 79.6922 261.753 80.0433 261.016 80.5624C260.437 80.9631 259.92 81.4592 259.486 82.0324C258.486 83.3571 257.966 85.022 258.022 86.7224L258.114 89.3992L258.207 91.8347L262.552 100.227L262.835 100.776L262.84 100.792L276.211 126.628L280.243 134.417L280.854 135.602L283.566 137.522L282.842 139.453L283.053 142.459L285.359 144.319L288.703 147.944L288.837 148.241L289.864 147.687L289.961 147.632L290.193 147.56L293.372 146.535L295.304 145.915L295.365 145.893L295.894 145.75L295.304 143.435Z" fill="#E6E6E6"/>
<path d="M350.271 264.201C349.302 262.886 347.987 261.91 346.495 261.401C345.003 260.892 343.401 260.871 341.898 261.343L341.569 261.447L338.621 273.74C338.179 271.908 337.234 267.772 336.638 263.723L336.587 263.389L336.294 263.526C333.212 264.981 330.314 266.846 327.67 269.077C322.985 273.09 319.175 278.144 316.504 283.889C313.833 289.633 312.365 295.929 312.203 302.34L312.198 302.576L312.193 302.724L312.583 302.576L320.961 299.378C324.67 299.727 328.406 299.187 331.895 297.798C335.384 296.409 338.538 294.205 341.128 291.348C344.513 287.535 346.835 282.631 349.079 277.887C349.737 276.504 350.41 275.078 351.098 273.707C351.866 272.216 352.197 270.513 352.05 268.818C351.903 267.124 351.283 265.515 350.271 264.201Z" fill="#C0E7BE"/>
<path d="M135.279 60.1413H134.251V17.8806H208.557V18.9777H135.279V60.1413Z" fill="#3F3D56"/>
<path d="M219.951 30.4766C227.832 30.4766 234.221 23.6542 234.221 15.2383C234.221 6.82241 227.832 0 219.951 0C212.07 0 205.682 6.82241 205.682 15.2383C205.682 23.6542 212.07 30.4766 219.951 30.4766Z" fill="#75A575"/>
<path d="M218.005 23.1691C217.758 23.1691 217.515 23.1078 217.295 22.9901C217.075 22.8724 216.883 22.7015 216.735 22.4909L212.842 16.9479C212.717 16.7698 212.626 16.5672 212.574 16.3515C212.523 16.1359 212.511 15.9115 212.541 15.6911C212.57 15.4708 212.64 15.2588 212.746 15.0673C212.852 14.8757 212.993 14.7084 213.16 14.5749C213.326 14.4413 213.516 14.3441 213.718 14.2889C213.92 14.2337 214.13 14.2214 214.336 14.2529C214.543 14.2844 214.741 14.359 214.921 14.4724C215.1 14.5858 215.257 14.7359 215.382 14.9139L217.929 18.5401L224.47 8.062C224.586 7.87657 224.734 7.71727 224.908 7.59321C225.081 7.46915 225.275 7.38276 225.48 7.33898C225.684 7.2952 225.895 7.29488 226.099 7.33806C226.304 7.38123 226.499 7.46705 226.672 7.5906C226.846 7.71414 226.995 7.87301 227.111 8.0581C227.227 8.24319 227.308 8.45089 227.348 8.66931C227.389 8.88773 227.389 9.11261 227.349 9.33107C227.308 9.54954 227.227 9.75731 227.112 9.94252L219.326 22.4142C219.185 22.6398 218.995 22.826 218.773 22.9572C218.551 23.0885 218.303 23.1609 218.049 23.1685C218.034 23.1688 218.02 23.1691 218.005 23.1691Z" fill="white"/>
<path d="M84.9392 162.742H83.9119V205.003H158.217V203.906H84.9392V162.742Z" fill="#3F3D56"/>
<path d="M169.612 220.27C177.493 220.27 183.882 213.447 183.882 205.031C183.882 196.615 177.493 189.793 169.612 189.793C161.731 189.793 155.342 196.615 155.342 205.031C155.342 213.447 161.731 220.27 169.612 220.27Z" fill="#75A575"/>
<path d="M167.665 212.962C167.419 212.962 167.176 212.901 166.956 212.783C166.735 212.665 166.544 212.494 166.396 212.284L162.503 206.741C162.378 206.563 162.287 206.36 162.235 206.144C162.183 205.929 162.172 205.704 162.201 205.484C162.231 205.264 162.301 205.052 162.407 204.86C162.513 204.669 162.654 204.501 162.82 204.368C162.987 204.234 163.177 204.137 163.379 204.082C163.581 204.027 163.791 204.014 163.997 204.046C164.203 204.077 164.402 204.152 164.581 204.265C164.761 204.379 164.917 204.529 165.042 204.707L167.589 208.333L174.131 197.855C174.246 197.669 174.395 197.51 174.568 197.386C174.741 197.262 174.936 197.176 175.14 197.132C175.345 197.088 175.555 197.088 175.76 197.131C175.965 197.174 176.159 197.26 176.333 197.384C176.506 197.507 176.655 197.666 176.771 197.851C176.887 198.036 176.968 198.244 177.009 198.462C177.05 198.681 177.05 198.906 177.009 199.124C176.969 199.342 176.888 199.55 176.772 199.735L168.986 212.207C168.845 212.433 168.656 212.619 168.434 212.75C168.212 212.881 167.963 212.954 167.71 212.961C167.695 212.962 167.68 212.962 167.665 212.962Z" fill="white"/>
<path d="M282.539 164.296C282.554 165.451 282.38 166.6 282.025 167.692L281.948 167.675C272.825 169.36 264.687 169.636 260.922 163.656C256.01 156.977 249.254 157.052 241.718 159.985L240.824 158.953L239.303 157.204L240.701 155.514L239.303 152.256L240.469 148.235L241.959 147.944L241.558 144.483L240.932 142.459L242.771 140.303L244.332 134.922L243.207 123.661C241.668 108.224 244.651 92.6584 251.744 79.1087L256.013 75.0166L257.785 73.3162L260.163 68.5768L262.675 68.8895L269.476 69.7288L269.707 70.3212L271.377 74.6217L280.171 84.7092L279.775 88.9659L279.601 90.8419L279.472 92.1912L278.866 98.6859L276.395 125.219L276.21 126.628L274.223 141.883C277.453 145.218 280.309 151.641 281.681 157.511C281.835 158.163 281.398 158.827 281.511 159.464C281.671 160.363 282.364 161.219 282.441 162.058C282.513 162.802 282.546 163.549 282.539 164.296Z" fill="#E6E6E6"/>
<path d="M265.121 66.8782C271.645 66.8782 276.934 61.2306 276.934 54.2639C276.934 47.2973 271.645 41.6497 265.121 41.6497C258.597 41.6497 253.309 47.2973 253.309 54.2639C253.309 61.2306 258.597 66.8782 265.121 66.8782Z" fill="#FFB6B6"/>
<path d="M279.361 50.8226C278.662 48.4951 276.744 46.5258 274.468 46.2685C274.64 44.7226 274.412 43.1559 273.809 41.7388C273.205 40.3217 272.249 39.1086 271.044 38.2316C269.84 37.3547 268.433 36.8474 266.977 36.765C265.522 36.6827 264.072 37.0284 262.788 37.7646C262.515 37.4144 262.162 37.1454 261.763 36.9835C261.365 36.8217 260.933 36.7726 260.512 36.8409C259.668 36.9893 258.873 37.3612 258.2 37.9227C256.526 39.2297 255.216 40.997 254.408 43.0362C253.601 45.0754 253.326 47.3103 253.613 49.503C253.608 48.3907 254.07 50.5427 255.393 50.7328C256.495 50.9697 257.545 51.432 258.483 52.0943C259.422 52.7565 260.468 53.2248 261.568 53.475C262.678 53.6484 262.965 58.4008 262.172 61.4617C262.021 62.0418 261.945 62.8201 262.446 63.0965C263.062 63.437 263.685 62.581 264.375 62.4976C264.685 62.4924 264.984 62.6157 265.21 62.8415C265.436 63.0673 265.571 63.378 265.587 63.7081C265.587 64.0393 265.514 64.3658 265.372 64.6605C265.231 64.9553 265.026 65.2097 264.774 65.4026C264.267 65.7829 263.705 66.0732 263.112 66.2624L263.311 66.5643C263.485 66.9095 263.766 67.1792 264.106 67.3271C264.446 67.4751 264.824 67.4922 265.174 67.3755C265.964 68.393 274.104 65.5678 274.501 63.7107C276.206 62.0705 277.622 60.1174 278.682 57.944C279.741 55.7465 279.983 53.2029 279.361 50.8226Z" fill="#2F2E41"/>
<path d="M288.913 89.2401C288.749 90.7102 287.46 91.8073 286.104 92.1145C285.414 92.2561 284.707 92.2691 284.013 92.1529C283.335 92.0454 282.666 91.8859 282.01 91.6756C281.198 91.4288 280.395 91.1509 279.601 90.8418C277.331 89.9765 275.143 88.8837 273.067 87.5781C271.497 86.5991 269.993 85.5029 268.567 84.2978C267.827 83.6725 267.11 83.0197 266.415 82.3396L267.283 82.7784C266.507 81.6649 265.732 80.5513 264.956 79.4378C264.206 78.3627 263.458 77.2876 262.711 76.2124C262.665 76.1466 262.629 76.1027 262.614 76.0808V76.0753C262.27 75.5871 261.931 75.0989 261.592 74.6107C260.569 73.1461 259.563 70.9959 260.739 69.6739C260.99 69.4165 261.294 69.2261 261.627 69.1184C261.96 69.0106 262.312 68.9886 262.655 69.0541C263.024 69.1052 263.38 69.2279 263.708 69.4161C264.606 70.0375 265.369 70.8589 265.942 71.8242C266.744 70.579 268.3 70.1182 269.707 70.3212C269.785 70.3267 269.856 70.3376 269.928 70.3486C271.392 70.6174 272.024 69.7726 273.293 70.6009C273.884 70.9849 274.243 72.9596 274.834 73.3436C275.168 73.563 276.406 73.8921 276.745 74.117C277.413 74.5559 277.243 76.196 277.916 76.6348C278.414 76.9584 279.75 76.0863 280.248 76.4099C280.772 76.7555 281.501 79.0374 282.025 79.3775C283.068 80.0632 283.905 78.8125 284.948 79.4927C286.289 80.3758 287.717 81.3577 288.282 82.9265C288.78 84.3088 288.138 86.2013 286.9 86.5962C287.491 86.6716 288.032 86.9896 288.408 87.483C288.784 87.9764 288.965 88.6065 288.913 89.2401Z" fill="#E6E6E6"/>
<path opacity="0.2" d="M279.601 90.8419L279.472 92.1912C278.017 92.0415 276.584 91.6969 275.209 91.1655C273.399 90.5165 271.828 89.2698 270.725 87.6055C270.026 86.4865 269.297 85.373 268.567 84.2978C267.355 82.4986 266.153 80.8201 265.156 79.4543C263.939 77.8032 263.025 76.6074 262.711 76.2124C262.665 76.1466 262.629 76.1027 262.614 76.0808L262.598 76.0643L262.614 76.0753C268.717 84.3244 274.482 89.0813 279.775 88.9659C279.775 88.9659 280.397 91.149 279.601 90.8419Z" fill="black"/>
<path d="M223.747 24.7829C223.597 25.403 223.575 26.0508 223.685 26.6806C223.794 27.3105 224.032 27.907 224.38 28.4282C224.729 28.9494 225.181 29.3827 225.703 29.6974C226.226 30.0122 226.806 30.2008 227.404 30.2499L234.233 56.9989L239.289 50.9724L231.873 25.9061C231.883 24.8276 231.523 23.7825 230.86 22.9686C230.198 22.1548 229.279 21.6288 228.277 21.4903C227.275 21.3519 226.261 21.6106 225.426 22.2174C224.591 22.8242 223.994 23.737 223.747 24.7829Z" fill="#FFB8B8"/>
<path d="M263.836 93.1841L263.79 90.7486L259.485 82.0324L259.326 81.7143L259.316 81.6978L256.013 75.0166L240.075 42.7486L238.363 42.0772L238.449 39.4561L238.363 36.5918L236.307 35.1196L235.43 33.3445L234.187 33.723H234.182L234.146 33.7339L228.712 35.3631H228.707L227.576 36.0433L226.549 39.3345L226.324 40.8926L226.549 43.7228L229.117 44.2713L228.267 47.1733L230.849 55.5217C234.079 70.1127 238.492 82.7071 246.11 89.8984L246.736 90.9954L251.693 99.6568C252.369 100.842 253.359 101.786 254.538 102.371C255.716 102.955 257.03 103.154 258.314 102.943H258.319C259.191 102.798 260.027 102.466 260.775 101.966C261.465 101.512 262.068 100.922 262.552 100.227C263.437 98.972 263.905 97.4376 263.882 95.8664L263.836 93.1841Z" fill="#E6E6E6"/>
<path d="M353.888 303.831L214.299 304C214.137 304 213.982 303.931 213.867 303.809C213.752 303.686 213.688 303.52 213.688 303.347C213.688 303.174 213.752 303.008 213.867 302.885C213.982 302.763 214.137 302.694 214.299 302.694L353.888 302.525C354.051 302.525 354.206 302.594 354.321 302.716C354.436 302.839 354.5 303.005 354.5 303.178C354.5 303.352 354.436 303.518 354.321 303.64C354.206 303.763 354.051 303.831 353.888 303.831Z" fill="#CACACA"/>
<path d="M43.457 84.3143C43.4484 76.0688 46.3985 68.1331 51.7005 62.1388L33.5047 35.3948C32.7557 34.293 31.7931 33.3765 30.6826 32.7077C29.572 32.0389 28.3395 31.6336 27.0691 31.5192C25.7986 31.4048 24.52 31.5842 23.3202 32.0451C22.1205 32.5059 21.0279 33.2374 20.1167 34.1898C13.8836 40.6784 8.93518 48.4385 5.56529 57.0092C2.1954 65.5798 0.472805 74.7863 0.499825 84.0818C0.499875 87.5921 0.744937 91.0974 1.23296 94.5688C1.42442 95.9412 1.89391 97.2525 2.60871 98.4113C3.32351 99.57 4.26641 100.548 5.37164 101.278C6.46441 102 7.69156 102.459 8.96751 102.623C10.2435 102.787 11.5375 102.651 12.7594 102.226L44.1781 91.3242C43.6999 89.0225 43.4582 86.672 43.457 84.3143Z" fill="#F2F2F2"/>
<path d="M45.1282 94.9113L12.4641 106.245C11.2553 106.662 10.1445 107.352 9.20719 108.268C8.26984 109.184 7.52778 110.304 7.0313 111.553C6.53482 112.802 6.29552 114.15 6.32961 115.506C6.3637 116.862 6.67039 118.195 7.22889 119.413C11.8805 129.491 18.7376 138.223 27.2195 144.871C35.7014 151.519 45.5584 155.887 55.956 157.604C57.2224 157.812 58.5158 157.725 59.7476 157.349C60.9794 156.973 62.1205 156.316 63.0925 155.425C64.0632 154.536 64.8423 153.433 65.3762 152.193C65.9102 150.952 66.1863 149.602 66.1858 148.237V115.658C61.348 114.317 56.8949 111.723 53.2215 108.103C49.5482 104.484 46.7682 99.953 45.1282 94.9113Z" fill="#E6E6E6"/>
<path d="M143.357 115.267C142.806 113.868 141.979 112.613 140.932 111.587C139.886 110.56 138.645 109.786 137.294 109.318L101.669 96.9568C99.5896 102.179 96.2615 106.727 92.0182 110.144C87.775 113.56 82.7654 115.727 77.4915 116.425V156.062C77.4922 157.583 77.8009 159.087 78.3964 160.469C78.992 161.851 79.8602 163.079 80.9418 164.07C82.0233 165.06 83.2926 165.789 84.6626 166.207C86.0326 166.625 87.471 166.721 88.8792 166.49C100.454 164.578 111.426 159.716 120.868 152.316C130.31 144.916 137.943 135.195 143.122 123.976C143.744 122.628 144.088 121.152 144.128 119.649C144.169 118.146 143.906 116.652 143.357 115.267Z" fill="#C0E7BE"/>
<path d="M134.507 24.3513C133.492 23.291 132.276 22.4767 130.941 21.9636C129.605 21.4505 128.182 21.2509 126.767 21.3781C125.353 21.5054 123.981 21.9567 122.745 22.7012C121.509 23.4458 120.437 24.4661 119.603 25.6926L95.2478 61.4907C98.0497 64.49 100.271 68.0494 101.785 71.9655C103.298 75.8816 104.075 80.0777 104.07 84.3143C104.07 85.1026 104.034 85.8812 103.982 86.6552L142.697 100.088C144.066 100.56 145.515 100.708 146.942 100.521C148.37 100.333 149.743 99.8162 150.964 99.0048C152.185 98.1934 153.226 97.1074 154.015 95.8225C154.803 94.5375 155.319 93.0845 155.528 91.5647C156.071 87.7003 156.344 83.7979 156.344 79.8901C156.374 69.5426 154.456 59.2941 150.705 49.7534C146.954 40.2127 141.445 31.5743 134.507 24.3513Z" fill="#FFB3FF"/>
<path d="M73.7636 51.9508C78.9778 51.9445 84.1043 53.3821 88.6429 56.1232L103.508 34.2737C104.266 33.1609 104.789 31.8859 105.04 30.5364C105.292 29.187 105.266 27.7954 104.965 26.4576C104.673 25.1454 104.119 23.9163 103.339 22.8552C102.559 21.7942 101.573 20.9264 100.449 20.3118C91.2713 15.3273 81.123 12.7215 70.8264 12.7055C60.5297 12.6895 50.3743 15.2637 41.1829 20.2196C40.0237 20.8442 39.0056 21.7304 38.199 22.8169C37.3925 23.9033 36.8167 25.1641 36.5117 26.5117C36.2109 27.8401 36.1842 29.2225 36.4334 30.5631C36.6826 31.9036 37.2017 33.1703 37.9549 34.2753L54.8186 59.0619C60.1879 54.4509 66.8735 51.9415 73.7636 51.9508Z" fill="#E6E6E6"/>
</g>
<defs>
<clipPath id="clip0_163_1044">
<rect width="354" height="304" fill="white" transform="translate(0.5)"/>
</clipPath>
</defs>
</svg>
