<svg width="125" height="57" viewBox="0 0 125 57" fill="none" xmlns="http://www.w3.org/2000/svg">
<path d="M19.1801 45.9446H12.4261C12.2481 45.9446 12.1029 45.794 12.1029 45.6068V10.0001C12.1029 9.81418 12.2469 9.66238 12.4261 9.66238H19.1801V5.51562H8.58664C8.35295 5.51562 8.16406 5.71297 8.16406 5.95712V55.7068C8.16406 55.9509 8.35295 56.1483 8.58664 56.1483H19.1789V45.9446H19.1801Z" fill="#C0E7BE"/>
<path d="M8.16212 55.7078V45.9456H4.26208C4.08409 45.9456 3.93879 45.795 3.93879 45.6078V10.0011C3.93879 9.81516 4.08288 9.66336 4.26208 9.66336H8.16212V5.9581C8.16212 5.71395 8.35101 5.5166 8.5847 5.5166H0.422575C0.188888 5.5166 0 5.71395 0 5.9581V55.7078C0 55.9519 0.188888 56.1493 0.422575 56.1493H8.5847C8.35101 56.1493 8.16212 55.9519 8.16212 55.7078Z" fill="#E8FFE6"/>
<path d="M41.9462 5.51562H16.8217C16.5881 5.51562 16.3992 5.71297 16.3992 5.95712V55.7068C16.3992 55.9509 16.5881 56.1483 16.8217 56.1483H41.9462C42.1799 56.1483 42.3688 55.9509 42.3688 55.7068V5.95712C42.3688 5.71297 42.1799 5.51562 41.9462 5.51562ZM29.384 53.851C27.9722 53.851 26.8292 52.6555 26.8292 51.1818C26.8292 49.708 27.9734 48.5126 29.384 48.5126C30.7946 48.5126 31.9388 49.708 31.9388 51.1818C31.9388 52.6555 30.7946 53.851 29.384 53.851ZM38.43 45.6081C38.43 45.794 38.2859 45.9458 38.1067 45.9458H20.6612C20.4833 45.9458 20.338 45.7953 20.338 45.6081V10.0001C20.338 9.81418 20.482 9.66238 20.6612 9.66238H38.1079C38.2859 9.66238 38.4312 9.81292 38.4312 10.0001V45.6081H38.43Z" fill="#9CC69B"/>
<path d="M50.3581 1.25953C50.0081 0.781348 49.4475 0.587799 48.807 0.729482C48.2222 0.85978 47.928 1.3038 47.7512 1.57072L47.3734 2.12354C46.7026 3.10394 46.0318 4.08433 45.3719 5.07105C45.1612 5.38478 44.9445 5.69597 44.7278 6.00464C44.2604 6.67131 43.7773 7.36075 43.3983 8.02868L39.7586 13.3519L37.9423 15.9275L37.7159 16.2691C37.5634 16.4993 37.412 16.7283 37.2546 16.956L33.587 22.2906C32.777 23.4898 31.967 24.6891 31.1533 25.887C30.7925 26.4184 30.428 26.9497 30.0623 27.4797C29.7754 27.8959 29.4884 28.3134 29.1954 28.7422C28.1105 27.438 27.0474 26.092 26.0158 24.7839L25.0847 23.6049C24.4514 22.8029 23.754 22.6081 23.0093 23.0306C22.6364 23.2431 21.8385 23.8845 22.456 25.2849L27.4639 36.6006C27.6117 36.9295 27.7594 37.2571 27.901 37.5885C28.0064 37.8314 28.3248 38.5715 29.2438 38.6448C29.2898 38.6486 29.3346 38.6499 29.3794 38.6499C29.9631 38.6499 30.4329 38.345 30.7767 37.7403L35.7048 29.0597C35.729 29.0167 35.752 28.9737 35.7883 28.9016L35.9348 28.7979L36.5935 27.4911C37.1602 26.4867 37.7256 25.4822 38.3032 24.4816C38.4291 24.264 38.5502 24.0426 38.67 23.8213C38.9364 23.3342 39.1883 22.8725 39.4898 22.4588L39.5794 22.3096C40.054 21.3507 40.6207 20.3475 41.3617 19.1546L47.779 7.81869L47.9062 7.58213C47.9897 7.424 48.0745 7.26461 48.1629 7.10901L50.4017 3.17351C50.9356 2.23233 50.547 1.52139 50.3556 1.25953H50.3581Z" fill="white"/>
<path d="M97.5293 44.4446C97.5293 40.6622 97.5365 36.8798 97.5196 33.0974C97.5172 32.6204 97.6031 32.4421 98.1117 32.4484C101.647 32.4927 105.183 32.4484 108.717 32.5344C111.787 32.6091 114.817 33.0328 117.688 34.2612C119.636 35.0948 121.39 36.2409 122.763 37.9462C125.791 41.7071 125.736 47.1923 122.655 50.9102C120.615 53.3707 117.967 54.7091 115.017 55.5149C112.511 56.1993 109.947 56.365 107.376 56.389C104.277 56.4181 101.179 56.3814 98.0814 56.4105C97.5862 56.4156 97.5147 56.2461 97.5208 55.7919C97.5438 53.8919 97.5305 51.9918 97.5305 50.0905C97.5305 48.2081 97.5305 46.3257 97.5305 44.4446H97.5293ZM102.215 44.3839C102.215 47.3061 102.224 50.2296 102.205 53.1518C102.203 53.5655 102.308 53.6692 102.699 53.6629C104.448 53.6388 106.196 53.6591 107.945 53.5756C110.399 53.4592 112.817 53.1746 115.104 52.1398C118.185 50.747 120.017 48.4472 120.118 44.8279C120.197 42.0171 119.349 39.6515 117.107 37.9766C114.938 36.3573 112.43 35.7438 109.834 35.4516C107.482 35.1872 105.12 35.2428 102.76 35.2188C102.335 35.215 102.202 35.3099 102.205 35.7792C102.228 38.647 102.216 41.5148 102.216 44.3827L102.215 44.3839Z" fill="white"/>
<path d="M65.0962 56.3957C65.6653 55.2218 66.1956 54.1187 66.7332 53.0207C69.5108 47.3559 72.2909 41.6911 75.0709 36.0276C75.5964 34.9561 76.1352 33.8922 76.6462 32.8131C76.7745 32.5424 76.9271 32.4526 77.2104 32.4551C78.8559 32.469 80.5014 32.4703 82.1457 32.4551C82.4545 32.4526 82.607 32.5665 82.7426 32.846C85.2405 37.9643 87.7457 43.0788 90.2533 48.192C91.4714 50.6753 92.6956 53.156 93.9148 55.6393C94.025 55.8632 94.1255 56.0921 94.2672 56.3983C93.129 56.3983 92.0538 56.4021 90.9798 56.397C90.4386 56.3945 89.7835 56.5678 89.3876 56.311C88.9929 56.0555 88.85 55.366 88.6103 54.86C87.8595 53.2749 87.1088 51.6898 86.3739 50.0959C86.2431 49.8113 86.093 49.7 85.7806 49.7C81.6323 49.7113 77.4841 49.7113 73.3358 49.7C73.0464 49.7 72.9096 49.7986 72.7861 50.0655C71.8731 52.0352 70.9347 53.9922 70.0242 55.9631C69.8765 56.2819 69.7167 56.4147 69.3595 56.4084C67.9658 56.3818 66.5722 56.3983 65.095 56.3983L65.0962 56.3957ZM79.5654 35.7897C77.7795 39.557 76.0383 43.2331 74.2705 46.9624C77.7299 46.9624 81.0911 46.9561 84.4511 46.97C84.87 46.9713 84.8228 46.8258 84.6824 46.5323C82.9909 42.9915 81.3066 39.4482 79.5654 35.7897Z" fill="white"/>
<path d="M45.6213 44.4045C45.6213 40.6043 45.6273 36.8029 45.6128 33.0028C45.6116 32.5752 45.7169 32.4475 46.1359 32.4513C49.548 32.4816 52.9625 32.4361 56.3733 32.5145C59.0056 32.5752 61.6029 32.9332 63.9918 34.2286C65.2232 34.8966 66.3166 35.7441 66.9886 37.0446C68.2636 39.5126 67.5879 42.5259 65.331 44.4563C63.5075 46.0161 61.3498 46.7625 59.065 47.1774C56.3564 47.6695 53.6224 47.4873 50.8956 47.5C50.421 47.5025 50.289 47.6202 50.295 48.1237C50.3217 50.6993 50.2987 53.2761 50.3156 55.8517C50.318 56.2616 50.2442 56.4197 49.8083 56.407C48.5841 56.3729 47.3576 56.3754 46.1334 56.4058C45.7169 56.4159 45.6104 56.2907 45.6116 55.8606C45.6273 52.0414 45.6213 48.2236 45.6213 44.4045ZM50.3071 39.9769C50.3071 41.419 50.3156 42.8624 50.3011 44.3045C50.2974 44.6372 50.3519 44.7815 50.7212 44.7789C52.8704 44.7587 55.0221 44.803 57.164 44.5512C58.7889 44.3602 60.3133 43.9023 61.5544 42.7018C63.4045 40.9143 63.1127 37.8833 60.9478 36.5348C59.9077 35.8871 58.7598 35.5923 57.5732 35.4443C55.2921 35.1609 53 35.247 50.7115 35.2204C50.3883 35.2166 50.2962 35.3089 50.2999 35.648C50.3168 37.0901 50.3071 38.5335 50.3071 39.9756V39.9769Z" fill="white"/>
<path d="M102.564 15.1714C101.797 17.0525 101.07 18.8286 100.347 20.6047C99.3908 22.9552 98.4294 25.3018 97.4898 27.6598C97.3542 28.0001 97.1968 28.1253 96.8384 28.1114C95.9811 28.0798 95.1226 28.0886 94.2654 28.1076C93.9796 28.1139 93.8331 28.0355 93.735 27.7357C91.9781 22.3884 90.214 17.0437 88.4365 11.704C88.2973 11.2866 88.3469 11.1664 88.7864 11.1803C89.6788 11.2094 90.5748 11.2296 91.4636 11.174C91.9987 11.1398 92.2082 11.3182 92.362 11.8533C93.4953 15.8014 94.6649 19.7369 95.8249 23.6775C95.8637 23.8103 95.9133 23.9406 95.9981 24.1886C96.2802 23.4776 96.5248 22.8603 96.7693 22.2429C98.1594 18.7376 99.5567 15.236 100.93 11.7243C101.085 11.327 101.251 11.1499 101.682 11.1778C102.362 11.222 103.049 11.2233 103.728 11.1778C104.154 11.1499 104.292 11.3688 104.434 11.7192C106.03 15.6686 107.636 19.6117 109.242 23.556C109.316 23.7369 109.352 23.9393 109.535 24.1063C110.213 21.6762 110.884 19.2714 111.555 16.8653C112.043 15.1145 112.538 13.3663 113.009 11.6104C113.096 11.2853 113.227 11.1752 113.549 11.1816C114.493 11.2031 115.44 11.2043 116.385 11.1816C116.773 11.1714 116.86 11.2511 116.724 11.6635C115.456 15.489 114.206 19.3207 112.952 23.1512C112.46 24.6528 111.951 26.1468 111.483 27.6573C111.368 28.0292 111.202 28.1215 110.854 28.1101C110.031 28.0836 109.207 28.0747 108.386 28.1127C107.98 28.1316 107.816 27.9659 107.665 27.5965C106.071 23.6674 104.458 19.7458 102.849 15.8229C102.774 15.6395 102.69 15.4586 102.564 15.1702V15.1714Z" fill="white"/>
<path d="M44.4147 13.9176C44.9535 11.4369 46.2782 9.49006 48.1501 7.91383C48.3014 7.81263 48.4528 7.71143 48.6041 7.61023C49.2083 7.18518 50.1201 6.61971 51.3067 6.14912C52.1869 5.80124 53.25 5.51282 55.0735 5.28638C58.7217 4.83223 62.3178 5.47233 65.8801 6.89422C66.1791 7.01314 66.2675 7.18012 66.2603 7.50017C66.2409 8.37683 66.2591 9.25476 66.2494 10.1314C66.2482 10.3009 66.345 10.5261 66.1574 10.6324C65.9685 10.7399 65.7953 10.6109 65.6282 10.4983C64.4949 9.73168 63.3107 9.07007 62.0212 8.6349C59.332 7.72661 56.6137 7.47993 53.8772 8.36671C50.5087 9.45717 48.414 12.3009 48.2203 15.9822C48.1137 18.0024 48.3208 19.9594 49.3597 21.7317C50.8466 24.2681 53.1108 25.4926 55.8593 25.795C59.4167 26.1859 62.692 25.2978 65.6682 23.2206C65.8171 23.1169 65.9673 22.9942 66.1477 23.0802C66.3353 23.1688 66.2482 23.3712 66.2494 23.5217C66.2579 24.4174 66.253 25.313 66.2542 26.2074C66.2542 26.43 66.2651 26.6261 65.9963 26.7298C63.5928 27.652 61.1518 28.4085 58.574 28.5262C56.0785 28.64 53.6096 28.4794 51.2304 27.5799C47.6306 26.2188 45.2538 23.7001 44.4026 19.733C44.3917 19.6824 44.3154 19.1523 44.2851 18.9373C44.1568 18.0189 44.089 17.0954 44.1386 16.1681C44.1447 15.8089 44.1701 15.4091 44.2258 14.9765C44.2755 14.5906 44.3421 14.2364 44.4147 13.9189V13.9176Z" fill="white"/>
<path d="M82.7382 26.3211C82.2454 26.6133 81.8301 26.8714 81.4051 27.1117C78.8176 28.5754 76.0824 28.9688 73.2382 28.1946C71.4934 27.7202 70.0876 26.712 69.3623 24.8916C68.5136 22.7601 69.2267 20.3704 71.0853 19.1206C72.5274 18.1503 74.1572 17.743 75.8221 17.4723C77.9495 17.1269 80.0974 17.0168 82.2454 16.9258C82.6147 16.9106 82.7564 16.8511 82.7491 16.421C82.7249 15.0181 82.1825 14.1743 80.8724 13.7265C79.5211 13.2648 78.1141 13.2585 76.7168 13.3394C74.88 13.4457 73.0759 13.7923 71.3105 14.3388C70.9425 14.4526 70.756 14.4046 70.7766 13.9365C70.8056 13.28 70.7996 12.6209 70.7766 11.9643C70.7657 11.6291 70.8589 11.4899 71.1943 11.4254C73.8169 10.9194 76.4565 10.6487 79.1239 10.7904C80.8615 10.8827 82.5711 11.1117 84.121 12.0415C85.5582 12.903 86.3731 14.1984 86.3949 15.9137C86.4446 19.8594 86.4167 23.805 86.43 27.7506C86.43 28.0567 86.3138 28.1111 86.0571 28.1086C85.0775 28.0972 84.0968 28.0934 83.1172 28.1099C82.8182 28.1149 82.7164 28.0175 82.7322 27.7063C82.754 27.2762 82.7382 26.8423 82.7382 26.3236V26.3211ZM82.7382 21.6304C82.7382 20.9549 82.731 20.2793 82.7419 19.6051C82.7467 19.3243 82.6777 19.2306 82.381 19.2585C80.8687 19.4052 79.3516 19.4988 77.8405 19.662C76.5158 19.8037 75.2142 20.0681 74.0567 20.8258C73.5203 21.1762 73.111 21.6241 72.9464 22.2857C72.5432 23.9049 73.3762 25.2623 75.0931 25.6709C77.5947 26.2667 79.894 25.6544 82.0796 24.3464C82.5784 24.0479 82.8206 23.7227 82.7491 23.1079C82.6922 22.6222 82.7382 22.1238 82.737 21.6317L82.7382 21.6304Z" fill="white"/>
<path d="M120.183 19.6013C120.183 16.9701 120.19 14.3375 120.174 11.7063C120.172 11.3141 120.243 11.1623 120.656 11.1788C121.53 11.2142 122.407 11.2167 123.281 11.1788C123.751 11.1585 123.895 11.285 123.893 11.8012C123.872 16.4982 123.881 21.1953 123.881 25.8923C123.881 26.5134 123.872 27.1358 123.884 27.7569C123.889 28.0125 123.817 28.1111 123.559 28.1073C122.543 28.0947 121.527 28.0858 120.512 28.1099C120.093 28.12 120.183 27.8442 120.183 27.6064C120.18 24.9385 120.182 22.2693 120.182 19.6013H120.183Z" fill="white"/>
<path d="M121.969 8.46909C121.409 8.46909 120.85 8.45518 120.292 8.47415C120.005 8.48427 119.887 8.40459 119.896 8.08081C119.916 7.33334 119.913 6.58587 119.897 5.8384C119.891 5.54372 120.002 5.4653 120.266 5.46783C121.437 5.47795 122.607 5.47795 123.778 5.46783C124.042 5.4653 124.152 5.54625 124.146 5.83967C124.13 6.60484 124.132 7.37128 124.146 8.13646C124.151 8.40838 124.044 8.47794 123.803 8.47288C123.192 8.46024 122.58 8.46909 121.969 8.46909Z" fill="white"/>
<path d="M44.427 13.9175C44.3931 13.9672 44.3606 14.0181 44.3267 14.0678C44.3606 14.0181 44.3931 13.9672 44.427 13.9175Z" fill="#62696F"/>
</svg>
