<svg width="206" height="160" viewBox="0 0 206 160" fill="none" xmlns="http://www.w3.org/2000/svg">
<g clip-path="url(#clip0_261_630)">
<path d="M41.3449 160C63.9029 160 82.1898 158.442 82.1898 156.52C82.1898 154.598 63.9029 153.04 41.3449 153.04C18.7869 153.04 0.5 154.598 0.5 156.52C0.5 158.442 18.7869 160 41.3449 160Z" fill="#E6E6E6"/>
<path d="M31.7212 35.5011C38.8294 32.1095 47.6829 34.2584 56.3292 35.7498C56.4096 33.9437 57.3849 31.7456 56.3633 30.4856C55.1222 28.9547 55.2364 27.3463 55.9833 25.7285C57.8931 21.5917 55.1568 17.19 52.394 13.5299C51.7713 12.7068 50.9843 12.0601 50.0969 11.6423C49.2096 11.2245 48.2469 11.0474 47.287 11.1253L42.1691 11.5354C40.9237 11.6352 39.7352 12.1593 38.7626 13.0375C37.79 13.9158 37.0797 15.1063 36.7267 16.4497C35.5046 18.3142 34.8506 20.1735 35.2624 22.023C33.4319 23.4263 33.1244 25.1201 33.9469 27.0297C34.6444 28.232 34.637 29.4023 33.9152 30.5402C32.9673 31.991 32.2413 33.6087 31.7669 35.3269L31.7212 35.5011Z" fill="#2F2E41"/>
<path d="M200.642 138.317H55.7676C54.4793 138.317 53.2437 137.743 52.3327 136.721C51.4217 135.699 50.9099 134.313 50.9099 132.868C103.427 126.021 154.957 126.021 205.5 132.868C205.5 134.313 204.988 135.699 204.077 136.721C203.166 137.743 201.931 138.317 200.642 138.317Z" fill="#2F2E41"/>
<path d="M205.5 133.189L50.9099 132.868L68.8264 99.0503L68.9121 98.89V24.3588C68.912 23.4542 69.0708 22.5584 69.3794 21.7226C69.688 20.8868 70.1403 20.1274 70.7105 19.4877C71.2808 18.848 71.9577 18.3406 72.7028 17.9944C73.4479 17.6483 74.2464 17.4701 75.0528 17.4702H180.5C181.306 17.4701 182.105 17.6483 182.85 17.9944C183.595 18.3406 184.272 18.848 184.842 19.4877C185.412 20.1274 185.865 20.8868 186.173 21.7226C186.482 22.5584 186.641 23.4542 186.641 24.3588V99.4029L205.5 133.189Z" fill="#3F3D56"/>
<path d="M74.9128 22.2783C74.3825 22.279 73.8741 22.5156 73.4991 22.9363C73.1241 23.3569 72.9132 23.9273 72.9126 24.5222V92.4788C72.9132 93.0737 73.1241 93.644 73.4991 94.0647C73.8741 94.4854 74.3825 94.722 74.9128 94.7227H181.497C182.027 94.722 182.536 94.4853 182.911 94.0647C183.286 93.644 183.497 93.0737 183.497 92.4788V24.5222C183.497 23.9273 183.286 23.357 182.911 22.9363C182.536 22.5156 182.027 22.279 181.497 22.2783H74.9128Z" fill="white"/>
<path d="M75.3594 103.698C75.1955 103.699 75.0351 103.751 74.8972 103.851C74.7592 103.95 74.6493 104.091 74.5806 104.258L69.0599 117.721C68.9998 117.868 68.9736 118.029 68.9835 118.19C68.9934 118.35 69.0393 118.506 69.1169 118.642C69.1944 118.778 69.3012 118.889 69.4273 118.967C69.5534 119.044 69.6949 119.085 69.8386 119.085H185.934C186.08 119.085 186.224 119.043 186.352 118.963C186.479 118.883 186.587 118.768 186.664 118.629C186.74 118.489 186.784 118.33 186.791 118.166C186.797 118.002 186.766 117.839 186.701 117.693L180.7 104.23C180.629 104.07 180.52 103.935 180.385 103.841C180.249 103.747 180.093 103.698 179.934 103.698H75.3594Z" fill="#2F2E41"/>
<path d="M127.776 21.1564C128.487 21.1564 129.062 20.5106 129.062 19.714C129.062 18.9173 128.487 18.2715 127.776 18.2715C127.066 18.2715 126.49 18.9173 126.49 19.714C126.49 20.5106 127.066 21.1564 127.776 21.1564Z" fill="white"/>
<path d="M116.365 121.649C116.177 121.649 115.993 121.719 115.844 121.848C115.694 121.976 115.587 122.156 115.537 122.36L114.153 128.13C114.118 128.273 114.114 128.422 114.139 128.567C114.165 128.712 114.22 128.848 114.3 128.965C114.38 129.083 114.483 129.177 114.601 129.243C114.719 129.308 114.849 129.342 114.98 129.342H141.316C141.453 129.342 141.587 129.305 141.709 129.235C141.83 129.165 141.935 129.063 142.014 128.938C142.093 128.813 142.145 128.669 142.164 128.517C142.184 128.365 142.17 128.211 142.126 128.066L140.345 122.296C140.287 122.107 140.178 121.943 140.032 121.827C139.887 121.711 139.713 121.649 139.535 121.649H116.365Z" fill="#2F2E41"/>
<path d="M186.64 97.7681V99.0501H68.8262L68.9148 98.8901V97.7681H186.64Z" fill="#2F2E41"/>
<path d="M183.354 44.877C194.402 44.877 203.357 34.831 203.357 22.4385C203.357 10.0461 194.402 0 183.354 0C172.307 0 163.352 10.0461 163.352 22.4385C163.352 34.831 172.307 44.877 183.354 44.877Z" fill="#C0E7BE"/>
<path d="M191.641 32.2153H175.068C174.765 32.215 174.474 32.0798 174.26 31.8394C174.046 31.599 173.925 31.2731 173.925 30.9331V19.7138C173.925 19.3739 174.046 19.048 174.26 18.8076C174.474 18.5672 174.765 18.432 175.068 18.4316H191.641C191.944 18.432 192.235 18.5672 192.449 18.8076C192.663 19.048 192.784 19.3739 192.784 19.7138V30.9331C192.784 31.2731 192.663 31.599 192.449 31.8394C192.235 32.0798 191.944 32.215 191.641 32.2153ZM175.068 19.7138V30.9331H191.642L191.641 19.7138L175.068 19.7138Z" fill="#3F3D56"/>
<path d="M188.498 19.7136H178.211V14.5848C178.211 10.87 180.374 8.17383 183.354 8.17383C186.335 8.17383 188.498 10.87 188.498 14.5848L188.498 19.7136ZM179.354 18.4314H187.355V14.5848C187.355 11.5651 185.71 9.45604 183.354 9.45604C180.999 9.45604 179.354 11.5651 179.354 14.5848L179.354 18.4314Z" fill="#3F3D56"/>
<path d="M183.354 26.2851C183.986 26.2851 184.497 25.711 184.497 25.0029C184.497 24.2948 183.986 23.7207 183.354 23.7207C182.723 23.7207 182.211 24.2948 182.211 25.0029C182.211 25.711 182.723 26.2851 183.354 26.2851Z" fill="#3F3D56"/>
<path d="M169.391 71.6726H87.0188C86.6144 71.672 86.2267 71.4916 85.9407 71.1708C85.6547 70.85 85.4939 70.4151 85.4934 69.9614V47.0398C85.4939 46.5861 85.6547 46.1512 85.9407 45.8304C86.2267 45.5096 86.6144 45.3291 87.0188 45.3286H169.391C169.795 45.3291 170.183 45.5096 170.469 45.8304C170.755 46.1512 170.916 46.5861 170.916 47.0398V69.9614C170.916 70.4151 170.755 70.85 170.469 71.1708C170.183 71.4916 169.795 71.672 169.391 71.6726ZM87.0188 46.0131C86.7762 46.0134 86.5435 46.1217 86.3719 46.3141C86.2003 46.5066 86.1038 46.7676 86.1036 47.0398V69.9614C86.1038 70.2336 86.2003 70.4946 86.3719 70.6871C86.5435 70.8795 86.7762 70.9878 87.0188 70.9881H169.391C169.634 70.9878 169.866 70.8795 170.038 70.6871C170.21 70.4946 170.306 70.2336 170.306 69.9614V47.0398C170.306 46.7676 170.21 46.5066 170.038 46.3141C169.866 46.1216 169.634 46.0134 169.391 46.0131L87.0188 46.0131Z" fill="#E6E6E6"/>
<path d="M99.8177 64.5913C103.249 64.5913 106.031 61.4706 106.031 57.6209C106.031 53.7712 103.249 50.6504 99.8177 50.6504C96.386 50.6504 93.604 53.7712 93.604 57.6209C93.604 61.4706 96.386 64.5913 99.8177 64.5913Z" fill="#FFB3FF"/>
<path d="M114.169 52.9741C114.032 52.9739 113.898 53.0037 113.772 53.062C113.646 53.1203 113.532 53.2058 113.435 53.3137C113.339 53.4216 113.262 53.5498 113.21 53.6909C113.158 53.8319 113.131 53.9832 113.131 54.1359C113.131 54.2886 113.158 54.4398 113.21 54.5809C113.262 54.7219 113.339 54.8501 113.435 54.958C113.532 55.0659 113.646 55.1514 113.772 55.2097C113.898 55.268 114.032 55.2979 114.169 55.2976H162.991C163.265 55.2976 163.529 55.1752 163.723 54.9573C163.917 54.7395 164.026 54.444 164.026 54.1359C164.026 53.8278 163.917 53.5323 163.723 53.3144C163.529 53.0965 163.265 52.9741 162.991 52.9741H114.169Z" fill="#FFB3FF"/>
<path d="M114.168 59.9443C113.894 59.9443 113.63 60.0667 113.436 60.2846C113.242 60.5025 113.133 60.798 113.133 61.1061C113.133 61.4142 113.242 61.7097 113.436 61.9276C113.63 62.1454 113.894 62.2678 114.168 62.2678H135.177C135.451 62.2678 135.715 62.1454 135.909 61.9276C136.103 61.7097 136.212 61.4142 136.212 61.1061C136.212 60.798 136.103 60.5025 135.909 60.2846C135.715 60.0667 135.451 59.9443 135.177 59.9443H114.168Z" fill="#FFB3FF"/>
<path d="M68.6235 60.4146L53.3964 69.496L53.2036 61.9281C58.1736 60.9974 62.9021 59.3769 67.2743 56.7388L68.8668 52.325C69.0404 51.8441 69.3224 51.422 69.6853 51.1003C70.0481 50.7785 70.4793 50.5682 70.9366 50.4899C71.3938 50.4115 71.8613 50.4679 72.2932 50.6535C72.7251 50.8391 73.1066 51.1475 73.4002 51.5484C73.8297 52.135 74.0445 52.8829 74.0009 53.6404C73.9572 54.398 73.6586 55.1086 73.1654 55.6284L68.6235 60.4146Z" fill="#FFB8B8"/>
<path d="M31.4176 112.847C31.3065 112.39 31.283 111.912 31.3484 111.444C31.4139 110.976 31.5669 110.529 31.7975 110.132L35.1424 104.373C35.9336 103.011 37.1476 102.027 38.5488 101.612C39.9501 101.198 41.4387 101.382 42.7259 102.129C41.3201 104.813 41.5161 107.168 43.2114 109.214C40.5796 110.656 38.1472 112.516 35.9896 114.737C35.5957 115.039 35.1433 115.23 34.6702 115.295C34.197 115.361 33.7168 115.298 33.2695 115.113C32.8222 114.928 32.4208 114.626 32.0987 114.232C31.7765 113.838 31.543 113.363 31.4176 112.847Z" fill="#2F2E41"/>
<path d="M69.317 105.318C68.8108 106.264 68.0963 107.048 67.2421 107.596C66.3878 108.143 65.4224 108.435 64.4387 108.443L42.2169 108.632L41.2532 102.362L51.0834 99.1185L42.7952 91.9831L51.8543 80.0908L68.3086 97.2946C69.2703 98.3002 69.8952 99.6456 70.0787 101.106C70.2623 102.566 69.9934 104.053 69.317 105.318Z" fill="#2F2E41"/>
<path d="M38.7476 148.201H33.5434C28.8708 112.271 24.1145 76.2411 38.1694 62.793L54.7458 65.8201L52.6255 81.6044L43.3736 93.4967L38.7476 148.201Z" fill="#2F2E41"/>
<path d="M43.3222 156.34C42.9148 156.465 42.4885 156.491 42.0713 156.418C41.6541 156.344 41.2555 156.173 40.9017 155.914L35.251 155.062C34.0368 154.175 33.1597 152.813 32.7899 151.241C32.4202 149.669 32.5841 147.999 33.2499 146.555C35.6429 148.132 37.7421 147.912 39.5662 146.01C40.8552 148.93 42.9788 148.752 45.007 151.211C45.2756 151.653 45.4461 152.161 45.5045 152.691C45.5628 153.222 45.5072 153.761 45.3424 154.263C45.1775 154.764 44.9082 155.215 44.5568 155.576C44.2054 155.938 43.7821 156.199 43.3222 156.34Z" fill="#2F2E41"/>
<path d="M51.0835 38.792L41.446 36.1973C43.0467 32.5219 43.1785 28.4323 42.4098 24.0888L48.9632 23.8726C49.1686 29.2739 49.7898 34.32 51.0835 38.792Z" fill="#FFB8B8"/>
<path d="M53.7322 72.3301C46.7166 77.693 41.7595 72.5136 37.9766 64.5224C38.5023 59.6325 37.6512 53.7808 36.0748 47.4224C35.3738 44.6179 35.6355 41.6205 36.8084 39.0219C37.9812 36.4233 39.9799 34.4124 42.4098 33.3862L50.698 37.2783C57.7357 43.7134 59.1209 50.6839 56.4805 58.0357L53.7322 72.3301Z" fill="#FFB3FF"/>
<path d="M33.5433 44.1977L25.8334 48.7384L39.5186 57.8198L41.4228 63.0889C41.5499 63.4405 41.6118 63.8176 41.6047 64.197C41.5977 64.5764 41.5218 64.9502 41.3818 65.2956C41.2418 65.6411 41.0405 65.9509 40.7902 66.2062C40.54 66.4616 40.246 66.657 39.9262 66.7808C39.5626 66.9214 39.175 66.9657 38.7937 66.9102C38.4123 66.8547 38.0476 66.701 37.7281 66.461C37.4085 66.221 37.1429 65.9013 36.9519 65.5269C36.7609 65.1525 36.6497 64.7335 36.6272 64.3029L36.4346 60.6307L19.0409 54.1917C18.4549 53.9747 17.9205 53.611 17.4784 53.1281C17.0362 52.6452 16.6977 52.0558 16.4887 51.4044C16.184 50.455 16.1685 49.419 16.4446 48.4586C16.7207 47.4982 17.2728 46.6676 18.0146 46.0967L32.0014 35.3325L33.5433 44.1977Z" fill="#FFB8B8"/>
<path d="M41.2531 45.0626C38.0376 43.4818 35.1137 45.199 31.423 46.5762L30.8447 35.1163C34.5094 32.9252 38.0035 32.3344 41.2532 34.0352L41.2531 45.0626Z" fill="#FFB3FF"/>
<path d="M45.0997 29.5492C48.4979 29.5492 51.2528 26.4588 51.2528 22.6467C51.2528 18.8345 48.4979 15.7441 45.0997 15.7441C41.7014 15.7441 38.9465 18.8345 38.9465 22.6467C38.9465 26.4588 41.7014 29.5492 45.0997 29.5492Z" fill="#FFB8B8"/>
<path d="M52.4609 21.7757C46.3688 22.445 41.7266 21.3274 38.7598 18.1449V15.582H51.9439L52.4609 21.7757Z" fill="#2F2E41"/>
</g>
<defs>
<clipPath id="clip0_261_630">
<rect width="205" height="160" fill="white" transform="translate(0.5)"/>
</clipPath>
</defs>
</svg>
