<svg width="177" height="180" viewBox="0 0 177 180" fill="none" xmlns="http://www.w3.org/2000/svg">
<g clip-path="url(#clip0_261_711)">
<path d="M176.497 167.676C176.47 171.643 176.242 175.603 175.816 179.532C175.801 179.67 175.785 179.808 175.77 179.946L146.699 179.739C146.614 179.602 146.53 179.463 146.449 179.323C146.177 178.858 145.923 178.381 145.689 177.886C144.567 175.506 144.053 172.718 144.568 170.795L144.577 170.766C144.688 170.344 144.864 169.955 145.093 169.621C146.267 167.932 148.64 168.214 150.794 169.577C148.862 166.874 147.324 163.464 147.207 160.42C147.092 157.451 148.307 155.33 149.625 153.527C149.668 153.468 149.712 153.41 149.755 153.352C149.776 153.322 149.798 153.294 149.819 153.264C150.847 151.891 152.046 150.536 153.781 150.7C155.683 150.88 157.793 152.917 159.272 155.29C160.751 157.662 161.734 160.356 162.73 162.985C163.728 165.613 164.807 168.308 166.408 170.554C164.24 167.049 162.492 163.062 161.846 159.184C161.2 155.305 161.768 151.581 163.701 149.754C164.287 149.217 164.966 148.867 165.68 148.734C165.764 148.716 165.848 148.702 165.934 148.689C167.723 148.429 169.859 149.219 171.676 151.109C173.677 153.19 175.065 156.275 175.755 159.203C176.445 162.131 176.519 164.95 176.497 167.676Z" fill="#C0E7BE"/>
<path d="M157.477 179.816L156.921 179.812C156.745 179.671 156.567 179.531 156.389 179.394C156.279 179.305 156.167 179.219 156.056 179.132C154.212 177.693 152.357 176.312 150.49 174.991C148.624 173.668 146.75 172.406 144.866 171.205C144.816 171.177 144.775 171.128 144.751 171.066C144.726 171.004 144.72 170.933 144.732 170.865C144.734 170.856 144.737 170.847 144.741 170.84C144.767 170.777 144.826 170.751 144.912 170.804C145.143 170.953 145.375 171.101 145.606 171.252C147.496 172.473 149.377 173.756 151.25 175.099C153.121 176.442 154.982 177.844 156.832 179.305C156.871 179.336 156.91 179.368 156.949 179.398C157.126 179.537 157.301 179.676 157.477 179.816Z" fill="white"/>
<path d="M164.645 179.867L164.301 179.865C164.223 179.726 164.147 179.587 164.07 179.449C162.248 176.184 160.427 172.92 158.606 169.656C155.624 164.312 152.644 158.968 149.664 153.624C149.646 153.595 149.633 153.563 149.625 153.527C149.6 153.409 149.668 153.34 149.755 153.352C149.791 153.359 149.827 153.375 149.858 153.401C149.889 153.426 149.916 153.46 149.936 153.5C151.608 156.497 153.279 159.492 154.95 162.487C157.916 167.804 160.882 173.121 163.847 178.437C164.036 178.775 164.225 179.114 164.413 179.451C164.491 179.59 164.568 179.728 164.645 179.867Z" fill="white"/>
<path d="M172.302 177.316C172.285 178.056 172.246 178.785 172.196 179.507C172.187 179.645 172.177 179.783 172.167 179.921L171.807 179.918C171.818 179.78 171.829 179.642 171.838 179.504C171.915 178.461 171.969 177.407 171.976 176.324C171.986 173.321 171.757 170.324 171.292 167.381C170.799 164.211 170.091 161.102 169.176 158.089C168.215 154.912 167.057 151.838 165.712 148.897C165.687 148.849 165.675 148.791 165.68 148.734C165.695 148.602 165.832 148.563 165.934 148.689C165.955 148.713 165.972 148.742 165.986 148.772C166.152 149.138 166.316 149.505 166.476 149.872C167.771 152.83 168.88 155.914 169.791 159.097C170.659 162.12 171.319 165.233 171.764 168.402C172.181 171.342 172.362 174.329 172.302 177.316Z" fill="white"/>
<path d="M119.653 173.427C119.639 175.5 119.52 177.57 119.297 179.623C119.29 179.695 119.281 179.767 119.273 179.839L104.082 179.731C104.037 179.659 103.993 179.587 103.951 179.514C103.809 179.271 103.676 179.021 103.554 178.763C102.967 177.519 102.699 176.062 102.968 175.057L102.973 175.042C103.031 174.822 103.122 174.618 103.242 174.444C103.856 173.561 105.096 173.708 106.222 174.421C105.212 173.008 104.408 171.226 104.347 169.635C104.287 168.084 104.922 166.975 105.611 166.033C105.633 166.002 105.656 165.972 105.678 165.942C105.689 165.926 105.701 165.911 105.712 165.896C106.249 165.178 106.876 164.47 107.782 164.556C108.777 164.65 109.879 165.714 110.652 166.955C111.425 168.194 111.938 169.602 112.459 170.976C112.98 172.349 113.544 173.757 114.381 174.931C113.248 173.1 112.334 171.016 111.997 168.989C111.66 166.963 111.957 165.016 112.966 164.062C113.273 163.781 113.628 163.598 114.001 163.528C114.044 163.519 114.089 163.512 114.134 163.505C115.068 163.369 116.184 163.782 117.134 164.77C118.151 165.886 118.891 167.355 119.266 168.999C119.626 170.53 119.665 172.003 119.653 173.427Z" fill="#C0E7BE"/>
<path d="M109.714 179.771L109.423 179.769C109.331 179.695 109.238 179.623 109.145 179.551C109.088 179.504 109.029 179.459 108.971 179.414C108.008 178.662 107.038 177.94 106.062 177.25C105.088 176.558 104.108 175.899 103.123 175.271C103.097 175.257 103.076 175.231 103.063 175.199C103.05 175.166 103.047 175.129 103.053 175.094C103.055 175.089 103.056 175.085 103.058 175.081C103.072 175.048 103.103 175.034 103.148 175.062C103.268 175.139 103.39 175.217 103.51 175.296C104.498 175.934 105.481 176.604 106.459 177.306C107.437 178.008 108.41 178.741 109.377 179.504C109.397 179.52 109.418 179.537 109.438 179.553C109.53 179.626 109.622 179.698 109.714 179.771Z" fill="white"/>
<path d="M113.46 179.798L113.28 179.797C113.239 179.724 113.2 179.652 113.159 179.579C112.207 177.873 111.256 176.168 110.304 174.462C108.746 171.669 107.188 168.877 105.631 166.084C105.622 166.069 105.615 166.052 105.611 166.033C105.597 165.972 105.633 165.935 105.679 165.942C105.698 165.945 105.716 165.954 105.732 165.967C105.749 165.98 105.763 165.998 105.773 166.019C106.647 167.585 107.52 169.15 108.394 170.715C109.944 173.494 111.493 176.272 113.043 179.051C113.142 179.227 113.24 179.404 113.339 179.58C113.379 179.653 113.42 179.725 113.46 179.798Z" fill="white"/>
<path d="M117.461 178.465C117.452 178.852 117.432 179.232 117.406 179.609C117.401 179.682 117.396 179.754 117.391 179.826L117.202 179.825C117.208 179.752 117.214 179.68 117.219 179.608C117.259 179.063 117.287 178.512 117.291 177.946C117.296 176.377 117.176 174.811 116.934 173.273C116.676 171.616 116.306 169.992 115.827 168.417C115.325 166.757 114.72 165.151 114.017 163.614C114.004 163.588 113.998 163.558 114.001 163.528C114.009 163.46 114.08 163.439 114.134 163.505C114.144 163.518 114.153 163.532 114.161 163.548C114.248 163.74 114.333 163.931 114.417 164.123C115.093 165.669 115.673 167.281 116.149 168.944C116.603 170.523 116.948 172.151 117.18 173.807C117.398 175.343 117.492 176.904 117.461 178.465Z" fill="#C0E7BE"/>
<path d="M31.9396 97.886H3.46911C2.68193 97.8848 1.92724 97.4847 1.37062 96.7734C0.814001 96.0621 0.500897 95.0977 0.5 94.0917V50.3895C0.500897 49.3835 0.814001 48.4191 1.37062 47.7078C1.92724 46.9965 2.68193 46.5964 3.46911 46.5952H31.9396C32.7267 46.5964 33.4814 46.9965 34.038 47.7078C34.5947 48.4191 34.9078 49.3835 34.9087 50.3895V94.0917C34.9078 95.0977 34.5947 96.0621 34.038 96.7734C33.4814 97.4847 32.7267 97.8848 31.9396 97.886ZM3.46911 47.0794C2.78238 47.0804 2.124 47.4295 1.63841 48.05C1.15282 48.6705 0.879671 49.5119 0.878897 50.3895V94.0917C0.879671 94.9693 1.15282 95.8107 1.63841 96.4312C2.124 97.0517 2.78238 97.4008 3.46911 97.4018H31.9396C32.6263 97.4008 33.2847 97.0517 33.7703 96.4312C34.2559 95.8107 34.529 94.9693 34.5298 94.0917V50.3895C34.529 49.5119 34.2559 48.6705 33.7703 48.05C33.2847 47.4295 32.6263 47.0804 31.9396 47.0794H3.46911Z" fill="#3F3D56"/>
<path d="M24.3594 50.1877H11.049C10.4212 50.1868 9.81925 49.8676 9.37529 49.3003C8.93134 48.733 8.68161 47.9638 8.68091 47.1614V46.5133C8.68161 45.711 8.93134 44.9418 9.37529 44.3744C9.81925 43.8071 10.4212 43.488 11.049 43.4871H24.3594C24.9873 43.488 25.5892 43.8071 26.0332 44.3744C26.4771 44.9418 26.7268 45.711 26.7276 46.5133V47.1614C26.7268 47.9638 26.4771 48.733 26.0332 49.3003C25.5892 49.8676 24.9873 50.1868 24.3594 50.1877Z" fill="#C0E7BE"/>
<path d="M30.7603 73.9628H4.64838C4.47126 73.9631 4.29584 73.9188 4.13215 73.8323C3.96845 73.7459 3.81969 73.6191 3.69437 73.4591C3.56906 73.2992 3.46964 73.1092 3.40181 72.9001C3.33398 72.691 3.29907 72.4669 3.29907 72.2406C3.29907 72.0142 3.33398 71.7901 3.40181 71.581C3.46964 71.3719 3.56906 71.182 3.69437 71.022C3.81969 70.8621 3.96845 70.7353 4.13215 70.6488C4.29584 70.5624 4.47126 70.518 4.64838 70.5183H30.7603C31.1175 70.5189 31.4599 70.7005 31.7123 71.0235C31.9647 71.3464 32.1064 71.7842 32.1064 72.2406C32.1064 72.697 31.9647 73.1347 31.7123 73.4577C31.4599 73.7806 31.1175 73.9623 30.7603 73.9628Z" fill="#FFB3FF"/>
<path d="M30.7603 81.2824H4.64838C4.47126 81.2827 4.29584 81.2383 4.13215 81.1519C3.96845 81.0655 3.81969 80.9386 3.69437 80.7787C3.56906 80.6187 3.46964 80.4288 3.40181 80.2197C3.33398 80.0106 3.29907 79.7865 3.29907 79.5602C3.29907 79.3338 3.33398 79.1097 3.40181 78.9006C3.46964 78.6915 3.56906 78.5016 3.69437 78.3416C3.81969 78.1817 3.96845 78.0548 4.13215 77.9684C4.29584 77.882 4.47126 77.8376 4.64838 77.8379H30.7603C31.1175 77.8384 31.4599 78.0201 31.7123 78.3431C31.9647 78.666 32.1064 79.1037 32.1064 79.5602C32.1064 80.0166 31.9647 80.4543 31.7123 80.7773C31.4599 81.1002 31.1175 81.2819 30.7603 81.2824Z" fill="#FFB3FF"/>
<path d="M23.769 66.6433H11.6396C11.4625 66.6435 11.2871 66.5992 11.1234 66.5127C10.9597 66.4263 10.8109 66.2995 10.6856 66.1395C10.5603 65.9796 10.4609 65.7896 10.393 65.5805C10.3252 65.3715 10.2903 65.1473 10.2903 64.921C10.2903 64.6946 10.3252 64.4705 10.393 64.2614C10.4609 64.0524 10.5603 63.8624 10.6856 63.7024C10.8109 63.5425 10.9597 63.4157 11.1234 63.3292C11.2871 63.2428 11.4625 63.1985 11.6396 63.1987H23.769C23.9461 63.1985 24.1216 63.2428 24.2853 63.3292C24.449 63.4157 24.5977 63.5425 24.723 63.7024C24.8484 63.8624 24.9478 64.0524 25.0156 64.2614C25.0834 64.4705 25.1183 64.6946 25.1183 64.921C25.1183 65.1473 25.0834 65.3715 25.0156 65.5805C24.9478 65.7896 24.8484 65.9796 24.723 66.1395C24.5977 66.2995 24.449 66.4263 24.2853 66.5127C24.1216 66.5992 23.9461 66.6435 23.769 66.6433Z" fill="#FFB3FF"/>
<path d="M92.4183 54.399H63.9479C63.1607 54.3979 62.406 53.9978 61.8494 53.2865C61.2928 52.5752 60.9797 51.6107 60.9788 50.6048V6.90241C60.9797 5.89646 61.2928 4.93204 61.8494 4.22073C62.406 3.50941 63.1607 3.1093 63.9479 3.10815H92.4183C93.2055 3.10929 93.9602 3.50941 94.5168 4.22073C95.0734 4.93204 95.3865 5.89646 95.3874 6.90241V50.6048C95.3865 51.6107 95.0734 52.5752 94.5168 53.2865C93.9602 53.9978 93.2055 54.3979 92.4183 54.399ZM63.9479 3.59235C63.2611 3.59333 62.6028 3.94239 62.1172 4.56293C61.6316 5.18347 61.3584 6.02483 61.3577 6.90241V50.6048C61.3584 51.4824 61.6316 52.3237 62.1172 52.9443C62.6028 53.5648 63.2611 53.9139 63.9479 53.9148H92.4183C93.105 53.9139 93.7634 53.5648 94.249 52.9443C94.7346 52.3237 95.0077 51.4824 95.0085 50.6048V6.90241C95.0077 6.02483 94.7346 5.18347 94.249 4.56293C93.7634 3.94239 93.105 3.59333 92.4183 3.59235H63.9479Z" fill="#3F3D56"/>
<path d="M84.8382 6.70061H71.5278C70.8999 6.69971 70.298 6.38058 69.854 5.81325C69.4101 5.24592 69.1604 4.47671 69.1597 3.67439V3.02623C69.1604 2.2239 69.4101 1.45469 69.854 0.887358C70.298 0.320026 70.8999 0.000902219 71.5278 0H84.8382C85.466 0.000902219 86.068 0.320026 86.5119 0.887358C86.9559 1.45469 87.2056 2.2239 87.2063 3.02623V3.67439C87.2056 4.47671 86.9559 5.24592 86.5119 5.81325C86.068 6.38058 85.466 6.69971 84.8382 6.70061Z" fill="#C0E7BE"/>
<path d="M91.2389 30.4758H65.1269C64.9498 30.476 64.7744 30.4317 64.6107 30.3453C64.447 30.2588 64.2982 30.132 64.1729 29.9721C64.0476 29.8121 63.9482 29.6221 63.8803 29.4131C63.8125 29.204 63.7776 28.9799 63.7776 28.7535C63.7776 28.5272 63.8125 28.303 63.8803 28.094C63.9482 27.8849 64.0476 27.6949 64.1729 27.535C64.2982 27.375 64.447 27.2482 64.6107 27.1618C64.7744 27.0753 64.9498 27.031 65.1269 27.0313H91.2389C91.416 27.031 91.5914 27.0753 91.7551 27.1618C91.9188 27.2482 92.0676 27.375 92.1929 27.535C92.3182 27.6949 92.4176 27.8849 92.4854 28.094C92.5533 28.303 92.5882 28.5272 92.5882 28.7535C92.5882 28.9799 92.5533 29.204 92.4854 29.4131C92.4176 29.6221 92.3182 29.8121 92.1929 29.9721C92.0676 30.132 91.9188 30.2588 91.7551 30.3453C91.5914 30.4317 91.416 30.476 91.2389 30.4758Z" fill="#FFB3FF"/>
<path d="M91.239 37.7953H65.127C64.95 37.7953 64.7748 37.7508 64.6113 37.6642C64.4477 37.5777 64.2992 37.4508 64.174 37.2909C64.0489 37.131 63.9496 36.9411 63.8819 36.7322C63.8142 36.5232 63.7793 36.2993 63.7793 36.0731C63.7793 35.8469 63.8142 35.623 63.8819 35.414C63.9496 35.2051 64.0489 35.0152 64.174 34.8553C64.2992 34.6953 64.4477 34.5685 64.6113 34.4819C64.7748 34.3954 64.95 34.3508 65.127 34.3508H91.239C91.4159 34.3508 91.5912 34.3954 91.7547 34.4819C91.9182 34.5685 92.0668 34.6953 92.1919 34.8553C92.3171 35.0152 92.4164 35.2051 92.4841 35.414C92.5518 35.623 92.5867 35.8469 92.5867 36.0731C92.5867 36.2993 92.5518 36.5232 92.4841 36.7322C92.4164 36.9411 92.3171 37.131 92.1919 37.2909C92.0668 37.4508 91.9182 37.5777 91.7547 37.6642C91.5912 37.7508 91.4159 37.7953 91.239 37.7953Z" fill="#FFB3FF"/>
<path d="M84.2478 23.1562H72.1184C71.9412 23.1565 71.7658 23.1121 71.6021 23.0257C71.4384 22.9392 71.2897 22.8124 71.1643 22.6525C71.039 22.4925 70.9396 22.3026 70.8718 22.0935C70.804 21.8844 70.769 21.6603 70.769 21.4339C70.769 21.2076 70.804 20.9835 70.8718 20.7744C70.9396 20.5653 71.039 20.3753 71.1643 20.2154C71.2897 20.0554 71.4384 19.9286 71.6021 19.8422C71.7658 19.7557 71.9412 19.7114 72.1184 19.7117H84.2478C84.6052 19.7117 84.948 19.8931 85.2008 20.2161C85.4535 20.5391 85.5955 20.9772 85.5955 21.4339C85.5955 21.8907 85.4535 22.3288 85.2008 22.6517C84.948 22.9747 84.6052 23.1562 84.2478 23.1562Z" fill="#FFB3FF"/>
<path d="M150.503 128.032L125.504 145.442C124.812 145.923 124 146.033 123.245 145.749C122.49 145.465 121.854 144.809 121.476 143.926L105.111 105.553C104.735 104.669 104.649 103.631 104.872 102.666C105.094 101.701 105.607 100.888 106.298 100.406L131.297 82.9953C131.988 82.5149 132.801 82.4047 133.556 82.6889C134.311 82.9731 134.947 83.6285 135.325 84.5112L151.689 122.885C152.065 123.769 152.152 124.807 151.929 125.772C151.707 126.737 151.194 127.55 150.503 128.032ZM106.479 100.831C105.876 101.252 105.429 101.961 105.235 102.802C105.041 103.644 105.116 104.55 105.444 105.321L121.809 143.695C122.138 144.465 122.693 145.037 123.352 145.285C124.011 145.533 124.719 145.436 125.323 145.017L150.322 127.607C150.924 127.186 151.372 126.477 151.566 125.635C151.76 124.793 151.685 123.888 151.357 123.117L134.992 84.7429C134.663 83.9728 134.108 83.4011 133.449 83.1532C132.79 82.9052 132.081 83.0013 131.478 83.4204L106.479 100.831Z" fill="#3F3D56"/>
<path d="M125.986 90.7851L114.299 98.9247C113.747 99.3078 113.099 99.3957 112.497 99.169C111.894 98.9423 111.387 98.4196 111.086 97.7156L110.843 97.1464C110.543 96.4415 110.475 95.6134 110.652 94.8437C110.829 94.0741 111.238 93.4258 111.789 93.0411L123.477 84.9015C124.028 84.5183 124.677 84.4304 125.279 84.6571C125.881 84.8838 126.388 85.4065 126.689 86.1106L126.932 86.6797C127.232 87.3846 127.301 88.2128 127.123 88.9824C126.946 89.752 126.537 90.4004 125.986 90.7851Z" fill="#C0E7BE"/>
<path d="M140.509 107.747L117.581 123.715C117.426 123.823 117.255 123.891 117.079 123.915C116.903 123.939 116.725 123.919 116.556 123.855C116.386 123.791 116.228 123.685 116.09 123.543C115.952 123.401 115.838 123.226 115.753 123.027C115.668 122.829 115.615 122.611 115.596 122.386C115.577 122.161 115.594 121.933 115.644 121.716C115.694 121.499 115.776 121.297 115.888 121.121C115.999 120.945 116.136 120.799 116.291 120.691L139.22 104.723C139.533 104.504 139.902 104.454 140.245 104.583C140.588 104.712 140.877 105.01 141.048 105.411C141.219 105.812 141.258 106.283 141.157 106.722C141.056 107.16 140.823 107.529 140.509 107.747Z" fill="#FFB3FF"/>
<path d="M143.25 114.174L120.322 130.142C120.167 130.25 119.996 130.319 119.82 130.342C119.644 130.366 119.466 130.346 119.297 130.282C119.127 130.218 118.969 130.112 118.831 129.97C118.693 129.828 118.579 129.653 118.494 129.454C118.409 129.256 118.356 129.038 118.337 128.813C118.318 128.588 118.334 128.36 118.384 128.143C118.434 127.926 118.517 127.724 118.629 127.548C118.74 127.372 118.877 127.226 119.032 127.118L141.961 111.15C142.116 111.041 142.286 110.973 142.462 110.949C142.638 110.925 142.816 110.946 142.986 111.01C143.156 111.074 143.314 111.18 143.452 111.322C143.59 111.464 143.704 111.639 143.789 111.838C143.874 112.036 143.927 112.254 143.946 112.479C143.964 112.704 143.948 112.932 143.898 113.149C143.848 113.365 143.765 113.568 143.654 113.744C143.543 113.92 143.406 114.066 143.25 114.174Z" fill="#FFB3FF"/>
<path d="M131.63 105.595L120.979 113.013C120.824 113.121 120.653 113.189 120.477 113.213C120.301 113.237 120.123 113.216 119.954 113.153C119.784 113.089 119.625 112.983 119.488 112.841C119.35 112.699 119.236 112.523 119.151 112.325C119.066 112.126 119.013 111.908 118.994 111.683C118.975 111.458 118.991 111.231 119.041 111.014C119.091 110.797 119.174 110.595 119.286 110.419C119.397 110.243 119.534 110.096 119.689 109.988L130.34 102.571C130.495 102.463 130.666 102.395 130.842 102.371C131.018 102.347 131.196 102.367 131.366 102.431C131.535 102.495 131.694 102.601 131.831 102.743C131.969 102.885 132.083 103.06 132.168 103.259C132.253 103.458 132.306 103.676 132.325 103.9C132.344 104.125 132.328 104.353 132.278 104.57C132.228 104.787 132.145 104.989 132.033 105.165C131.922 105.341 131.785 105.487 131.63 105.595Z" fill="#FFB3FF"/>
<path d="M53.3956 39.5768L40.0796 49.4568L40.2698 49.8755L53.5858 39.9955L53.3956 39.5768Z" fill="#3F3D56"/>
<path d="M53.9613 42.2286L55.8421 38.0413L52.064 38.0526L53.9613 42.2286Z" fill="#3F3D56"/>
<path d="M92.8055 104.572C92.7754 104.572 92.7458 104.563 92.719 104.546L41.5398 70.949C41.4952 70.9195 41.4616 70.8687 41.4463 70.8076C41.431 70.7466 41.4353 70.6802 41.4582 70.6232C41.4811 70.5662 41.5208 70.5231 41.5686 70.5034C41.6163 70.4837 41.6682 70.489 41.7129 70.5182L92.8922 104.115C92.93 104.14 92.9602 104.18 92.9779 104.229C92.9956 104.279 92.9997 104.334 92.9897 104.387C92.9797 104.44 92.9561 104.487 92.9227 104.52C92.8893 104.554 92.848 104.572 92.8055 104.572Z" fill="#3F3D56"/>
<path d="M91.4504 106.155L95.2241 105.918L93.1771 101.86L91.4504 106.155Z" fill="#3F3D56"/>
<path d="M145.612 132.351C145.346 132.181 145.112 131.939 144.927 131.642C144.741 131.344 144.609 130.999 144.54 130.629C144.471 130.259 144.466 129.874 144.525 129.502C144.585 129.129 144.707 128.778 144.885 128.473L143.363 109.458H146.652L147.861 128.025C148.243 128.439 148.492 129.019 148.562 129.652C148.632 130.286 148.517 130.931 148.24 131.464C147.963 131.997 147.543 132.382 147.058 132.546C146.574 132.709 146.059 132.64 145.612 132.351V132.351Z" fill="#A0616A"/>
<path d="M142.593 98.9646C145.163 98.9646 147.246 96.3024 147.246 93.0184C147.246 89.7345 145.163 87.0723 142.593 87.0723C140.023 87.0723 137.94 89.7345 137.94 93.0184C137.94 96.3024 140.023 98.9646 142.593 98.9646Z" fill="#A0616A"/>
<path d="M141.534 120.506L134.589 118.568C134.407 118.517 134.243 118.391 134.122 118.209C134.001 118.026 133.93 117.799 133.92 117.56C133.84 115.58 133.782 110.457 134.976 105.675C135.206 104.758 135.578 103.909 136.07 103.179C136.562 102.449 137.163 101.853 137.838 101.425C138.513 100.997 139.249 100.747 140.001 100.689C140.753 100.631 141.507 100.766 142.218 101.087C142.968 101.423 143.653 101.959 144.23 102.658C144.806 103.357 145.261 104.204 145.563 105.144C145.865 106.083 146.009 107.094 145.984 108.109C145.96 109.124 145.767 110.121 145.42 111.035C143.88 115.076 142.91 118.002 142.537 119.733C142.479 120.002 142.343 120.231 142.156 120.375C141.969 120.519 141.747 120.566 141.534 120.506Z" fill="#FFB3FF"/>
<path d="M134.992 176.996L132.669 176.996L131.564 165.547L134.992 165.548L134.992 176.996Z" fill="#A0616A"/>
<path d="M131.01 176.148H135.49V179.752H128.19C128.19 178.796 128.487 177.879 129.016 177.203C129.545 176.527 130.262 176.148 131.01 176.148Z" fill="#2F2E41"/>
<path d="M158.216 173.149L156.181 174.579L150.896 165.228L153.9 163.117L158.216 173.149Z" fill="#A0616A"/>
<path d="M154.408 174.857L158.333 172.1L159.692 175.258L153.295 179.752C152.935 178.914 152.849 177.928 153.058 177.01C153.267 176.092 153.752 175.318 154.408 174.857Z" fill="#2F2E41"/>
<path d="M135.034 170.638L131.459 170.287C131.259 170.268 131.07 170.159 130.927 169.979C130.784 169.8 130.694 169.561 130.675 169.306C130.166 162.514 127.93 128.094 133.977 117.497L133.994 117.468L134.021 117.455C134.075 117.43 139.468 114.972 142.562 119.476C142.659 119.619 142.725 119.792 142.754 119.978C142.782 120.163 142.773 120.356 142.726 120.535L142.608 120.988C142.574 121.116 142.565 121.253 142.581 121.387C142.597 121.52 142.639 121.647 142.701 121.756C143.56 123.239 146.45 128.952 147.586 140.186C147.593 140.258 147.607 140.328 147.629 140.395L156.014 166.72C156.057 166.854 156.079 166.998 156.077 167.144C156.076 167.289 156.052 167.432 156.007 167.565C155.961 167.698 155.896 167.818 155.814 167.919C155.731 168.019 155.634 168.097 155.528 168.149L152.89 169.433C152.697 169.526 152.486 169.527 152.293 169.436C152.1 169.346 151.939 169.17 151.84 168.941L139.734 140.874C139.686 140.763 139.611 140.673 139.521 140.619C139.431 140.565 139.329 140.548 139.231 140.572C139.133 140.596 139.043 140.659 138.975 140.751C138.906 140.844 138.862 140.962 138.85 141.089L135.945 169.692C135.918 169.955 135.818 170.196 135.663 170.37C135.507 170.545 135.307 170.641 135.1 170.642C135.078 170.642 135.056 170.641 135.034 170.638Z" fill="#2F2E41"/>
<path d="M124.503 99.9256C124.527 100.056 124.542 100.189 124.549 100.323L132.687 106.322L134.665 104.867L136.774 108.395L133.468 111.406C133.201 111.649 132.879 111.775 132.551 111.765C132.223 111.755 131.907 111.609 131.65 111.35L123.258 102.889C122.879 103.068 122.466 103.096 122.075 102.968C121.684 102.841 121.332 102.564 121.067 102.174C120.802 101.785 120.636 101.302 120.591 100.789C120.546 100.276 120.624 99.758 120.815 99.3033C121.006 98.8487 121.301 98.4792 121.661 98.244C122.02 98.0087 122.427 97.9189 122.828 97.9865C123.228 98.054 123.603 98.2757 123.902 98.6221C124.201 98.9685 124.411 99.4232 124.503 99.9256V99.9256Z" fill="#A0616A"/>
<path d="M132.799 105.723C132.823 105.569 132.873 105.424 132.946 105.298C133.018 105.172 133.111 105.067 133.218 104.99L136.952 102.322C137.449 101.832 138.076 101.614 138.698 101.716C139.32 101.817 139.885 102.229 140.269 102.862C140.653 103.494 140.826 104.296 140.748 105.091C140.671 105.886 140.35 106.609 139.856 107.102L136.878 111.053C136.793 111.166 136.69 111.254 136.576 111.311C136.462 111.368 136.34 111.394 136.218 111.385C136.095 111.377 135.976 111.334 135.867 111.262C135.759 111.189 135.664 111.087 135.589 110.963L132.959 106.607C132.884 106.483 132.831 106.339 132.803 106.187C132.776 106.034 132.774 105.876 132.799 105.723Z" fill="#FFB3FF"/>
<path d="M142.466 113.95C142.371 113.851 142.293 113.728 142.239 113.588C142.184 113.448 142.154 113.294 142.15 113.137L142.016 107.672C141.905 106.884 142.042 106.072 142.399 105.413C142.755 104.754 143.302 104.303 143.918 104.158C144.535 104.014 145.171 104.187 145.687 104.641C146.204 105.095 146.558 105.792 146.673 106.58L148.047 111.777C148.086 111.925 148.1 112.082 148.087 112.238C148.075 112.394 148.036 112.544 147.973 112.679C147.911 112.814 147.827 112.93 147.726 113.019C147.626 113.109 147.511 113.17 147.391 113.197L143.154 114.175C143.033 114.203 142.909 114.197 142.79 114.158C142.672 114.12 142.561 114.048 142.466 113.95Z" fill="#4D844E"/>
<path d="M141.856 91.6508C140.66 92.6968 139.09 93.772 137.869 92.6581C137.067 91.9267 136.814 90.5723 137.139 89.3838C137.724 87.2464 139.331 86.3054 140.868 85.5841C142.865 84.6465 145.04 83.9005 147.103 84.572C149.165 85.2435 150.987 87.7951 150.615 90.4727C150.316 92.6259 148.726 94.4176 148.952 96.5855C149.179 98.7674 151.099 99.9158 152.794 100.306C154.489 100.696 156.386 100.821 157.604 102.377C159.158 104.362 158.77 107.91 157.308 110.005C155.846 112.101 153.639 113.051 151.501 113.697C148.668 114.552 145.603 115.002 142.913 113.582C140.222 112.162 138.128 108.34 138.907 104.755C139.237 103.241 140.012 101.962 140.762 100.716C141.511 99.4702 142.271 98.1676 142.556 96.6393C142.795 95.3657 142.618 93.8869 141.957 92.9316C141.837 92.7644 141.762 92.5528 141.741 92.3272C141.721 92.1016 141.757 91.8736 141.845 91.676L141.856 91.6508Z" fill="#2F2E41"/>
<path d="M175.988 180H103.808C103.758 180 103.71 179.975 103.674 179.929C103.639 179.884 103.619 179.822 103.619 179.758C103.619 179.694 103.639 179.632 103.674 179.587C103.71 179.541 103.758 179.516 103.808 179.516H175.988C176.038 179.516 176.087 179.541 176.122 179.587C176.158 179.632 176.178 179.694 176.178 179.758C176.178 179.822 176.158 179.884 176.122 179.929C176.087 179.975 176.038 180 175.988 180Z" fill="#3F3D56"/>
</g>
<defs>
<clipPath id="clip0_261_711">
<rect width="176" height="180" fill="white" transform="translate(0.5)"/>
</clipPath>
</defs>
</svg>
