<svg width="177" height="180" viewBox="0 0 177 180" fill="none" xmlns="http://www.w3.org/2000/svg">
<g clip-path="url(#clip0_261_663)">
<path d="M127.241 42.6631H126.252V15.6401C126.252 11.4921 124.598 7.51396 121.653 4.58087C118.708 1.64779 114.714 2.04017e-09 110.55 2.04017e-09H53.0684C51.0063 -3.31709e-05 48.9644 0.404477 47.0593 1.19043C45.1542 1.97639 43.4232 3.1284 41.965 4.58069C40.5069 6.03299 39.3502 7.75712 38.5611 9.65465C37.7719 11.5522 37.3658 13.5859 37.3657 15.6398V163.89C37.3657 168.038 39.0201 172.016 41.9649 174.949C44.9096 177.882 48.9036 179.53 53.0681 179.53H110.549C114.713 179.53 118.707 177.882 121.652 174.949C124.597 172.016 126.251 168.038 126.251 163.89V61.8985H127.24L127.241 42.6631Z" fill="#3F3D56"/>
<path d="M123.031 14.5925V164.937C123.031 168.082 121.776 171.098 119.544 173.322C117.311 175.546 114.284 176.796 111.126 176.797H52.4657C49.3069 176.798 46.2774 175.549 44.0433 173.324C41.8093 171.1 40.5537 168.083 40.5527 164.937V14.5925C40.5537 11.4464 41.8092 8.42955 44.0431 6.20541C46.2771 3.98127 49.3065 2.73202 52.4652 2.73242H59.581C59.2316 3.58825 59.0986 4.51646 59.1937 5.43546C59.2888 6.35447 59.6091 7.23614 60.1265 8.00297C60.6438 8.76981 61.3423 9.39833 62.1607 9.8333C62.979 10.2683 63.8921 10.4964 64.8196 10.4975H98.2629C99.1905 10.4964 100.104 10.2683 100.922 9.8333C101.74 9.39833 102.439 8.76981 102.956 8.00297C103.473 7.23614 103.794 6.35447 103.889 5.43546C103.984 4.51646 103.851 3.58825 103.502 2.73242H111.124C114.281 2.73296 117.309 3.98236 119.542 6.20595C121.775 8.42954 123.03 11.4453 123.031 14.5902V14.5925Z" fill="white"/>
<path d="M108.491 101.193H56.3639C56.108 101.193 55.8627 101.091 55.6817 100.911C55.5007 100.731 55.399 100.486 55.3987 100.231V87.3525C55.399 87.0976 55.5008 86.8533 55.6818 86.6731C55.8627 86.4928 56.108 86.3914 56.3639 86.3911H108.491C108.747 86.3914 108.992 86.4928 109.173 86.6731C109.354 86.8533 109.456 87.0976 109.456 87.3525V100.232C109.456 100.487 109.354 100.731 109.173 100.911C108.992 101.091 108.747 101.193 108.491 101.193V101.193ZM56.3639 86.7756C56.2103 86.7757 56.0631 86.8365 55.9545 86.9447C55.8459 87.0529 55.7848 87.1995 55.7847 87.3525V100.232C55.7848 100.385 55.8459 100.531 55.9545 100.639C56.0631 100.748 56.2103 100.808 56.3639 100.809H108.491C108.644 100.808 108.791 100.748 108.9 100.639C109.009 100.531 109.07 100.385 109.07 100.232V87.3525C109.07 87.1995 109.009 87.0529 108.9 86.9447C108.791 86.8365 108.644 86.7757 108.491 86.7756H56.3639Z" fill="#E6E6E6"/>
<path d="M72.4848 91.0293C72.3056 91.0293 72.1337 91.1002 72.007 91.2264C71.8803 91.3527 71.8091 91.5239 71.8091 91.7024C71.8091 91.8809 71.8803 92.0521 72.007 92.1783C72.1337 92.3045 72.3056 92.3754 72.4848 92.3754H104.34C104.519 92.3823 104.693 92.3179 104.825 92.1966C104.956 92.0753 105.034 91.9069 105.041 91.7285C105.048 91.5501 104.983 91.3763 104.862 91.2453C104.74 91.1143 104.571 91.0369 104.392 91.03C104.382 91.0296 104.372 91.0295 104.362 91.0295H72.4848V91.0293Z" fill="#FFB3FF"/>
<path d="M72.4848 95.0669C72.3056 95.0669 72.1337 95.1378 72.007 95.264C71.8803 95.3903 71.8091 95.5615 71.8091 95.74C71.8091 95.9185 71.8803 96.0897 72.007 96.2159C72.1337 96.3421 72.3056 96.413 72.4848 96.413H104.34C104.519 96.4199 104.693 96.3555 104.825 96.2342C104.956 96.1129 105.034 95.9445 105.041 95.7661C105.048 95.5877 104.983 95.4139 104.862 95.2829C104.74 95.1519 104.571 95.0745 104.392 95.0676C104.382 95.0673 104.372 95.0671 104.362 95.0671H72.4848V95.0669Z" fill="#FFB3FF"/>
<path d="M108.491 122.659H56.3639C56.108 122.659 55.8627 122.558 55.6817 122.377C55.5007 122.197 55.399 121.953 55.3987 121.698V108.819C55.399 108.564 55.5008 108.32 55.6818 108.14C55.8627 107.959 56.108 107.858 56.3639 107.858H108.491C108.747 107.858 108.992 107.959 109.173 108.14C109.354 108.32 109.456 108.564 109.456 108.819V121.698C109.455 121.953 109.354 122.197 109.173 122.377C108.992 122.558 108.746 122.659 108.491 122.659ZM56.3639 108.242C56.2103 108.242 56.0631 108.303 55.9545 108.411C55.8459 108.519 55.7848 108.666 55.7847 108.819V121.698C55.7848 121.851 55.8459 121.998 55.9545 122.106C56.0631 122.214 56.2103 122.275 56.3639 122.275H108.491C108.644 122.275 108.791 122.214 108.9 122.106C109.009 121.998 109.07 121.851 109.07 121.698V108.819C109.07 108.666 109.009 108.519 108.9 108.411C108.791 108.303 108.644 108.242 108.491 108.242H56.3639Z" fill="#E6E6E6"/>
<path d="M72.4848 112.565C72.3056 112.565 72.1337 112.636 72.007 112.763C71.8803 112.889 71.8091 113.06 71.8091 113.239C71.8091 113.417 71.8803 113.588 72.007 113.714C72.1337 113.841 72.3056 113.912 72.4848 113.912H104.34C104.516 113.911 104.686 113.841 104.811 113.717C104.937 113.593 105.009 113.425 105.012 113.249C105.015 113.073 104.948 112.903 104.827 112.776C104.705 112.648 104.538 112.572 104.362 112.566H72.4848V112.565Z" fill="#FFB3FF"/>
<path d="M72.4848 116.604C72.3056 116.604 72.1337 116.675 72.007 116.801C71.8803 116.927 71.8091 117.099 71.8091 117.277C71.8091 117.456 71.8803 117.627 72.007 117.753C72.1337 117.879 72.3056 117.95 72.4848 117.95H104.34C104.516 117.949 104.686 117.879 104.811 117.756C104.937 117.632 105.009 117.464 105.012 117.288C105.015 117.112 104.948 116.942 104.827 116.814C104.705 116.686 104.538 116.611 104.362 116.604H72.4848V116.604Z" fill="#FFB3FF"/>
<path d="M108.491 144.196H56.3639C56.108 144.196 55.8627 144.094 55.6817 143.914C55.5007 143.734 55.399 143.489 55.3987 143.235V130.356C55.399 130.101 55.5008 129.856 55.6818 129.676C55.8627 129.496 56.108 129.395 56.3639 129.394H108.491C108.747 129.395 108.992 129.496 109.173 129.676C109.354 129.856 109.456 130.101 109.456 130.356V143.235C109.456 143.49 109.354 143.734 109.173 143.914C108.992 144.095 108.747 144.196 108.491 144.196V144.196ZM56.3639 129.779C56.2103 129.779 56.0631 129.84 55.9545 129.948C55.8459 130.056 55.7848 130.203 55.7847 130.356V143.235C55.7848 143.388 55.8459 143.534 55.9545 143.643C56.0631 143.751 56.2103 143.812 56.3639 143.812H108.491C108.644 143.812 108.791 143.751 108.9 143.643C109.009 143.534 109.07 143.388 109.07 143.235V130.356C109.07 130.203 109.009 130.056 108.9 129.948C108.791 129.84 108.644 129.779 108.491 129.779H56.3639Z" fill="#E6E6E6"/>
<path d="M72.4848 134.103C72.3056 134.103 72.1337 134.174 72.007 134.3C71.8803 134.426 71.8091 134.597 71.8091 134.776C71.8091 134.954 71.8803 135.126 72.007 135.252C72.1337 135.378 72.3056 135.449 72.4848 135.449H104.34C104.428 135.452 104.517 135.438 104.6 135.408C104.683 135.377 104.76 135.33 104.825 135.27C104.89 135.21 104.943 135.138 104.98 135.057C105.017 134.977 105.038 134.89 105.041 134.802C105.044 134.714 105.03 134.626 105 134.543C104.969 134.46 104.922 134.384 104.862 134.319C104.801 134.254 104.729 134.202 104.648 134.165C104.567 134.128 104.48 134.107 104.392 134.104C104.382 134.103 104.372 134.103 104.362 134.103H72.4848V134.103Z" fill="#FFB3FF"/>
<path d="M72.4848 138.141C72.3056 138.141 72.1337 138.212 72.007 138.338C71.8803 138.464 71.8091 138.636 71.8091 138.814C71.8091 138.993 71.8803 139.164 72.007 139.29C72.1337 139.416 72.3056 139.487 72.4848 139.487H104.34C104.428 139.491 104.517 139.477 104.6 139.446C104.683 139.415 104.76 139.369 104.825 139.308C104.89 139.248 104.943 139.176 104.98 139.096C105.017 139.015 105.038 138.929 105.041 138.84C105.044 138.752 105.03 138.664 105 138.581C104.969 138.498 104.922 138.422 104.862 138.357C104.801 138.292 104.729 138.24 104.648 138.203C104.567 138.166 104.48 138.145 104.392 138.142C104.382 138.141 104.372 138.141 104.362 138.141H72.4848V138.141Z" fill="#FFB3FF"/>
<path d="M176.04 180H0.959544C0.705932 180 0.5 179.882 0.5 179.736C0.5 179.59 0.705932 179.472 0.959544 179.472H176.04C176.294 179.472 176.5 179.59 176.5 179.736C176.5 179.882 176.294 180 176.04 180Z" fill="#E6E6E6"/>
<path d="M7.8727 169.703C8.67292 169.983 9.5321 170.053 10.3675 169.907C11.2028 169.76 11.9862 169.402 12.6421 168.866C14.3127 167.47 14.8364 165.169 15.2624 163.038L16.5229 156.737L13.8841 158.547C11.9863 159.848 10.0459 161.192 8.73168 163.077C7.41746 164.962 6.84404 167.536 7.89983 169.576" fill="#C0E7BE"/>
<path d="M8.28044 177.77C7.94821 175.36 7.60659 172.919 7.83966 170.482C8.04661 168.319 8.7093 166.206 10.0585 164.473C10.7746 163.555 11.646 162.769 12.6334 162.149C12.8909 161.987 13.128 162.394 12.8716 162.555C11.1627 163.63 9.84078 165.218 9.09657 167.09C8.27487 169.172 8.14298 171.441 8.28501 173.653C8.37073 174.99 8.55206 176.318 8.73491 177.645C8.7493 177.705 8.74029 177.769 8.70969 177.822C8.67909 177.876 8.62918 177.916 8.57007 177.934C8.50974 177.95 8.44546 177.942 8.39115 177.912C8.33684 177.881 8.29688 177.83 8.27994 177.77H8.28044Z" fill="#C0E7BE"/>
<path d="M10.6714 173.903C11.0146 174.422 11.4863 174.845 12.0412 175.13C12.596 175.416 13.2153 175.554 13.8393 175.531C15.4428 175.456 16.7799 174.341 17.9833 173.283L21.543 170.153L19.1872 170.041C17.493 169.96 15.755 169.885 14.1403 170.405C12.5255 170.925 11.0384 172.178 10.7434 173.84" fill="#C0E7BE"/>
<path d="M7.3416 179.156C8.93936 176.338 10.7953 173.206 14.1092 172.205C15.0307 171.927 15.9969 171.828 16.9558 171.912C17.2581 171.937 17.1825 172.402 16.8797 172.376C15.2723 172.243 13.6681 172.666 12.337 173.573C11.056 174.441 10.0588 175.649 9.21478 176.929C8.69766 177.712 8.23457 178.531 7.77148 179.347C7.62388 179.608 7.19273 179.42 7.3416 179.156Z" fill="#C0E7BE"/>
<path d="M62.867 97.7511C65.1061 97.7511 66.9212 95.9432 66.9212 93.713C66.9212 91.4827 65.1061 89.6748 62.867 89.6748C60.6279 89.6748 58.8127 91.4827 58.8127 93.713C58.8127 95.9432 60.6279 97.7511 62.867 97.7511Z" fill="#FFB3FF"/>
<path d="M60.926 92.9587C60.8793 92.9587 60.8416 93.2601 60.8416 93.6317C60.8416 94.0033 60.8793 94.3049 60.926 94.3049H64.9125C64.9592 94.3109 64.9977 94.0146 64.9985 93.6431C65.0244 93.4117 64.9959 93.1775 64.9153 92.959H60.926V92.9587Z" fill="#3F3D56"/>
<path d="M62.867 119.297C65.1061 119.297 66.9212 117.489 66.9212 115.258C66.9212 113.028 65.1061 111.22 62.867 111.22C60.6279 111.22 58.8127 113.028 58.8127 115.258C58.8127 117.489 60.6279 119.297 62.867 119.297Z" fill="#FFB3FF"/>
<path d="M60.926 114.504C60.8793 114.504 60.8416 114.806 60.8416 115.177C60.8416 115.549 60.8793 115.85 60.926 115.85H64.9125C64.9592 115.856 64.9977 115.56 64.9985 115.188C65.0244 114.957 64.9959 114.723 64.9153 114.504H60.926V114.504Z" fill="#3F3D56"/>
<path d="M62.867 140.833C65.1061 140.833 66.9212 139.025 66.9212 136.795C66.9212 134.565 65.1061 132.757 62.867 132.757C60.6279 132.757 58.8127 134.565 58.8127 136.795C58.8127 139.025 60.6279 140.833 62.867 140.833Z" fill="#FFB3FF"/>
<path d="M60.926 136.041C60.8793 136.041 60.8416 136.342 60.8416 136.714C60.8416 137.085 60.8793 137.387 60.926 137.387H64.9125C64.9592 137.393 64.9977 137.097 64.9985 136.725C65.0244 136.494 64.9959 136.26 64.9153 136.041H60.926V136.041Z" fill="#3F3D56"/>
<path d="M94.8911 64.836C94.6806 64.8367 94.474 64.7792 94.2944 64.67C94.1147 64.5607 93.969 64.404 93.8735 64.2172C93.0602 62.6334 91.9374 61.2274 90.5711 60.0818C89.2048 58.9361 87.6225 58.0738 85.9171 57.5456C85.2188 57.3346 84.5061 57.1738 83.7847 57.0647L83.6377 57.0425L91.2257 33.4121L91.354 33.4165C106.096 37.4064 114.53 49.1744 116.764 52.6861C116.849 52.8204 116.905 52.9709 116.928 53.128C116.952 53.2851 116.941 53.4453 116.898 53.5982C116.855 53.7512 116.781 53.8934 116.679 54.0158C116.578 54.1381 116.451 54.2379 116.309 54.3087L95.4032 64.7154C95.2442 64.7947 95.0689 64.836 94.8911 64.836Z" fill="#E8FFE6"/>
<path d="M140.398 115.186C140.477 114.853 140.629 114.541 140.842 114.272C141.055 114.003 141.325 113.784 141.632 113.631C141.94 113.477 142.277 113.392 142.621 113.382C142.965 113.373 143.306 113.438 143.622 113.574L149.273 107.438L150.329 111.635L144.801 116.819C144.536 117.332 144.092 117.73 143.552 117.939C143.012 118.148 142.414 118.152 141.871 117.951C141.328 117.749 140.879 117.357 140.607 116.847C140.336 116.338 140.261 115.747 140.398 115.186L140.398 115.186Z" fill="#FEB8B8"/>
<path d="M152.536 176.402H149.083L147.44 163.136H152.538L152.536 176.402Z" fill="#FEB8B8"/>
<path d="M153.417 175.279H146.616C145.467 175.279 144.364 175.734 143.552 176.544C142.739 177.353 142.282 178.451 142.282 179.596V179.736H153.416L153.417 175.279Z" fill="#2F2E41"/>
<path d="M172.365 172.995L169.137 174.216L162.875 162.394L167.639 160.593L172.365 172.995Z" fill="#FEB8B8"/>
<path d="M172.789 171.634L166.431 174.038C165.357 174.444 164.488 175.259 164.017 176.303C163.546 177.347 163.51 178.535 163.918 179.605L163.968 179.736L174.378 175.801L172.789 171.634Z" fill="#2F2E41"/>
<path d="M160.999 132.276L163.86 147.613C163.86 147.613 171.627 169.192 171.082 169.735C170.537 170.278 163.043 172.178 163.451 170.957C163.86 169.736 154.458 151.413 154.458 151.413L160.999 132.276Z" fill="#2F2E41"/>
<path d="M149.395 104.406C149.395 104.406 143.618 111.927 144.375 112.338C145.132 112.749 148.064 114.924 148.064 114.924L151.048 106.769L149.395 104.406Z" fill="#C0E7BE"/>
<path d="M147.781 111.997C147.781 111.997 146.827 119.055 147.236 120.548C147.645 122.041 147.372 164.386 147.1 165.064C146.828 165.743 146.009 168.05 146.419 169.136C146.828 170.222 152.414 172.936 153.232 171.986C154.049 171.036 160.045 136.427 160.045 136.427C160.045 136.427 168.494 115.526 166.586 113.491C164.678 111.455 147.781 111.997 147.781 111.997Z" fill="#2F2E41"/>
<path d="M160.04 66.6398C163.728 66.6398 166.717 63.6624 166.717 59.9895C166.717 56.3166 163.728 53.3391 160.04 53.3391C156.353 53.3391 153.363 56.3166 153.363 59.9895C153.363 63.6624 156.353 66.6398 160.04 66.6398Z" fill="#FEB8B8"/>
<path d="M153.063 75.0197C153.232 73.9429 153.77 72.9574 154.585 72.2309L155.802 68.5239H162.957L164.95 71.6398C167.106 72.5646 168.704 74.0312 168.764 75.7601C169.094 76.9082 167.674 113.355 167.266 114.712C167.146 115.107 165.516 115.318 163.224 115.412C161.123 115.497 158.467 115.485 155.918 115.427C151.696 115.329 147.761 115.104 147.099 114.983C145.601 114.712 152.915 75.876 153.063 75.0197Z" fill="#9CC69B"/>
<path d="M159.389 123.351C159.678 123.166 159.924 122.921 160.108 122.632C160.293 122.342 160.411 122.017 160.455 121.677C160.499 121.337 160.468 120.992 160.364 120.665C160.26 120.339 160.085 120.039 159.852 119.787L163.8 112.448L159.474 112.841L156.388 119.751C155.989 120.169 155.757 120.718 155.738 121.295C155.718 121.871 155.912 122.435 156.282 122.879C156.652 123.323 157.173 123.616 157.745 123.703C158.318 123.79 158.903 123.664 159.389 123.35L159.389 123.351Z" fill="#FEB8B8"/>
<path d="M160.045 71.01C160.045 71.01 153.777 73.5886 156.093 80.1038C158.41 86.619 160.999 94.3546 160.999 94.3546C160.999 94.3546 157.728 111.863 157.728 112.542C157.728 113.222 155.685 116.885 156.502 117.564C157.319 118.243 162.77 119.6 162.906 118.921C163.324 117.358 163.824 115.817 164.405 114.307C164.678 113.764 171.082 96.7985 170.263 95.3056C169.662 94.207 169.134 84.1404 168.897 78.9017C168.842 77.4067 168.398 75.9517 167.607 74.6799C166.816 73.408 165.707 72.3631 164.387 71.6481C163.118 70.9756 161.639 70.6129 160.045 71.01Z" fill="#9CC69B"/>
<path d="M162.61 62.9618C162.103 62.7289 161.515 62.6806 160.967 62.5359C159.006 62.0175 157.691 60.0884 158.111 58.3426C158.188 58.1206 158.223 57.8862 158.214 57.6515C158.141 57.1344 157.533 56.8007 156.95 56.6823C156.366 56.5638 155.746 56.5812 155.189 56.3905C154.785 56.2482 154.428 56.0003 154.154 55.6729C153.88 55.3454 153.7 54.9506 153.633 54.5298C153.546 53.7122 153.755 52.8908 154.223 52.2131L154.433 52.7406C154.746 52.5156 154.985 52.2042 155.122 51.8451C155.351 51.8724 155.569 51.9557 155.757 52.0876C155.946 52.2195 156.099 52.3959 156.202 52.6009C156.54 52.7744 156.589 52.0621 156.963 51.957C157.125 51.939 157.289 51.9745 157.429 52.0581C158.182 52.3635 159.056 52.1023 159.864 51.933C161.266 51.6413 162.714 51.6398 164.117 51.9287C165.046 52.1215 165.966 52.4574 166.631 53.0541C167.141 53.5527 167.541 54.1514 167.807 54.8122C168.52 56.3738 168.991 58.0635 168.755 59.7312C168.541 61.1306 167.88 62.4239 166.87 63.4192C166.331 63.9591 164.574 65.842 163.611 65.5212C162.399 65.117 164.036 63.6178 162.61 62.9618Z" fill="#2F2E41"/>
<path d="M82.1578 69.33C83.2783 69.33 84.1867 68.4253 84.1867 67.3092C84.1867 66.1931 83.2783 65.2883 82.1578 65.2883C81.0373 65.2883 80.1289 66.1931 80.1289 67.3092C80.1289 68.4253 81.0373 69.33 82.1578 69.33Z" fill="#3F3D56"/>
<path d="M68.5418 64.8064C68.3561 64.8062 68.1732 64.7607 68.0092 64.674L47.225 53.7527C47.0871 53.6803 46.9656 53.5805 46.8679 53.4594C46.7703 53.3384 46.6985 53.1987 46.6571 53.049C46.6158 52.8993 46.6056 52.7428 46.6273 52.589C46.649 52.4353 46.7021 52.2876 46.7834 52.1551C49.5597 47.7227 53.0755 43.7951 57.1792 40.5415C64.3568 34.8754 72.5212 32.0327 81.4443 32.0804C84.7909 32.0952 88.1213 32.5443 91.3514 33.4164L91.4794 33.4509L83.8895 57.0799L83.7827 57.0638C83.0991 56.9611 82.4098 56.9002 81.7187 56.8815C73.996 56.6645 70.6494 61.9023 69.5687 64.1641C69.5036 64.3012 69.4111 64.4237 69.2968 64.5241C69.1826 64.6244 69.049 64.7005 68.9042 64.7476C68.7873 64.7864 68.665 64.8063 68.5418 64.8064Z" fill="#C0E7BE"/>
<path d="M91.3207 33.5383L85.9544 57.4247C85.2501 57.2118 84.5314 57.0497 83.8037 56.9397L91.3182 33.5383H91.3207Z" fill="#3F3D56"/>
</g>
<defs>
<clipPath id="clip0_261_663">
<rect width="176" height="180" fill="white" transform="translate(0.5)"/>
</clipPath>
</defs>
</svg>
