<svg width="562" height="461" viewBox="0 0 562 461" fill="none" xmlns="http://www.w3.org/2000/svg">
<g clip-path="url(#clip0_279_88)">
<path d="M138.718 420.649L139.861 444.752L139.861 444.753C140.054 448.827 138.621 452.811 135.878 455.828C133.135 458.845 129.306 460.649 125.234 460.842L124.735 460.866L122.863 421.401L138.718 420.649Z" fill="#2F2E41"/>
<path d="M481.281 379.916C469.805 402.319 455.25 423.985 436.833 443.595C436.424 444.038 436.011 444.47 435.594 444.909L391.96 424.244C392.227 423.801 392.519 423.303 392.834 422.758C411.578 390.676 524.724 194.976 521.149 150.652C521.565 154.308 534.977 275.202 481.281 379.916Z" fill="#C0E7BE"/>
<path d="M445.251 447.582C444.64 447.929 444.014 448.269 443.384 448.598L410.65 433.096C411.108 432.771 411.641 432.387 412.254 431.955C422.282 424.752 452.102 403.142 481.281 379.916C512.638 354.957 543.26 328.14 547.808 315.339C546.884 318.275 518.183 407.501 445.251 447.582Z" fill="#C0E7BE"/>
<path d="M54.4507 459.903C82.3504 459.903 104.968 437.278 104.968 409.368C104.968 381.458 82.3504 358.832 54.4507 358.832C26.551 358.832 3.93385 381.458 3.93385 409.368C3.93385 437.278 26.551 459.903 54.4507 459.903Z" fill="#C0E7BE"/>
<path d="M74.6861 388.161H34.2153C32.427 388.163 30.7125 388.875 29.448 390.14C28.1835 391.405 27.4722 393.12 27.4702 394.909V423.827C27.4722 425.616 28.1835 427.331 29.448 428.596C30.7125 429.861 32.427 430.572 34.2153 430.574H74.6861C76.4744 430.572 78.1889 429.861 79.4535 428.596C80.718 427.331 81.4293 425.616 81.4313 423.827V394.909C81.4293 393.12 80.718 391.405 79.4534 390.14C78.1889 388.875 76.4744 388.163 74.6861 388.161ZM74.6861 392.017C74.9277 392.018 75.1682 392.049 75.402 392.11L54.4554 408.826L33.6312 392.076C33.8234 392.037 34.0191 392.017 34.2153 392.017H74.6861ZM74.6861 426.719H34.2153C33.4489 426.718 32.7141 426.413 32.1722 425.871C31.6303 425.329 31.3254 424.594 31.3246 423.827V395.168L53.2432 412.798C53.5845 413.073 54.0091 413.223 54.447 413.223C54.885 413.224 55.3102 413.076 55.6525 412.803L77.5769 395.307V423.827C77.576 424.593 77.2712 425.329 76.7292 425.871C76.1873 426.413 75.4525 426.718 74.6861 426.719Z" fill="#FBFFFA"/>
<path d="M249.407 336.408L260.71 336.501C261.854 336.51 262.986 336.27 264.027 335.797C265.069 335.324 265.994 334.629 266.74 333.761C267.485 332.893 268.032 331.873 268.343 330.772C268.654 329.671 268.721 328.515 268.539 327.385C268.344 326.17 267.866 325.017 267.144 324.019C266.422 323.022 265.476 322.208 264.382 321.643C263.288 321.079 262.077 320.779 260.846 320.767C259.615 320.756 258.399 321.034 257.295 321.579L246.636 326.841L210.177 334.974L194.558 319L185.586 333.782L206.663 350.072L249.407 336.408Z" fill="#FFB8B8"/>
<path d="M247.288 453.232L233.971 455.794C224.875 427.11 215.019 399.945 215.02 378.936C202.147 393.268 186.183 401.468 167.385 404.043L169.434 372.275L184.8 364.077L208.318 353.218C210.377 352.268 212.598 351.718 214.863 351.599C219.265 351.367 223.598 352.773 227.027 355.545C230.456 358.318 232.738 362.261 233.435 366.616L247.288 453.232Z" fill="#2F2E41"/>
<path d="M183.52 400.2L178.212 404.235C175.929 405.97 173.233 407.078 170.391 407.449C167.548 407.82 164.658 407.44 162.007 406.349C146.805 394.949 136.004 398.312 126.215 415.518C114.474 402.262 111.577 383.116 122.056 363.308L180.19 364.589L191.971 361.002L183.52 400.2Z" fill="#2F2E41"/>
<path d="M164.159 459.566C160.828 460.591 157.242 460.411 154.03 459.057C150.818 457.704 148.185 455.262 146.592 452.162C141.367 447.558 136.959 440.967 133.136 432.953C130.392 427.073 128.037 421.021 126.084 414.834C123.438 406.66 127.862 397.73 136.096 395.284C136.34 395.211 136.588 395.143 136.839 395.078C147.83 392.256 159.118 398.597 162.875 409.309L173.8 440.457C174.445 442.297 174.722 444.246 174.614 446.193C174.507 448.14 174.017 450.047 173.173 451.804C172.328 453.562 171.146 455.136 169.694 456.437C168.242 457.737 166.547 458.739 164.708 459.385C164.526 459.449 164.343 459.509 164.159 459.566Z" fill="#2F2E41"/>
<path opacity="0.2" d="M131.275 429.406C131.275 429.406 144.08 443.753 146.641 451.951L131.275 429.406Z" fill="black"/>
<path d="M81.6125 361.698L77.3269 372.161C76.8933 373.22 76.6957 374.361 76.748 375.504C76.8003 376.647 77.1012 377.764 77.6297 378.779C78.1583 379.794 78.9017 380.681 79.8081 381.379C80.7146 382.077 81.7623 382.568 82.8782 382.819C84.0791 383.089 85.3267 383.074 86.5206 382.774C87.7144 382.474 88.8212 381.897 89.7517 381.091C90.6823 380.285 91.4107 379.272 91.8784 378.133C92.346 376.994 92.5398 375.761 92.4442 374.533L91.5208 362.678L97.517 325.795L118.146 317.223L107.76 303.399L84.811 316.922L81.6125 361.698Z" fill="#FFB8B8"/>
<path d="M184.032 363.308C169.315 388.037 139.977 397.613 114.849 378.249C119.269 363.72 133.54 323.565 124.321 322.028C104.745 330.24 104.717 310.959 101.055 301.309L145.617 284.913L169.69 291.574L174.625 293.326C177.836 294.466 180.622 296.562 182.607 299.333C184.592 302.104 185.681 305.417 185.727 308.825C175.615 323.44 168.129 339.03 184.032 363.308Z" fill="#9CC69B"/>
<path d="M189.666 343.325L171.995 328.722L177.885 294.648L201.959 320.268L189.666 343.325Z" fill="#9CC69B"/>
<path d="M482.881 109.248H480.355V40.0492C480.355 29.4275 476.137 19.2408 468.629 11.7301C461.121 4.21946 450.938 0 440.32 0H293.767C283.149 0 272.966 4.21946 265.458 11.7301C257.95 19.2408 253.732 29.4275 253.732 40.0492V419.679C253.732 430.301 257.95 440.487 265.458 447.998C272.966 455.509 283.149 459.728 293.767 459.728H440.32C450.938 459.728 461.121 455.509 468.628 447.998C476.136 440.487 480.354 430.301 480.354 419.679V158.504H482.88L482.881 109.248Z" fill="#3F3D56"/>
<path d="M441.936 10.4185H422.806C423.686 12.5763 424.022 14.9175 423.784 17.2359C423.547 19.5543 422.743 21.7786 421.444 23.713C420.144 25.6473 418.389 27.2322 416.333 28.3281C414.277 29.424 411.983 29.9971 409.653 29.9971H325.695C323.366 29.9969 321.072 29.4237 319.016 28.3278C316.961 27.232 315.206 25.6473 313.907 23.7132C312.607 21.7792 311.803 19.5551 311.566 17.2371C311.328 14.919 311.664 12.578 312.544 10.4204H294.673C286.744 10.4204 279.139 13.5715 273.532 19.1806C267.925 24.7897 264.775 32.3972 264.775 40.3297V419.4C264.775 427.333 267.925 434.94 273.532 440.549C279.139 446.159 286.744 449.31 294.673 449.31H441.93C449.86 449.31 457.464 446.159 463.071 440.549C468.678 434.94 471.828 427.333 471.828 419.4V419.4V40.3278C471.828 32.3953 468.678 24.7878 463.071 19.1787C457.464 13.5696 449.86 10.4185 441.93 10.4185H441.936L441.936 10.4185Z" fill="white"/>
<path d="M368.557 428.126C377.625 428.126 384.975 420.773 384.975 411.702C384.975 402.631 377.625 395.278 368.557 395.278C359.49 395.278 352.139 402.631 352.139 411.702C352.139 420.773 359.49 428.126 368.557 428.126Z" fill="#C0E7BE"/>
<path d="M301.953 259.813C300.401 259.813 299.138 261.255 299.138 263.027C299.138 264.799 300.401 266.241 301.953 266.241H434.65C436.202 266.241 437.465 264.799 437.465 263.027C437.465 261.255 436.202 259.813 434.65 259.813H301.953Z" fill="#C0E7BE"/>
<path d="M301.953 335.616C300.401 335.616 299.138 337.058 299.138 338.83C299.138 340.602 300.401 342.044 301.953 342.044H434.65C436.202 342.044 437.465 340.602 437.465 338.83C437.465 337.058 436.202 335.616 434.65 335.616H301.953Z" fill="#C0E7BE"/>
<path d="M301.953 279.097C300.401 279.097 299.138 280.539 299.138 282.311C299.138 284.083 300.401 285.525 301.953 285.525H359.053C360.605 285.525 361.868 284.083 361.868 282.311C361.868 280.539 360.605 279.097 359.053 279.097H301.953Z" fill="#C0E7BE"/>
<path d="M301.953 297.478C300.401 297.478 299.138 298.92 299.138 300.692C299.138 302.464 300.401 303.906 301.953 303.906H434.65C436.202 303.906 437.465 302.464 437.465 300.692C437.465 298.92 436.202 297.478 434.65 297.478H301.953Z" fill="#C0E7BE"/>
<path d="M301.953 316.762C300.401 316.762 299.138 318.204 299.138 319.976C299.138 321.748 300.401 323.19 301.953 323.19H359.053C360.605 323.19 361.868 321.748 361.868 319.976C361.868 318.204 360.605 316.762 359.053 316.762H301.953Z" fill="#C0E7BE"/>
<path d="M327.004 113.469H409.608C410.52 113.47 411.395 113.833 412.04 114.478C412.685 115.124 413.048 115.999 413.049 116.912V202.972C413.048 203.884 412.685 204.759 412.04 205.405C411.395 206.05 410.52 206.413 409.608 206.415H327.004C326.091 206.413 325.217 206.05 324.571 205.405C323.926 204.759 323.563 203.884 323.562 202.972V116.912C323.563 115.999 323.926 115.124 324.571 114.478C325.217 113.833 326.091 113.47 327.004 113.469Z" fill="#9CC69B"/>
<path d="M392.006 188.668C392.314 188.668 392.618 188.608 392.902 188.491C393.186 188.374 393.444 188.202 393.661 187.985C393.879 187.768 394.051 187.51 394.169 187.226C394.287 186.943 394.348 186.638 394.348 186.331C394.348 186.024 394.288 185.72 394.17 185.436C394.053 185.152 393.88 184.894 393.663 184.677C393.446 184.459 393.188 184.287 392.904 184.17C392.62 184.052 392.316 183.992 392.009 183.992H344.605C344.298 183.992 343.994 184.052 343.71 184.169C343.426 184.286 343.168 184.458 342.95 184.675C342.733 184.892 342.56 185.15 342.442 185.434C342.324 185.717 342.264 186.022 342.264 186.329C342.263 186.636 342.324 186.94 342.441 187.224C342.559 187.508 342.731 187.766 342.949 187.983C343.166 188.201 343.424 188.373 343.708 188.49C343.991 188.608 344.296 188.668 344.603 188.668H392.006Z" fill="white"/>
<path d="M392.006 174.895C392.626 174.895 393.22 174.649 393.659 174.211C394.097 173.772 394.343 173.178 394.343 172.558C394.343 171.938 394.097 171.343 393.659 170.905C393.22 170.466 392.626 170.22 392.006 170.22H344.605C343.985 170.22 343.391 170.466 342.953 170.904C342.514 171.342 342.268 171.937 342.267 172.557C342.267 173.177 342.513 173.771 342.951 174.21C343.389 174.648 343.983 174.895 344.603 174.895H392.006Z" fill="white"/>
<path d="M368.306 131.216C371.215 131.216 374.058 132.079 376.477 133.696C378.896 135.312 380.781 137.61 381.894 140.299C383.008 142.987 383.299 145.946 382.731 148.8C382.164 151.654 380.763 154.276 378.706 156.334C376.649 158.391 374.028 159.793 371.175 160.361C368.322 160.928 365.365 160.637 362.677 159.523C359.989 158.41 357.692 156.524 356.076 154.104C354.46 151.684 353.597 148.84 353.597 145.93C353.602 142.029 355.153 138.289 357.91 135.53C360.667 132.772 364.406 131.22 368.306 131.216Z" fill="white"/>
<path d="M180.638 280.452H136.973C136.075 280.451 135.213 280.094 134.578 279.458C133.943 278.823 133.586 277.961 133.585 277.063V258.235C133.585 251.543 136.242 245.126 140.972 240.395C145.702 235.663 152.117 233.005 158.806 233.005C165.494 233.005 171.909 235.663 176.639 240.395C181.369 245.126 184.026 251.543 184.026 258.235V277.063C184.025 277.961 183.668 278.823 183.033 279.458C182.398 280.094 181.536 280.451 180.638 280.452Z" fill="#2F2E41"/>
<path d="M179.851 269.693C184.75 260.729 181.456 249.49 172.496 244.589C163.535 239.689 152.3 242.984 147.402 251.948C142.503 260.912 145.796 272.151 154.757 277.051C163.718 281.951 174.953 278.657 179.851 269.693Z" fill="#FFB6B6"/>
<path d="M189.993 260.118H163.292L163.018 256.283L161.649 260.118H157.538L156.996 252.517L154.282 260.118H146.327V259.741C146.333 254.45 148.437 249.377 152.177 245.635C155.917 241.894 160.988 239.789 166.278 239.783H170.042C175.331 239.789 180.402 241.894 184.143 245.635C187.883 249.377 189.987 254.45 189.993 259.741V260.118Z" fill="#2F2E41"/>
<path d="M163.074 283.967C162.873 283.966 162.672 283.949 162.474 283.914L142.923 280.463V248.139H164.445L163.912 248.76C156.499 257.409 162.084 271.434 166.073 279.024C166.367 279.58 166.498 280.208 166.451 280.835C166.404 281.462 166.181 282.063 165.808 282.569C165.495 283.002 165.084 283.354 164.609 283.597C164.134 283.84 163.607 283.967 163.074 283.967Z" fill="#2F2E41"/>
<path d="M228.167 443.558L252.289 443.557H252.29C256.367 443.557 260.277 445.177 263.16 448.061C266.042 450.945 267.662 454.856 267.662 458.934V459.434L228.168 459.435L228.167 443.558Z" fill="#2F2E41"/>
<path d="M561.369 461H0.631461C0.463987 461 0.303372 460.933 0.18495 460.815C0.0665282 460.697 0 460.536 0 460.368C0 460.201 0.0665282 460.04 0.18495 459.922C0.303372 459.803 0.463987 459.737 0.631461 459.737H561.369C561.536 459.737 561.697 459.803 561.815 459.922C561.933 460.04 562 460.201 562 460.368C562 460.536 561.933 460.697 561.815 460.815C561.697 460.933 561.536 461 561.369 461Z" fill="#CACACA"/>
</g>
<defs>
<clipPath id="clip0_279_88">
<rect width="562" height="461" fill="white"/>
</clipPath>
</defs>
</svg>
