<svg width="65" height="65" viewBox="0 0 65 65" fill="none" xmlns="http://www.w3.org/2000/svg">
<path d="M55.9632 50.838C55.9632 50.838 52.8252 53.9202 52.0562 54.8238C50.8034 56.1606 49.3274 56.7919 47.3925 56.7919C47.2065 56.7919 47.008 56.7919 46.822 56.7795C43.1382 56.5443 39.7149 55.1085 37.1474 53.883C30.1271 50.4915 23.9626 45.6764 18.84 39.5741C14.6105 34.4867 11.7825 29.7831 9.90961 24.7328C8.75609 21.6507 8.33438 19.2494 8.52043 16.9842C8.64446 15.536 9.20261 14.3353 10.2321 13.3079L14.4616 9.08703C15.0694 8.51764 15.7144 8.20819 16.3469 8.20819C17.1284 8.20819 17.7609 8.67856 18.1578 9.07465C18.1702 9.08703 18.1826 9.09941 18.195 9.11179C18.9516 9.81733 19.671 10.5476 20.4276 11.3274C20.8121 11.7235 21.2091 12.1196 21.606 12.5281L24.9921 15.9073C26.3068 17.2194 26.3068 18.4324 24.9921 19.7445C24.6324 20.1035 24.2851 20.4624 23.9254 20.809C22.8835 21.8735 23.702 21.0567 22.6229 22.0222C22.5981 22.047 22.5733 22.0593 22.5609 22.0841C21.4942 23.1486 21.6926 24.1884 21.9159 24.8939C21.9283 24.931 21.9407 24.9682 21.9531 25.0053C22.8337 27.1343 24.0741 29.1396 25.9594 31.5285L25.9718 31.5409C29.3951 35.7494 33.0045 39.0296 36.9859 41.5423C37.4945 41.8641 38.0154 42.1241 38.5116 42.3716C38.9581 42.5944 39.3798 42.8049 39.7395 43.0277C39.7891 43.0524 39.8387 43.0896 39.8883 43.1143C40.31 43.3247 40.707 43.4238 41.1163 43.4238C42.1457 43.4238 42.7907 42.7801 43.0016 42.5697L45.4328 40.1434C45.8545 39.7226 46.5243 39.2151 47.3057 39.2151C48.0747 39.2151 48.7073 39.6978 49.0918 40.1187C49.1042 40.1311 49.1042 40.1311 49.1166 40.1434L55.9508 46.9637C57.2284 48.2263 55.9632 50.838 55.9632 50.838Z" stroke="#2F2E41" stroke-width="2" stroke-linecap="round" stroke-linejoin="round"/>
</svg>
