<svg width="314" height="314" viewBox="0 0 314 314" fill="none" xmlns="http://www.w3.org/2000/svg">
<g clip-path="url(#clip0_296_336)">
<path d="M30.1961 264.518L27.4306 253.643C22.5274 251.572 17.5109 249.777 12.4049 248.269L12.0558 253.322L10.6402 247.755C4.30794 245.95 0 245.156 0 245.156C0 245.156 5.81756 267.217 18.0235 284.083L32.2445 286.574L21.1966 288.162C22.732 290.004 24.382 291.748 26.1369 293.383C43.891 309.814 63.6661 317.352 70.3052 310.221C76.9444 303.089 67.934 283.989 50.1799 267.56C44.6759 262.466 37.7619 258.379 30.8407 255.161L30.1961 264.518Z" fill="#C0E7BE"/>
<path d="M56.4959 252.706L59.7664 241.972C56.6434 237.672 53.2796 233.55 49.691 229.628L46.7721 233.774L48.4466 228.278C43.9607 223.471 40.6847 220.572 40.6847 220.572C40.6847 220.572 34.2285 242.456 35.9316 263.184L46.8143 272.645L36.5315 268.311C36.8913 270.679 37.4002 273.023 38.055 275.327C44.7351 298.542 57.7551 315.187 67.1357 312.504C76.5163 309.82 78.7059 288.826 72.0258 265.611C69.9551 258.414 66.1551 251.351 61.8986 245.03L56.4959 252.706Z" fill="#C0E7BE"/>
<path d="M219.108 74.3868H217.383V27.2706C217.383 23.6894 216.675 20.1432 215.301 16.8346C213.926 13.526 211.911 10.5197 209.371 7.98739C206.832 5.45508 203.816 3.44634 200.498 2.07586C197.179 0.705381 193.622 7.62939e-06 190.03 7.62939e-06H89.9064C82.6522 7.62939e-06 75.695 2.87316 70.5655 7.98739C65.4359 13.1016 62.5542 20.038 62.5542 27.2706V285.758C62.5542 289.339 63.2617 292.885 64.6363 296.194C66.0108 299.503 68.0256 302.509 70.5655 305.041C73.1054 307.574 76.1207 309.582 79.4392 310.953C82.7577 312.323 86.3145 313.029 89.9064 313.029H190.03C197.285 313.029 204.242 310.155 209.371 305.041C214.501 299.927 217.382 292.991 217.382 285.758V107.925H219.107L219.108 74.3868Z" fill="#3F3D56"/>
<path d="M191.134 7.09222H178.065C178.666 8.56144 178.896 10.1555 178.733 11.7339C178.571 13.3124 178.022 14.8267 177.134 16.1437C176.246 17.4606 175.047 18.5396 173.642 19.2856C172.238 20.0316 170.671 20.4218 169.079 20.4218H111.719C110.128 20.4217 108.561 20.0314 107.157 19.2853C105.752 18.5392 104.553 17.4602 103.666 16.1433C102.778 14.8264 102.229 13.3121 102.066 11.7337C101.904 10.1553 102.133 8.56137 102.734 7.09222H90.5275C85.1101 7.09222 79.9145 9.23786 76.0838 13.0571C72.2531 16.8764 70.1011 22.0564 70.1011 27.4577V285.57C70.1011 290.971 72.2531 296.151 76.0838 299.97C79.9145 303.79 85.1101 305.935 90.5275 305.935H191.134C196.551 305.935 201.747 303.79 205.577 299.97C209.408 296.151 211.56 290.971 211.56 285.57V27.4572C211.56 22.0561 209.408 16.8761 205.577 13.057C201.747 9.2378 196.551 7.09222 191.134 7.09222Z" fill="white"/>
<path d="M128.011 109.911C128.011 108.107 128.487 106.334 129.392 104.772C130.297 103.21 131.599 101.913 133.167 101.011C131.6 100.109 129.822 99.6341 128.013 99.6339C126.204 99.6337 124.426 100.108 122.859 101.01C121.292 101.912 119.99 103.209 119.086 104.772C118.181 106.334 117.705 108.106 117.705 109.91C117.705 111.714 118.181 113.487 119.086 115.049C119.99 116.611 121.292 117.908 122.859 118.81C124.426 119.712 126.204 120.187 128.013 120.187C129.822 120.187 131.6 119.711 133.167 118.809C131.599 117.908 130.297 116.611 129.392 115.049C128.487 113.487 128.011 111.715 128.011 109.911Z" fill="#C0E7BE"/>
<path d="M140.969 109.911C140.968 108.107 141.445 106.334 142.35 104.772C143.255 103.21 144.557 101.913 146.124 101.011C144.557 100.109 142.78 99.6341 140.97 99.6339C139.161 99.6337 137.383 100.108 135.816 101.01C134.249 101.912 132.948 103.209 132.043 104.772C131.138 106.334 130.662 108.106 130.662 109.91C130.662 111.714 131.138 113.487 132.043 115.049C132.948 116.611 134.249 117.908 135.816 118.81C137.383 119.712 139.161 120.187 140.97 120.187C142.78 120.187 144.557 119.711 146.124 118.809C144.557 117.908 143.255 116.611 142.35 115.049C141.445 113.487 140.968 111.715 140.969 109.911Z" fill="#C0E7BE"/>
<path d="M153.632 120.187C159.324 120.187 163.939 115.586 163.939 109.911C163.939 104.235 159.324 99.6341 153.632 99.6341C147.939 99.6341 143.325 104.235 143.325 109.911C143.325 115.586 147.939 120.187 153.632 120.187Z" fill="#9CC69B"/>
<path d="M170.858 142.008H110.785C110.213 142.007 109.665 141.78 109.26 141.377C108.856 140.974 108.629 140.427 108.628 139.857V79.9638C108.629 79.3936 108.856 78.847 109.26 78.4438C109.665 78.0406 110.213 77.8138 110.785 77.8131H170.858C171.43 77.8138 171.978 78.0406 172.382 78.4438C172.787 78.847 173.014 79.3936 173.015 79.9638V139.857C173.014 140.427 172.787 140.974 172.382 141.377C171.978 141.78 171.43 142.007 170.858 142.008ZM110.785 78.6739C110.442 78.6742 110.113 78.8103 109.87 79.0522C109.628 79.2941 109.491 79.6221 109.491 79.9642V139.858C109.491 140.2 109.628 140.528 109.87 140.77C110.113 141.012 110.442 141.148 110.785 141.148H170.858C171.201 141.148 171.53 141.012 171.772 140.77C172.015 140.528 172.152 140.2 172.152 139.858V79.9642C172.152 79.6221 172.015 79.2941 171.772 79.0522C171.53 78.8103 171.201 78.6742 170.858 78.6739H110.785Z" fill="#CCCCCC"/>
<path d="M184.271 187.919H92.1377V188.779H184.271V187.919Z" fill="#CCCCCC"/>
<path d="M95.0473 182.548C96.6543 182.548 97.9569 181.249 97.9569 179.647C97.9569 178.044 96.6543 176.746 95.0473 176.746C93.4404 176.746 92.1377 178.044 92.1377 179.647C92.1377 181.249 93.4404 182.548 95.0473 182.548Z" fill="#C0E7BE"/>
<path d="M184.271 216.927H92.1377V217.787H184.271V216.927Z" fill="#CCCCCC"/>
<path d="M95.0473 211.556C96.6543 211.556 97.9569 210.257 97.9569 208.655C97.9569 207.053 96.6543 205.754 95.0473 205.754C93.4404 205.754 92.1377 207.053 92.1377 208.655C92.1377 210.257 93.4404 211.556 95.0473 211.556Z" fill="#C0E7BE"/>
<path d="M182.585 249.96H153.468C152.965 249.959 152.483 249.76 152.128 249.405C151.772 249.05 151.572 248.57 151.571 248.068V237.893C151.572 237.392 151.772 236.911 152.128 236.557C152.483 236.202 152.965 236.003 153.468 236.002H182.585C183.088 236.003 183.57 236.202 183.926 236.557C184.281 236.911 184.481 237.392 184.482 237.893V248.068C184.481 248.57 184.281 249.05 183.926 249.405C183.57 249.76 183.088 249.959 182.585 249.96Z" fill="#C0E7BE"/>
<path d="M104.538 182.548C106.145 182.548 107.448 181.249 107.448 179.647C107.448 178.044 106.145 176.746 104.538 176.746C102.931 176.746 101.628 178.044 101.628 179.647C101.628 181.249 102.931 182.548 104.538 182.548Z" fill="#C0E7BE"/>
<path d="M114.029 182.548C115.636 182.548 116.939 181.249 116.939 179.647C116.939 178.044 115.636 176.746 114.029 176.746C112.422 176.746 111.12 178.044 111.12 179.647C111.12 181.249 112.422 182.548 114.029 182.548Z" fill="#C0E7BE"/>
<path d="M104.538 211.556C106.145 211.556 107.448 210.257 107.448 208.655C107.448 207.053 106.145 205.754 104.538 205.754C102.931 205.754 101.628 207.053 101.628 208.655C101.628 210.257 102.931 211.556 104.538 211.556Z" fill="#C0E7BE"/>
<path d="M114.029 211.556C115.636 211.556 116.939 210.257 116.939 208.655C116.939 207.053 115.636 205.754 114.029 205.754C112.422 205.754 111.12 207.053 111.12 208.655C111.12 210.257 112.422 211.556 114.029 211.556Z" fill="#C0E7BE"/>
<path d="M312.827 314H10.1513C9.50337 314 8.97852 313.771 8.97852 313.488C8.97852 313.206 9.50337 312.976 10.1513 312.976H312.827C313.475 312.976 314 313.205 314 313.488C314 313.771 313.475 314 312.827 314Z" fill="#3F3D56" fill-opacity="0.5"/>
<path d="M238.046 205.723C238.253 205.817 238.452 205.928 238.641 206.054L257.549 198.008L258.224 193.042L265.779 192.996L265.333 204.385L240.376 210.966C240.324 211.139 240.261 211.308 240.188 211.473C239.827 212.241 239.247 212.885 238.52 213.325C237.793 213.765 236.952 213.981 236.102 213.946C235.253 213.911 234.433 213.626 233.745 213.128C233.057 212.63 232.532 211.94 232.236 211.145C231.94 210.35 231.886 209.486 232.081 208.661C232.276 207.836 232.712 207.087 233.332 206.507C233.953 205.928 234.732 205.545 235.57 205.405C236.409 205.265 237.27 205.376 238.046 205.723Z" fill="#FFB8B8"/>
<path d="M268.527 308.933H263.358L260.9 289.057L268.528 289.058L268.527 308.933Z" fill="#FFB8B8"/>
<path d="M259.667 307.46H269.634V313.717H253.391C253.391 312.058 254.052 310.466 255.229 309.293C256.406 308.12 258.002 307.46 259.667 307.46Z" fill="#2F2E41"/>
<path d="M288.627 307.477L283.484 307.982L279.082 288.443L286.673 287.697L288.627 307.477Z" fill="#FFB8B8"/>
<path d="M279.665 306.878L289.584 305.903L290.199 312.13L274.035 313.718C273.954 312.9 274.035 312.074 274.275 311.288C274.514 310.502 274.906 309.77 275.429 309.135C275.952 308.5 276.595 307.974 277.322 307.586C278.049 307.199 278.845 306.958 279.665 306.878Z" fill="#2F2E41"/>
<path d="M269.965 171.961C275.684 171.961 280.319 167.339 280.319 161.638C280.319 155.937 275.684 151.315 269.965 151.315C264.247 151.315 259.611 155.937 259.611 161.638C259.611 167.339 264.247 171.961 269.965 171.961Z" fill="#FFB8B8"/>
<path d="M262.204 304.913C261.76 304.915 261.329 304.759 260.989 304.475C260.648 304.191 260.419 303.796 260.342 303.359C257.667 288.554 248.923 240.143 248.714 238.802C248.71 238.772 248.707 238.74 248.708 238.709V235.1C248.707 234.968 248.748 234.84 248.825 234.733L249.98 233.12C250.035 233.043 250.107 232.979 250.191 232.933C250.274 232.887 250.367 232.862 250.463 232.857C257.048 232.55 278.616 231.647 279.658 232.945C280.705 234.25 280.335 238.202 280.25 238.981L280.254 239.062L289.944 300.845C290.02 301.338 289.898 301.84 289.605 302.244C289.312 302.648 288.871 302.921 288.378 303.003L282.326 303.997C281.875 304.07 281.413 303.978 281.025 303.739C280.636 303.501 280.346 303.131 280.207 302.697C278.335 296.734 272.059 276.673 269.884 268.91C269.87 268.861 269.839 268.819 269.796 268.791C269.753 268.763 269.702 268.751 269.651 268.758C269.601 268.766 269.554 268.791 269.521 268.83C269.488 268.868 269.47 268.918 269.47 268.969C269.579 276.368 269.842 295.248 269.932 301.768L269.942 302.47C269.946 302.946 269.771 303.406 269.452 303.759C269.132 304.112 268.692 304.332 268.217 304.377L262.381 304.906C262.321 304.911 262.262 304.913 262.204 304.913Z" fill="#2F2E41"/>
<path d="M263.394 176.02C261.587 177.091 260.506 179.059 259.886 181.062C258.737 184.77 258.046 188.603 257.827 192.477L257.171 204.078L249.054 234.831C256.089 240.766 260.147 239.418 269.618 234.563C279.088 229.708 280.17 236.182 280.17 236.182L282.064 210.014L284.77 181.42C284.163 180.691 283.475 180.032 282.721 179.455C280.22 177.516 277.31 176.169 274.211 175.514C271.111 174.859 267.903 174.914 264.828 175.674L263.394 176.02Z" fill="#75A575"/>
<path d="M260.758 211.934C260.976 212.016 261.188 212.115 261.391 212.23L280.086 202.9L280.396 197.846L288.108 197.316L288.522 208.837L263.537 217.075C263.333 217.948 262.868 218.737 262.203 219.34C261.537 219.942 260.704 220.328 259.814 220.446C258.923 220.565 258.017 220.41 257.217 220.003C256.417 219.596 255.76 218.955 255.334 218.167C254.907 217.378 254.732 216.479 254.831 215.588C254.929 214.698 255.298 213.859 255.886 213.182C256.475 212.506 257.257 212.024 258.127 211.801C258.997 211.578 259.915 211.624 260.758 211.934Z" fill="#FFB8B8"/>
<path d="M284.634 181.551C289.234 183.169 290.045 200.705 290.045 200.705C284.633 197.738 278.139 202.594 278.139 202.594C278.139 202.594 276.786 198.008 275.163 192.073C274.672 190.403 274.614 188.638 274.992 186.939C275.371 185.241 276.174 183.666 277.327 182.361C277.327 182.361 280.035 179.931 284.634 181.551Z" fill="#75A575"/>
<path d="M279.249 164.368C277.959 163.339 276.199 165.21 276.199 165.21L275.167 155.949C275.167 155.949 268.717 156.719 264.588 155.692C260.46 154.664 259.815 159.422 259.815 159.422C259.602 157.5 259.559 155.563 259.686 153.634C259.944 151.319 263.299 149.004 269.233 147.46C275.167 145.916 278.263 152.605 278.263 152.605C282.392 154.663 280.539 165.397 279.249 164.368Z" fill="#2F2E41"/>
</g>
<defs>
<clipPath id="clip0_296_336">
<rect width="314" height="314" fill="white"/>
</clipPath>
</defs>
</svg>
