<svg class="work__image" width="300" height="257" viewBox="0 0 300 257" fill="none" xmlns="http://www.w3.org/2000/svg">
<g clip-path="url(#clip0_261_808)">
<path d="M270.492 133.747C270.531 165.548 258.033 196.125 235.625 219.052C234.275 220.443 232.887 221.8 231.463 223.124C229.294 225.154 227.052 227.105 224.737 228.977C203.081 246.525 176.046 256.386 147.993 256.969C147.058 256.99 146.12 257 145.178 257C122.805 257 94.6653 245.247 69.1285 228.977C67.0157 227.631 64.9217 226.254 62.8466 224.845C61.8766 224.193 60.9113 223.531 59.9508 222.861C50.1016 216.021 40.7527 208.509 31.9732 200.381C26.2249 195.075 20.8345 189.406 15.8363 183.41C-3.78537 159.605 -8.11321 138.156 19.8608 133.747C23.1729 133.227 26.3873 132.67 29.5042 132.078C34.019 131.225 38.3398 130.303 42.4665 129.313C48.0254 127.985 53.248 126.544 58.1343 124.991C59.778 124.471 61.384 123.94 62.9524 123.399C86.1401 115.389 101.66 104.943 112.224 93.6096C114.015 91.6912 115.667 89.7497 117.179 87.785C119.493 84.7946 121.594 81.6511 123.468 78.3769C126.055 73.8275 128.228 69.0621 129.962 64.1363L130.057 63.8657C138.462 40.0192 135.905 17.9003 145.178 10.4973C184.816 -21.1512 234.165 23.9192 257.328 77.069C258.496 79.7472 259.594 82.4415 260.623 85.152C261.085 86.3627 261.53 87.5757 261.959 88.7911C263.088 91.9583 264.112 95.1337 265.032 98.3172C265.384 99.5313 265.721 100.744 266.04 101.956C266.383 103.264 266.711 104.568 267.014 105.873C269.268 115.423 270.492 124.842 270.492 133.747Z" fill="#FBFBFB"/>
<path d="M147.993 256.969C147.058 256.99 146.12 257 145.178 257C122.805 257 94.6654 245.247 69.1286 228.977C67.0158 227.631 64.9218 226.253 62.8467 224.845L64.6667 213.952L119.765 206.757L147.418 227.554L147.993 256.969Z" fill="#2F2E41"/>
<path d="M150.645 62.4607H142.793C142.55 62.4608 142.317 62.5559 142.145 62.725C141.973 62.8941 141.877 63.1234 141.876 63.3626V71.0883C141.877 71.2065 141.9 71.3236 141.947 71.4327C141.993 71.5419 142.06 71.6411 142.146 71.7246C142.231 71.808 142.332 71.8741 142.443 71.9191C142.554 71.9641 142.673 71.9871 142.793 71.9868H150.645C150.888 71.9869 151.12 71.8923 151.292 71.7239C151.464 71.5555 151.561 71.3269 151.562 71.0883V63.3626C151.561 63.1236 151.464 62.8946 151.293 62.7256C151.121 62.5566 150.888 62.4614 150.645 62.4607Z" fill="#FFB3FF"/>
<path d="M150.645 75.6259H142.793C142.55 75.626 142.317 75.721 142.145 75.8902C141.973 76.0593 141.877 76.2886 141.876 76.5278V84.2535C141.877 84.3717 141.9 84.4888 141.947 84.598C141.993 84.7071 142.06 84.8063 142.146 84.8898C142.231 84.9732 142.332 85.0393 142.443 85.0843C142.554 85.1293 142.673 85.1523 142.793 85.152H150.645C150.888 85.1521 151.12 85.0575 151.292 84.8891C151.464 84.7207 151.561 84.4921 151.562 84.2535V76.5278C151.561 76.2888 151.465 76.0598 151.293 75.8908C151.121 75.7218 150.888 75.6265 150.645 75.6259Z" fill="#E6E6E6"/>
<path d="M150.645 88.791H142.793C142.55 88.7911 142.317 88.8862 142.145 89.0553C141.973 89.2245 141.877 89.4538 141.876 89.693V97.4152C141.876 97.5337 141.9 97.6511 141.946 97.7606C141.992 97.8702 142.059 97.9697 142.145 98.0535C142.23 98.1373 142.331 98.2037 142.442 98.2489C142.554 98.2942 142.673 98.3173 142.793 98.3171H150.645C150.888 98.317 151.121 98.222 151.293 98.0528C151.465 97.8837 151.562 97.6544 151.562 97.4152V89.693C151.561 89.454 151.465 89.225 151.293 89.056C151.121 88.887 150.888 88.7917 150.645 88.791Z" fill="#E6E6E6"/>
<path d="M151.548 102.699C151.509 102.491 151.397 102.303 151.232 102.167C151.068 102.032 150.86 101.957 150.645 101.956H142.793C142.55 101.956 142.317 102.051 142.145 102.221C141.973 102.39 141.877 102.619 141.876 102.858V110.58C141.876 110.699 141.9 110.816 141.946 110.926C141.992 111.035 142.059 111.135 142.144 111.219C142.23 111.302 142.331 111.369 142.442 111.414C142.554 111.459 142.673 111.483 142.793 111.482H150.645C150.888 111.482 151.121 111.387 151.293 111.218C151.465 111.049 151.562 110.82 151.562 110.58V102.858C151.563 102.805 151.558 102.751 151.548 102.699Z" fill="#E6E6E6"/>
<path d="M151.001 115.191C150.889 115.145 150.767 115.121 150.645 115.121H142.794C142.673 115.121 142.554 115.144 142.443 115.19C142.331 115.235 142.23 115.301 142.145 115.385C142.06 115.469 141.992 115.568 141.946 115.678C141.9 115.787 141.876 115.905 141.877 116.023V123.745C141.876 123.864 141.9 123.982 141.945 124.091C141.991 124.201 142.059 124.301 142.144 124.384C142.229 124.468 142.331 124.535 142.442 124.58C142.554 124.625 142.673 124.648 142.794 124.647H150.645C150.888 124.647 151.122 124.552 151.294 124.383C151.466 124.214 151.562 123.985 151.562 123.745V116.023C151.562 115.846 151.509 115.672 151.409 115.524C151.309 115.376 151.168 115.26 151.001 115.191Z" fill="#E6E6E6"/>
<path d="M167.138 62.4607H159.287C159.043 62.4608 158.81 62.5559 158.638 62.725C158.466 62.8941 158.37 63.1234 158.37 63.3626V71.0883C158.37 71.2065 158.394 71.3236 158.44 71.4327C158.486 71.5419 158.554 71.6411 158.639 71.7246C158.724 71.808 158.825 71.8741 158.936 71.9191C159.047 71.9641 159.166 71.9871 159.287 71.9868H167.138C167.381 71.9869 167.614 71.8923 167.785 71.7239C167.957 71.5555 168.054 71.3269 168.055 71.0883V63.3626C168.055 63.1236 167.958 62.8946 167.786 62.7256C167.614 62.5566 167.381 62.4614 167.138 62.4607Z" fill="#E6E6E6"/>
<path d="M167.138 75.6259H159.287C159.043 75.626 158.81 75.721 158.638 75.8902C158.466 76.0593 158.37 76.2886 158.37 76.5278V84.2535C158.37 84.3717 158.394 84.4888 158.44 84.598C158.486 84.7071 158.554 84.8063 158.639 84.8898C158.724 84.9732 158.825 85.0393 158.936 85.0843C159.047 85.1293 159.166 85.1523 159.287 85.152H167.138C167.381 85.1521 167.614 85.0575 167.785 84.8891C167.957 84.7207 168.054 84.4921 168.055 84.2535V76.5278C168.055 76.2888 167.958 76.0598 167.786 75.8908C167.614 75.7218 167.381 75.6265 167.138 75.6259Z" fill="#C0E7BE"/>
<path d="M167.138 88.791H159.287C159.043 88.7911 158.81 88.8862 158.638 89.0553C158.466 89.2245 158.37 89.4538 158.37 89.693V97.4152C158.369 97.5337 158.393 97.6511 158.439 97.7606C158.485 97.8702 158.552 97.9697 158.638 98.0535C158.723 98.1373 158.824 98.2037 158.935 98.2489C159.047 98.2942 159.166 98.3173 159.287 98.3171H167.138C167.381 98.317 167.615 98.222 167.786 98.0528C167.958 97.8837 168.055 97.6544 168.055 97.4152V89.693C168.055 89.454 167.958 89.225 167.786 89.056C167.614 88.887 167.381 88.7917 167.138 88.791Z" fill="#C0E7BE"/>
<path d="M167.138 101.956H159.287C159.094 101.956 158.907 102.016 158.751 102.127C158.596 102.238 158.479 102.394 158.419 102.574C158.386 102.665 158.37 102.761 158.37 102.858V110.58C158.369 110.699 158.393 110.816 158.439 110.926C158.485 111.035 158.552 111.135 158.638 111.219C158.723 111.302 158.824 111.369 158.935 111.414C159.047 111.459 159.166 111.483 159.287 111.482H167.138C167.381 111.482 167.615 111.387 167.786 111.218C167.958 111.049 168.055 110.82 168.055 110.58V102.858C168.055 102.619 167.958 102.39 167.786 102.221C167.614 102.052 167.381 101.957 167.138 101.956Z" fill="#C0E7BE"/>
<path d="M167.138 115.121H159.287C159.166 115.121 159.047 115.144 158.935 115.19C158.824 115.235 158.723 115.301 158.638 115.385C158.552 115.469 158.485 115.568 158.439 115.678C158.393 115.787 158.369 115.905 158.37 116.023V123.745C158.369 123.864 158.393 123.981 158.439 124.091C158.485 124.2 158.552 124.3 158.638 124.384C158.723 124.468 158.824 124.534 158.935 124.579C159.047 124.625 159.166 124.648 159.287 124.647H167.138C167.381 124.647 167.615 124.552 167.787 124.383C167.958 124.214 168.055 123.985 168.055 123.745V116.023C168.055 115.784 167.958 115.555 167.787 115.386C167.615 115.217 167.381 115.121 167.138 115.121Z" fill="#E6E6E6"/>
<path d="M183.631 62.4607H175.78C175.537 62.4608 175.303 62.5559 175.132 62.725C174.96 62.8941 174.863 63.1234 174.863 63.3626V71.0883C174.863 71.2065 174.887 71.3236 174.933 71.4327C174.979 71.5419 175.047 71.6411 175.132 71.7246C175.217 71.808 175.318 71.8741 175.429 71.9191C175.54 71.9641 175.66 71.9871 175.78 71.9868H183.631C183.874 71.9869 184.107 71.8923 184.279 71.7239C184.451 71.5555 184.548 71.3269 184.548 71.0883V63.3626C184.548 63.1236 184.451 62.8946 184.279 62.7256C184.107 62.5566 183.874 62.4614 183.631 62.4607Z" fill="#C0E7BE"/>
<path d="M183.631 75.6259H175.78C175.537 75.626 175.303 75.721 175.131 75.8902C174.96 76.0593 174.863 76.2886 174.863 76.5278V84.2535C174.863 84.3717 174.887 84.4888 174.933 84.598C174.979 84.7071 175.047 84.8063 175.132 84.8898C175.217 84.9732 175.318 85.0393 175.429 85.0843C175.54 85.1293 175.66 85.1523 175.78 85.152H183.631C183.874 85.1521 184.107 85.0575 184.279 84.8891C184.451 84.7207 184.548 84.4921 184.548 84.2535V76.5278C184.548 76.2888 184.451 76.0598 184.279 75.8908C184.107 75.7218 183.874 75.6265 183.631 75.6259Z" fill="#C0E7BE"/>
<path d="M183.631 88.791H175.78C175.537 88.7911 175.303 88.8862 175.131 89.0553C174.96 89.2245 174.863 89.4538 174.863 89.693V97.4152C174.863 97.5337 174.886 97.6511 174.932 97.7606C174.978 97.8702 175.046 97.9697 175.131 98.0535C175.216 98.1373 175.317 98.2037 175.429 98.2489C175.54 98.2942 175.659 98.3173 175.78 98.3171H183.631C183.874 98.317 184.108 98.222 184.28 98.0528C184.452 97.8837 184.548 97.6544 184.548 97.4152V89.693C184.548 89.454 184.451 89.225 184.279 89.056C184.107 88.887 183.874 88.7917 183.631 88.791Z" fill="#E6E6E6"/>
<path d="M183.631 101.956H175.78C175.537 101.956 175.303 102.051 175.132 102.221C174.96 102.39 174.863 102.619 174.863 102.858V110.58C174.863 110.699 174.886 110.816 174.932 110.926C174.978 111.035 175.046 111.135 175.131 111.219C175.216 111.302 175.317 111.369 175.429 111.414C175.54 111.459 175.659 111.483 175.78 111.482H183.631C183.875 111.482 184.108 111.387 184.28 111.218C184.452 111.049 184.548 110.82 184.548 110.58V102.858C184.548 102.619 184.451 102.39 184.279 102.221C184.107 102.052 183.874 101.957 183.631 101.956Z" fill="#C0E7BE"/>
<path d="M183.631 115.121H175.78C175.659 115.121 175.54 115.144 175.429 115.19C175.317 115.235 175.216 115.301 175.131 115.385C175.046 115.469 174.978 115.568 174.932 115.678C174.886 115.787 174.863 115.905 174.863 116.023V123.745C174.863 123.864 174.886 123.981 174.932 124.091C174.978 124.2 175.046 124.3 175.131 124.384C175.216 124.468 175.317 124.534 175.429 124.579C175.54 124.625 175.659 124.648 175.78 124.647H183.631C183.875 124.647 184.108 124.552 184.28 124.383C184.452 124.214 184.548 123.985 184.548 123.745V116.023C184.548 115.784 184.452 115.555 184.28 115.386C184.108 115.217 183.875 115.121 183.631 115.121Z" fill="#C0E7BE"/>
<path d="M200.124 62.4607H192.273C192.03 62.4608 191.796 62.5559 191.624 62.725C191.452 62.8941 191.356 63.1234 191.356 63.3626V71.0883C191.356 71.2065 191.38 71.3236 191.426 71.4328C191.472 71.5419 191.54 71.6411 191.625 71.7246C191.71 71.808 191.811 71.8741 191.922 71.9191C192.033 71.9641 192.153 71.9871 192.273 71.9868H200.124C200.367 71.9869 200.6 71.8923 200.772 71.7239C200.944 71.5555 201.041 71.3269 201.041 71.0883V63.3626C201.041 63.1236 200.944 62.8946 200.772 62.7256C200.6 62.5566 200.367 62.4614 200.124 62.4607Z" fill="#C0E7BE"/>
<path d="M200.124 75.6259H192.273C192.03 75.626 191.796 75.721 191.624 75.8902C191.452 76.0593 191.356 76.2886 191.356 76.5278V84.2535C191.356 84.3717 191.38 84.4888 191.426 84.598C191.472 84.7072 191.54 84.8063 191.625 84.8898C191.71 84.9732 191.811 85.0393 191.922 85.0843C192.033 85.1293 192.153 85.1523 192.273 85.152H200.124C200.367 85.1521 200.6 85.0575 200.772 84.8891C200.944 84.7207 201.041 84.4921 201.041 84.2535V76.5278C201.041 76.2888 200.944 76.0598 200.772 75.8908C200.6 75.7218 200.367 75.6265 200.124 75.6259Z" fill="#FFB3FF"/>
<path d="M200.124 88.791H192.273C192.03 88.7911 191.796 88.8862 191.624 89.0553C191.452 89.2245 191.356 89.4538 191.356 89.693V97.4152C191.355 97.5337 191.379 97.6511 191.425 97.7606C191.471 97.8702 191.539 97.9697 191.624 98.0535C191.709 98.1373 191.81 98.2037 191.922 98.2489C192.033 98.2942 192.152 98.3173 192.273 98.3171H200.124C200.367 98.317 200.601 98.222 200.773 98.0528C200.945 97.8837 201.041 97.6544 201.041 97.4152V89.693C201.041 89.454 200.944 89.225 200.772 89.056C200.6 88.887 200.367 88.7917 200.124 88.791Z" fill="#FFB3FF"/>
<path d="M200.124 101.956H192.273C192.03 101.956 191.796 102.051 191.624 102.221C191.452 102.39 191.356 102.619 191.356 102.858V110.58C191.355 110.699 191.379 110.816 191.425 110.926C191.471 111.035 191.539 111.135 191.624 111.219C191.709 111.302 191.81 111.369 191.922 111.414C192.033 111.459 192.152 111.483 192.273 111.482H200.124C200.367 111.482 200.601 111.387 200.773 111.218C200.945 111.049 201.041 110.82 201.041 110.58V102.858C201.041 102.619 200.944 102.39 200.772 102.221C200.6 102.052 200.367 101.957 200.124 101.956Z" fill="#E6E6E6"/>
<path d="M200.124 115.121H192.273C192.152 115.121 192.033 115.144 191.922 115.19C191.81 115.235 191.709 115.301 191.624 115.385C191.539 115.469 191.471 115.568 191.425 115.678C191.379 115.787 191.355 115.905 191.356 116.023V123.745C191.355 123.864 191.379 123.981 191.425 124.091C191.471 124.2 191.539 124.3 191.624 124.384C191.709 124.468 191.81 124.534 191.922 124.579C192.033 124.625 192.152 124.648 192.273 124.647H200.124C200.367 124.647 200.601 124.552 200.773 124.383C200.945 124.214 201.041 123.985 201.041 123.745V116.023C201.041 115.784 200.945 115.555 200.773 115.386C200.601 115.217 200.367 115.121 200.124 115.121Z" fill="#C0E7BE"/>
<path d="M216.617 62.4607H208.762C208.52 62.4615 208.287 62.5569 208.116 62.726C207.945 62.895 207.849 63.124 207.849 63.3626V71.0883C207.849 71.3265 207.945 71.555 208.117 71.7235C208.288 71.892 208.52 71.9867 208.762 71.9868H216.617C216.86 71.9869 217.093 71.8923 217.265 71.7239C217.437 71.5555 217.534 71.3269 217.535 71.0883V63.3626C217.534 63.1236 217.437 62.8946 217.265 62.7256C217.093 62.5566 216.86 62.4614 216.617 62.4607Z" fill="#FFB3FF"/>
<path d="M216.617 75.6259H208.762C208.52 75.6267 208.287 75.7221 208.116 75.8912C207.945 76.0602 207.849 76.2892 207.849 76.5278V84.2535C207.849 84.4917 207.945 84.7203 208.117 84.8887C208.288 85.0572 208.52 85.1519 208.762 85.152H216.617C216.86 85.1521 217.093 85.0575 217.265 84.8891C217.437 84.7207 217.534 84.4921 217.535 84.2535V76.5278C217.534 76.2888 217.437 76.0598 217.265 75.8908C217.093 75.7218 216.86 75.6265 216.617 75.6259Z" fill="#FFB3FF"/>
<path d="M216.617 88.791H208.762C208.52 88.7919 208.287 88.8873 208.116 89.0563C207.945 89.2254 207.849 89.4544 207.849 89.693V97.4152C207.849 97.5334 207.872 97.6506 207.918 97.7599C207.963 97.8693 208.031 97.9687 208.116 98.0525C208.2 98.1362 208.301 98.2027 208.412 98.2481C208.523 98.2936 208.642 98.317 208.762 98.3171H216.617C216.861 98.317 217.094 98.222 217.266 98.0528C217.438 97.8837 217.534 97.6544 217.535 97.4152V89.693C217.534 89.454 217.437 89.225 217.265 89.056C217.093 88.887 216.86 88.7917 216.617 88.791Z" fill="#FFB3FF"/>
<path d="M216.617 101.956H208.762C208.52 101.957 208.287 102.052 208.116 102.222C207.945 102.391 207.849 102.62 207.849 102.858V110.58C207.849 110.699 207.872 110.816 207.918 110.925C207.963 111.034 208.031 111.134 208.115 111.218C208.2 111.301 208.301 111.368 208.412 111.413C208.523 111.459 208.642 111.482 208.762 111.482H216.617C216.861 111.482 217.094 111.387 217.266 111.218C217.438 111.049 217.534 110.82 217.535 110.58V102.858C217.534 102.619 217.437 102.39 217.265 102.221C217.093 102.052 216.86 101.957 216.617 101.956Z" fill="#C0E7BE"/>
<path d="M216.617 115.121H208.762C208.642 115.121 208.523 115.145 208.412 115.19C208.301 115.236 208.2 115.302 208.115 115.386C208.031 115.47 207.963 115.569 207.918 115.679C207.872 115.788 207.849 115.905 207.849 116.023V123.745C207.849 123.864 207.872 123.981 207.918 124.09C207.963 124.2 208.031 124.299 208.115 124.383C208.2 124.467 208.301 124.533 208.412 124.578C208.523 124.624 208.642 124.647 208.762 124.647H216.617C216.861 124.647 217.094 124.552 217.266 124.383C217.438 124.214 217.534 123.985 217.535 123.745V116.023C217.534 115.784 217.438 115.555 217.266 115.386C217.094 115.217 216.861 115.121 216.617 115.121Z" fill="#E6E6E6"/>
<path d="M233.111 62.4607H225.256C225.013 62.4615 224.781 62.5569 224.609 62.726C224.438 62.895 224.342 63.124 224.342 63.3626V71.0883C224.342 71.3265 224.438 71.555 224.61 71.7235C224.781 71.892 225.013 71.9867 225.256 71.9868H233.111C233.353 71.9869 233.586 71.8923 233.758 71.7239C233.93 71.5555 234.027 71.3269 234.028 71.0883V63.3626C234.027 63.1236 233.93 62.8946 233.758 62.7256C233.586 62.5566 233.354 62.4614 233.111 62.4607Z" fill="#FFB3FF"/>
<path d="M233.111 75.6259H225.256C225.013 75.6267 224.781 75.7221 224.609 75.8912C224.438 76.0602 224.342 76.2892 224.342 76.5278V84.2535C224.342 84.4917 224.438 84.7203 224.61 84.8887C224.781 85.0572 225.013 85.1519 225.256 85.152H233.111C233.353 85.152 233.586 85.0575 233.758 84.8891C233.93 84.7207 234.027 84.4921 234.028 84.2535V76.5278C234.027 76.2888 233.93 76.0598 233.758 75.8908C233.586 75.7218 233.354 75.6266 233.111 75.6259Z" fill="#FFB3FF"/>
<path d="M233.111 88.791H225.256C225.013 88.7919 224.781 88.8873 224.609 89.0563C224.438 89.2254 224.342 89.4544 224.342 89.693V97.4152C224.342 97.5334 224.365 97.6506 224.411 97.7599C224.457 97.8693 224.524 97.9687 224.609 98.0525C224.694 98.1362 224.794 98.2027 224.905 98.2481C225.016 98.2936 225.135 98.317 225.256 98.3171H233.111C233.354 98.317 233.587 98.2219 233.759 98.0528C233.931 97.8837 234.028 97.6544 234.028 97.4152V89.693C234.027 89.454 233.93 89.225 233.758 89.056C233.586 88.887 233.354 88.7917 233.111 88.791Z" fill="#C0E7BE"/>
<path d="M233.111 101.956H225.256C225.013 101.957 224.781 102.052 224.609 102.222C224.438 102.391 224.342 102.62 224.342 102.858V110.58C224.342 110.699 224.365 110.816 224.411 110.925C224.457 111.034 224.524 111.134 224.609 111.218C224.694 111.301 224.794 111.368 224.905 111.413C225.016 111.459 225.135 111.482 225.256 111.482H233.111C233.354 111.482 233.587 111.387 233.759 111.218C233.931 111.049 234.028 110.82 234.028 110.58V102.858C234.027 102.619 233.93 102.39 233.758 102.221C233.586 102.052 233.354 101.957 233.111 101.956Z" fill="#E6E6E6"/>
<path d="M233.111 115.121H225.256C225.135 115.121 225.016 115.145 224.905 115.19C224.794 115.236 224.694 115.302 224.609 115.386C224.524 115.47 224.457 115.569 224.411 115.679C224.365 115.788 224.342 115.905 224.342 116.023V123.745C224.342 123.864 224.365 123.981 224.411 124.09C224.457 124.2 224.524 124.299 224.609 124.383C224.694 124.467 224.794 124.533 224.905 124.578C225.016 124.624 225.135 124.647 225.256 124.647H233.111C233.354 124.647 233.587 124.552 233.759 124.383C233.931 124.214 234.028 123.985 234.028 123.745V116.023C234.028 115.784 233.931 115.555 233.759 115.386C233.587 115.217 233.354 115.121 233.111 115.121Z" fill="#FFB3FF"/>
<path d="M249.604 62.4607H241.749C241.506 62.4615 241.273 62.5569 241.102 62.726C240.931 62.895 240.835 63.124 240.835 63.3626V71.0883C240.835 71.3265 240.931 71.555 241.103 71.7235C241.274 71.892 241.506 71.9867 241.749 71.9868H249.604C249.846 71.9869 250.079 71.8923 250.251 71.7239C250.423 71.5555 250.52 71.3269 250.521 71.0883V63.3626C250.52 63.1236 250.423 62.8946 250.251 62.7256C250.079 62.5566 249.847 62.4614 249.604 62.4607Z" fill="#C0E7BE"/>
<path d="M249.604 75.6259H241.749C241.506 75.6267 241.273 75.7221 241.102 75.8912C240.931 76.0602 240.835 76.2892 240.835 76.5278V84.2535C240.835 84.4917 240.931 84.7203 241.103 84.8887C241.274 85.0572 241.506 85.1519 241.749 85.152H249.604C249.846 85.152 250.079 85.0575 250.251 84.8891C250.423 84.7207 250.52 84.4921 250.521 84.2535V76.5278C250.52 76.2888 250.423 76.0598 250.251 75.8908C250.079 75.7218 249.847 75.6266 249.604 75.6259Z" fill="#C0E7BE"/>
<path d="M249.604 88.791H241.749C241.506 88.7919 241.273 88.8873 241.102 89.0563C240.931 89.2254 240.835 89.4544 240.835 89.693V97.4152C240.835 97.5334 240.858 97.6506 240.904 97.7599C240.949 97.8693 241.017 97.9687 241.102 98.0525C241.186 98.1362 241.287 98.2027 241.398 98.2481C241.509 98.2936 241.628 98.317 241.749 98.3171H249.604C249.847 98.317 250.08 98.2219 250.252 98.0528C250.424 97.8837 250.52 97.6544 250.521 97.4152V89.693C250.52 89.454 250.423 89.225 250.251 89.056C250.079 88.887 249.847 88.7917 249.604 88.791Z" fill="#E6E6E6"/>
<path d="M249.604 101.956H241.749C241.506 101.957 241.273 102.052 241.102 102.222C240.931 102.391 240.835 102.62 240.835 102.858V110.58C240.835 110.699 240.858 110.816 240.904 110.925C240.949 111.034 241.017 111.134 241.102 111.218C241.186 111.301 241.287 111.368 241.398 111.413C241.509 111.459 241.628 111.482 241.749 111.482H249.604C249.847 111.482 250.08 111.387 250.252 111.218C250.424 111.049 250.521 110.82 250.521 110.58V102.858C250.52 102.619 250.423 102.39 250.251 102.221C250.079 102.052 249.847 101.957 249.604 101.956Z" fill="#FFB3FF"/>
<path d="M249.604 115.121H241.749C241.628 115.121 241.509 115.145 241.398 115.19C241.287 115.236 241.186 115.302 241.102 115.386C241.017 115.47 240.949 115.569 240.904 115.679C240.858 115.788 240.835 115.905 240.835 116.023V123.745C240.835 123.864 240.858 123.981 240.904 124.09C240.949 124.2 241.017 124.299 241.102 124.383C241.186 124.467 241.287 124.533 241.398 124.578C241.509 124.624 241.628 124.647 241.749 124.647H249.604C249.847 124.647 250.08 124.552 250.252 124.383C250.424 124.214 250.521 123.985 250.521 123.745V116.023C250.521 115.784 250.424 115.555 250.252 115.386C250.08 115.217 249.847 115.121 249.604 115.121Z" fill="#C0E7BE"/>
<path d="M266.097 62.4607H258.242C257.999 62.4615 257.767 62.5569 257.595 62.726C257.424 62.895 257.328 63.124 257.328 63.3626V71.0883C257.328 71.3265 257.424 71.555 257.596 71.7235C257.767 71.892 257.999 71.9867 258.242 71.9868H266.097C266.339 71.9869 266.572 71.8923 266.744 71.7239C266.916 71.5555 267.013 71.3269 267.014 71.0883V63.3626C267.013 63.1236 266.916 62.8946 266.744 62.7256C266.573 62.5566 266.34 62.4614 266.097 62.4607Z" fill="#C0E7BE"/>
<path d="M266.097 75.6259H258.242C257.999 75.6267 257.767 75.7221 257.595 75.8912C257.424 76.0602 257.328 76.2892 257.328 76.5278V84.2535C257.328 84.4917 257.424 84.7203 257.596 84.8887C257.767 85.0572 257.999 85.1519 258.242 85.152H266.097C266.339 85.152 266.572 85.0575 266.744 84.8891C266.916 84.7207 267.013 84.4921 267.014 84.2535V76.5278C267.013 76.2888 266.916 76.0598 266.744 75.8908C266.573 75.7218 266.34 75.6266 266.097 75.6259Z" fill="#C0E7BE"/>
<path d="M266.097 88.791H258.242C257.999 88.7919 257.767 88.8873 257.595 89.0563C257.424 89.2254 257.328 89.4544 257.328 89.693V97.4152C257.328 97.5334 257.351 97.6506 257.397 97.7599C257.443 97.8693 257.51 97.9687 257.595 98.0525C257.68 98.1362 257.78 98.2027 257.891 98.2481C258.002 98.2936 258.121 98.317 258.242 98.3171H266.097C266.34 98.317 266.573 98.2219 266.745 98.0528C266.917 97.8837 267.014 97.6544 267.014 97.4152V89.693C267.013 89.454 266.916 89.225 266.744 89.056C266.573 88.887 266.34 88.7917 266.097 88.791Z" fill="#E6E6E6"/>
<path d="M266.097 101.956H258.242C257.999 101.957 257.767 102.052 257.595 102.222C257.424 102.391 257.328 102.62 257.328 102.858V110.58C257.328 110.699 257.351 110.816 257.397 110.925C257.443 111.034 257.51 111.134 257.595 111.218C257.68 111.301 257.78 111.368 257.891 111.413C258.002 111.459 258.121 111.482 258.242 111.482H266.097C266.34 111.482 266.573 111.387 266.745 111.218C266.917 111.049 267.014 110.82 267.014 110.58V102.858C267.013 102.619 266.916 102.39 266.744 102.221C266.573 102.052 266.34 101.957 266.097 101.956Z" fill="#C0E7BE"/>
<path d="M266.097 115.121H258.242C258.121 115.121 258.002 115.145 257.891 115.19C257.78 115.236 257.68 115.302 257.595 115.386C257.51 115.47 257.443 115.569 257.397 115.679C257.351 115.788 257.328 115.905 257.328 116.023V123.745C257.328 123.864 257.351 123.981 257.397 124.09C257.443 124.2 257.51 124.299 257.595 124.383C257.68 124.467 257.78 124.533 257.891 124.578C258.002 124.624 258.121 124.647 258.242 124.647H266.097C266.34 124.647 266.573 124.552 266.745 124.383C266.917 124.214 267.014 123.985 267.014 123.745V116.023C267.014 115.784 266.917 115.555 266.745 115.386C266.573 115.217 266.34 115.121 266.097 115.121Z" fill="#C0E7BE"/>
<path d="M282.59 62.4607H274.735C274.492 62.4615 274.26 62.5569 274.089 62.726C273.917 62.895 273.821 63.124 273.821 63.3626V71.0883C273.821 71.3265 273.918 71.555 274.089 71.7235C274.26 71.892 274.493 71.9867 274.735 71.9868H282.59C282.832 71.9869 283.065 71.8923 283.237 71.7239C283.409 71.5555 283.506 71.3269 283.507 71.0883V63.3626C283.506 63.1236 283.409 62.8946 283.238 62.7256C283.066 62.5566 282.833 62.4614 282.59 62.4607Z" fill="#E6E6E6"/>
<path d="M282.59 75.6259H274.735C274.492 75.6267 274.26 75.7221 274.089 75.8912C273.917 76.0602 273.821 76.2892 273.821 76.5278V84.2535C273.821 84.4917 273.918 84.7203 274.089 84.8887C274.26 85.0572 274.493 85.1519 274.735 85.152H282.59C282.832 85.152 283.065 85.0575 283.237 84.8891C283.409 84.7207 283.506 84.4921 283.507 84.2535V76.5278C283.506 76.2888 283.409 76.0598 283.238 75.8908C283.066 75.7218 282.833 75.6266 282.59 75.6259Z" fill="#C0E7BE"/>
<path d="M282.59 88.791H274.735C274.492 88.7919 274.26 88.8873 274.089 89.0563C273.917 89.2254 273.821 89.4544 273.821 89.693V97.4152C273.821 97.5334 273.844 97.6506 273.89 97.7599C273.936 97.8693 274.003 97.9687 274.088 98.0525C274.173 98.1362 274.274 98.2027 274.385 98.2481C274.496 98.2936 274.615 98.317 274.735 98.3171H282.59C282.833 98.317 283.066 98.2219 283.238 98.0528C283.41 97.8837 283.507 97.6544 283.507 97.4152V89.693C283.506 89.454 283.409 89.225 283.238 89.056C283.066 88.887 282.833 88.7917 282.59 88.791Z" fill="#C0E7BE"/>
<path d="M282.59 101.956H274.735C274.492 101.957 274.26 102.052 274.089 102.222C273.917 102.391 273.821 102.62 273.821 102.858V110.58C273.821 110.699 273.844 110.816 273.89 110.925C273.936 111.034 274.003 111.134 274.088 111.218C274.173 111.301 274.274 111.368 274.385 111.413C274.496 111.459 274.615 111.482 274.735 111.482H282.59C282.833 111.482 283.066 111.387 283.238 111.218C283.41 111.049 283.507 110.82 283.507 110.58V102.858C283.506 102.619 283.409 102.39 283.238 102.221C283.066 102.052 282.833 101.957 282.59 101.956Z" fill="#C0E7BE"/>
<path d="M282.59 115.121H274.735C274.615 115.121 274.496 115.145 274.385 115.19C274.274 115.236 274.173 115.302 274.088 115.386C274.003 115.47 273.936 115.569 273.89 115.679C273.844 115.788 273.821 115.905 273.821 116.023V123.745C273.821 123.864 273.844 123.981 273.89 124.09C273.936 124.2 274.003 124.299 274.088 124.383C274.173 124.467 274.274 124.533 274.385 124.578C274.496 124.624 274.615 124.647 274.735 124.647H282.59C282.833 124.647 283.066 124.552 283.238 124.383C283.41 124.214 283.507 123.985 283.507 123.745V116.023C283.507 115.784 283.41 115.555 283.238 115.386C283.066 115.217 282.833 115.121 282.59 115.121Z" fill="#E6E6E6"/>
<path d="M299.083 62.4607H291.228C290.985 62.4615 290.753 62.5569 290.582 62.726C290.41 62.895 290.314 63.124 290.314 63.3626V71.0883C290.314 71.3265 290.411 71.555 290.582 71.7235C290.753 71.892 290.986 71.9867 291.228 71.9868H299.083C299.325 71.9869 299.558 71.8923 299.73 71.7239C299.902 71.5555 299.999 71.3269 300 71.0883V63.3626C299.999 63.1236 299.902 62.8946 299.73 62.7256C299.559 62.5566 299.326 62.4614 299.083 62.4607Z" fill="#E6E6E6"/>
<path d="M299.083 75.6259H291.228C290.985 75.6267 290.753 75.7221 290.581 75.8912C290.41 76.0602 290.314 76.2892 290.314 76.5278V84.2535C290.314 84.4917 290.411 84.7203 290.582 84.8887C290.753 85.0572 290.986 85.1519 291.228 85.152H299.083C299.325 85.152 299.558 85.0575 299.73 84.8891C299.902 84.7207 299.999 84.4921 300 84.2535V76.5278C299.999 76.2888 299.902 76.0598 299.73 75.8908C299.559 75.7218 299.326 75.6266 299.083 75.6259Z" fill="#E6E6E6"/>
<path d="M299.083 88.791H291.228C290.985 88.7919 290.753 88.8873 290.581 89.0563C290.41 89.2254 290.314 89.4544 290.314 89.693V97.4152C290.314 97.5334 290.337 97.6506 290.383 97.7599C290.429 97.8693 290.496 97.9687 290.581 98.0525C290.666 98.1362 290.767 98.2027 290.878 98.2481C290.989 98.2936 291.108 98.317 291.228 98.3171H299.083C299.326 98.317 299.559 98.2219 299.731 98.0528C299.903 97.8837 300 97.6544 300 97.4152V89.693C299.999 89.454 299.902 89.225 299.73 89.056C299.559 88.887 299.326 88.7917 299.083 88.791Z" fill="#C0E7BE"/>
<path d="M299.083 101.956H291.228C290.985 101.957 290.753 102.052 290.582 102.222C290.41 102.391 290.314 102.62 290.314 102.858V110.58C290.314 110.699 290.337 110.816 290.383 110.925C290.429 111.034 290.496 111.134 290.581 111.218C290.666 111.301 290.767 111.368 290.878 111.413C290.989 111.459 291.108 111.482 291.228 111.482H299.083C299.326 111.482 299.559 111.387 299.731 111.218C299.903 111.049 300 110.82 300 110.58V102.858C299.999 102.619 299.902 102.39 299.73 102.221C299.559 102.052 299.326 101.957 299.083 101.956Z" fill="#E6E6E6"/>
<path d="M299.083 115.121H291.228C291.108 115.121 290.989 115.145 290.878 115.19C290.767 115.236 290.666 115.302 290.581 115.386C290.496 115.47 290.429 115.569 290.383 115.679C290.337 115.788 290.314 115.905 290.314 116.023V123.745C290.314 123.864 290.337 123.981 290.383 124.09C290.429 124.2 290.496 124.299 290.581 124.383C290.666 124.467 290.767 124.533 290.878 124.578C290.989 124.624 291.108 124.647 291.228 124.647H299.083C299.326 124.647 299.559 124.552 299.731 124.383C299.903 124.214 300 123.985 300 123.745V116.023C300 115.784 299.903 115.555 299.731 115.386C299.559 115.217 299.326 115.121 299.083 115.121Z" fill="#E6E6E6"/>
<path d="M118.547 228.978H118.328L118.515 228.953L118.547 228.978Z" fill="#2F2E41"/>
<path d="M99.7536 85.0115C113.063 85.0115 123.852 74.4 123.852 61.3101C123.852 48.2201 113.063 37.6086 99.7536 37.6086C86.4445 37.6086 75.6553 48.2201 75.6553 61.3101C75.6553 74.4 86.4445 85.0115 99.7536 85.0115Z" fill="#FFB6B6"/>
<path d="M120.857 43.9326C120.857 43.9326 127.16 32.0819 113.294 31.0045C113.294 31.0045 101.472 20.4577 89.4233 29.0764C89.4233 29.0764 82.851 29.0764 79.2571 36.3912C79.2571 36.3912 74.088 34.4631 72.952 39.6232C72.952 39.6232 69.1697 50.3966 72.952 60.0927C76.7344 69.7887 77.9908 70.8661 77.9908 70.8661C77.9908 70.8661 71.7755 50.5378 86.9039 49.4604C102.032 48.383 118.961 39.0846 120.222 50.9353C121.483 62.786 123.38 65.7059 123.38 65.7059C123.38 65.7059 135.355 48.7806 120.857 43.9326Z" fill="#2F2E41"/>
<path d="M162.091 119.721L162.013 120.124L161.142 124.648L155.121 155.939L154.765 157.781L154.017 161.677L152.994 166.991L150.726 178.769L150.077 182.144L149.834 183.41L149.749 183.854L149.075 187.348L148.871 188.402L147.227 200.381L145.792 210.82L150.596 215.544L147.732 218.361L145.852 228.952L145.855 228.977H69.1285C66.0245 226.999 62.9653 224.961 59.9508 222.861L60.5821 218.212C60.5821 218.212 62.7548 209.911 61.8413 208.919C60.9313 207.926 58.9349 206.154 58.9349 206.154L61.4498 200.381L61.799 199.58L61.2135 187.636L61.1994 187.348L61.0054 183.41L60.9807 182.904L60.9419 182.144L60.1977 166.991L60.1835 166.741L59.9578 162.148L59.7462 157.781L59.6545 155.939L58.748 137.507L58.1343 124.991L57.5981 114.095L59.7532 113.376L82.8034 105.672L92.3514 93.4639L112.224 93.6096L121.952 93.6825L138.184 108.488L141.877 110.223L141.905 110.237L144.554 111.482L151.269 114.636L158.37 117.973L162.013 119.683L162.091 119.721Z" fill="#75A575"/>
<path d="M94.9195 193.419C93.4633 193.974 91.9011 194.208 90.3429 194.105C88.7848 194.002 87.2686 193.564 85.9011 192.822C84.5336 192.08 83.3482 191.052 82.4283 189.811C81.5083 188.57 80.8763 187.145 80.5767 185.638L42.9915 180.393L56.0571 165.857L89.7456 173.066C92.3537 172.739 94.9934 173.364 97.1642 174.823C99.3351 176.282 100.886 178.474 101.524 180.982C102.162 183.491 101.842 186.143 100.625 188.435C99.4073 190.727 97.3774 192.501 94.9195 193.419V193.419Z" fill="#FFB6B6"/>
<path d="M78.1617 166.991C77.4654 166.123 76.4798 165.525 75.3787 165.302L59.9579 162.148L58.3742 161.826C57.4538 161.637 56.5844 161.259 55.8228 160.717C55.0612 160.174 54.4246 159.48 53.9546 158.679C53.4672 157.839 53.1722 156.903 53.0905 155.939C53.017 155.062 53.1237 154.179 53.4044 153.344L58.7481 137.507L62.2153 127.232C62.6355 125.993 62.8835 124.703 62.9525 123.399C63.1457 119.788 62.0099 116.23 59.7533 113.377C57.7694 110.868 55.0177 109.054 51.9048 108.202C48.7919 107.35 45.4829 107.505 42.4666 108.645C42.3784 108.676 42.2867 108.711 42.1985 108.745C40.0354 109.595 38.1028 110.927 36.5534 112.638C35.0041 114.348 33.8804 116.39 33.2712 118.601L29.5042 132.078L21.7338 159.862C20.956 162.646 20.7988 165.562 21.2732 168.411C21.7475 171.26 22.842 173.975 24.482 176.369C26.1219 178.763 28.2684 180.781 30.7747 182.284C33.2809 183.786 36.0877 184.739 39.0029 185.076L61.2136 187.636L71.4917 188.822C72.6803 188.963 73.8789 188.658 74.849 187.968C75.8191 187.278 76.4893 186.254 76.7261 185.1C76.7427 185.037 76.7557 184.973 76.7649 184.909L77.0118 183.41L79.1034 170.79L79.1246 170.661C79.2335 170.017 79.2042 169.358 79.0383 168.726C78.8725 168.094 78.5738 167.503 78.1617 166.991Z" fill="#75A575"/>
<path d="M118.86 193.824C120.381 194.171 121.961 194.186 123.489 193.868C125.017 193.55 126.455 192.906 127.703 191.982C128.95 191.057 129.976 189.876 130.709 188.519C131.442 187.163 131.863 185.665 131.944 184.131L168.401 173.726L153.382 161.147L121.064 172.956C118.435 172.994 115.911 173.979 113.971 175.725C112.031 177.47 110.81 179.855 110.538 182.427C110.266 184.999 110.963 187.58 112.497 189.681C114.031 191.781 116.295 193.255 118.86 193.824V193.824Z" fill="#FFB6B6"/>
<path d="M186.502 150.451L169.163 111.201C167.744 107.979 165.211 105.355 162.013 103.795C161.025 103.316 159.986 102.944 158.916 102.685C158.75 102.643 158.585 102.605 158.419 102.574C156.15 102.087 153.797 102.13 151.548 102.699C149.492 103.218 147.571 104.158 145.909 105.457C144.248 106.756 142.883 108.384 141.905 110.237C141.894 110.252 141.885 110.269 141.877 110.285C140.784 112.365 140.202 114.668 140.18 117.009C140.157 119.35 140.693 121.663 141.746 123.763L141.961 124.186L154.215 148.39C154.633 149.218 154.869 150.123 154.906 151.047C154.944 151.97 154.783 152.891 154.433 153.749C154.083 154.607 153.553 155.382 152.877 156.025C152.201 156.667 151.395 157.161 150.511 157.475L149.65 157.781L134.173 163.279C133.012 163.687 132.056 164.522 131.508 165.608C130.96 166.695 130.862 167.948 131.235 169.104L131.274 169.225L135.612 182.88C135.633 182.942 135.654 183.004 135.679 183.067C135.717 183.185 135.764 183.299 135.82 183.41C136.281 184.427 137.096 185.249 138.119 185.728C139.141 186.207 140.303 186.311 141.397 186.023L149.749 183.854L151.453 183.41L173.021 177.808C175.859 177.07 178.502 175.738 180.768 173.903C183.034 172.067 184.87 169.772 186.15 167.174C187.43 164.576 188.125 161.737 188.185 158.85C188.246 155.964 187.672 153.098 186.502 150.451L186.502 150.451Z" fill="#75A575"/>
<path d="M15.8364 183.41C20.8346 189.406 26.225 195.075 31.9733 200.381H191.391C192.927 200.383 194.399 200.985 195.485 202.053C196.571 203.122 197.181 204.57 197.183 206.081L197.412 245.812C207.219 241.381 216.404 235.722 224.737 228.977C227.051 227.107 229.293 225.156 231.463 223.124C232.885 221.799 234.272 220.442 235.626 219.052C245.771 208.657 253.987 196.594 259.9 183.41H15.8364Z" fill="#3F3D56"/>
<path d="M235.625 219.052C234.274 220.443 232.887 221.8 231.463 223.124H197.528V219.052H235.625Z" fill="white"/>
<path d="M161.773 88.791C161.606 88.4867 161.358 88.2326 161.055 88.0555C160.753 87.8784 160.408 87.785 160.056 87.785H44.4206C43.9022 87.7864 43.4054 87.9897 43.0391 88.3506C42.6729 88.7115 42.467 89.2005 42.4666 89.7104V157.781H162.013V89.7104C162.015 89.3887 161.932 89.0721 161.773 88.791Z" fill="#3F3D56"/>
<path d="M42.3618 155.938V164.338C42.3618 164.686 42.4316 165.031 42.567 165.352C42.7025 165.674 42.9011 165.967 43.1515 166.213C43.4018 166.459 43.6991 166.654 44.0262 166.788C44.3533 166.921 44.7039 166.989 45.0579 166.989H89.1818V183.567H88.5956C88.5496 183.567 88.5041 183.576 88.4616 183.593C88.4191 183.611 88.3805 183.636 88.3479 183.668C88.3154 183.7 88.2896 183.738 88.272 183.78C88.2544 183.821 88.2454 183.866 88.2454 183.911V185.065C88.2454 185.11 88.2544 185.155 88.272 185.196C88.2896 185.238 88.3154 185.276 88.3479 185.308C88.3805 185.34 88.4191 185.365 88.4616 185.383C88.5041 185.4 88.5496 185.409 88.5956 185.409H115.987C116.033 185.409 116.079 185.4 116.121 185.383C116.164 185.365 116.202 185.34 116.235 185.308C116.267 185.276 116.293 185.238 116.311 185.196C116.328 185.155 116.337 185.11 116.337 185.065V183.911C116.337 183.866 116.328 183.821 116.311 183.78C116.293 183.738 116.267 183.7 116.235 183.668C116.202 183.636 116.164 183.611 116.121 183.593C116.079 183.576 116.033 183.567 115.987 183.567H115.401V166.989H159.525C159.879 166.989 160.229 166.921 160.557 166.788C160.884 166.654 161.181 166.459 161.431 166.213C161.682 165.967 161.88 165.674 162.016 165.352C162.151 165.031 162.221 164.686 162.221 164.338V155.938H42.3618Z" fill="#3F3D56"/>
<path d="M100.843 131.829C106.942 131.829 111.885 126.966 111.885 120.968C111.885 114.97 106.942 110.108 100.843 110.108C94.7446 110.108 89.8008 114.97 89.8008 120.968C89.8008 126.966 94.7446 131.829 100.843 131.829Z" fill="#C0E7BE"/>
<path d="M128.978 60.015H127.214C127.214 46.9019 114.019 38.309 100.707 38.302C98.7711 38.2965 96.8392 38.4812 94.9403 38.8536C92.8029 39.2734 90.5843 39.7764 88.4045 40.4321C79.8087 43.0235 71.8373 48.0328 71.8373 60.015C71.8355 62.3421 72.1366 64.6598 72.7332 66.9116L71.0261 67.3487C70.3929 64.9539 70.0728 62.4895 70.0737 60.015C70.0737 49.5453 74.4439 42.3539 81.9921 38.0661C85.9601 35.8112 90.803 34.3577 96.3512 33.65C98.66 33.3479 100.994 33.2782 103.317 33.4419C118.625 34.5242 128.978 46.0693 128.978 60.015Z" fill="#C0E7BE"/>
<path d="M131.916 60.9759L131.221 55.9249C131.05 54.6493 130.425 53.4745 129.457 52.6084C128.836 52.0438 128.093 51.6255 127.283 51.3851C126.473 51.1447 125.619 51.0885 124.784 51.2208L123.68 51.37C123.378 51.4091 123.087 51.5068 122.823 51.6575C122.56 51.8081 122.329 52.0087 122.145 52.2477C121.96 52.4858 121.824 52.7577 121.746 53.0476C121.668 53.3376 121.649 53.6399 121.69 53.9371L123.295 65.5724C123.361 66.0467 123.578 66.4884 123.913 66.8352C124.249 67.182 124.686 67.4162 125.165 67.5047C125.306 67.5326 125.451 67.5466 125.595 67.5463C125.699 67.5463 125.803 67.5394 125.905 67.5255L127.14 67.3625C127.893 67.2642 128.617 67.0157 129.268 66.6321C129.92 66.2485 130.485 65.738 130.928 65.1318C131.023 65 131.115 64.8647 131.2 64.7259C131.861 63.5908 132.113 62.2695 131.916 60.9759Z" fill="#C0E7BE"/>
<path d="M122.967 51.5817C122.644 51.7364 122.362 51.9647 122.145 52.2477C121.96 52.4858 121.824 52.7577 121.746 53.0477C121.668 53.3377 121.649 53.64 121.69 53.9372L123.295 65.5725C123.361 66.0467 123.578 66.4885 123.913 66.8353C124.249 67.182 124.686 67.4163 125.165 67.5048L122.967 51.5817Z" fill="white"/>
<path d="M131.916 60.976L131.221 55.925C131.049 54.6494 130.425 53.4746 129.457 52.6085L131.055 64.1849C131.079 64.3707 131.128 64.5526 131.2 64.726C131.861 63.5909 132.113 62.2696 131.916 60.976Z" fill="#3F3D56"/>
<path d="M126.424 64.6152C126.907 64.5508 127.149 63.4213 126.966 62.0923C126.783 60.7634 126.243 59.7382 125.76 59.8026C125.278 59.867 125.035 60.9965 125.218 62.3255C125.402 63.6545 125.941 64.6796 126.424 64.6152Z" fill="#3F3D56"/>
<path d="M125.366 58.3709C125.849 58.3065 126.091 57.1769 125.908 55.848C125.725 54.519 125.185 53.4938 124.702 53.5582C124.22 53.6226 123.977 54.7521 124.16 56.0811C124.344 57.4101 124.883 58.4352 125.366 58.3709Z" fill="#3F3D56"/>
<path d="M132.068 60.7992C132.55 60.7348 132.793 59.6053 132.61 58.2763C132.426 56.9473 131.886 55.9222 131.404 55.9866C130.921 56.051 130.679 57.1805 130.862 58.5095C131.045 59.8384 131.585 60.8636 132.068 60.7992Z" fill="#3F3D56"/>
<path d="M100.707 38.302C98.7712 38.2965 96.8393 38.4812 94.9405 38.8536C92.803 39.2734 90.5844 39.7764 88.4046 40.4321C85.0009 40.269 82.4966 39.4017 81.9922 38.0661C85.9603 35.8112 90.8031 34.3577 96.3513 33.65C98.6602 33.3479 100.994 33.2782 103.318 33.4419C103.563 33.5837 103.776 33.775 103.941 34.0034C104.107 34.2318 104.221 34.4921 104.277 34.767C104.443 35.9743 103.042 37.2578 100.707 38.302Z" fill="#3F3D56"/>
<path d="M78.1897 72.0528L75.4738 60.9482C75.3769 60.5476 75.1619 60.184 74.8557 59.9032C74.5494 59.6224 74.1656 59.4368 73.7525 59.3698C73.6358 59.3519 73.5179 59.3427 73.3998 59.342C73.2334 59.3426 73.0677 59.3624 72.906 59.401L71.8549 59.6508C70.5016 59.9727 69.3334 60.8095 68.6066 61.9776C67.8799 63.1456 67.654 64.5496 67.9785 65.8813L69.1954 70.8629C69.4732 72.0357 70.135 73.0863 71.0789 73.8532C71.2319 73.9747 71.3921 74.087 71.5586 74.1897C72.1499 74.5542 72.8093 74.7984 73.4981 74.9081C74.1869 75.0177 74.8911 74.9905 75.569 74.8281L76.6166 74.5783C76.8936 74.5147 77.1542 74.3954 77.382 74.2279C77.7207 73.985 77.9784 73.6485 78.1222 73.2612C78.2661 72.8739 78.2896 72.4532 78.1897 72.0528Z" fill="#C0E7BE"/>
<path d="M72.496 69.9865C72.9695 69.8745 73.0947 68.7266 72.7757 67.4227C72.4567 66.1187 71.8142 65.1526 71.3407 65.2646C70.8672 65.3767 70.742 66.5246 71.0611 67.8285C71.3801 69.1324 72.0226 70.0986 72.496 69.9865Z" fill="#3F3D56"/>
<path d="M68.9689 71.0273C69.4424 70.9152 69.5676 69.7674 69.2486 68.4634C68.9296 67.1595 68.2871 66.1933 67.8136 66.3054C67.3401 66.4175 67.2149 67.5653 67.534 68.8693C67.853 70.1732 68.4955 71.1394 68.9689 71.0273Z" fill="#3F3D56"/>
<path d="M78.3626 72.011L75.6466 60.9065C75.5408 60.473 75.3074 60.0799 74.9755 59.7763C74.6436 59.4727 74.228 59.2721 73.7808 59.1997L77.4878 74.3665C77.8539 74.1028 78.1324 73.7384 78.2881 73.3192C78.4438 72.8999 78.4697 72.4447 78.3626 72.011Z" fill="white"/>
<path d="M68.5924 63.6818C68.5174 63.373 68.3768 63.0834 68.1797 62.8319C67.7979 63.8044 67.7278 64.8684 67.9787 65.8812L69.1955 70.8628C69.4734 72.0356 70.1351 73.0862 71.0791 73.8532L68.5924 63.6818Z" fill="#3F3D56"/>
</g>
<defs>
<clipPath id="clip0_261_808">
<rect width="300" height="257" fill="white"/>
</clipPath>
</defs>
</svg>
