<svg viewBox="0 0 300 275" fill="none" xmlns="http://www.w3.org/2000/svg">
<g clip-path="url(#clip0_542_233)">
<path d="M270.492 142.749C270.531 176.691 258.033 209.326 235.625 233.796C234.275 235.28 232.887 236.729 231.463 238.142C229.294 240.308 227.052 242.39 224.737 244.389C203.081 263.118 176.046 273.643 147.993 274.265C147.058 274.287 146.12 274.298 145.178 274.298C122.805 274.298 94.6653 261.754 69.1285 244.389C67.0157 242.952 64.9217 241.482 62.8466 239.979C61.8766 239.283 60.9113 238.577 59.9508 237.861C50.1016 230.56 40.7527 222.543 31.9732 213.868C26.2249 208.205 20.8345 202.155 15.8363 195.755C-3.78537 170.348 -8.11321 147.455 19.8608 142.749C23.1729 142.194 26.3873 141.6 29.5042 140.968C34.019 140.057 38.3398 139.074 42.4665 138.017C48.0254 136.599 53.248 135.061 58.1343 133.404C59.7779 132.848 61.384 132.282 62.9524 131.704C86.1401 123.155 101.66 112.007 112.224 99.9103C114.015 97.8627 115.667 95.7905 117.179 93.6936C119.493 90.5019 121.594 87.1469 123.468 83.6522C126.055 78.7967 128.228 73.7105 129.962 68.4531L130.057 68.1643C138.462 42.7128 135.905 19.1052 145.178 11.2038C184.816 -22.5748 234.165 25.5291 257.328 82.2564C258.496 85.1147 259.594 87.9904 260.623 90.8834C261.085 92.1756 261.53 93.4703 261.959 94.7674C263.088 98.1478 264.112 101.537 265.032 104.935C265.384 106.231 265.721 107.525 266.04 108.819C266.383 110.215 266.711 111.607 267.014 112.999C269.268 123.192 270.492 133.245 270.492 142.749Z" fill="#FBFBFB"/>
<path d="M147.993 274.265C147.058 274.287 146.12 274.298 145.178 274.298C122.805 274.298 94.6652 261.754 69.1285 244.389C67.0157 242.952 64.9217 241.482 62.8466 239.979L64.6666 228.353L119.765 220.674L147.418 242.871L147.993 274.265Z" fill="#2F2E41"/>
<path d="M150.645 66.6648H142.794C142.55 66.6649 142.317 66.7664 142.145 66.9469C141.973 67.1274 141.877 67.3721 141.877 67.6274V75.8731C141.877 75.9993 141.901 76.1242 141.947 76.2407C141.993 76.3573 142.06 76.4631 142.146 76.5522C142.231 76.6413 142.332 76.7118 142.443 76.7598C142.554 76.8079 142.673 76.8324 142.794 76.8321H150.645C150.888 76.8321 151.121 76.7313 151.292 76.5515C151.464 76.3717 151.561 76.1278 151.562 75.8731V67.6274C151.561 67.3723 151.465 67.1279 151.293 66.9475C151.121 66.7672 150.888 66.6655 150.645 66.6648V66.6648Z" fill="#FFB3FF"/>
<path d="M150.645 80.7161H142.794C142.55 80.7162 142.317 80.8176 142.145 80.9982C141.973 81.1787 141.877 81.4235 141.877 81.6787V89.9244C141.877 90.0506 141.901 90.1755 141.947 90.2921C141.993 90.4086 142.06 90.5144 142.146 90.6035C142.231 90.6926 142.332 90.7631 142.443 90.8112C142.554 90.8592 142.673 90.8837 142.794 90.8833H150.645C150.888 90.8834 151.121 90.7826 151.292 90.6028C151.464 90.4231 151.561 90.1791 151.562 89.9244V81.6787C151.561 81.4236 151.465 81.1792 151.293 80.9988C151.121 80.8185 150.888 80.7168 150.645 80.7161Z" fill="#697077"/>
<path d="M150.645 94.7673H142.794C142.55 94.7675 142.317 94.8689 142.145 95.0495C141.973 95.23 141.877 95.4748 141.877 95.73V103.972C141.876 104.098 141.9 104.224 141.946 104.341C141.992 104.458 142.059 104.564 142.145 104.653C142.23 104.743 142.331 104.814 142.442 104.862C142.554 104.91 142.673 104.935 142.794 104.935H150.645C150.888 104.935 151.121 104.833 151.293 104.653C151.465 104.472 151.562 104.227 151.562 103.972V95.73C151.561 95.4749 151.465 95.2305 151.293 95.0501C151.121 94.8697 150.888 94.7681 150.645 94.7673V94.7673Z" fill="#E6E6E6"/>
<path d="M151.548 109.611C151.509 109.389 151.397 109.189 151.232 109.044C151.068 108.9 150.86 108.82 150.645 108.819H142.794C142.55 108.819 142.317 108.92 142.145 109.101C141.973 109.281 141.877 109.526 141.877 109.781V118.023C141.876 118.15 141.9 118.275 141.946 118.392C141.992 118.509 142.059 118.615 142.145 118.705C142.23 118.794 142.331 118.865 142.442 118.913C142.554 118.961 142.673 118.986 142.794 118.986H150.645C150.888 118.986 151.121 118.884 151.293 118.704C151.465 118.523 151.562 118.279 151.562 118.023V109.781C151.563 109.724 151.558 109.667 151.548 109.611V109.611Z" fill="#E6E6E6"/>
<path d="M151.001 122.944C150.888 122.895 150.767 122.87 150.645 122.87H142.794C142.673 122.87 142.554 122.894 142.442 122.943C142.331 122.991 142.23 123.062 142.145 123.151C142.059 123.241 141.992 123.347 141.946 123.464C141.9 123.581 141.876 123.706 141.877 123.833V132.075C141.876 132.201 141.899 132.327 141.945 132.444C141.991 132.561 142.059 132.667 142.144 132.757C142.229 132.846 142.331 132.917 142.442 132.965C142.554 133.013 142.673 133.038 142.794 133.037H150.645C150.888 133.037 151.122 132.936 151.293 132.755C151.465 132.575 151.562 132.33 151.562 132.075V123.833C151.562 123.643 151.508 123.458 151.409 123.3C151.309 123.142 151.167 123.018 151.001 122.944Z" fill="#E6E6E6"/>
<path d="M167.138 66.6648H159.287C159.044 66.6649 158.81 66.7664 158.638 66.9469C158.466 67.1274 158.37 67.3721 158.37 67.6274V75.8731C158.37 75.9993 158.394 76.1242 158.44 76.2407C158.486 76.3573 158.554 76.4631 158.639 76.5522C158.724 76.6413 158.825 76.7118 158.936 76.7598C159.047 76.8079 159.166 76.8324 159.287 76.8321H167.138C167.381 76.8321 167.614 76.7313 167.786 76.5515C167.957 76.3717 168.054 76.1278 168.055 75.8731V67.6274C168.055 67.3723 167.958 67.1279 167.786 66.9475C167.614 66.7672 167.381 66.6655 167.138 66.6648V66.6648Z" fill="#697077"/>
<path d="M167.138 80.7161H159.287C159.044 80.7162 158.81 80.8176 158.638 80.9982C158.466 81.1787 158.37 81.4235 158.37 81.6787V89.9244C158.37 90.0506 158.394 90.1755 158.44 90.2921C158.486 90.4086 158.554 90.5144 158.639 90.6035C158.724 90.6926 158.825 90.7631 158.936 90.8112C159.047 90.8592 159.166 90.8837 159.287 90.8833H167.138C167.381 90.8834 167.614 90.7826 167.786 90.6028C167.957 90.4231 168.054 90.1791 168.055 89.9244V81.6787C168.055 81.4236 167.958 81.1792 167.786 80.9988C167.614 80.8185 167.381 80.7168 167.138 80.7161Z" fill="#9CC69B"/>
<path d="M167.138 94.7673H159.287C159.044 94.7675 158.81 94.8689 158.638 95.0495C158.466 95.23 158.37 95.4748 158.37 95.73V103.972C158.369 104.098 158.393 104.224 158.439 104.341C158.485 104.458 158.553 104.564 158.638 104.653C158.723 104.743 158.824 104.814 158.935 104.862C159.047 104.91 159.166 104.935 159.287 104.935H167.138C167.381 104.935 167.615 104.833 167.787 104.653C167.959 104.472 168.055 104.227 168.055 103.972V95.73C168.055 95.4749 167.958 95.2305 167.786 95.0501C167.614 94.8697 167.381 94.7681 167.138 94.7673V94.7673Z" fill="#697077"/>
<path d="M167.138 108.819H159.287C159.094 108.819 158.907 108.883 158.751 109.001C158.596 109.119 158.479 109.286 158.419 109.478C158.386 109.575 158.37 109.678 158.37 109.781V118.023C158.369 118.15 158.393 118.275 158.439 118.392C158.485 118.509 158.553 118.615 158.638 118.705C158.723 118.794 158.824 118.865 158.935 118.913C159.047 118.961 159.166 118.986 159.287 118.986H167.138C167.381 118.986 167.615 118.884 167.787 118.704C167.959 118.523 168.055 118.279 168.055 118.023V109.781C168.055 109.526 167.958 109.282 167.786 109.101C167.614 108.921 167.381 108.819 167.138 108.819V108.819Z" fill="#697077"/>
<path d="M167.138 122.87H159.287C159.166 122.87 159.047 122.894 158.935 122.943C158.824 122.991 158.723 123.062 158.638 123.151C158.553 123.241 158.485 123.347 158.439 123.464C158.393 123.581 158.369 123.706 158.37 123.833V132.075C158.369 132.201 158.393 132.326 158.439 132.443C158.485 132.56 158.553 132.666 158.638 132.756C158.723 132.845 158.824 132.916 158.935 132.965C159.047 133.013 159.166 133.038 159.287 133.037H167.138C167.381 133.037 167.615 132.936 167.787 132.755C167.959 132.575 168.055 132.33 168.055 132.075V123.833C168.055 123.577 167.959 123.333 167.787 123.152C167.615 122.972 167.381 122.87 167.138 122.87V122.87Z" fill="#E6E6E6"/>
<path d="M183.631 66.6648H175.78C175.537 66.6649 175.303 66.7664 175.131 66.9469C174.96 67.1274 174.863 67.3721 174.863 67.6274V75.8731C174.863 75.9993 174.887 76.1242 174.933 76.2407C174.979 76.3573 175.047 76.4631 175.132 76.5522C175.217 76.6413 175.318 76.7118 175.429 76.7598C175.54 76.8079 175.66 76.8324 175.78 76.8321H183.631C183.874 76.8321 184.107 76.7313 184.279 76.5515C184.451 76.3717 184.548 76.1278 184.548 75.8731V67.6274C184.548 67.3723 184.451 67.1279 184.279 66.9475C184.107 66.7672 183.874 66.6655 183.631 66.6648V66.6648Z" fill="#9CC69B"/>
<path d="M183.631 80.7161H175.78C175.537 80.7162 175.303 80.8176 175.131 80.9982C174.96 81.1787 174.863 81.4235 174.863 81.6787V89.9244C174.863 90.0506 174.887 90.1755 174.933 90.2921C174.979 90.4086 175.047 90.5144 175.132 90.6035C175.217 90.6926 175.318 90.7631 175.429 90.8112C175.54 90.8592 175.66 90.8837 175.78 90.8833H183.631C183.874 90.8834 184.107 90.7826 184.279 90.6028C184.451 90.4231 184.548 90.1791 184.548 89.9244V81.6787C184.548 81.4236 184.451 81.1792 184.279 80.9988C184.107 80.8185 183.874 80.7168 183.631 80.7161Z" fill="#9CC69B"/>
<path d="M183.631 94.7673H175.78C175.537 94.7675 175.303 94.8689 175.131 95.0495C174.96 95.23 174.863 95.4748 174.863 95.73V103.972C174.863 104.098 174.886 104.224 174.932 104.341C174.978 104.458 175.046 104.564 175.131 104.653C175.216 104.743 175.317 104.814 175.429 104.862C175.54 104.91 175.659 104.935 175.78 104.935H183.631C183.874 104.935 184.108 104.833 184.28 104.653C184.452 104.472 184.548 104.227 184.548 103.972V95.73C184.548 95.4749 184.451 95.2305 184.279 95.0501C184.107 94.8697 183.874 94.7681 183.631 94.7673V94.7673Z" fill="#697077"/>
<path d="M183.631 108.819H175.78C175.537 108.819 175.303 108.92 175.131 109.101C174.96 109.281 174.863 109.526 174.863 109.781V118.023C174.863 118.15 174.886 118.275 174.932 118.392C174.978 118.509 175.046 118.615 175.131 118.705C175.216 118.794 175.317 118.865 175.429 118.913C175.54 118.961 175.659 118.986 175.78 118.986H183.631C183.874 118.986 184.108 118.884 184.28 118.704C184.452 118.523 184.548 118.279 184.548 118.023V109.781C184.548 109.526 184.451 109.282 184.279 109.101C184.107 108.921 183.874 108.819 183.631 108.819V108.819Z" fill="#9CC69B"/>
<path d="M183.631 122.87H175.78C175.659 122.87 175.54 122.894 175.429 122.943C175.317 122.991 175.216 123.062 175.131 123.151C175.046 123.241 174.978 123.347 174.932 123.464C174.886 123.581 174.863 123.706 174.863 123.833V132.075C174.863 132.201 174.886 132.326 174.932 132.443C174.978 132.56 175.046 132.666 175.131 132.756C175.216 132.845 175.317 132.916 175.429 132.965C175.54 133.013 175.659 133.038 175.78 133.037H183.631C183.874 133.037 184.108 132.936 184.28 132.755C184.452 132.575 184.548 132.33 184.548 132.075V123.833C184.548 123.577 184.452 123.333 184.28 123.152C184.108 122.972 183.874 122.87 183.631 122.87V122.87Z" fill="#697077"/>
<path d="M200.124 66.6648H192.273C192.03 66.6649 191.797 66.7664 191.625 66.9469C191.453 67.1274 191.356 67.3721 191.356 67.6274V75.8731C191.356 75.9993 191.38 76.1242 191.426 76.2407C191.472 76.3573 191.54 76.4631 191.625 76.5522C191.71 76.6413 191.811 76.7118 191.922 76.7599C192.034 76.8079 192.153 76.8324 192.273 76.8321H200.124C200.367 76.8321 200.6 76.7313 200.772 76.5515C200.944 76.3717 201.041 76.1278 201.041 75.8731V67.6274C201.041 67.3723 200.944 67.1279 200.772 66.9475C200.6 66.7672 200.367 66.6655 200.124 66.6648V66.6648Z" fill="#9CC69B"/>
<path d="M200.124 80.7161H192.273C192.03 80.7162 191.796 80.8176 191.625 80.9982C191.453 81.1787 191.356 81.4235 191.356 81.6787V89.9244C191.356 90.0506 191.38 90.1755 191.426 90.2921C191.472 90.4086 191.54 90.5144 191.625 90.6035C191.71 90.6926 191.811 90.7631 191.922 90.8112C192.034 90.8592 192.153 90.8837 192.273 90.8833H200.124C200.367 90.8834 200.6 90.7826 200.772 90.6028C200.944 90.4231 201.041 90.1791 201.041 89.9244V81.6787C201.041 81.4236 200.944 81.1792 200.772 80.9988C200.6 80.8185 200.367 80.7168 200.124 80.7161V80.7161Z" fill="#FFB3FF"/>
<path d="M200.124 94.7673H192.273C192.03 94.7675 191.796 94.8689 191.625 95.0494C191.453 95.23 191.356 95.4748 191.356 95.73V103.972C191.356 104.098 191.379 104.224 191.425 104.341C191.471 104.458 191.539 104.564 191.624 104.653C191.709 104.743 191.81 104.814 191.922 104.862C192.033 104.91 192.152 104.935 192.273 104.935H200.124C200.368 104.935 200.601 104.833 200.773 104.653C200.945 104.472 201.041 104.227 201.041 103.972V95.73C201.041 95.4749 200.944 95.2305 200.772 95.0501C200.6 94.8697 200.367 94.7681 200.124 94.7673V94.7673Z" fill="#FFB3FF"/>
<path d="M200.124 108.819H192.273C192.03 108.819 191.796 108.92 191.625 109.101C191.453 109.281 191.356 109.526 191.356 109.781V118.023C191.356 118.15 191.379 118.275 191.425 118.392C191.471 118.509 191.539 118.615 191.624 118.705C191.709 118.794 191.81 118.865 191.922 118.913C192.033 118.961 192.152 118.986 192.273 118.986H200.124C200.368 118.986 200.601 118.884 200.773 118.704C200.945 118.523 201.041 118.279 201.041 118.023V109.781C201.041 109.526 200.944 109.282 200.772 109.101C200.6 108.921 200.367 108.819 200.124 108.819V108.819Z" fill="#697077"/>
<path d="M200.124 122.87H192.273C192.152 122.87 192.033 122.894 191.922 122.943C191.81 122.991 191.709 123.062 191.624 123.151C191.539 123.241 191.471 123.347 191.425 123.464C191.379 123.581 191.356 123.706 191.356 123.833V132.075C191.356 132.201 191.379 132.326 191.425 132.443C191.471 132.56 191.539 132.666 191.624 132.756C191.709 132.845 191.81 132.916 191.922 132.965C192.033 133.013 192.152 133.038 192.273 133.037H200.124C200.368 133.037 200.601 132.936 200.773 132.755C200.945 132.575 201.041 132.33 201.041 132.075V123.833C201.041 123.577 200.945 123.333 200.773 123.152C200.601 122.972 200.368 122.87 200.124 122.87V122.87Z" fill="#9CC69B"/>
<path d="M216.617 66.6648H208.762C208.52 66.6657 208.287 66.7675 208.116 66.9479C207.945 67.1284 207.849 67.3727 207.849 67.6274V75.8731C207.849 76.1274 207.945 76.3713 208.117 76.5511C208.288 76.7309 208.52 76.832 208.762 76.8321H216.617C216.86 76.8321 217.093 76.7313 217.265 76.5515C217.437 76.3717 217.534 76.1278 217.535 75.8731V67.6274C217.534 67.3723 217.437 67.1279 217.265 66.9475C217.093 66.7672 216.86 66.6655 216.617 66.6648Z" fill="#FFB3FF"/>
<path d="M216.617 80.7161H208.762C208.52 80.7169 208.287 80.8188 208.116 80.9992C207.945 81.1797 207.849 81.424 207.849 81.6787V89.9244C207.849 90.1787 207.945 90.4226 208.117 90.6024C208.288 90.7823 208.52 90.8833 208.762 90.8833H216.617C216.86 90.8834 217.093 90.7826 217.265 90.6028C217.437 90.4231 217.534 90.1791 217.535 89.9244V81.6787C217.534 81.4236 217.437 81.1792 217.265 80.9988C217.093 80.8185 216.86 80.7168 216.617 80.7161V80.7161Z" fill="#FFB3FF"/>
<path d="M216.617 94.7673H208.762C208.52 94.7682 208.287 94.8701 208.116 95.0505C207.945 95.231 207.849 95.4753 207.849 95.73V103.972C207.849 104.098 207.872 104.223 207.918 104.34C207.963 104.457 208.031 104.563 208.116 104.652C208.2 104.742 208.301 104.813 208.412 104.861C208.523 104.909 208.642 104.934 208.762 104.935H216.617C216.861 104.935 217.094 104.833 217.266 104.653C217.438 104.472 217.534 104.227 217.535 103.972V95.73C217.534 95.4749 217.437 95.2305 217.265 95.0501C217.093 94.8697 216.86 94.7681 216.617 94.7673V94.7673Z" fill="#FFB3FF"/>
<path d="M216.617 108.819H208.762C208.52 108.82 208.287 108.921 208.116 109.102C207.945 109.282 207.849 109.527 207.849 109.781V118.023C207.849 118.149 207.872 118.275 207.918 118.391C207.963 118.508 208.031 118.614 208.116 118.703C208.2 118.793 208.301 118.864 208.412 118.912C208.523 118.961 208.642 118.986 208.762 118.986H216.617C216.861 118.986 217.094 118.884 217.266 118.704C217.438 118.523 217.534 118.279 217.535 118.023V109.781C217.534 109.526 217.437 109.282 217.265 109.101C217.093 108.921 216.86 108.819 216.617 108.819V108.819Z" fill="#9CC69B"/>
<path d="M216.617 122.87H208.762C208.642 122.87 208.523 122.895 208.412 122.944C208.301 122.992 208.2 123.063 208.116 123.152C208.031 123.242 207.963 123.348 207.918 123.465C207.872 123.581 207.849 123.706 207.849 123.833V132.075C207.849 132.201 207.872 132.326 207.918 132.443C207.963 132.559 208.031 132.665 208.116 132.755C208.2 132.844 208.301 132.915 208.412 132.964C208.523 133.012 208.642 133.037 208.762 133.037H216.617C216.861 133.037 217.094 132.936 217.266 132.755C217.438 132.575 217.534 132.33 217.535 132.075V123.833C217.534 123.577 217.438 123.333 217.266 123.152C217.094 122.972 216.861 122.87 216.617 122.87V122.87Z" fill="#697077"/>
<path d="M233.111 66.6648H225.256C225.013 66.6657 224.781 66.7675 224.609 66.9479C224.438 67.1284 224.342 67.3727 224.342 67.6274V75.8731C224.342 76.1274 224.438 76.3713 224.61 76.5511C224.781 76.7309 225.013 76.832 225.256 76.8321H233.111C233.353 76.8321 233.586 76.7312 233.758 76.5515C233.93 76.3717 234.027 76.1278 234.028 75.8731V67.6274C234.027 67.3723 233.93 67.1279 233.758 66.9476C233.586 66.7672 233.354 66.6655 233.111 66.6648V66.6648Z" fill="#FFB3FF"/>
<path d="M233.111 80.7161H225.256C225.013 80.7169 224.781 80.8188 224.609 80.9992C224.438 81.1797 224.342 81.424 224.342 81.6787V89.9244C224.342 90.1787 224.438 90.4226 224.61 90.6024C224.781 90.7823 225.013 90.8833 225.256 90.8833H233.111C233.353 90.8834 233.586 90.7826 233.758 90.6028C233.93 90.423 234.027 90.1791 234.028 89.9244V81.6787C234.027 81.4236 233.93 81.1792 233.758 80.9988C233.586 80.8185 233.354 80.7168 233.111 80.7161V80.7161Z" fill="#FFB3FF"/>
<path d="M233.111 94.7673H225.256C225.013 94.7682 224.781 94.8701 224.609 95.0505C224.438 95.231 224.342 95.4753 224.342 95.73V103.972C224.342 104.098 224.365 104.223 224.411 104.34C224.457 104.457 224.524 104.563 224.609 104.652C224.693 104.742 224.794 104.813 224.905 104.861C225.016 104.909 225.135 104.934 225.256 104.935H233.111C233.354 104.934 233.587 104.833 233.759 104.653C233.931 104.472 234.028 104.227 234.028 103.972V95.73C234.027 95.4749 233.93 95.2305 233.758 95.0501C233.586 94.8698 233.354 94.7681 233.111 94.7673V94.7673Z" fill="#9CC69B"/>
<path d="M233.111 108.819H225.256C225.013 108.82 224.781 108.921 224.609 109.102C224.438 109.282 224.342 109.527 224.342 109.781V118.023C224.342 118.149 224.365 118.275 224.411 118.391C224.457 118.508 224.524 118.614 224.609 118.703C224.693 118.793 224.794 118.864 224.905 118.912C225.016 118.961 225.135 118.986 225.256 118.986H233.111C233.354 118.986 233.587 118.884 233.759 118.704C233.931 118.523 234.028 118.279 234.028 118.023V109.781C234.027 109.526 233.93 109.282 233.758 109.101C233.586 108.921 233.354 108.819 233.111 108.819V108.819Z" fill="#697077"/>
<path d="M233.111 122.87H225.256C225.135 122.87 225.016 122.895 224.905 122.944C224.794 122.992 224.693 123.063 224.609 123.152C224.524 123.242 224.457 123.348 224.411 123.465C224.365 123.581 224.342 123.706 224.342 123.833V132.075C224.342 132.201 224.365 132.326 224.411 132.443C224.457 132.559 224.524 132.665 224.609 132.755C224.693 132.844 224.794 132.915 224.905 132.964C225.016 133.012 225.135 133.037 225.256 133.037H233.111C233.354 133.037 233.587 132.936 233.759 132.755C233.931 132.575 234.028 132.33 234.028 132.075V123.833C234.028 123.577 233.931 123.333 233.759 123.152C233.587 122.972 233.354 122.87 233.111 122.87Z" fill="#FFB3FF"/>
<path d="M249.604 66.6648H241.749C241.506 66.6657 241.274 66.7675 241.102 66.9479C240.931 67.1284 240.835 67.3727 240.835 67.6274V75.8731C240.835 76.1274 240.931 76.3713 241.103 76.5511C241.274 76.7309 241.506 76.832 241.749 76.8321H249.604C249.846 76.8321 250.079 76.7312 250.251 76.5515C250.423 76.3717 250.52 76.1278 250.521 75.8731V67.6274C250.52 67.3723 250.423 67.1279 250.251 66.9476C250.079 66.7672 249.847 66.6655 249.604 66.6648V66.6648Z" fill="#9CC69B"/>
<path d="M249.604 80.7161H241.749C241.506 80.7169 241.274 80.8188 241.102 80.9992C240.931 81.1797 240.835 81.424 240.835 81.6787V89.9244C240.835 90.1787 240.931 90.4226 241.103 90.6024C241.274 90.7823 241.506 90.8833 241.749 90.8833H249.604C249.846 90.8834 250.079 90.7826 250.251 90.6028C250.423 90.423 250.52 90.1791 250.521 89.9244V81.6787C250.52 81.4236 250.423 81.1792 250.251 80.9988C250.08 80.8185 249.847 80.7168 249.604 80.7161Z" fill="#9CC69B"/>
<path d="M249.604 94.7673H241.749C241.506 94.7682 241.274 94.8701 241.102 95.0505C240.931 95.231 240.835 95.4753 240.835 95.73V103.972C240.835 104.098 240.858 104.223 240.904 104.34C240.95 104.457 241.017 104.563 241.102 104.652C241.187 104.742 241.287 104.813 241.398 104.861C241.509 104.909 241.628 104.934 241.749 104.935H249.604C249.847 104.934 250.08 104.833 250.252 104.653C250.424 104.472 250.521 104.227 250.521 103.972V95.73C250.52 95.4749 250.423 95.2305 250.251 95.0501C250.08 94.8698 249.847 94.7681 249.604 94.7673V94.7673Z" fill="#697077"/>
<path d="M249.604 108.819H241.749C241.506 108.82 241.274 108.921 241.102 109.102C240.931 109.282 240.835 109.527 240.835 109.781V118.023C240.835 118.149 240.858 118.275 240.904 118.391C240.95 118.508 241.017 118.614 241.102 118.703C241.187 118.793 241.287 118.864 241.398 118.912C241.509 118.961 241.628 118.986 241.749 118.986H249.604C249.847 118.986 250.08 118.884 250.252 118.704C250.424 118.523 250.521 118.279 250.521 118.023V109.781C250.52 109.526 250.423 109.282 250.251 109.101C250.08 108.921 249.847 108.819 249.604 108.819V108.819Z" fill="#FFB3FF"/>
<path d="M249.604 122.87H241.749C241.628 122.87 241.509 122.895 241.398 122.944C241.287 122.992 241.187 123.063 241.102 123.152C241.017 123.242 240.95 123.348 240.904 123.465C240.858 123.581 240.835 123.706 240.835 123.833V132.075C240.835 132.201 240.858 132.326 240.904 132.443C240.95 132.559 241.017 132.665 241.102 132.755C241.187 132.844 241.287 132.915 241.398 132.964C241.509 133.012 241.628 133.037 241.749 133.037H249.604C249.847 133.037 250.08 132.936 250.252 132.755C250.424 132.575 250.521 132.33 250.521 132.075V123.833C250.521 123.577 250.424 123.333 250.252 123.152C250.08 122.972 249.847 122.87 249.604 122.87Z" fill="#9CC69B"/>
<path d="M266.097 66.6648H258.242C257.999 66.6657 257.767 66.7675 257.595 66.9479C257.424 67.1284 257.328 67.3727 257.328 67.6274V75.8731C257.328 76.1274 257.424 76.3713 257.596 76.5511C257.767 76.7309 257.999 76.832 258.242 76.8321H266.097C266.339 76.8321 266.572 76.7313 266.744 76.5515C266.916 76.3717 267.013 76.1278 267.014 75.8731V67.6274C267.013 67.3723 266.916 67.1279 266.744 66.9476C266.573 66.7672 266.34 66.6655 266.097 66.6648Z" fill="#C0E7BE"/>
<path d="M266.097 80.7161H258.242C257.999 80.7169 257.767 80.8188 257.595 80.9992C257.424 81.1797 257.328 81.424 257.328 81.6787V89.9244C257.328 90.1787 257.424 90.4226 257.596 90.6024C257.767 90.7823 257.999 90.8833 258.242 90.8833H266.097C266.339 90.8834 266.572 90.7826 266.744 90.6028C266.916 90.423 267.013 90.1791 267.014 89.9244V81.6787C267.013 81.4236 266.916 81.1792 266.744 80.9988C266.573 80.8185 266.34 80.7168 266.097 80.7161V80.7161Z" fill="#C0E7BE"/>
<path d="M266.097 94.7673H258.242C257.999 94.7682 257.767 94.8701 257.595 95.0505C257.424 95.231 257.328 95.4753 257.328 95.73V103.972C257.328 104.098 257.351 104.223 257.397 104.34C257.443 104.457 257.51 104.563 257.595 104.652C257.68 104.742 257.78 104.813 257.891 104.861C258.002 104.909 258.121 104.934 258.242 104.935H266.097C266.34 104.934 266.573 104.833 266.745 104.653C266.917 104.472 267.014 104.227 267.014 103.972V95.73C267.013 95.475 266.916 95.2305 266.744 95.0501C266.573 94.8698 266.34 94.7681 266.097 94.7673Z" fill="#697077"/>
<path d="M266.097 108.819H258.242C257.999 108.82 257.767 108.921 257.595 109.102C257.424 109.282 257.328 109.527 257.328 109.781V118.023C257.328 118.149 257.351 118.275 257.397 118.391C257.443 118.508 257.51 118.614 257.595 118.703C257.68 118.793 257.78 118.864 257.891 118.912C258.002 118.961 258.121 118.986 258.242 118.986H266.097C266.34 118.986 266.573 118.884 266.745 118.704C266.917 118.523 267.014 118.279 267.014 118.023V109.781C267.013 109.526 266.916 109.282 266.744 109.101C266.573 108.921 266.34 108.819 266.097 108.819V108.819Z" fill="#9CC69B"/>
<path d="M266.097 122.87H258.242C258.121 122.87 258.002 122.895 257.891 122.944C257.78 122.992 257.68 123.063 257.595 123.152C257.51 123.242 257.443 123.348 257.397 123.465C257.351 123.581 257.328 123.706 257.328 123.833V132.075C257.328 132.201 257.351 132.326 257.397 132.443C257.443 132.559 257.51 132.665 257.595 132.755C257.68 132.844 257.78 132.915 257.891 132.964C258.002 133.012 258.121 133.037 258.242 133.037H266.097C266.34 133.037 266.573 132.936 266.745 132.755C266.917 132.575 267.014 132.33 267.014 132.075V123.833C267.014 123.577 266.917 123.333 266.745 123.152C266.573 122.972 266.34 122.87 266.097 122.87V122.87Z" fill="#9CC69B"/>
<path d="M282.59 66.6648H274.735C274.492 66.6657 274.26 66.7675 274.089 66.9479C273.917 67.1284 273.821 67.3727 273.821 67.6274V75.8731C273.821 76.1274 273.918 76.3713 274.089 76.5511C274.26 76.7309 274.493 76.832 274.735 76.8321H282.59C282.832 76.8321 283.065 76.7313 283.237 76.5515C283.409 76.3717 283.506 76.1278 283.507 75.8731V67.6274C283.506 67.3723 283.409 67.1279 283.238 66.9476C283.066 66.7672 282.833 66.6655 282.59 66.6648V66.6648Z" fill="#697077"/>
<path d="M282.59 80.7161H274.735C274.492 80.7169 274.26 80.8188 274.089 80.9992C273.917 81.1797 273.821 81.424 273.821 81.6787V89.9244C273.821 90.1787 273.918 90.4226 274.089 90.6024C274.26 90.7823 274.493 90.8833 274.735 90.8833H282.59C282.832 90.8834 283.065 90.7826 283.237 90.6028C283.409 90.423 283.506 90.1791 283.507 89.9244V81.6787C283.506 81.4236 283.409 81.1792 283.238 80.9988C283.066 80.8185 282.833 80.7168 282.59 80.7161V80.7161Z" fill="#C0E7BE"/>
<path d="M282.59 94.7673H274.735C274.492 94.7682 274.26 94.8701 274.089 95.0505C273.917 95.231 273.821 95.4753 273.821 95.73V103.972C273.821 104.098 273.844 104.223 273.89 104.34C273.936 104.457 274.003 104.563 274.088 104.652C274.173 104.742 274.274 104.813 274.385 104.861C274.496 104.909 274.615 104.934 274.735 104.935H282.59C282.833 104.934 283.066 104.833 283.238 104.653C283.41 104.472 283.507 104.227 283.507 103.972V95.73C283.506 95.475 283.409 95.2305 283.238 95.0501C283.066 94.8698 282.833 94.7681 282.59 94.7673V94.7673Z" fill="#C0E7BE"/>
<path d="M282.59 108.819H274.735C274.492 108.82 274.26 108.921 274.089 109.102C273.917 109.282 273.821 109.527 273.821 109.781V118.023C273.821 118.149 273.844 118.275 273.89 118.391C273.936 118.508 274.003 118.614 274.088 118.703C274.173 118.793 274.274 118.864 274.385 118.912C274.496 118.961 274.615 118.986 274.735 118.986H282.59C282.833 118.986 283.066 118.884 283.238 118.704C283.41 118.523 283.507 118.279 283.507 118.023V109.781C283.506 109.526 283.409 109.282 283.238 109.101C283.066 108.921 282.833 108.819 282.59 108.819V108.819Z" fill="#697077"/>
<path d="M282.59 122.87H274.735C274.615 122.87 274.496 122.895 274.385 122.944C274.274 122.992 274.173 123.063 274.088 123.152C274.003 123.242 273.936 123.348 273.89 123.465C273.844 123.581 273.821 123.706 273.821 123.833V132.075C273.821 132.201 273.844 132.326 273.89 132.443C273.936 132.559 274.003 132.665 274.088 132.755C274.173 132.844 274.274 132.915 274.385 132.964C274.496 133.012 274.615 133.037 274.735 133.037H282.59C282.833 133.037 283.066 132.936 283.238 132.755C283.41 132.575 283.507 132.33 283.507 132.075V123.833C283.507 123.577 283.41 123.333 283.238 123.152C283.066 122.972 282.833 122.87 282.59 122.87V122.87Z" fill="#697077"/>
<path d="M299.083 66.6648H291.228C290.985 66.6657 290.753 66.7675 290.582 66.9479C290.41 67.1284 290.314 67.3727 290.314 67.6274V75.8731C290.314 76.1274 290.411 76.3713 290.582 76.5511C290.753 76.7309 290.986 76.832 291.228 76.8321H299.083C299.326 76.8321 299.558 76.7313 299.73 76.5515C299.902 76.3717 299.999 76.1278 300 75.8731V67.6274C299.999 67.3723 299.902 67.1279 299.731 66.9476C299.559 66.7672 299.326 66.6655 299.083 66.6648V66.6648Z" fill="#697077"/>
<path d="M299.083 80.7161H291.228C290.985 80.717 290.753 80.8188 290.582 80.9992C290.41 81.1797 290.314 81.424 290.314 81.6787V89.9244C290.314 90.1787 290.411 90.4226 290.582 90.6024C290.753 90.7822 290.986 90.8833 291.228 90.8833H299.083C299.326 90.8834 299.558 90.7826 299.73 90.6028C299.902 90.423 299.999 90.1791 300 89.9244V81.6787C299.999 81.4236 299.902 81.1792 299.731 80.9988C299.559 80.8185 299.326 80.7168 299.083 80.7161V80.7161Z" fill="#697077"/>
<path d="M299.083 94.7673H291.228C290.985 94.7682 290.753 94.8701 290.582 95.0505C290.41 95.231 290.314 95.4753 290.314 95.73V103.972C290.314 104.098 290.337 104.223 290.383 104.34C290.429 104.457 290.496 104.563 290.581 104.652C290.666 104.742 290.767 104.813 290.878 104.861C290.989 104.909 291.108 104.934 291.228 104.935H299.083C299.326 104.934 299.559 104.833 299.731 104.653C299.903 104.472 300 104.227 300 103.972V95.73C299.999 95.475 299.902 95.2305 299.731 95.0501C299.559 94.8698 299.326 94.7681 299.083 94.7673V94.7673Z" fill="#C0E7BE"/>
<path d="M299.083 108.819H291.228C290.985 108.82 290.753 108.921 290.582 109.102C290.41 109.282 290.314 109.527 290.314 109.781V118.023C290.314 118.149 290.337 118.275 290.383 118.391C290.429 118.508 290.496 118.614 290.581 118.703C290.666 118.793 290.767 118.864 290.878 118.912C290.989 118.961 291.108 118.986 291.228 118.986H299.083C299.326 118.986 299.559 118.884 299.731 118.704C299.903 118.523 300 118.279 300 118.023V109.781C299.999 109.526 299.902 109.282 299.731 109.101C299.559 108.921 299.326 108.819 299.083 108.819V108.819Z" fill="#697077"/>
<path d="M299.083 122.87H291.228C291.108 122.87 290.989 122.895 290.878 122.944C290.767 122.992 290.666 123.063 290.581 123.152C290.496 123.242 290.429 123.348 290.383 123.465C290.337 123.581 290.314 123.706 290.314 123.833V132.075C290.314 132.201 290.337 132.326 290.383 132.443C290.429 132.559 290.496 132.665 290.581 132.755C290.666 132.844 290.767 132.915 290.878 132.964C290.989 133.012 291.108 133.037 291.228 133.037H299.083C299.326 133.037 299.559 132.936 299.731 132.755C299.903 132.575 300 132.33 300 132.075V123.833C300 123.577 299.903 123.333 299.731 123.152C299.559 122.972 299.326 122.87 299.083 122.87V122.87Z" fill="#697077"/>
<path d="M118.547 244.39H118.328L118.515 244.363L118.547 244.39Z" fill="#2F2E41"/>
<path d="M99.7537 90.7334C113.063 90.7334 123.852 79.4077 123.852 65.4367C123.852 51.4657 113.063 40.14 99.7537 40.14C86.4446 40.14 75.6554 51.4657 75.6554 65.4367C75.6554 79.4077 86.4446 90.7334 99.7537 90.7334Z" fill="#FFB6B6"/>
<path d="M120.857 46.8897C120.857 46.8897 127.16 34.2413 113.294 33.0914C113.294 33.0914 101.472 21.8348 89.4233 31.0336C89.4233 31.0336 82.851 31.0336 79.2571 38.8407C79.2571 38.8407 74.088 36.7828 72.952 42.2902C72.952 42.2902 69.1697 53.7888 72.952 64.1374C76.7344 74.4861 77.9908 75.6359 77.9908 75.6359C77.9908 75.6359 71.7755 53.9394 86.9039 52.7895C102.032 51.6397 118.961 41.7153 120.222 54.3637C121.483 67.012 123.38 70.1285 123.38 70.1285C123.38 70.1285 135.355 52.064 120.857 46.8897Z" fill="#2F2E41"/>
<path d="M162.091 127.78L162.013 128.209L161.142 133.037L155.121 166.434L154.765 168.401L154.017 172.559L152.994 178.231L150.726 190.801L150.077 194.404L149.834 195.755L149.749 196.229L149.076 199.958L148.871 201.083L147.227 213.868L145.792 225.009L150.596 230.052L147.732 233.059L145.852 244.363L145.855 244.389H69.1285C66.0246 242.278 62.9653 240.102 59.9508 237.861L60.5822 232.899C60.5822 232.899 62.7549 224.039 61.8413 222.98C60.9313 221.921 58.9349 220.029 58.9349 220.029L61.4498 213.868L61.799 213.013L61.2135 200.265L61.1994 199.958L61.0054 195.755L60.9807 195.215L60.9419 194.404L60.1977 178.231L60.1836 177.964L59.9579 173.062L59.7462 168.401L59.6545 166.434L58.748 146.763L58.1343 133.404L57.5982 121.774L59.7533 121.008L82.8034 112.784L92.3514 99.7546L112.224 99.9102L121.952 99.9879L138.184 115.791L141.877 117.642L141.905 117.657L144.554 118.986L151.269 122.351L158.37 125.913L162.013 127.739L162.091 127.78Z" fill="#C0E7BE"/>
<path d="M94.9195 206.438C93.4633 207.03 91.9011 207.28 90.3429 207.17C88.7847 207.06 87.2685 206.592 85.9011 205.8C84.5336 205.008 83.3482 203.912 82.4282 202.587C81.5083 201.262 80.8763 199.742 80.5766 198.133L42.9914 192.535L56.0571 177.021L89.7455 184.715C92.3537 184.366 94.9933 185.033 97.1642 186.59C99.3351 188.147 100.886 190.486 101.524 193.164C102.162 195.841 101.842 198.672 100.625 201.118C99.4073 203.565 97.3774 205.457 94.9195 206.438V206.438Z" fill="#FFB6B6"/>
<path d="M78.1616 178.231C77.4654 177.304 76.4798 176.666 75.3787 176.428L59.9579 173.062L58.3742 172.718C57.4538 172.516 56.5843 172.113 55.8227 171.534C55.0611 170.955 54.4245 170.214 53.9546 169.359C53.4671 168.462 53.1722 167.464 53.0904 166.434C53.0169 165.499 53.1237 164.557 53.4043 163.665L58.748 146.763L62.2152 135.796C62.6354 134.473 62.8834 133.097 62.9524 131.704C63.1456 127.851 62.0098 124.054 59.7532 121.008C57.7693 118.33 55.0176 116.394 51.9047 115.484C48.7918 114.575 45.4828 114.741 42.4665 115.957C42.3784 115.991 42.2866 116.028 42.1985 116.065C40.0353 116.971 38.1027 118.394 36.5534 120.219C35.004 122.045 33.8803 124.224 33.2712 126.584L29.5041 140.968L21.7338 170.622C20.9559 173.593 20.7988 176.706 21.2731 179.746C21.7474 182.787 22.842 185.684 24.4819 188.24C26.1218 190.795 28.2684 192.949 30.7746 194.553C33.2809 196.156 36.0876 197.173 39.0028 197.532L61.2135 200.265L71.4917 201.531C72.6802 201.681 73.8789 201.356 74.8489 200.619C75.819 199.883 76.4892 198.79 76.726 197.558C76.7427 197.491 76.7556 197.423 76.7648 197.355L77.0117 195.755L79.1034 182.285L79.1245 182.148C79.2335 181.461 79.2041 180.757 79.0383 180.083C78.8724 179.408 78.5738 178.777 78.1616 178.231Z" fill="#C0E7BE"/>
<path d="M118.86 206.87C120.381 207.24 121.961 207.256 123.489 206.917C125.017 206.577 126.455 205.89 127.702 204.903C128.95 203.917 129.976 202.656 130.709 201.208C131.442 199.76 131.863 198.162 131.944 196.524L168.401 185.419L153.382 171.994L121.064 184.598C118.435 184.638 115.911 185.689 113.971 187.552C112.031 189.415 110.81 191.961 110.538 194.706C110.266 197.451 110.963 200.206 112.497 202.448C114.031 204.689 116.295 206.263 118.86 206.87V206.87Z" fill="#FFB6B6"/>
<path d="M186.502 160.577L169.163 118.686C167.745 115.247 165.212 112.446 162.013 110.781C161.025 110.27 159.986 109.873 158.916 109.596C158.751 109.552 158.585 109.511 158.419 109.478C156.15 108.958 153.797 109.004 151.548 109.611C149.492 110.165 147.571 111.168 145.909 112.555C144.248 113.941 142.883 115.68 141.905 117.657C141.894 117.673 141.885 117.69 141.877 117.709C140.784 119.928 140.202 122.386 140.18 124.884C140.157 127.383 140.694 129.852 141.746 132.093L141.961 132.545L154.215 158.378C154.633 159.261 154.869 160.227 154.906 161.213C154.944 162.199 154.783 163.182 154.433 164.097C154.083 165.013 153.553 165.841 152.877 166.526C152.201 167.212 151.395 167.739 150.511 168.075L149.65 168.401L134.173 174.269C133.012 174.704 132.057 175.595 131.509 176.755C130.961 177.914 130.862 179.252 131.235 180.486L131.274 180.615L135.612 195.189C135.633 195.255 135.655 195.322 135.679 195.389C135.717 195.514 135.765 195.637 135.82 195.755C136.281 196.841 137.096 197.718 138.119 198.229C139.141 198.74 140.303 198.852 141.397 198.543L149.749 196.229L151.453 195.755L173.022 189.776C175.86 188.988 178.502 187.567 180.768 185.608C183.034 183.649 184.87 181.199 186.15 178.426C187.43 175.653 188.125 172.623 188.185 169.542C188.246 166.461 187.672 163.403 186.502 160.577L186.502 160.577Z" fill="#C0E7BE"/>
<path d="M15.8363 195.755C20.8345 202.155 26.2249 208.205 31.9732 213.868H191.391C192.927 213.871 194.399 214.513 195.485 215.653C196.571 216.793 197.181 218.339 197.183 219.952L197.412 262.357C207.219 257.627 216.403 251.588 224.737 244.389C227.051 242.393 229.293 240.311 231.463 238.142C232.885 236.728 234.272 235.279 235.625 233.796C245.771 222.701 253.986 209.826 259.899 195.755H15.8363Z" fill="#3F3D56"/>
<path d="M235.625 233.796C234.275 235.28 232.887 236.729 231.463 238.142H197.528V233.796H235.625Z" fill="white"/>
<path d="M161.773 94.7673C161.606 94.4425 161.358 94.1713 161.055 93.9823C160.753 93.7933 160.408 93.6935 160.056 93.6936H44.4206C43.9022 93.695 43.4054 93.9121 43.0391 94.2973C42.6729 94.6824 42.467 95.2043 42.4666 95.7485V168.401H162.013V95.7485C162.015 95.4052 161.932 95.0673 161.773 94.7673V94.7673Z" fill="#3F3D56"/>
<path d="M42.3618 166.434V175.399C42.3618 175.771 42.4316 176.139 42.567 176.482C42.7025 176.825 42.9011 177.137 43.1515 177.4C43.4018 177.663 43.6991 177.871 44.0262 178.014C44.3533 178.156 44.7039 178.229 45.0579 178.229H89.1818V195.923H88.5956C88.5496 195.923 88.5041 195.932 88.4616 195.951C88.4191 195.969 88.3805 195.996 88.3479 196.03C88.3154 196.064 88.2896 196.105 88.272 196.149C88.2544 196.194 88.2454 196.242 88.2454 196.29V197.521C88.2454 197.569 88.2544 197.617 88.272 197.662C88.2896 197.706 88.3154 197.747 88.3479 197.781C88.3805 197.815 88.4191 197.842 88.4616 197.861C88.5041 197.879 88.5496 197.888 88.5956 197.888H115.987C116.033 197.888 116.079 197.879 116.121 197.861C116.164 197.842 116.202 197.815 116.235 197.781C116.267 197.747 116.293 197.706 116.311 197.662C116.328 197.617 116.337 197.569 116.337 197.521V196.29C116.337 196.242 116.328 196.194 116.311 196.149C116.293 196.105 116.267 196.064 116.235 196.03C116.202 195.996 116.164 195.969 116.121 195.951C116.079 195.932 116.033 195.923 115.987 195.923H115.401V178.229H159.525C159.879 178.229 160.229 178.156 160.557 178.014C160.884 177.871 161.181 177.663 161.431 177.4C161.682 177.137 161.88 176.825 162.016 176.482C162.151 176.139 162.221 175.771 162.221 175.399V166.434H42.3618Z" fill="#3F3D56"/>
<path d="M100.843 140.702C106.942 140.702 111.885 135.512 111.885 129.11C111.885 122.709 106.942 117.519 100.843 117.519C94.7446 117.519 89.8008 122.709 89.8008 129.11C89.8008 135.512 94.7446 140.702 100.843 140.702Z" fill="#C0E7BE"/>
<path d="M128.978 64.0545H127.214C127.214 50.0588 114.019 40.8875 100.707 40.8801C98.7711 40.8741 96.8392 41.0714 94.9404 41.4688C92.8029 41.9168 90.5843 42.4537 88.4045 43.1535C79.8088 45.9193 71.8374 51.2658 71.8374 64.0545C71.8355 66.5382 72.1366 69.0119 72.7333 71.4153L71.0261 71.8818C70.3929 69.3258 70.0729 66.6955 70.0738 64.0545C70.0738 52.8801 74.4439 45.2047 81.9921 40.6283C85.9602 38.2216 90.803 36.6702 96.3512 35.9149C98.6601 35.5925 100.994 35.5181 103.317 35.6928C118.625 36.848 128.978 49.1701 128.978 64.0545Z" fill="#C0E7BE"/>
<path d="M131.916 65.08L131.221 59.6891C131.05 58.3277 130.425 57.0738 129.457 56.1494C128.836 55.5468 128.093 55.1003 127.283 54.8438C126.473 54.5872 125.619 54.5272 124.784 54.6684L123.68 54.8276C123.378 54.8693 123.087 54.9736 122.823 55.1344C122.56 55.2952 122.329 55.5094 122.145 55.7643C121.96 56.0185 121.824 56.3087 121.746 56.6182C121.668 56.9276 121.649 57.2503 121.69 57.5675L123.295 69.986C123.361 70.4921 123.578 70.9636 123.913 71.3337C124.249 71.7039 124.686 71.9538 125.165 72.0483C125.306 72.0781 125.451 72.093 125.595 72.0927C125.699 72.0927 125.803 72.0853 125.905 72.0705L127.14 71.8965C127.893 71.7916 128.617 71.5264 129.268 71.117C129.92 70.7075 130.485 70.1627 130.928 69.5157C131.023 69.375 131.115 69.2306 131.2 69.0825C131.861 67.871 132.113 66.4608 131.916 65.08Z" fill="#C0E7BE"/>
<path d="M122.967 55.0535C122.644 55.2186 122.362 55.4623 122.145 55.7644C121.96 56.0185 121.824 56.3087 121.746 56.6182C121.668 56.9277 121.649 57.2503 121.69 57.5675L123.295 69.986C123.361 70.4921 123.578 70.9636 123.913 71.3337C124.249 71.7039 124.686 71.9538 125.165 72.0483L122.967 55.0535Z" fill="white"/>
<path d="M131.916 65.08L131.221 59.6891C131.05 58.3277 130.425 57.0738 129.457 56.1494L131.055 68.5049C131.079 68.7033 131.128 68.8975 131.2 69.0825C131.861 67.871 132.113 66.4608 131.916 65.08V65.08Z" fill="#3F3D56"/>
<path d="M126.424 68.9644C126.907 68.8957 127.149 67.6901 126.966 66.2717C126.783 64.8533 126.243 63.7591 125.76 63.8278C125.278 63.8966 125.035 65.1021 125.218 66.5205C125.402 67.939 125.941 69.0331 126.424 68.9644Z" fill="#3F3D56"/>
<path d="M125.366 62.2997C125.849 62.231 126.091 61.0254 125.908 59.607C125.725 58.1886 125.185 57.0944 124.702 57.1632C124.22 57.2319 123.977 58.4375 124.16 59.8559C124.344 61.2743 124.883 62.3685 125.366 62.2997Z" fill="#3F3D56"/>
<path d="M132.068 64.8915C132.55 64.8228 132.793 63.6172 132.609 62.1988C132.426 60.7804 131.886 59.6862 131.404 59.755C130.921 59.8237 130.679 61.0293 130.862 62.4477C131.045 63.8661 131.585 64.9602 132.068 64.8915Z" fill="#3F3D56"/>
<path d="M100.707 40.88C98.7711 40.874 96.8392 41.0712 94.9404 41.4687C92.8029 41.9167 90.5843 42.4536 88.4045 43.1533C85.0008 42.9793 82.4965 42.0537 81.9921 40.6282C85.9602 38.2215 90.803 36.6701 96.3512 35.9148C98.6601 35.5924 100.994 35.5179 103.317 35.6926C103.563 35.844 103.776 36.0483 103.941 36.292C104.107 36.5358 104.221 36.8136 104.277 37.107C104.443 38.3955 103.042 39.7655 100.707 40.88Z" fill="#3F3D56"/>
<path d="M78.1898 76.9024L75.4739 65.0505C75.377 64.6229 75.162 64.2348 74.8557 63.9351C74.5495 63.6354 74.1657 63.4373 73.7526 63.3658C73.6359 63.3467 73.518 63.3368 73.3999 63.3362C73.2335 63.3368 73.0678 63.3579 72.9061 63.3991L71.855 63.6657C70.5017 64.0093 69.3335 64.9024 68.6067 66.1491C67.88 67.3958 67.6541 68.8942 67.9786 70.3155L69.1955 75.6325C69.4733 76.8842 70.1351 78.0055 71.079 78.8241C71.232 78.9537 71.3922 79.0736 71.5587 79.1832C72.1499 79.5722 72.8094 79.8329 73.4982 79.9499C74.187 80.0669 74.8912 80.0379 75.5691 79.8645L76.6167 79.5979C76.8937 79.5301 77.1543 79.4028 77.3821 79.224C77.7208 78.9647 77.9785 78.6055 78.1223 78.1922C78.2662 77.7788 78.2896 77.3299 78.1898 76.9024Z" fill="#C0E7BE"/>
<path d="M72.4961 74.6972C72.9696 74.5776 73.0948 73.3524 72.7758 71.9608C72.4567 70.5691 71.8143 69.5379 71.3408 69.6575C70.8673 69.7771 70.7421 71.0022 71.0611 72.3939C71.3802 73.7856 72.0226 74.8168 72.4961 74.6972Z" fill="#3F3D56"/>
<path d="M68.9689 75.808C69.4424 75.6884 69.5676 74.4633 69.2486 73.0716C68.9296 71.6799 68.2871 70.6487 67.8136 70.7683C67.3401 70.8879 67.2149 72.113 67.534 73.5047C67.853 74.8964 68.4955 75.9276 68.9689 75.808Z" fill="#3F3D56"/>
<path d="M78.3626 76.858L75.6467 65.006C75.5409 64.5434 75.3074 64.1238 74.9755 63.7997C74.6436 63.4757 74.2281 63.2616 73.7808 63.1843L77.4879 79.372C77.854 79.0906 78.1325 78.7016 78.2881 78.2541C78.4438 77.8067 78.4697 77.3208 78.3626 76.858V76.858Z" fill="white"/>
<path d="M68.5923 67.9682C68.5174 67.6386 68.3767 67.3294 68.1797 67.061C67.7979 68.0989 67.7277 69.2346 67.9786 70.3156L69.1955 75.6325C69.4733 76.8842 70.1351 78.0056 71.079 78.8242L68.5923 67.9682Z" fill="#3F3D56"/>
</g>
<defs>
<clipPath id="clip0_542_233">
<rect width="300" height="274.298" fill="white"/>
</clipPath>
</defs>
</svg>
