<svg viewBox="0 0 337 298" fill="none" xmlns="http://www.w3.org/2000/svg">
<g clip-path="url(#clip0_542_182)">
<path d="M167.653 73.9245C156.923 70.8626 147.711 64.8438 140.509 54.9082C139.96 54.5226 139.567 53.903 139.416 53.1855C139.265 52.468 139.368 51.7111 139.703 51.0808L152.23 27.5796C152.567 26.9502 153.107 26.4994 153.733 26.3262C154.359 26.153 155.019 26.2715 155.569 26.6557L182.713 45.672C183.262 46.0576 183.655 46.6771 183.806 47.3946C183.958 48.1122 183.854 48.8691 183.519 49.4994L170.992 73.0006C170.655 73.63 170.115 74.0807 169.489 74.2539C168.863 74.4271 168.203 74.3087 167.653 73.9245Z" fill="#E6E6E6"/>
<path d="M160.415 66.3781C154.766 65.6711 148.894 60.4945 142.965 54.1527C142.45 53.7916 142.082 53.2114 141.941 52.5394C141.799 51.8674 141.896 51.1585 142.21 50.5683L152.976 30.3709C153.291 29.7814 153.797 29.3593 154.383 29.1971C154.97 29.0348 155.588 29.1458 156.103 29.5056L180.257 46.4275C180.772 46.7887 181.14 47.3689 181.281 48.0409C181.423 48.7129 181.326 49.4218 181.012 50.012L174.343 62.5239C172.94 65.1495 170.685 67.0299 168.074 67.7525C165.463 68.475 162.709 67.9808 160.415 66.3781V66.3781Z" fill="white"/>
<path d="M212.817 111.319C202.087 108.257 192.875 102.238 185.673 92.3025C185.124 91.9168 184.731 91.2973 184.58 90.5798C184.429 89.8623 184.532 89.1054 184.867 88.4751L197.395 64.9739C197.731 64.3445 198.271 63.8937 198.897 63.7205C199.523 63.5473 200.183 63.6658 200.733 64.05L227.877 83.0663C228.426 83.4519 228.82 84.0714 228.971 84.7889C229.122 85.5064 229.018 86.2634 228.683 86.8936L216.156 110.395C215.82 111.024 215.279 111.475 214.653 111.648C214.027 111.821 213.367 111.703 212.817 111.319V111.319Z" fill="#E6E6E6"/>
<path d="M205.58 103.772C199.93 103.065 194.058 97.8887 188.129 91.5468C187.615 91.1857 187.246 90.6055 187.105 89.9336C186.963 89.2616 187.06 88.5527 187.374 87.9624L198.14 67.7651C198.455 67.1756 198.961 66.7534 199.548 66.5912C200.134 66.429 200.752 66.5399 201.267 66.8997L225.422 83.8217C225.936 84.1828 226.304 84.763 226.446 85.435C226.587 86.107 226.49 86.8159 226.176 87.4062L219.507 99.918C218.104 102.544 215.849 104.424 213.238 105.147C210.627 105.869 207.873 105.375 205.58 103.772Z" fill="white"/>
<path d="M177.188 126.276C166.458 123.214 157.245 117.196 150.044 107.26C149.495 106.874 149.101 106.255 148.95 105.537C148.799 104.82 148.903 104.063 149.238 103.433L161.765 79.9315C162.101 79.3021 162.642 78.8514 163.268 78.6782C163.894 78.505 164.554 78.6234 165.104 79.0076L192.248 98.024C192.797 98.4095 193.19 99.0291 193.341 99.7466C193.492 100.464 193.389 101.221 193.054 101.851L180.526 125.353C180.19 125.982 179.65 126.433 179.024 126.606C178.398 126.779 177.738 126.661 177.188 126.276Z" fill="#E6E6E6"/>
<path d="M169.95 118.73C164.3 118.023 158.429 112.846 152.499 106.505C151.985 106.143 151.617 105.563 151.475 104.891C151.334 104.219 151.431 103.51 151.744 102.92L162.511 82.7229C162.826 82.1334 163.332 81.7112 163.918 81.549C164.504 81.3868 165.123 81.4977 165.637 81.8575L189.792 98.7794C190.306 99.1406 190.675 99.7208 190.816 100.393C190.958 101.065 190.861 101.774 190.547 102.364L183.877 114.876C182.474 117.501 180.22 119.382 177.609 120.104C174.998 120.827 172.243 120.333 169.95 118.73V118.73Z" fill="white"/>
<path d="M43.2405 285.229C42.9519 285.245 42.6663 285.158 42.4222 284.981C42.1781 284.803 41.9875 284.545 41.876 284.239C41.7646 283.934 41.7378 283.596 41.7992 283.273C41.8606 282.949 42.0073 282.655 42.2195 282.43L42.316 281.99C42.3033 281.955 42.2905 281.92 42.2776 281.884C41.9869 281.097 41.4998 280.426 40.8775 279.955C40.2551 279.484 39.5253 279.235 38.7796 279.238C38.034 279.241 37.3058 279.497 36.6865 279.973C36.0672 280.449 35.5845 281.125 35.2989 281.914C34.1575 285.066 32.7043 288.223 32.3464 291.555C32.1888 293.028 32.2553 294.521 32.5429 295.968C29.8621 289.264 28.47 281.977 28.461 274.602C28.4605 272.751 28.5501 270.902 28.7297 269.063C28.878 267.555 29.0839 266.058 29.3472 264.572C30.7841 256.507 33.8691 248.949 38.349 242.516C40.5172 241.16 42.2707 239.075 43.3732 236.541C43.7725 235.63 44.0548 234.657 44.2112 233.654C43.9666 233.691 43.289 229.42 43.4734 229.158C43.1326 228.565 42.5225 228.27 42.1502 227.692C40.2988 224.814 37.7479 225.317 36.4163 229.227C33.5716 230.873 33.5441 233.603 35.2896 236.228C36.4 237.898 36.5527 240.158 37.527 241.946C37.4267 242.094 37.3225 242.236 37.2223 242.383C35.3898 245.084 33.7927 247.985 32.4538 251.044C32.7794 247.617 32.3908 244.151 31.32 240.931C30.2347 237.929 28.2004 235.401 26.4091 232.806C24.2574 229.69 19.8451 231.05 19.466 235.001C19.4623 235.039 19.4587 235.077 19.4552 235.116C19.7213 235.288 19.9817 235.47 20.2366 235.664C20.5567 235.909 20.8048 236.259 20.9483 236.669C21.0918 237.078 21.124 237.528 21.0407 237.959C20.9575 238.39 20.7625 238.782 20.4816 239.084C20.2006 239.386 19.8467 239.583 19.4661 239.65L19.4272 239.657C19.5219 240.757 19.6895 241.846 19.9284 242.916C17.6303 253.105 22.5917 256.816 29.676 256.982C29.8324 257.074 29.9847 257.166 30.1412 257.254C28.796 261.624 27.9522 266.176 27.6311 270.796C27.4492 273.521 27.46 276.259 27.6631 278.983L27.6511 278.886C27.1378 275.858 25.7286 273.125 23.6614 271.15C20.5911 268.258 16.2534 267.194 12.9411 264.87C12.5891 264.61 12.1798 264.472 11.7615 264.471C11.3432 264.47 10.9333 264.606 10.5802 264.863C10.227 265.12 9.94543 265.488 9.76854 265.922C9.59165 266.357 9.52686 266.84 9.58181 267.316C9.58625 267.349 9.59075 267.383 9.59535 267.417C10.0891 267.648 10.5699 267.913 11.0348 268.212C11.3009 268.384 11.5614 268.567 11.8162 268.76C12.1364 269.006 12.3844 269.356 12.5279 269.765C12.6714 270.175 12.7036 270.625 12.6203 271.056C12.537 271.487 12.3421 271.879 12.0612 272.181C11.7802 272.482 11.4263 272.68 11.0457 272.747L11.0067 272.754C10.9787 272.759 10.9546 272.763 10.9266 272.768C11.7702 275.077 12.9543 277.203 14.427 279.052C15.864 287.946 22.0357 288.79 28.6375 286.2H28.6415C29.3658 289.808 30.4154 293.32 31.7731 296.68H42.9602C43.0003 296.538 43.0364 296.391 43.0725 296.248C42.037 296.323 40.9974 296.252 39.977 296.037C40.807 294.869 41.637 293.692 42.467 292.525C42.4855 292.503 42.5029 292.48 42.5191 292.456C42.9402 291.858 43.3652 291.265 43.7862 290.668L43.7864 290.667C43.8089 288.835 43.6255 287.008 43.2409 285.23L43.2405 285.229Z" fill="#C0E7BE"/>
<path d="M120.978 71.8204C122.43 71.8204 123.608 70.4759 123.608 68.8173C123.608 67.1587 122.43 65.8142 120.978 65.8142C119.526 65.8142 118.349 67.1587 118.349 68.8173C118.349 70.4759 119.526 71.8204 120.978 71.8204Z" fill="#FFB3FF"/>
<path d="M33.7317 282.084L38.1387 285.369L51.2875 267.446L44.7839 262.598L33.7317 282.084Z" fill="#FFB6B6"/>
<path d="M30.5875 287.239L44.1385 297.34L44.2499 297.143C45.1594 295.54 45.476 293.588 45.1301 291.716C44.7842 289.845 43.8041 288.208 42.4053 287.165L42.405 287.165L41.1509 283.167L35.3115 281.877L34.1286 280.995L30.5875 287.239Z" fill="#2F2E41"/>
<path d="M109.251 290.691L114.508 290.691L117.008 267.448L109.25 267.449L109.251 290.691Z" fill="#FFB6B6"/>
<path d="M109.066 296.977L125.23 296.977V296.742C125.23 294.83 124.567 292.995 123.387 291.643C122.208 290.29 120.607 289.53 118.939 289.53H118.938L115.986 286.962L110.477 289.53L109.066 289.53L109.066 296.977Z" fill="#2F2E41"/>
<path d="M54.8437 147.268L101.979 148.456L106.651 155.151C106.651 155.151 106.247 152.791 106.607 155.384C106.966 157.976 116.06 209.67 114.341 211.403C112.622 213.137 117.6 225.107 117.966 225.837C118.332 226.567 122.272 262.598 117.966 265.561L116.348 278.138H108.821C108.821 278.138 101.28 268.133 102.798 266.32C104.315 264.506 99.9749 258.476 99.809 255.242C99.643 252.009 98.0583 237.342 99.2861 234.99C100.514 232.639 102.174 223.813 99.059 220.392C95.9443 216.97 81.4174 174.927 81.4174 174.927C81.4174 174.927 77.1959 224.217 77.2058 228.087C77.2187 233.12 74.3356 230.629 74.3356 235.048C74.3356 235.94 64.9477 258.884 58.6383 266.056L45.5909 277.562L39.569 272.385V264.906C39.569 264.906 45.1496 251.029 47.0963 248.797C49.0431 246.566 56.2311 239.734 56.2311 236.61C56.2311 233.485 59.6149 232.397 57.339 228.254C55.0631 224.112 55.8418 222.327 56.6205 220.541C57.3992 218.756 55.9225 145.604 55.9225 145.604L54.8437 147.268Z" fill="#2F2E41"/>
<path d="M63.7684 45.2156L84.2195 44.0891L89.4529 53.9317C89.4529 53.9317 104.738 55.6904 102.553 62.2812C100.367 68.872 96.9928 114.064 100.083 119.715C101.714 122.697 104.474 132.678 106.718 141.441C107.152 143.14 107.229 144.933 106.942 146.673C106.654 148.413 106.011 150.05 105.065 151.45C104.119 152.849 102.897 153.972 101.499 154.725C100.101 155.478 98.5667 155.841 97.0229 155.783C82.4765 155.233 60.873 153.929 58.3175 151C54.4241 146.536 50.92 142.966 53.2561 141.627C55.5921 140.288 58.9334 120.866 58.9334 120.866C58.9334 120.866 43.4224 64.8538 47.4708 63.2039C51.5193 61.5539 62.8211 53.9317 62.8211 53.9317L63.7684 45.2156Z" fill="#C0E7BE"/>
<path d="M74.4981 38.7989C82.3644 38.7989 88.7414 31.4883 88.7414 22.4703C88.7414 13.4523 82.3644 6.14172 74.4981 6.14172C66.6318 6.14172 60.2548 13.4523 60.2548 22.4703C60.2548 31.4883 66.6318 38.7989 74.4981 38.7989Z" fill="#FFB6B6"/>
<path d="M0.594401 297.602L158.849 297.779C159.007 297.778 159.158 297.705 159.269 297.577C159.381 297.449 159.443 297.275 159.443 297.094C159.443 296.913 159.381 296.739 159.269 296.611C159.158 296.482 159.007 296.41 158.849 296.409L0.594401 296.232C0.436451 296.233 0.285243 296.305 0.173835 296.434C0.0624269 296.562 -0.00012207 296.736 -0.00012207 296.917C-0.00012207 297.098 0.0624269 297.272 0.173835 297.4C0.285243 297.528 0.436451 297.601 0.594401 297.602Z" fill="#CACACA"/>
<path d="M63.1192 153.509L59.1099 139.673L51.8958 141.196L56.5887 155.651C56.3034 156.498 56.2298 157.42 56.3763 158.312C56.5227 159.204 56.8834 160.032 57.4177 160.702C57.952 161.372 58.6388 161.858 59.4008 162.106C60.1629 162.353 60.97 162.351 61.7314 162.102C62.4928 161.852 63.1784 161.364 63.711 160.692C64.2436 160.02 64.6022 159.191 64.7464 158.298C64.8906 157.405 64.8147 156.484 64.5272 155.638C64.2398 154.792 63.7522 154.055 63.1192 153.509V153.509Z" fill="#FFB6B6"/>
<path d="M48.6355 63.3239L48.4453 63.4147C46.6764 64.2603 45.1139 65.5875 43.8932 67.2813C42.6725 68.975 41.8303 70.9844 41.4395 73.1353C40.417 78.7462 39.4109 86.8617 40.2063 94.4608C41.6112 107.882 42.5477 113.787 44.4209 118.082C46.294 122.377 46.7623 120.766 46.294 123.987C45.8257 127.208 43.4843 124.524 45.8257 128.819C48.1672 133.114 49.572 132.04 48.6354 134.187C47.6989 136.335 46.294 136.335 48.1672 139.019C50.0403 141.703 50.0403 142.777 50.5086 143.851C50.9769 144.924 52.3817 152.977 52.3817 152.977C52.3817 152.977 59.8743 150.293 64.0888 151.366C64.0888 151.366 60.3425 143.851 61.2791 142.24C62.2157 140.629 63.6205 140.093 62.2157 138.482C60.8108 136.872 58.4694 137.408 60.8108 135.798C63.1522 134.187 58.9377 117.545 58.9377 117.545L48.6355 63.3239Z" fill="#C0E7BE"/>
<path d="M161.278 93.8996L148.949 90.322L146.184 98.111L159.336 101.362C159.805 102.093 160.442 102.661 161.177 103C161.912 103.339 162.715 103.436 163.495 103.281C164.275 103.126 165.002 102.724 165.594 102.121C166.186 101.518 166.62 100.737 166.847 99.8674C167.073 98.9973 167.083 98.0721 166.876 97.1958C166.669 96.3194 166.253 95.5267 165.674 94.9067C165.096 94.2866 164.378 93.8639 163.601 93.686C162.824 93.5081 162.02 93.5821 161.278 93.8996H161.278Z" fill="#FFB6B6"/>
<path d="M87.1906 59.3276L87.155 59.5603C86.824 61.7244 86.9582 63.9483 87.5458 66.0396C88.1334 68.1309 89.1568 70.0265 90.5274 71.5622C94.1009 75.5714 99.5241 80.9134 105.538 84.237C116.159 90.107 121.004 92.3822 125.17 92.8854C129.335 93.3887 128.403 92.069 130.519 94.2559C132.634 96.4428 129.4 97.2592 133.818 97.31C138.235 97.3609 138.203 95.4256 139.277 97.4867C140.351 99.5477 139.594 100.905 142.576 100.541C145.558 100.177 146.347 100.755 147.388 100.881C148.43 101.007 155.105 103.986 155.105 103.986C155.105 103.986 157.167 95.3025 160.225 91.8094C160.225 91.8094 152.684 91.3811 152.004 89.6092C151.325 87.8372 151.687 86.191 149.746 86.6808C147.806 87.1707 146.94 89.7216 147.017 86.5925C147.094 83.4634 96.5703 55.2821 96.5703 55.2821L87.1906 59.3276Z" fill="#C0E7BE"/>
<path d="M91.5521 19.6135C90.0165 20.16 88.5361 20.4822 87.5375 19.0382C86.5388 17.5942 86.7998 15.9431 85.3144 15.247C84.0721 14.7695 82.719 14.8413 81.5206 15.4483C81.3048 15.5404 81.094 15.6439 80.8883 15.7475C80.7729 15.6324 80.6574 15.5232 80.532 15.4196C79.5879 14.6499 78.4222 14.3245 77.2751 14.5106C78.1136 14.9749 78.8035 15.7296 79.2473 16.668C78.8358 16.9038 78.4193 17.1397 77.9978 17.3411C76.2263 18.1718 74.3104 18.518 72.4019 18.3523C70.4934 18.1865 68.6449 17.5133 67.0028 16.3861C68.6488 21.3566 67.3691 23.1285 64.9553 27.6676L64.86 27.9323C65.1009 26.7414 61.9444 25.3664 61.9444 27.0923C62.0831 28.8606 62.4204 30.6009 62.948 32.27C59.8518 26.9255 58.0251 20.672 59.2245 14.6717C59.4804 13.4118 59.5959 12.0599 60.2934 11.0358C60.9909 10.0176 62.2756 9.41925 63.2893 9.99454C63.4149 8.04344 63.9994 6.16783 64.9806 4.56712C65.9618 2.96641 67.303 1.70044 68.8617 0.903788C70.4204 0.107133 72.1382 -0.190428 73.8326 0.042749C75.527 0.275926 77.1346 1.03112 78.4845 2.22805C79.7391 3.33837 80.7277 4.79386 81.8468 6.08828C82.9658 7.3827 84.2907 8.56205 85.8564 8.88422C86.85 9.08557 87.969 8.96476 88.7619 9.68388C89.6803 10.5181 89.6903 11.9851 89.6853 13.3945C88.7867 13.3652 87.9009 13.6435 87.141 14.1942C88.0712 14.221 88.9702 14.5833 89.7104 15.2297C89.7246 15.2398 89.7381 15.2513 89.7505 15.2642C90.0215 17.6345 89.9111 18.135 91.5521 19.6135Z" fill="#2F2E41"/>
<path d="M157.129 30.1524C158.581 30.1524 159.759 28.8079 159.759 27.1493C159.759 25.4908 158.581 24.1462 157.129 24.1462C155.677 24.1462 154.5 25.4908 154.5 27.1493C154.5 28.8079 155.677 30.1524 157.129 30.1524Z" fill="#FFB3FF"/>
<path d="M185.411 33.682C186.863 33.682 188.04 32.3374 188.04 30.6789C188.04 29.0203 186.863 27.6758 185.411 27.6758C183.959 27.6758 182.781 29.0203 182.781 30.6789C182.781 32.3374 183.959 33.682 185.411 33.682Z" fill="#FFB3FF"/>
<path d="M206.133 56.0296C207.585 56.0296 208.762 54.6851 208.762 53.0265C208.762 51.368 207.585 50.0234 206.133 50.0234C204.681 50.0234 203.504 51.368 203.504 53.0265C203.504 54.6851 204.681 56.0296 206.133 56.0296Z" fill="#FFB3FF"/>
<path d="M196.411 116.516C197.863 116.516 199.041 115.171 199.041 113.513C199.041 111.854 197.863 110.51 196.411 110.51C194.959 110.51 193.782 111.854 193.782 113.513C193.782 115.171 194.959 116.516 196.411 116.516Z" fill="#FFB3FF"/>
<path d="M170.933 130.381C172.385 130.381 173.562 129.036 173.562 127.378C173.562 125.719 172.385 124.375 170.933 124.375C169.48 124.375 168.303 125.719 168.303 127.378C168.303 129.036 169.48 130.381 170.933 130.381Z" fill="#FFB3FF"/>
<path d="M144.312 124.75C145.764 124.75 146.941 123.405 146.941 121.747C146.941 120.088 145.764 118.744 144.312 118.744C142.86 118.744 141.683 120.088 141.683 121.747C141.683 123.405 142.86 124.75 144.312 124.75Z" fill="#FFB3FF"/>
<path d="M125.926 102.402C127.378 102.402 128.555 101.058 128.555 99.3991C128.555 97.7405 127.378 96.396 125.926 96.396C124.474 96.396 123.297 97.7405 123.297 99.3991C123.297 101.058 124.474 102.402 125.926 102.402Z" fill="#FFB3FF"/>
<path d="M132.481 44.4171C133.933 44.4171 135.11 43.0725 135.11 41.414C135.11 39.7554 133.933 38.4109 132.481 38.4109C131.029 38.4109 129.852 39.7554 129.852 41.414C129.852 43.0725 131.029 44.4171 132.481 44.4171Z" fill="#FFB3FF"/>
<path d="M140.368 72.5711C141.821 72.5711 142.998 71.2266 142.998 69.568C142.998 67.9095 141.821 66.5649 140.368 66.5649C138.916 66.5649 137.739 67.9095 137.739 69.568C137.739 71.2266 138.916 72.5711 140.368 72.5711Z" fill="#FFB3FF"/>
<path d="M182.106 60.1833C183.559 60.1833 184.736 58.8388 184.736 57.1802C184.736 55.5217 183.559 54.1771 182.106 54.1771C180.654 54.1771 179.477 55.5217 179.477 57.1802C179.477 58.8388 180.654 60.1833 182.106 60.1833Z" fill="#FFB3FF"/>
<path d="M188.351 87.5866C189.803 87.5866 190.98 86.2421 190.98 84.5835C190.98 82.925 189.803 81.5804 188.351 81.5804C186.899 81.5804 185.722 82.925 185.722 84.5835C185.722 86.2421 186.899 87.5866 188.351 87.5866Z" fill="#FFB3FF"/>
<path d="M206.755 93.9682C210.93 93.9682 214.314 90.1027 214.314 85.3343C214.314 80.566 210.93 76.7004 206.755 76.7004C202.58 76.7004 199.196 80.566 199.196 85.3343C199.196 90.1027 202.58 93.9682 206.755 93.9682Z" fill="#FFB3FF"/>
<path d="M169.289 110.11C173.464 110.11 176.848 106.244 176.848 101.476C176.848 96.7076 173.464 92.842 169.289 92.842C165.115 92.842 161.73 96.7076 161.73 101.476C161.73 106.244 165.115 110.11 169.289 110.11Z" fill="#FFB3FF"/>
<path d="M159.759 57.1803C163.933 57.1803 167.317 53.3148 167.317 48.5464C167.317 43.778 163.933 39.9125 159.759 39.9125C155.584 39.9125 152.2 43.778 152.2 48.5464C152.2 53.3148 155.584 57.1803 159.759 57.1803Z" fill="#FFB3FF"/>
<path d="M166.468 45.1149C178.729 40.747 191.855 45.4706 204.182 41.4389C207.018 40.5497 209.698 39.1065 212.106 37.1729C214.159 35.3878 216.088 33.4205 217.873 31.2893C221.581 27.0844 225.608 22.6692 231.18 22.7179C238.517 22.782 244.15 29.03 249.041 34.5469C249.732 35.3266 250.797 34.1071 250.105 33.3265C245.611 28.257 240.756 22.9089 234.36 21.3956C231.491 20.6661 228.496 20.9513 225.77 22.2136C223.406 23.4451 221.247 25.138 219.388 27.2169C217.418 29.2879 215.601 31.5426 213.605 33.5808C211.52 35.7545 209.119 37.4919 206.511 38.7138C200.859 41.2936 194.66 41.6048 188.649 41.5298C181.104 41.4355 173.378 40.8464 166.068 43.4506C165.146 43.7792 165.539 45.4458 166.468 45.1149V45.1149Z" fill="#3F3D56"/>
<path d="M251.729 22.9155L255.498 30.5323L257.322 34.2178C257.646 34.8727 257.979 35.523 258.295 36.1834C258.488 36.5891 258.912 37.3208 258.508 37.7051C258.152 37.9041 257.753 37.9755 257.362 37.9101C256.698 37.9117 256.033 37.8947 255.368 37.887L251.631 37.8435L243.906 37.7538C243.711 37.7615 243.526 37.8559 243.39 38.0168C243.255 38.1778 243.179 38.3929 243.179 38.6167C243.179 38.8406 243.255 39.0557 243.39 39.2166C243.526 39.3776 243.711 39.4719 243.906 39.4797C248.39 39.5318 252.877 39.6403 257.362 39.636C258.144 39.7218 258.927 39.4762 259.563 38.9458C259.874 38.5908 260.08 38.1327 260.151 37.6362C260.223 37.1398 260.157 36.63 259.962 36.1791C259.52 35.073 259.011 34.0034 258.44 32.9781L256.798 29.6611L253.029 22.0444C252.925 21.8551 252.761 21.7195 252.571 21.6665C252.381 21.6134 252.181 21.6469 252.012 21.7599C251.844 21.8729 251.72 22.0566 251.667 22.2721C251.614 22.4877 251.637 22.7184 251.729 22.9155V22.9155Z" fill="#3F3D56"/>
<path d="M301.545 41.579H266.904C266.714 41.5798 266.526 41.5376 266.35 41.4548C266.174 41.372 266.014 41.2502 265.88 41.0965C265.745 40.9428 265.638 40.7601 265.565 40.5589C265.493 40.3577 265.455 40.1421 265.455 39.9243C265.455 39.7064 265.493 39.4907 265.565 39.2896C265.638 39.0884 265.745 38.9057 265.88 38.752C266.014 38.5983 266.174 38.4765 266.35 38.3937C266.526 38.3109 266.714 38.2687 266.904 38.2695H301.545C301.735 38.2687 301.923 38.3109 302.099 38.3937C302.275 38.4765 302.435 38.5983 302.569 38.752C302.704 38.9057 302.811 39.0884 302.884 39.2896C302.956 39.4907 302.994 39.7064 302.994 39.9243C302.994 40.1421 302.956 40.3577 302.884 40.5589C302.811 40.7601 302.704 40.9428 302.569 41.0965C302.435 41.2502 302.275 41.372 302.099 41.4548C301.923 41.5376 301.735 41.5798 301.545 41.579H301.545Z" fill="white"/>
<path d="M301.545 68.2314H266.904C266.714 68.2322 266.526 68.19 266.35 68.1073C266.174 68.0245 266.014 67.9027 265.88 67.749C265.745 67.5952 265.638 67.4125 265.565 67.2114C265.493 67.0102 265.455 66.7945 265.455 66.5767C265.455 66.3589 265.493 66.1432 265.565 65.942C265.638 65.7409 265.745 65.5582 265.88 65.4045C266.014 65.2507 266.174 65.129 266.35 65.0462C266.526 64.9634 266.714 64.9212 266.904 64.922H301.545C301.735 64.9212 301.923 64.9634 302.099 65.0462C302.275 65.129 302.435 65.2507 302.569 65.4045C302.704 65.5582 302.811 65.7409 302.884 65.942C302.956 66.1432 302.994 66.3589 302.994 66.5767C302.994 66.7945 302.956 67.0102 302.884 67.2114C302.811 67.4125 302.704 67.5952 302.569 67.749C302.435 67.9027 302.275 68.0245 302.099 68.1073C301.923 68.19 301.735 68.2322 301.545 68.2314H301.545Z" fill="white"/>
<path d="M335.551 54.9053H266.904C266.714 54.9061 266.526 54.8639 266.35 54.7811C266.174 54.6983 266.014 54.5765 265.88 54.4228C265.745 54.2691 265.638 54.0864 265.565 53.8852C265.493 53.684 265.455 53.4684 265.455 53.2505C265.455 53.0327 265.493 52.8171 265.565 52.6159C265.638 52.4147 265.745 52.232 265.88 52.0783C266.014 51.9246 266.174 51.8028 266.35 51.72C266.526 51.6372 266.714 51.595 266.904 51.5958H335.551C335.741 51.595 335.93 51.6372 336.105 51.72C336.281 51.8028 336.441 51.9246 336.576 52.0783C336.71 52.232 336.817 52.4147 336.89 52.6159C336.963 52.8171 337 53.0327 337 53.2505C337 53.4684 336.963 53.684 336.89 53.8852C336.817 54.0864 336.71 54.2691 336.576 54.4228C336.441 54.5765 336.281 54.6983 336.105 54.7811C335.93 54.8639 335.741 54.9061 335.551 54.9053V54.9053Z" fill="white"/>
<path d="M285.77 123.413H251.129C250.939 123.414 250.751 123.372 250.575 123.289C250.399 123.206 250.239 123.085 250.105 122.931C249.97 122.777 249.863 122.595 249.791 122.393C249.718 122.192 249.68 121.977 249.68 121.759C249.68 121.541 249.718 121.325 249.791 121.124C249.863 120.923 249.97 120.74 250.105 120.586C250.239 120.433 250.399 120.311 250.575 120.228C250.751 120.145 250.939 120.103 251.129 120.104H285.77C285.96 120.103 286.149 120.145 286.324 120.228C286.5 120.311 286.66 120.433 286.794 120.586C286.929 120.74 287.036 120.923 287.109 121.124C287.181 121.325 287.219 121.541 287.219 121.759C287.219 121.977 287.181 122.192 287.109 122.393C287.036 122.595 286.929 122.777 286.794 122.931C286.66 123.085 286.5 123.206 286.324 123.289C286.149 123.372 285.96 123.414 285.77 123.413Z" fill="white"/>
<path d="M285.77 150.066H251.129C250.939 150.067 250.751 150.024 250.575 149.942C250.399 149.859 250.239 149.737 250.105 149.583C249.97 149.43 249.863 149.247 249.791 149.046C249.718 148.845 249.68 148.629 249.68 148.411C249.68 148.193 249.718 147.978 249.791 147.776C249.863 147.575 249.97 147.393 250.105 147.239C250.239 147.085 250.399 146.963 250.575 146.881C250.751 146.798 250.939 146.756 251.129 146.756H285.77C285.96 146.756 286.149 146.798 286.324 146.881C286.5 146.963 286.66 147.085 286.794 147.239C286.929 147.393 287.036 147.575 287.109 147.776C287.181 147.978 287.219 148.193 287.219 148.411C287.219 148.629 287.181 148.845 287.109 149.046C287.036 149.247 286.929 149.43 286.794 149.583C286.66 149.737 286.5 149.859 286.324 149.942C286.149 150.024 285.96 150.067 285.77 150.066V150.066Z" fill="white"/>
<path d="M319.777 136.74H251.129C250.939 136.74 250.751 136.698 250.575 136.615C250.399 136.533 250.239 136.411 250.105 136.257C249.97 136.103 249.863 135.921 249.791 135.72C249.718 135.518 249.68 135.303 249.68 135.085C249.68 134.867 249.718 134.651 249.791 134.45C249.863 134.249 249.97 134.066 250.105 133.913C250.239 133.759 250.399 133.637 250.575 133.554C250.751 133.472 250.939 133.429 251.129 133.43H319.777C319.967 133.429 320.155 133.472 320.331 133.554C320.506 133.637 320.666 133.759 320.801 133.913C320.935 134.066 321.042 134.249 321.115 134.45C321.188 134.651 321.225 134.867 321.225 135.085C321.225 135.303 321.188 135.518 321.115 135.72C321.042 135.921 320.935 136.103 320.801 136.257C320.666 136.411 320.506 136.533 320.331 136.615C320.155 136.698 319.967 136.74 319.777 136.74V136.74Z" fill="white"/>
<path d="M131.964 152.318H97.3228C97.1328 152.319 96.9445 152.277 96.7687 152.194C96.593 152.111 96.4332 151.99 96.2986 151.836C96.164 151.682 96.0572 151.499 95.9843 151.298C95.9115 151.097 95.874 150.881 95.874 150.664C95.874 150.446 95.9115 150.23 95.9843 150.029C96.0572 149.828 96.164 149.645 96.2986 149.491C96.4332 149.338 96.593 149.216 96.7687 149.133C96.9445 149.05 97.1328 149.008 97.3228 149.009H131.964C132.154 149.008 132.342 149.05 132.518 149.133C132.694 149.216 132.854 149.338 132.988 149.491C133.123 149.645 133.23 149.828 133.303 150.029C133.375 150.23 133.413 150.446 133.413 150.664C133.413 150.881 133.375 151.097 133.303 151.298C133.23 151.499 133.123 151.682 132.988 151.836C132.854 151.99 132.694 152.111 132.518 152.194C132.342 152.277 132.154 152.319 131.964 152.318V152.318Z" fill="white"/>
<path d="M131.964 178.971H97.3228C97.1328 178.972 96.9445 178.929 96.7687 178.847C96.593 178.764 96.4332 178.642 96.2986 178.488C96.164 178.334 96.0572 178.152 95.9843 177.951C95.9115 177.749 95.874 177.534 95.874 177.316C95.874 177.098 95.9115 176.882 95.9843 176.681C96.0572 176.48 96.164 176.297 96.2986 176.144C96.4332 175.99 96.593 175.868 96.7687 175.785C96.9445 175.703 97.1328 175.66 97.3228 175.661H131.964C132.154 175.66 132.342 175.703 132.518 175.785C132.694 175.868 132.854 175.99 132.988 176.144C133.123 176.297 133.23 176.48 133.303 176.681C133.375 176.882 133.413 177.098 133.413 177.316C133.413 177.534 133.375 177.749 133.303 177.951C133.23 178.152 133.123 178.334 132.988 178.488C132.854 178.642 132.694 178.764 132.518 178.847C132.342 178.929 132.154 178.972 131.964 178.971Z" fill="white"/>
<path d="M165.97 165.644H97.3228C97.1328 165.645 96.9445 165.603 96.7687 165.52C96.593 165.437 96.4332 165.316 96.2986 165.162C96.164 165.008 96.0572 164.826 95.9843 164.624C95.9115 164.423 95.874 164.208 95.874 163.99C95.874 163.772 95.9115 163.556 95.9843 163.355C96.0572 163.154 96.164 162.971 96.2986 162.817C96.4332 162.664 96.593 162.542 96.7687 162.459C96.9445 162.376 97.1328 162.334 97.3228 162.335H165.97C166.16 162.334 166.349 162.376 166.524 162.459C166.7 162.542 166.86 162.664 166.994 162.817C167.129 162.971 167.236 163.154 167.309 163.355C167.382 163.556 167.419 163.772 167.419 163.99C167.419 164.208 167.382 164.423 167.309 164.624C167.236 164.826 167.129 165.008 166.994 165.162C166.86 165.316 166.7 165.437 166.524 165.52C166.349 165.603 166.16 165.645 165.97 165.644V165.644Z" fill="white"/>
<path d="M205.436 85.4986L231.338 107.901L238.71 114.277C239.483 114.946 240.234 113.448 239.469 112.787L213.568 90.3844L206.196 84.0083C205.422 83.3393 204.671 84.8372 205.436 85.4986H205.436Z" fill="#3F3D56"/>
<path d="M227.476 115.644C233.125 118.752 239.267 120.509 245.527 120.809C245.642 120.807 245.756 120.775 245.859 120.716C245.962 120.656 246.052 120.571 246.122 120.466C246.192 120.36 246.24 120.238 246.263 120.108C246.285 119.979 246.282 119.845 246.253 119.717L242.241 101.259C242.007 100.182 240.555 100.638 240.79 101.718L244.801 120.175L245.527 119.083C239.532 118.799 233.649 117.122 228.236 114.154C227.367 113.676 226.602 115.164 227.476 115.644V115.644Z" fill="#3F3D56"/>
<path d="M168.312 101.079L149.7 131.594L144.454 140.195C143.898 141.107 145.202 141.971 145.754 141.066L164.366 110.551L169.612 101.95C170.168 101.038 168.864 100.174 168.312 101.079Z" fill="#3F3D56"/>
<path d="M142.814 127.428C140.315 133.991 139.016 141.071 138.995 148.231C138.997 148.364 139.025 148.494 139.076 148.612C139.128 148.73 139.203 148.834 139.295 148.914C139.387 148.994 139.493 149.049 139.607 149.075C139.72 149.101 139.837 149.097 139.948 149.064L155.936 143.754C156.122 143.687 156.279 143.54 156.372 143.344C156.466 143.147 156.489 142.917 156.437 142.701C156.385 142.485 156.262 142.301 156.094 142.187C155.926 142.073 155.726 142.038 155.536 142.09L139.548 147.399L140.501 148.231C140.508 141.375 141.738 134.592 144.114 128.299C144.496 127.291 143.199 126.411 142.814 127.428V127.428Z" fill="#3F3D56"/>
</g>
<defs>
<clipPath id="clip0_542_182">
<rect width="337" height="297.779" fill="white"/>
</clipPath>
</defs>
</svg>
