<svg class="work__image" width="222" height="207" viewBox="0 0 222 207" fill="none" xmlns="http://www.w3.org/2000/svg">
<g clip-path="url(#clip0_261_938)">
<path d="M110.442 51.3884C103.374 49.26 97.3051 45.0761 92.5608 38.1693C92.1992 37.9013 91.9401 37.4706 91.8406 36.9718C91.7411 36.473 91.8092 35.9469 92.0299 35.5087L100.282 19.1719C100.504 18.7344 100.86 18.4211 101.272 18.3007C101.685 18.1803 102.12 18.2627 102.482 18.5297L120.363 31.7488C120.725 32.0169 120.984 32.4475 121.083 32.9463C121.183 33.4451 121.115 33.9713 120.894 34.4094L112.641 50.7462C112.42 51.1837 112.064 51.4971 111.652 51.6175C111.239 51.7379 110.804 51.6555 110.442 51.3884Z" fill="#E6E6E6"/>
<path d="M105.674 46.1426C101.953 45.6511 98.0846 42.0526 94.1785 37.6441C93.8398 37.3931 93.5973 36.9898 93.504 36.5226C93.4108 36.0555 93.4746 35.5627 93.6814 35.1524L100.774 21.1123C100.981 20.7025 101.315 20.4091 101.701 20.2963C102.087 20.1835 102.494 20.2606 102.833 20.5107L118.745 32.274C119.084 32.525 119.327 32.9284 119.42 33.3955C119.513 33.8626 119.449 34.3554 119.243 34.7658L114.849 43.4633C113.925 45.2885 112.44 46.5957 110.72 47.098C109 47.6002 107.185 47.2567 105.674 46.1426Z" fill="white"/>
<path d="M140.194 77.3828C133.126 75.2544 127.057 71.0704 122.313 64.1637C121.951 63.8956 121.692 63.465 121.593 62.9662C121.493 62.4674 121.561 61.9413 121.782 61.5031L130.034 45.1663C130.256 44.7288 130.612 44.4155 131.024 44.2951C131.437 44.1747 131.872 44.257 132.234 44.5241L150.115 57.7432C150.477 58.0113 150.736 58.4419 150.835 58.9407C150.935 59.4395 150.867 59.9657 150.646 60.4038L142.393 76.7406C142.172 77.1781 141.816 77.4915 141.404 77.6119C140.991 77.7323 140.556 77.6499 140.194 77.3828Z" fill="#E6E6E6"/>
<path d="M135.426 72.137C131.705 71.6455 127.837 68.047 123.93 63.6385C123.592 63.3875 123.349 62.9841 123.256 62.517C123.163 62.0499 123.227 61.5571 123.433 61.1468L130.526 47.1067C130.733 46.6969 131.067 46.4034 131.453 46.2907C131.839 46.1779 132.246 46.255 132.585 46.5051L148.497 58.2684C148.836 58.5194 149.079 58.9228 149.172 59.3899C149.265 59.857 149.201 60.3498 148.994 60.7601L144.601 69.4577C143.677 71.2829 142.192 72.5901 140.472 73.0923C138.752 73.5946 136.937 73.251 135.426 72.137Z" fill="white"/>
<path d="M116.723 87.7805C109.655 85.6521 103.586 81.4681 98.8418 74.5614C98.4802 74.2934 98.2212 73.8627 98.1216 73.3639C98.0221 72.8651 98.0902 72.339 98.3109 71.9008L106.563 55.564C106.785 55.1265 107.141 54.8132 107.553 54.6928C107.966 54.5724 108.401 54.6547 108.763 54.9218L126.644 68.1409C127.006 68.409 127.265 68.8396 127.364 69.3384C127.464 69.8372 127.396 70.3634 127.175 70.8015L118.922 87.1383C118.701 87.5758 118.345 87.8892 117.933 88.0096C117.52 88.13 117.085 88.0476 116.723 87.7805Z" fill="#E6E6E6"/>
<path d="M111.955 82.5347C108.234 82.0432 104.366 78.4447 100.46 74.0362C100.121 73.7852 99.8783 73.3819 99.785 72.9147C99.6918 72.4476 99.7556 71.9548 99.9624 71.5445L107.055 57.5044C107.262 57.0946 107.596 56.8012 107.982 56.6884C108.368 56.5756 108.775 56.6527 109.114 56.9028L125.026 68.6661C125.365 68.9171 125.608 69.3205 125.701 69.7876C125.794 70.2547 125.73 70.7475 125.524 71.1578L121.13 79.8554C120.206 81.6806 118.721 82.9878 117.001 83.49C115.281 83.9923 113.466 83.6487 111.955 82.5347Z" fill="white"/>
<path d="M28.4849 198.276C28.2948 198.287 28.1066 198.226 27.9458 198.103C27.785 197.98 27.6594 197.8 27.586 197.588C27.5126 197.375 27.4949 197.141 27.5354 196.916C27.5759 196.691 27.6725 196.487 27.8123 196.33L27.8758 196.024C27.8675 196 27.859 195.975 27.8506 195.951C27.6591 195.404 27.3382 194.937 26.9282 194.61C26.5182 194.283 26.0374 194.109 25.5463 194.111C25.0551 194.114 24.5754 194.291 24.1674 194.622C23.7594 194.953 23.4414 195.423 23.2533 195.972C22.5014 198.162 21.5441 200.357 21.3084 202.673C21.2045 203.697 21.2483 204.735 21.4378 205.741C19.6718 201.081 18.7547 196.015 18.7488 190.889C18.7485 189.602 18.8075 188.317 18.9258 187.038C19.0235 185.99 19.1591 184.949 19.3326 183.916C20.2791 178.31 22.3114 173.056 25.2626 168.584C26.6909 167.642 27.846 166.192 28.5723 164.43C28.8354 163.797 29.0213 163.121 29.1243 162.424C28.9632 162.449 28.5168 159.481 28.6383 159.299C28.4138 158.886 28.0119 158.681 27.7666 158.279C26.547 156.279 24.8666 156.628 23.9894 159.346C22.1154 160.491 22.0973 162.388 23.2472 164.213C23.9787 165.374 24.0792 166.945 24.7211 168.188C24.655 168.29 24.5864 168.39 24.5203 168.492C23.3132 170.37 22.2611 172.386 21.3791 174.512C21.5936 172.13 21.3376 169.721 20.6322 167.482C19.9172 165.396 18.5772 163.638 17.3971 161.835C15.9797 159.668 13.073 160.614 12.8233 163.36C12.8209 163.387 12.8185 163.413 12.8162 163.44C12.9915 163.559 13.1631 163.686 13.331 163.821C13.5419 163.991 13.7053 164.235 13.7998 164.519C13.8943 164.804 13.9156 165.117 13.8607 165.416C13.8058 165.716 13.6774 165.989 13.4923 166.198C13.3072 166.408 13.0741 166.545 12.8234 166.592L12.7977 166.597C12.8602 167.361 12.9706 168.119 13.1279 168.862C11.614 175.945 14.8824 178.525 19.5492 178.64C19.6522 178.704 19.7526 178.768 19.8556 178.829C18.9695 181.867 18.4136 185.031 18.2021 188.243C18.0823 190.137 18.0894 192.041 18.2232 193.934L18.2153 193.867C17.8772 191.761 16.9488 189.862 15.5871 188.489C13.5645 186.479 10.707 185.739 8.52505 184.123C8.29315 183.943 8.02352 183.847 7.74795 183.846C7.47238 183.845 7.20236 183.94 6.96975 184.119C6.73713 184.297 6.55162 184.553 6.43509 184.855C6.31856 185.157 6.27588 185.493 6.31208 185.824C6.315 185.847 6.31797 185.871 6.321 185.894C6.64627 186.054 6.96297 186.239 7.26926 186.447C7.44454 186.567 7.61612 186.694 7.784 186.828C7.99489 186.998 8.15831 187.242 8.25283 187.527C8.34735 187.811 8.36857 188.124 8.3137 188.424C8.25884 188.723 8.13045 188.996 7.94536 189.205C7.76028 189.415 7.52712 189.552 7.27645 189.599L7.25075 189.604C7.23227 189.607 7.21641 189.61 7.19795 189.614C7.75371 191.219 8.53375 192.697 9.50389 193.982C10.4505 200.165 14.5161 200.751 18.8651 198.951H18.8677C19.3449 201.459 20.0363 203.901 20.9307 206.236H28.3002C28.3267 206.137 28.3504 206.035 28.3742 205.936C27.692 205.988 27.0072 205.938 26.335 205.789C26.8818 204.977 27.4286 204.159 27.9753 203.348C27.9875 203.332 27.999 203.316 28.0097 203.3C28.287 202.884 28.567 202.472 28.8444 202.057L28.8445 202.056C28.8593 200.783 28.7385 199.512 28.4851 198.276L28.4849 198.276Z" fill="#C0E7BE"/>
<path d="M79.6949 49.9257C80.6514 49.9257 81.4268 48.991 81.4268 47.8381C81.4268 46.6851 80.6514 45.7505 79.6949 45.7505C78.7383 45.7505 77.9629 46.6851 77.9629 47.8381C77.9629 48.991 78.7383 49.9257 79.6949 49.9257Z" fill="#FFB3FF"/>
<path d="M22.2209 196.09L25.1241 198.373L33.7859 185.915L29.5016 182.544L22.2209 196.09Z" fill="#FFB6B6"/>
<path d="M20.1497 199.673L29.0764 206.695L29.1498 206.558C29.749 205.444 29.9576 204.087 29.7297 202.786C29.5018 201.485 28.8562 200.347 27.9347 199.622L27.9345 199.622L27.1084 196.843L23.2616 195.946L22.4824 195.333L20.1497 199.673Z" fill="#2F2E41"/>
<path d="M71.9697 202.073L75.4325 202.073L77.0794 185.916L71.969 185.916L71.9697 202.073Z" fill="#FFB6B6"/>
<path d="M71.8478 206.443L82.4958 206.443V206.28C82.4957 204.95 82.059 203.675 81.2818 202.735C80.5046 201.794 79.4505 201.266 78.3513 201.266H78.3511L76.4061 199.481L72.7772 201.266L71.8477 201.266L71.8478 206.443Z" fill="#2F2E41"/>
<path d="M36.1284 102.373L67.1791 103.199L70.2569 107.853C70.2569 107.853 69.9907 106.212 70.2276 108.014C70.4645 109.817 76.4548 145.751 75.3224 146.956C74.1901 148.161 77.4696 156.482 77.7105 156.99C77.9513 157.497 80.5474 182.544 77.7105 184.604L76.6448 193.346H71.6861C71.6861 193.346 66.7186 186.392 67.7183 185.132C68.718 183.871 65.8588 179.679 65.7495 177.431C65.6402 175.183 64.5962 164.988 65.4051 163.353C66.2139 161.718 67.3073 155.583 65.2555 153.205C63.2036 150.826 53.6339 121.6 53.6339 121.6C53.6339 121.6 50.8531 155.863 50.8596 158.554C50.8681 162.053 48.9688 160.321 48.9688 163.393C48.9688 164.013 42.7845 179.963 38.6282 184.948L30.0331 192.946L26.0662 189.347V184.148C26.0662 184.148 29.7424 174.502 31.0248 172.951C32.3073 171.399 37.0424 166.65 37.0424 164.479C37.0424 162.307 39.2715 161.55 37.7722 158.67C36.273 155.791 36.7859 154.55 37.2989 153.309C37.8119 152.067 36.8391 101.216 36.8391 101.216L36.1284 102.373Z" fill="#2F2E41"/>
<path d="M42.0077 31.4315L55.48 30.6484L58.9275 37.4905C58.9275 37.4905 68.9969 38.7131 67.557 43.2946C66.117 47.8762 63.8944 79.291 65.9301 83.2197C67.0043 85.2927 68.8227 92.2306 70.3008 98.3219C70.587 99.5032 70.6375 100.75 70.4482 101.959C70.259 103.169 69.8353 104.307 69.212 105.28C68.5887 106.253 67.7835 107.033 66.8626 107.557C65.9417 108.08 64.9313 108.332 63.9143 108.292C54.3318 107.91 40.1004 107.004 38.417 104.967C35.8521 101.864 33.5438 99.3821 35.0827 98.4513C36.6216 97.5205 38.8227 84.0195 38.8227 84.0195C38.8227 84.0195 28.6047 45.083 31.2717 43.936C33.9386 42.7891 41.3837 37.4905 41.3837 37.4905L42.0077 31.4315Z" fill="#75A575"/>
<path d="M49.0759 26.9708C54.2579 26.9708 58.4587 21.8889 58.4587 15.62C58.4587 9.3512 54.2579 4.26929 49.0759 4.26929C43.8939 4.26929 39.6931 9.3512 39.6931 15.62C39.6931 21.8889 43.8939 26.9708 49.0759 26.9708Z" fill="#FFB6B6"/>
<path d="M0.3914 206.877L104.642 207C104.746 206.999 104.846 206.949 104.919 206.86C104.992 206.771 105.034 206.65 105.034 206.524C105.034 206.398 104.992 206.277 104.919 206.188C104.846 206.099 104.746 206.048 104.642 206.048L0.3914 205.925C0.28735 205.925 0.187741 205.976 0.114351 206.065C0.0409602 206.154 -0.000244141 206.275 -0.000244141 206.401C-0.000244141 206.527 0.0409602 206.648 0.114351 206.737C0.187741 206.826 0.28735 206.877 0.3914 206.877Z" fill="#CACACA"/>
<path d="M41.58 106.711L38.9389 97.093L34.1865 98.1517L37.278 108.2C37.09 108.789 37.0416 109.43 37.138 110.05C37.2345 110.67 37.4721 111.246 37.8241 111.712C38.176 112.177 38.6285 112.515 39.1305 112.687C39.6325 112.859 40.1642 112.858 40.6658 112.684C41.1674 112.511 41.619 112.171 41.9698 111.704C42.3207 111.237 42.5569 110.661 42.6519 110.04C42.7469 109.42 42.6969 108.779 42.5075 108.191C42.3182 107.603 41.997 107.091 41.58 106.711Z" fill="#FFB6B6"/>
<path d="M32.0387 44.0193L31.9134 44.0824C30.7482 44.6703 29.7189 45.5928 28.9148 46.7703C28.1106 47.9477 27.5558 49.3445 27.2984 50.8397C26.6247 54.7401 25.962 60.3815 26.486 65.6641C27.4114 74.9937 28.0284 79.0987 29.2623 82.0842C30.4963 85.0697 30.8048 83.9502 30.4963 86.1893C30.1878 88.4284 28.6454 86.5625 30.1878 89.548C31.7302 92.5334 32.6557 91.7871 32.0387 93.2798C31.4217 94.7726 30.4963 94.7725 31.7302 96.6385C32.9641 98.5044 32.9641 99.2508 33.2726 99.9972C33.5811 100.744 34.5066 106.341 34.5066 106.341C34.5066 106.341 39.4423 104.475 42.2187 105.222C42.2187 105.222 39.7508 99.9971 40.3678 98.8776C40.9847 97.758 41.9102 97.3848 40.9847 96.2653C40.0593 95.1457 38.5168 95.5189 40.0593 94.3994C41.6017 93.2798 38.8253 81.711 38.8253 81.711L32.0387 44.0193Z" fill="#75A575"/>
<path d="M106.242 65.2741L98.1208 62.7871L96.2991 68.2016L104.963 70.4613C105.272 70.9699 105.692 71.3643 106.176 71.5999C106.66 71.8356 107.189 71.9033 107.703 71.7954C108.217 71.6874 108.696 71.4082 109.086 70.989C109.476 70.5698 109.762 70.0274 109.911 69.4225C110.06 68.8177 110.067 68.1746 109.93 67.5654C109.794 66.9562 109.52 66.4051 109.138 65.9741C108.757 65.5431 108.284 65.2492 107.773 65.1256C107.261 65.0019 106.731 65.0533 106.242 65.2741H106.242Z" fill="#FFB6B6"/>
<path d="M57.4371 41.2414L57.4136 41.4032C57.1956 42.9075 57.2839 44.4535 57.671 45.9073C58.0581 47.361 58.7323 48.6787 59.6351 49.7463C61.9892 52.5332 65.5618 56.2467 69.5235 58.5571C76.5203 62.6376 79.7118 64.2192 82.4558 64.569C85.1998 64.9189 84.5861 64.0015 85.9796 65.5217C87.3731 67.0419 85.2429 67.6094 88.1529 67.6448C91.063 67.6801 91.0415 66.3349 91.749 67.7676C92.4566 69.2003 91.9582 70.1437 93.9224 69.8906C95.8865 69.6376 96.4064 70.0395 97.0924 70.1269C97.7784 70.2144 102.176 72.2854 102.176 72.2854C102.176 72.2854 103.534 66.2492 105.549 63.821C105.549 63.821 100.581 63.5233 100.133 62.2915C99.6856 61.0597 99.924 59.9154 98.6459 60.2559C97.3677 60.5965 96.7971 62.3697 96.8478 60.1945C96.8986 58.0194 63.616 38.4292 63.616 38.4292L57.4371 41.2414Z" fill="#75A575"/>
<path d="M60.3102 13.6343C59.2986 14.0142 58.3234 14.2381 57.6655 13.2343C57.0077 12.2306 57.1796 11.0828 56.2011 10.5989C55.3827 10.2669 54.4914 10.3169 53.7019 10.7389C53.5598 10.8029 53.4209 10.8748 53.2854 10.9468C53.2093 10.8668 53.1333 10.7909 53.0507 10.7189C52.4287 10.1838 51.6609 9.95766 50.9052 10.087C51.4575 10.4098 51.912 10.9344 52.2044 11.5867C51.9333 11.7507 51.6589 11.9146 51.3812 12.0546C50.2143 12.6321 48.9522 12.8728 47.6949 12.7575C46.4377 12.6423 45.22 12.1743 44.1383 11.3907C45.2226 14.846 44.3796 16.0777 42.7895 19.2331L42.7267 19.417C42.8854 18.5892 40.806 17.6334 40.806 18.8332C40.8974 20.0623 41.1196 21.2721 41.4672 22.4324C39.4275 18.7172 38.2242 14.3701 39.0143 10.199C39.1829 9.32317 39.2589 8.38337 39.7184 7.67152C40.1779 6.96367 41.0242 6.54776 41.692 6.94768C41.7747 5.59137 42.1598 4.28755 42.8061 3.17482C43.4525 2.0621 44.336 1.18206 45.3628 0.628269C46.3896 0.0744768 47.5212 -0.132372 48.6374 0.0297206C49.7536 0.191813 50.8126 0.716787 51.7019 1.54883C52.5284 2.32066 53.1796 3.33244 53.9168 4.23225C54.654 5.13206 55.5267 5.95189 56.5581 6.17584C57.2127 6.31581 57.9498 6.23183 58.4722 6.73172C59.0771 7.3116 59.0837 8.33138 59.0804 9.31118C58.4885 9.29074 57.905 9.48427 57.4044 9.86703C58.0171 9.88566 58.6094 10.1376 59.097 10.5869C59.1064 10.5939 59.1152 10.6019 59.1234 10.6109C59.3019 12.2585 59.2292 12.6065 60.3102 13.6343Z" fill="#2F2E41"/>
<path d="M103.51 20.9603C104.466 20.9603 105.242 20.0257 105.242 18.8727C105.242 17.7198 104.466 16.7852 103.51 16.7852C102.553 16.7852 101.778 17.7198 101.778 18.8727C101.778 20.0257 102.553 20.9603 103.51 20.9603Z" fill="#FFB3FF"/>
<path d="M122.14 23.414C123.096 23.414 123.872 22.4793 123.872 21.3264C123.872 20.1734 123.096 19.2388 122.14 19.2388C121.183 19.2388 120.408 20.1734 120.408 21.3264C120.408 22.4793 121.183 23.414 122.14 23.414Z" fill="#FFB3FF"/>
<path d="M135.791 38.9489C136.747 38.9489 137.523 38.0142 137.523 36.8613C137.523 35.7083 136.747 34.7737 135.791 34.7737C134.834 34.7737 134.059 35.7083 134.059 36.8613C134.059 38.0142 134.834 38.9489 135.791 38.9489Z" fill="#FFB3FF"/>
<path d="M129.387 80.9955C130.343 80.9955 131.119 80.0609 131.119 78.9079C131.119 77.755 130.343 76.8203 129.387 76.8203C128.43 76.8203 127.655 77.755 127.655 78.9079C127.655 80.0609 128.43 80.9955 129.387 80.9955Z" fill="#FFB3FF"/>
<path d="M112.602 90.6337C113.559 90.6337 114.334 89.699 114.334 88.5461C114.334 87.3931 113.559 86.4585 112.602 86.4585C111.646 86.4585 110.87 87.3931 110.87 88.5461C110.87 89.699 111.646 90.6337 112.602 90.6337Z" fill="#FFB3FF"/>
<path d="M95.0662 86.7196C96.0227 86.7196 96.7982 85.785 96.7982 84.632C96.7982 83.4791 96.0227 82.5444 95.0662 82.5444C94.1097 82.5444 93.3342 83.4791 93.3342 84.632C93.3342 85.785 94.1097 86.7196 95.0662 86.7196Z" fill="#FFB3FF"/>
<path d="M82.9541 71.1845C83.9107 71.1845 84.6861 70.2498 84.6861 69.0969C84.6861 67.9439 83.9107 67.0093 82.9541 67.0093C81.9976 67.0093 81.2222 67.9439 81.2222 69.0969C81.2222 70.2498 81.9976 71.1845 82.9541 71.1845Z" fill="#FFB3FF"/>
<path d="M87.2723 30.8764C88.2288 30.8764 89.0042 29.9417 89.0042 28.7888C89.0042 27.6358 88.2288 26.7012 87.2723 26.7012C86.3157 26.7012 85.5403 27.6358 85.5403 28.7888C85.5403 29.9417 86.3157 30.8764 87.2723 30.8764Z" fill="#FFB3FF"/>
<path d="M92.4683 50.4476C93.4248 50.4476 94.2003 49.513 94.2003 48.3601C94.2003 47.2071 93.4248 46.2725 92.4683 46.2725C91.5118 46.2725 90.7363 47.2071 90.7363 48.3601C90.7363 49.513 91.5118 50.4476 92.4683 50.4476Z" fill="#FFB3FF"/>
<path d="M119.963 41.8363C120.92 41.8363 121.695 40.9017 121.695 39.7487C121.695 38.5958 120.92 37.6611 119.963 37.6611C119.007 37.6611 118.231 38.5958 118.231 39.7487C118.231 40.9017 119.007 41.8363 119.963 41.8363Z" fill="#FFB3FF"/>
<path d="M124.077 60.8856C125.033 60.8856 125.809 59.951 125.809 58.798C125.809 57.6451 125.033 56.7104 124.077 56.7104C123.12 56.7104 122.345 57.6451 122.345 58.798C122.345 59.951 123.12 60.8856 124.077 60.8856Z" fill="#FFB3FF"/>
<path d="M136.201 65.3218C138.951 65.3218 141.18 62.6347 141.18 59.3199C141.18 56.0052 138.951 53.3181 136.201 53.3181C133.451 53.3181 131.221 56.0052 131.221 59.3199C131.221 62.6347 133.451 65.3218 136.201 65.3218Z" fill="#FFB3FF"/>
<path d="M111.52 76.5425C114.27 76.5425 116.499 73.8554 116.499 70.5406C116.499 67.2259 114.27 64.5388 111.52 64.5388C108.77 64.5388 106.541 67.2259 106.541 70.5406C106.541 73.8554 108.77 76.5425 111.52 76.5425Z" fill="#FFB3FF"/>
<path d="M105.242 39.7488C107.992 39.7488 110.221 37.0617 110.221 33.7469C110.221 30.4322 107.992 27.7451 105.242 27.7451C102.492 27.7451 100.262 30.4322 100.262 33.7469C100.262 37.0617 102.492 39.7488 105.242 39.7488Z" fill="#FFB3FF"/>
<path d="M109.662 31.3614C117.738 28.3251 126.385 31.6087 134.506 28.8061C136.374 28.188 138.139 27.1847 139.725 25.8406C141.078 24.5996 142.348 23.2321 143.524 21.7507C145.967 18.8276 148.62 15.7584 152.29 15.7922C157.124 15.8368 160.835 20.1801 164.056 24.0151C164.512 24.5572 165.213 23.7094 164.758 23.1668C161.797 19.6427 158.599 15.925 154.385 14.8731C152.495 14.3659 150.522 14.5642 148.727 15.4417C147.17 16.2978 145.747 17.4746 144.522 18.9197C143.225 20.3593 142.028 21.9267 140.713 23.3435C139.34 24.8546 137.758 26.0623 136.04 26.9117C132.317 28.7051 128.233 28.9214 124.273 28.8693C119.303 28.8037 114.213 28.3942 109.398 30.2045C108.79 30.4329 109.05 31.5915 109.662 31.3614V31.3614Z" fill="#3F3D56"/>
<path d="M165.828 15.9296L168.31 21.2243L169.512 23.7863C169.725 24.2416 169.945 24.6936 170.152 25.1527C170.28 25.4347 170.559 25.9433 170.293 26.2105C170.059 26.3489 169.796 26.3985 169.538 26.353C169.1 26.3541 168.662 26.3423 168.225 26.3369L165.763 26.3067L160.674 26.2444C160.545 26.2497 160.423 26.3153 160.334 26.4272C160.245 26.5391 160.195 26.6886 160.195 26.8442C160.195 26.9998 160.245 27.1493 160.334 27.2613C160.423 27.3732 160.545 27.4387 160.674 27.4441C163.628 27.4803 166.584 27.5558 169.538 27.5527C170.053 27.6124 170.569 27.4417 170.988 27.073C171.193 26.8262 171.328 26.5078 171.376 26.1626C171.423 25.8175 171.379 25.4632 171.251 25.1497C170.959 24.3808 170.624 23.6373 170.248 22.9246L169.167 20.6188L166.684 15.324C166.615 15.1924 166.507 15.0982 166.382 15.0613C166.257 15.0244 166.125 15.0477 166.014 15.1262C165.903 15.2048 165.821 15.3325 165.786 15.4823C165.752 15.6322 165.766 15.7926 165.828 15.9296V15.9296Z" fill="#3F3D56"/>
<path d="M198.644 28.9036H175.824C175.699 28.9041 175.575 28.8748 175.459 28.8172C175.343 28.7597 175.238 28.6751 175.149 28.5682C175.061 28.4613 174.99 28.3343 174.942 28.1945C174.894 28.0546 174.87 27.9047 174.87 27.7533C174.87 27.6019 174.894 27.452 174.942 27.3121C174.99 27.1723 175.061 27.0453 175.149 26.9384C175.238 26.8315 175.343 26.7469 175.459 26.6894C175.575 26.6318 175.699 26.6025 175.824 26.603H198.644C198.769 26.6025 198.893 26.6318 199.009 26.6894C199.125 26.7469 199.23 26.8315 199.319 26.9384C199.407 27.0453 199.478 27.1723 199.526 27.3121C199.574 27.452 199.599 27.6019 199.599 27.7533C199.599 27.9047 199.574 28.0546 199.526 28.1945C199.478 28.3343 199.407 28.4613 199.319 28.5682C199.23 28.6751 199.125 28.7597 199.009 28.8172C198.893 28.8748 198.769 28.9041 198.644 28.9036H198.644Z" fill="#C0E7BE"/>
<path d="M198.644 47.4309H175.824C175.699 47.4315 175.575 47.4021 175.459 47.3446C175.343 47.287 175.238 47.2024 175.149 47.0955C175.061 46.9887 174.99 46.8617 174.942 46.7218C174.894 46.582 174.87 46.4321 174.87 46.2806C174.87 46.1292 174.894 45.9793 174.942 45.8395C174.99 45.6996 175.061 45.5726 175.149 45.4658C175.238 45.3589 175.343 45.2743 175.459 45.2167C175.575 45.1591 175.699 45.1298 175.824 45.1304H198.644C198.769 45.1298 198.893 45.1591 199.009 45.2167C199.125 45.2743 199.23 45.3589 199.319 45.4658C199.407 45.5726 199.478 45.6996 199.526 45.8395C199.574 45.9793 199.599 46.1292 199.599 46.2806C199.599 46.4321 199.574 46.582 199.526 46.7218C199.478 46.8617 199.407 46.9887 199.319 47.0955C199.23 47.2024 199.125 47.287 199.009 47.3446C198.893 47.4021 198.769 47.4315 198.644 47.4309H198.644Z" fill="#C0E7BE"/>
<path d="M221.046 38.1672H175.824C175.699 38.1678 175.575 38.1385 175.459 38.0809C175.343 38.0234 175.238 37.9387 175.149 37.8319C175.061 37.725 174.99 37.598 174.942 37.4582C174.894 37.3183 174.87 37.1684 174.87 37.017C174.87 36.8656 174.894 36.7156 174.942 36.5758C174.99 36.436 175.061 36.309 175.149 36.2021C175.238 36.0952 175.343 36.0106 175.459 35.953C175.575 35.8955 175.699 35.8661 175.824 35.8667H221.046C221.171 35.8661 221.295 35.8955 221.411 35.953C221.527 36.0106 221.632 36.0952 221.721 36.2021C221.809 36.309 221.88 36.436 221.928 36.5758C221.976 36.7156 222 36.8656 222 37.017C222 37.1684 221.976 37.3183 221.928 37.4582C221.88 37.598 221.809 37.725 221.721 37.8319C221.632 37.9387 221.527 38.0234 221.411 38.0809C221.295 38.1385 221.171 38.1678 221.046 38.1672Z" fill="#C0E7BE"/>
<path d="M188.252 85.7903H165.432C165.307 85.7909 165.183 85.7615 165.067 85.704C164.951 85.6464 164.846 85.5618 164.758 85.4549C164.669 85.348 164.599 85.2211 164.551 85.0812C164.502 84.9414 164.478 84.7914 164.478 84.64C164.478 84.4886 164.502 84.3387 164.551 84.1988C164.599 84.059 164.669 83.932 164.758 83.8251C164.846 83.7183 164.951 83.6336 165.067 83.5761C165.183 83.5185 165.307 83.4892 165.432 83.4898H188.252C188.377 83.4892 188.501 83.5185 188.617 83.5761C188.733 83.6336 188.838 83.7183 188.927 83.8251C189.016 83.932 189.086 84.059 189.134 84.1988C189.182 84.3387 189.207 84.4886 189.207 84.64C189.207 84.7914 189.182 84.9414 189.134 85.0812C189.086 85.2211 189.016 85.348 188.927 85.4549C188.838 85.5618 188.733 85.6464 188.617 85.704C188.501 85.7615 188.377 85.7909 188.252 85.7903Z" fill="#C0E7BE"/>
<path d="M188.252 104.318H165.432C165.307 104.318 165.183 104.289 165.067 104.232C164.951 104.174 164.846 104.089 164.758 103.983C164.669 103.876 164.599 103.749 164.551 103.609C164.502 103.469 164.478 103.319 164.478 103.168C164.478 103.016 164.502 102.866 164.551 102.726C164.599 102.587 164.669 102.46 164.758 102.353C164.846 102.246 164.951 102.161 165.067 102.104C165.183 102.046 165.307 102.017 165.432 102.017H188.252C188.377 102.017 188.501 102.046 188.617 102.104C188.733 102.161 188.838 102.246 188.927 102.353C189.016 102.46 189.086 102.587 189.134 102.726C189.182 102.866 189.207 103.016 189.207 103.168C189.207 103.319 189.182 103.469 189.134 103.609C189.086 103.749 189.016 103.876 188.927 103.983C188.838 104.089 188.733 104.174 188.617 104.232C188.501 104.289 188.377 104.318 188.252 104.318Z" fill="#C0E7BE"/>
<path d="M210.654 95.0542H165.432C165.307 95.0548 165.183 95.0254 165.067 94.9679C164.951 94.9103 164.846 94.8257 164.758 94.7188C164.669 94.612 164.599 94.485 164.551 94.3451C164.502 94.2053 164.478 94.0554 164.478 93.9039C164.478 93.7525 164.502 93.6026 164.551 93.4628C164.599 93.3229 164.669 93.1959 164.758 93.0891C164.846 92.9822 164.951 92.8975 165.067 92.84C165.183 92.7824 165.307 92.7531 165.432 92.7537H210.654C210.779 92.7531 210.903 92.7824 211.019 92.84C211.135 92.8975 211.24 92.9822 211.329 93.0891C211.417 93.1959 211.488 93.3229 211.536 93.4628C211.584 93.6026 211.608 93.7525 211.608 93.9039C211.608 94.0554 211.584 94.2053 211.536 94.3451C211.488 94.485 211.417 94.612 211.329 94.7188C211.24 94.8257 211.135 94.9103 211.019 94.9679C210.903 95.0254 210.779 95.0548 210.654 95.0542Z" fill="#C0E7BE"/>
<path d="M86.9317 105.884H64.1116C63.9865 105.884 63.8624 105.855 63.7467 105.797C63.6309 105.74 63.5257 105.655 63.437 105.548C63.3483 105.441 63.278 105.314 63.2299 105.174C63.1819 105.035 63.1572 104.885 63.1572 104.733C63.1572 104.582 63.1819 104.432 63.2299 104.292C63.278 104.152 63.3483 104.025 63.437 103.918C63.5257 103.812 63.6309 103.727 63.7467 103.669C63.8624 103.612 63.9865 103.582 64.1116 103.583H86.9317C87.0569 103.582 87.1809 103.612 87.2967 103.669C87.4125 103.727 87.5177 103.812 87.6064 103.918C87.6951 104.025 87.7654 104.152 87.8134 104.292C87.8614 104.432 87.8861 104.582 87.8861 104.733C87.8861 104.885 87.8614 105.035 87.8134 105.174C87.7654 105.314 87.6951 105.441 87.6064 105.548C87.5177 105.655 87.4125 105.74 87.2967 105.797C87.1809 105.855 87.0569 105.884 86.9317 105.884Z" fill="#C0E7BE"/>
<path d="M86.9317 124.411H64.1116C63.9865 124.411 63.8624 124.382 63.7467 124.325C63.6309 124.267 63.5257 124.182 63.437 124.076C63.3483 123.969 63.278 123.842 63.2299 123.702C63.1819 123.562 63.1572 123.412 63.1572 123.261C63.1572 123.109 63.1819 122.959 63.2299 122.819C63.278 122.68 63.3483 122.553 63.437 122.446C63.5257 122.339 63.6309 122.254 63.7467 122.197C63.8624 122.139 63.9865 122.11 64.1116 122.11H86.9317C87.0569 122.11 87.1809 122.139 87.2967 122.197C87.4125 122.254 87.5177 122.339 87.6064 122.446C87.6951 122.553 87.7654 122.68 87.8134 122.819C87.8614 122.959 87.8861 123.109 87.8861 123.261C87.8861 123.412 87.8614 123.562 87.8134 123.702C87.7654 123.842 87.6951 123.969 87.6064 124.076C87.5177 124.182 87.4125 124.267 87.2967 124.325C87.1809 124.382 87.0569 124.411 86.9317 124.411Z" fill="#C0E7BE"/>
<path d="M109.334 115.147H64.1116C63.9865 115.148 63.8624 115.118 63.7467 115.061C63.6309 115.003 63.5257 114.919 63.437 114.812C63.3483 114.705 63.278 114.578 63.2299 114.438C63.1819 114.298 63.1572 114.148 63.1572 113.997C63.1572 113.846 63.1819 113.696 63.2299 113.556C63.278 113.416 63.3483 113.289 63.437 113.182C63.5257 113.075 63.6309 112.991 63.7467 112.933C63.8624 112.875 63.9865 112.846 64.1116 112.847H109.334C109.459 112.846 109.583 112.875 109.698 112.933C109.814 112.991 109.919 113.075 110.008 113.182C110.097 113.289 110.167 113.416 110.215 113.556C110.263 113.696 110.288 113.846 110.288 113.997C110.288 114.148 110.263 114.298 110.215 114.438C110.167 114.578 110.097 114.705 110.008 114.812C109.919 114.919 109.814 115.003 109.698 115.061C109.583 115.118 109.459 115.148 109.334 115.147Z" fill="#C0E7BE"/>
<path d="M135.331 59.4341L152.394 75.0072L157.251 79.4395C157.76 79.9045 158.255 78.8633 157.751 78.4035L140.688 62.8305L135.832 58.3982C135.322 57.9331 134.828 58.9744 135.331 59.4341H135.331Z" fill="#3F3D56"/>
<path d="M149.851 80.3896C153.572 82.5497 157.618 83.7712 161.742 83.9798C161.818 83.9787 161.893 83.9566 161.961 83.9152C162.028 83.8738 162.088 83.8143 162.134 83.7411C162.18 83.668 162.212 83.583 162.226 83.4928C162.241 83.4026 162.239 83.3095 162.22 83.2205L159.577 70.3898C159.423 69.641 158.467 69.9582 158.621 70.7087L161.264 83.5394L161.742 82.7801C157.792 82.5825 153.917 81.4168 150.351 79.3536C149.779 79.0215 149.275 80.0556 149.851 80.3896V80.3896Z" fill="#3F3D56"/>
<path d="M110.876 70.2647L98.6154 91.4772L95.1597 97.456C94.7931 98.0901 95.6525 98.6904 96.016 98.0615L108.277 76.849L111.732 70.8702C112.099 70.2361 111.24 69.6358 110.876 70.2647Z" fill="#3F3D56"/>
<path d="M94.0789 88.5812C92.4332 93.1433 91.5772 98.0649 91.5637 103.042C91.5647 103.134 91.5829 103.225 91.6171 103.307C91.6513 103.389 91.7005 103.461 91.761 103.517C91.8215 103.573 91.8917 103.611 91.9663 103.629C92.0409 103.647 92.1178 103.644 92.1914 103.621L102.723 99.9303C102.846 99.8838 102.949 99.7814 103.011 99.6448C103.072 99.5081 103.088 99.3479 103.053 99.1978C103.019 99.0478 102.938 98.9197 102.828 98.8405C102.717 98.7614 102.585 98.7373 102.46 98.7734L91.9278 102.464L92.5555 103.042C92.5603 98.276 93.3701 93.561 94.9352 89.1867C95.1872 88.4857 94.333 87.8741 94.0789 88.5811V88.5812Z" fill="#3F3D56"/>
</g>
<defs>
<clipPath id="clip0_261_938">
<rect width="222" height="207" fill="white"/>
</clipPath>
</defs>
</svg>
