<svg class="work__image" width="285" height="198" viewBox="0 0 285 198" fill="none" xmlns="http://www.w3.org/2000/svg">
<g clip-path="url(#clip0_261_994)">
<path d="M39.1115 196.867C27.7782 193.887 17.7635 187.148 10.6727 177.731C3.58184 168.314 -0.174442 156.764 0.00596367 144.933C0.0509127 141.985 0.357655 138.975 1.58407 136.3C2.81048 133.625 5.08852 131.312 7.93808 130.678C11.048 129.986 14.3296 131.4 16.6472 133.607C18.9648 135.813 20.4844 138.724 21.8825 141.615C30.3036 159.027 36.7018 177.71 39.0973 196.938L39.1115 196.867Z" fill="#C0E7BE"/>
<path d="M6.52731 131.258L12.4293 144.808L18.3313 158.357C20.2005 162.648 22.0661 166.941 23.9981 171.204C25.9131 175.429 27.8938 179.625 30.0068 183.754C32.1167 187.876 34.3592 191.931 36.7934 195.868C37.0965 196.358 37.4026 196.847 37.7117 197.333C37.9256 197.67 38.4603 197.357 38.2449 197.018C35.764 193.111 33.4781 189.08 31.3342 184.975C29.1879 180.866 27.1818 176.683 25.2499 172.466C23.3077 168.227 21.4401 163.954 19.5776 159.679C17.617 155.179 15.6568 150.679 13.6969 146.179L7.79492 132.63L7.06045 130.944C6.90073 130.577 6.36853 130.894 6.52727 131.259L6.52731 131.258Z" fill="white"/>
<path d="M36.6495 196.961C29.9691 198.505 22.9692 197.738 16.7716 194.783C10.5741 191.828 5.53799 186.857 2.47054 180.665C1.70627 179.122 1.0614 177.476 0.983398 175.752C0.905392 174.029 1.46993 172.206 2.78002 171.1C4.20979 169.893 6.29137 169.732 8.08416 170.245C9.87695 170.758 11.4437 171.855 12.942 172.975C21.9662 179.718 30.2798 187.672 36.6609 197.002L36.6495 196.961Z" fill="#C0E7BE"/>
<path d="M2.20269 171.786L8.88708 177.211L15.5715 182.636C17.6884 184.354 19.804 186.074 21.946 187.76C24.0692 189.431 26.2187 191.07 28.4187 192.636C30.6156 194.201 32.8634 195.695 35.1789 197.075C35.4673 197.247 35.7567 197.417 36.0471 197.585C36.2482 197.701 36.4423 197.393 36.2398 197.276C33.9078 195.924 31.6441 194.455 29.4342 192.909C27.2219 191.36 25.0628 189.736 22.9332 188.074C20.7923 186.403 18.681 184.694 16.5717 182.982C14.3516 181.181 12.1315 179.379 9.91161 177.577L3.2272 172.153L2.39536 171.477C2.21447 171.331 2.0229 171.641 2.20269 171.786V171.786Z" fill="white"/>
<path d="M282.419 0H102.844C102.16 0.000767219 101.504 0.275788 101.02 0.764717C100.536 1.25365 100.264 1.91655 100.263 2.608V125.557C100.264 126.248 100.536 126.911 101.02 127.4C101.504 127.889 102.16 128.164 102.844 128.165H282.419C283.103 128.164 283.759 127.889 284.243 127.4C284.727 126.911 284.999 126.248 285 125.557V2.608C284.999 1.91655 284.727 1.25365 284.243 0.764717C283.759 0.275788 283.103 0.000767219 282.419 0ZM284.263 125.557C284.262 126.051 284.068 126.524 283.722 126.874C283.377 127.223 282.908 127.419 282.419 127.42H102.844C102.355 127.419 101.886 127.223 101.541 126.874C101.195 126.524 101.001 126.051 101 125.557V2.608C101.001 2.114 101.195 1.64029 101.541 1.29098C101.886 0.941672 102.355 0.745341 102.844 0.745144H282.419C282.908 0.745341 283.377 0.941672 283.722 1.29098C284.068 1.64029 284.262 2.114 284.263 2.608V125.557Z" fill="#3F3D56"/>
<path d="M284.631 10.447H100.632V11.1922H284.631V10.447Z" fill="#3F3D56"/>
<path d="M106.9 7.82389C108.122 7.82389 109.113 6.82305 109.113 5.58846C109.113 4.35386 108.122 3.35303 106.9 3.35303C105.678 3.35303 104.688 4.35386 104.688 5.58846C104.688 6.82305 105.678 7.82389 106.9 7.82389Z" fill="#3F3D56"/>
<path d="M113.261 7.82389C114.483 7.82389 115.473 6.82305 115.473 5.58846C115.473 4.35386 114.483 3.35303 113.261 3.35303C112.039 3.35303 111.049 4.35386 111.049 5.58846C111.049 6.82305 112.039 7.82389 113.261 7.82389Z" fill="#3F3D56"/>
<path d="M119.622 7.82389C120.843 7.82389 121.834 6.82305 121.834 5.58846C121.834 4.35386 120.843 3.35303 119.622 3.35303C118.4 3.35303 117.409 4.35386 117.409 5.58846C117.409 6.82305 118.4 7.82389 119.622 7.82389Z" fill="#3F3D56"/>
<path d="M145.569 27.7565H114.595C113.911 27.7565 113.254 27.4818 112.77 26.9927C112.286 26.5036 112.014 25.8402 112.014 25.1485C112.014 24.4568 112.286 23.7935 112.77 23.3044C113.254 22.8153 113.911 22.5405 114.595 22.5405H145.569C146.254 22.5405 146.91 22.8153 147.394 23.3044C147.878 23.7935 148.15 24.4568 148.15 25.1485C148.15 25.8402 147.878 26.5036 147.394 26.9927C146.91 27.4818 146.254 27.7565 145.569 27.7565Z" fill="#FFB3FF"/>
<path d="M187.974 40.424H114.595C113.911 40.424 113.254 40.1492 112.77 39.6601C112.286 39.171 112.014 38.5077 112.014 37.816C112.014 37.1243 112.286 36.461 112.77 35.9719C113.254 35.4828 113.911 35.208 114.595 35.208H187.974C188.658 35.208 189.315 35.4828 189.799 35.9719C190.283 36.461 190.555 37.1243 190.555 37.816C190.555 38.5077 190.283 39.171 189.799 39.6601C189.315 40.1492 188.658 40.424 187.974 40.424Z" fill="#C0E7BE"/>
<path d="M211.654 45.4624C208.197 50.5545 206.183 56.5036 205.827 62.6678C205.472 68.832 206.789 74.9773 209.637 80.4405C212.485 85.9037 216.755 90.4774 221.987 93.668C227.219 96.8587 233.214 98.5451 239.325 98.5453V68.9482L211.654 45.4624Z" fill="#C0E7BE"/>
<path d="M239.325 30.7371C233.876 30.7336 228.507 32.0728 223.686 34.6386C218.864 37.2045 214.734 40.9197 211.654 45.4622L239.325 68.9481V30.7371Z" fill="#FFB3FF"/>
<path d="M239.325 98.9177H238.957V30.3645H239.325C248.322 30.3645 256.951 33.9758 263.313 40.4039C269.675 46.832 273.249 55.5504 273.249 64.6411C273.249 73.7318 269.675 82.4502 263.313 88.8783C256.951 95.3065 248.322 98.9177 239.325 98.9177ZM239.694 31.1116V98.1706C248.431 98.0725 256.777 94.4967 262.921 88.2194C269.066 81.942 272.512 73.4697 272.512 64.6411C272.512 55.8126 269.066 47.3402 262.921 41.0629C256.777 34.7855 248.431 31.2098 239.694 31.1116Z" fill="#3F3D56"/>
<path d="M135.982 112.889H129.713C129.273 112.889 128.852 112.712 128.541 112.398C128.229 112.083 128.054 111.657 128.054 111.213V92.9566C128.054 92.5121 128.229 92.0859 128.541 91.7716C128.852 91.4573 129.273 91.2805 129.713 91.28H135.982C136.422 91.2805 136.843 91.4573 137.155 91.7716C137.466 92.0859 137.641 92.5121 137.641 92.9566V111.213C137.641 111.657 137.466 112.083 137.155 112.398C136.843 112.712 136.422 112.889 135.982 112.889Z" fill="#FFB3FF"/>
<path d="M154.419 112.889H148.15C147.71 112.889 147.288 112.712 146.977 112.398C146.666 112.083 146.491 111.657 146.491 111.213V84.3875C146.491 83.943 146.666 83.5169 146.977 83.2025C147.288 82.8882 147.71 82.7114 148.15 82.7109H154.419C154.858 82.7114 155.28 82.8882 155.591 83.2025C155.902 83.5169 156.077 83.943 156.078 84.3875V111.213C156.077 111.657 155.902 112.083 155.591 112.398C155.28 112.712 154.858 112.889 154.419 112.889Z" fill="#2F2E41"/>
<path d="M172.855 112.889H166.587C166.147 112.889 165.725 112.712 165.414 112.398C165.103 112.083 164.928 111.657 164.927 111.213V76.9361C164.928 76.4916 165.103 76.0654 165.414 75.7511C165.725 75.4368 166.147 75.26 166.587 75.2595H172.855C173.295 75.26 173.717 75.4368 174.028 75.7511C174.339 76.0654 174.514 76.4916 174.515 76.9361V111.213C174.514 111.657 174.339 112.083 174.028 112.398C173.717 112.712 173.295 112.889 172.855 112.889Z" fill="#C0E7BE"/>
<path d="M135.982 113.076H129.713C129.225 113.075 128.756 112.879 128.41 112.529C128.065 112.18 127.87 111.707 127.87 111.213V70.2298C127.87 69.7359 128.065 69.2624 128.41 68.9132C128.756 68.5639 129.225 68.3675 129.713 68.3669H135.982C136.471 68.3675 136.939 68.5639 137.285 68.9132C137.631 69.2624 137.825 69.7359 137.826 70.2298V111.213C137.825 111.707 137.631 112.18 137.285 112.529C136.939 112.879 136.471 113.075 135.982 113.076ZM129.713 69.1121C129.42 69.1124 129.139 69.2303 128.931 69.4398C128.724 69.6494 128.607 69.9335 128.607 70.2298V111.213C128.607 111.509 128.724 111.793 128.931 112.003C129.139 112.212 129.42 112.33 129.713 112.33H135.982C136.275 112.33 136.556 112.212 136.764 112.003C136.971 111.793 137.088 111.509 137.088 111.213V70.2298C137.088 69.9335 136.971 69.6494 136.764 69.4398C136.556 69.2303 136.275 69.1124 135.982 69.1121H129.713Z" fill="#3F3D56"/>
<path d="M154.419 113.076H148.15C147.661 113.075 147.193 112.879 146.847 112.529C146.501 112.18 146.307 111.707 146.306 111.213V70.2298C146.307 69.7359 146.501 69.2624 146.847 68.9132C147.193 68.5639 147.661 68.3675 148.15 68.3669H154.419C154.907 68.3675 155.376 68.5639 155.722 68.9132C156.067 69.2624 156.262 69.7359 156.262 70.2298V111.213C156.262 111.707 156.067 112.18 155.722 112.529C155.376 112.879 154.907 113.075 154.419 113.076ZM148.15 69.1121C147.857 69.1124 147.576 69.2303 147.368 69.4398C147.161 69.6494 147.044 69.9335 147.044 70.2298V111.213C147.044 111.509 147.161 111.793 147.368 112.003C147.576 112.212 147.857 112.33 148.15 112.33H154.419C154.712 112.33 154.993 112.212 155.2 112.003C155.408 111.793 155.524 111.509 155.525 111.213V70.2298C155.524 69.9335 155.408 69.6494 155.2 69.4398C154.993 69.2303 154.712 69.1124 154.419 69.1121H148.15Z" fill="#3F3D56"/>
<path d="M172.855 113.076H166.587C166.098 113.075 165.629 112.879 165.284 112.529C164.938 112.18 164.744 111.707 164.743 111.213V70.2298C164.744 69.7359 164.938 69.2624 165.284 68.9132C165.629 68.5639 166.098 68.3675 166.587 68.3669H172.855C173.344 68.3675 173.813 68.5639 174.158 68.9132C174.504 69.2624 174.698 69.7359 174.699 70.2298V111.213C174.698 111.707 174.504 112.18 174.158 112.529C173.813 112.879 173.344 113.075 172.855 113.076ZM166.587 69.1121C166.294 69.1124 166.012 69.2303 165.805 69.4398C165.598 69.6494 165.481 69.9335 165.481 70.2298V111.213C165.481 111.509 165.598 111.793 165.805 112.003C166.012 112.212 166.294 112.33 166.587 112.33H172.855C173.149 112.33 173.43 112.212 173.637 112.003C173.845 111.793 173.961 111.509 173.962 111.213V70.2298C173.961 69.9335 173.845 69.6494 173.637 69.4398C173.43 69.2303 173.149 69.1124 172.855 69.1121H166.587Z" fill="#3F3D56"/>
<path d="M41.4575 133.754C41.6008 133.226 41.6277 132.673 41.5363 132.133C41.445 131.593 41.2376 131.08 40.9287 130.63C40.6199 130.18 40.2171 129.803 39.7488 129.527C39.2805 129.252 38.758 129.083 38.2182 129.033L35.0471 116.111L30.406 121.197L34.1288 132.689C34.1062 133.611 34.4191 134.509 35.0081 135.213C35.5972 135.918 36.4215 136.379 37.3248 136.511C38.2282 136.642 39.1478 136.434 39.9095 135.926C40.6712 135.418 41.2219 134.645 41.4575 133.754H41.4575Z" fill="#FFB8B8"/>
<path d="M32.9558 129.78C32.7407 129.689 32.5468 129.554 32.3869 129.382C32.227 129.211 32.1045 129.008 32.0275 128.785L26.7339 112.326C25.3661 108.372 25.4662 104.051 27.0155 100.167L32.1182 87.367C32.2329 86.6668 32.4832 85.9963 32.8545 85.3938C33.2259 84.7913 33.7111 84.2687 34.2825 83.8559C34.8539 83.443 35.5003 83.148 36.1846 82.9877C36.8689 82.8274 37.5778 82.805 38.2707 82.9216C38.9636 83.0383 39.6269 83.2919 40.2228 83.6678C40.8186 84.0437 41.3353 84.5345 41.7433 85.1123C42.1513 85.6901 42.4426 86.3435 42.6005 87.0351C42.7584 87.7267 42.7798 88.443 42.6635 89.143L35.6234 109.842L38.0877 126.697C38.1205 127.04 38.0482 127.385 37.8807 127.685C37.7132 127.985 37.4586 128.226 37.1511 128.375L34.3087 129.745C34.0037 129.892 33.6618 129.942 33.3284 129.887C33.2004 129.866 33.0754 129.83 32.9558 129.78Z" fill="#2F2E41"/>
<path d="M59.1243 193.157L63.645 193.157L65.7955 175.539L59.1235 175.539L59.1243 193.157Z" fill="#FFB8B8"/>
<path d="M72.3635 197.398L58.1558 197.399L58.1556 191.852L66.874 191.852C68.3298 191.852 69.7261 192.436 70.7556 193.476C71.7851 194.516 72.3635 195.927 72.3635 197.398Z" fill="#2F2E41"/>
<path d="M36.6314 193.157L41.1521 193.157L43.3025 175.539L36.6306 175.539L36.6314 193.157Z" fill="#FFB8B8"/>
<path d="M49.8706 197.398L35.6629 197.399L35.6627 191.852L44.381 191.852C45.8369 191.852 47.2331 192.436 48.2626 193.476C49.2921 194.516 49.8705 195.927 49.8706 197.398Z" fill="#2F2E41"/>
<path d="M60.36 121.351L64.3338 153.163C64.8801 157.537 65.2624 161.926 65.4805 166.332L66.5511 187.967C66.5611 188.169 66.5304 188.37 66.4608 188.56C66.3913 188.749 66.2844 188.922 66.1467 189.068C66.0089 189.215 65.8431 189.331 65.6594 189.411C65.4757 189.49 65.2779 189.532 65.078 189.532H59.0468C58.694 189.532 58.3529 189.404 58.0853 189.171C57.8178 188.939 57.6415 188.617 57.5886 188.265L52.1644 152.158C52.1383 151.984 52.052 151.824 51.9208 151.709C51.7896 151.593 51.6221 151.527 51.4478 151.524C51.2736 151.521 51.1039 151.581 50.9689 151.692C50.8339 151.804 50.7423 151.96 50.7104 152.133L44.1758 187.496C44.1111 187.814 43.9455 188.102 43.7042 188.316C43.4629 188.53 43.159 188.659 42.8386 188.682L37.2877 189.038C37.0816 189.053 36.8746 189.025 36.6802 188.954C36.4858 188.883 36.3082 188.772 36.1591 188.627C36.01 188.483 35.8925 188.308 35.8144 188.115C35.7364 187.922 35.6993 187.714 35.7058 187.505L37.4983 129.547L60.36 121.351Z" fill="#2F2E41"/>
<path d="M42.7536 76.0386C47.7554 76.0386 51.8101 71.9416 51.8101 66.8878C51.8101 61.834 47.7554 57.7371 42.7536 57.7371C37.7518 57.7371 33.697 61.834 33.697 66.8878C33.697 71.9416 37.7518 76.0386 42.7536 76.0386Z" fill="#FFB8B8"/>
<path d="M35.6548 130.293C37.8672 135.509 47.4543 139.234 49.6668 131.783C51.3777 126.023 58.1551 123.601 61.1455 122.8C61.5215 122.699 61.8429 122.452 62.0403 122.113C62.2377 121.774 62.2951 121.371 62.2002 120.989L53.8408 87.8119C53.3539 85.8793 52.3842 84.1052 51.0245 82.6597C49.6649 81.2141 47.9607 80.1453 46.0752 79.5557C39.4307 77.4768 32.4247 81.7576 31.3 88.6912C30.9928 90.6354 30.797 92.5959 30.7137 94.5629C30.0204 109.201 34.1982 126.857 35.6548 130.293Z" fill="#75A575"/>
<path d="M65.666 130.283C65.6118 129.738 65.44 129.212 65.1627 128.741C64.8854 128.27 64.5093 127.867 64.061 127.559C63.6126 127.251 63.1029 127.046 62.5678 126.959C62.0327 126.872 61.4851 126.904 60.9636 127.054L53.4072 116.147L50.886 122.579L58.4482 131.951C58.7551 132.819 59.3666 133.544 60.1669 133.987C60.9671 134.43 61.9005 134.562 62.7902 134.356C63.6799 134.15 64.4641 133.622 64.9941 132.872C65.5241 132.121 65.7632 131.2 65.666 130.283L65.666 130.283Z" fill="#FFB8B8"/>
<path d="M56.3187 129.662C56.0857 129.656 55.8566 129.6 55.6464 129.498C55.4362 129.396 55.2496 129.251 55.0987 129.071L44.3032 115.634C41.6204 112.442 40.1766 108.374 40.2403 104.186L40.4484 90.3885C40.3067 89.6935 40.302 88.9772 40.4344 88.2804C40.5668 87.5836 40.8339 86.92 41.2202 86.3275C41.6066 85.735 42.1047 85.2252 42.6861 84.8273C43.2675 84.4293 43.9208 84.1511 44.6087 84.0083C45.2965 83.8656 46.0055 83.8612 46.6951 83.9955C47.3846 84.1297 48.0412 84.3999 48.6274 84.7906C49.2136 85.1813 49.7178 85.6849 50.1113 86.2726C50.5048 86.8602 50.7798 87.5205 50.9207 88.2156L51.7151 110.088L60.0108 124.921C60.1634 125.23 60.2187 125.578 60.1692 125.918C60.1196 126.259 59.9677 126.577 59.7339 126.827L57.5689 129.139C57.3366 129.386 57.0351 129.557 56.7046 129.627C56.5778 129.654 56.4482 129.666 56.3187 129.662Z" fill="#2F2E41"/>
<path d="M35.8793 74.3726C36.0744 74.4894 36.2934 74.5593 36.5195 74.5769C36.7456 74.5945 36.9726 74.5592 37.1831 74.4739C37.3935 74.3886 37.5817 74.2555 37.733 74.0849C37.8844 73.9144 37.9949 73.7109 38.0559 73.4902L38.061 73.4694C38.2253 72.7749 38.0888 72.0496 38.0417 71.3371C37.9945 70.6246 38.0635 69.8419 38.5438 69.318C39.4391 68.3415 41.0319 68.8591 42.3265 68.6122C43.0847 68.4412 43.7554 67.9968 44.2128 67.3623C44.6703 66.7278 44.8832 65.9466 44.8118 65.1648C44.7933 65.0167 44.7644 64.8685 44.732 64.7203C44.651 64.3449 44.6573 63.9556 44.7503 63.583C44.8432 63.2105 45.0204 62.8647 45.2679 62.573C45.5154 62.2813 45.8264 62.0515 46.1766 61.9016C46.5268 61.7518 46.9066 61.686 47.2861 61.7094C48.5945 61.785 50.0067 62.1856 51.0891 61.2064C51.486 60.8202 51.7615 60.3245 51.8813 59.7811C52.001 59.2377 51.9598 58.6707 51.7626 58.1508C51.1446 56.3482 49.3977 55.4045 47.669 54.8857C45.531 54.2616 43.2822 54.1266 41.0861 54.4907C38.8899 54.8548 36.8017 55.7088 34.9733 56.9906C33.8814 57.7683 32.8616 58.7454 32.3963 60.0106C31.9309 61.2758 32.1554 62.8721 33.2048 63.7073C32.3914 64.5775 31.8185 65.6484 31.5437 66.8128C31.2689 67.9771 31.3018 69.194 31.6391 70.3414C32.1574 72.029 34.6312 73.6469 35.8793 74.3726Z" fill="#2F2E41"/>
<path d="M101.811 198H4.0953C3.9975 198 3.90371 197.961 3.83456 197.891C3.76541 197.821 3.72656 197.726 3.72656 197.627C3.72656 197.529 3.76541 197.434 3.83456 197.364C3.90371 197.294 3.9975 197.255 4.0953 197.255H101.811C101.908 197.255 102.002 197.294 102.071 197.364C102.14 197.434 102.179 197.529 102.179 197.627C102.179 197.726 102.14 197.821 102.071 197.891C102.002 197.961 101.908 198 101.811 198Z" fill="#3F3D56"/>
</g>
<defs>
<clipPath id="clip0_261_994">
<rect width="285" height="198" fill="white"/>
</clipPath>
</defs>
</svg>
