<svg viewBox="0 0 337 249" fill="none" xmlns="http://www.w3.org/2000/svg">
<g clip-path="url(#clip0_542_312)">
<path d="M46.2177 246.686C32.8253 242.952 20.991 234.508 12.6118 222.707C4.23267 210.907 -0.206092 196.435 0.00709157 181.609C0.0602074 177.916 0.422682 174.144 1.87192 170.792C3.32116 167.44 6.01309 164.541 9.3804 163.747C13.0553 162.88 16.9332 164.652 19.6718 167.417C22.4105 170.182 24.2062 173.83 25.8584 177.452C35.8096 199.27 43.3702 222.681 46.2009 246.774L46.2177 246.686Z" fill="#C0E7BE"/>
<path d="M7.7132 164.475L14.6875 181.453L21.6619 198.431C23.8707 203.808 26.0752 209.188 28.3583 214.529C30.6212 219.824 32.9618 225.082 35.4586 230.255C37.952 235.42 40.6019 240.502 43.4783 245.434C43.8365 246.049 44.1982 246.661 44.5635 247.27C44.8162 247.692 45.4481 247.301 45.1935 246.876C42.262 241.979 39.5607 236.929 37.0272 231.785C34.491 226.635 32.1205 221.394 29.8375 216.111C27.5424 210.799 25.3355 205.445 23.1345 200.088C20.8178 194.449 18.5014 188.81 16.1855 183.171L9.21113 166.193L8.3432 164.08C8.15446 163.621 7.52557 164.018 7.71316 164.475L7.7132 164.475Z" fill="white"/>
<path d="M43.3084 246.804C35.4143 248.739 27.1425 247.778 19.8189 244.075C12.4954 240.373 6.54423 234.142 2.91946 226.384C2.01633 224.451 1.25429 222.388 1.16211 220.228C1.06993 218.069 1.73704 215.785 3.28517 214.399C4.97471 212.886 7.43449 212.684 9.55302 213.327C11.6715 213.971 13.523 215.345 15.2934 216.748C25.9573 225.197 35.7814 235.165 43.3218 246.855L43.3084 246.804Z" fill="#C0E7BE"/>
<path d="M2.60302 215.259L10.5019 222.056L18.4008 228.854C20.9024 231.007 23.4024 233.162 25.9336 235.275C28.4425 237.369 30.9825 239.422 33.5822 241.385C36.1783 243.346 38.8345 245.218 41.5707 246.947C41.9115 247.162 42.2535 247.375 42.5967 247.586C42.8343 247.732 43.0636 247.346 42.8244 247.199C40.0687 245.505 37.3937 243.664 34.7822 241.726C32.1679 239.786 29.6166 237.751 27.1001 235.668C24.5702 233.574 22.0752 231.432 19.5828 229.288C16.9592 227.03 14.3358 224.773 11.7126 222.515L3.81368 215.718L2.8307 214.872C2.61694 214.688 2.39057 215.076 2.60302 215.259V215.259Z" fill="white"/>
<path d="M333.732 0H121.53C120.721 0.000961372 119.946 0.345579 119.374 0.958237C118.802 1.57089 118.481 2.40156 118.48 3.26799V157.33C118.481 158.197 118.802 159.027 119.374 159.64C119.946 160.253 120.721 160.597 121.53 160.598H333.732C334.54 160.597 335.316 160.253 335.887 159.64C336.459 159.027 336.781 158.197 336.782 157.33V3.26799C336.781 2.40156 336.459 1.57089 335.887 0.958237C335.316 0.345579 334.54 0.000961372 333.732 0V0ZM335.91 157.33C335.91 157.949 335.68 158.543 335.272 158.98C334.863 159.418 334.309 159.664 333.732 159.664H121.53C120.952 159.664 120.398 159.418 119.99 158.98C119.581 158.543 119.351 157.949 119.351 157.33V3.26799C119.351 2.64897 119.581 2.05539 119.99 1.61768C120.398 1.17997 120.952 0.933958 121.53 0.93371H333.732C334.309 0.933958 334.863 1.17997 335.272 1.61768C335.68 2.05539 335.91 2.64897 335.91 3.26799V157.33Z" fill="white"/>
<path d="M336.346 13.0906H118.916V14.0243H336.346V13.0906Z" fill="white"/>
<path d="M126.323 9.80392C127.767 9.80392 128.937 8.54981 128.937 7.00279C128.937 5.45577 127.767 4.20166 126.323 4.20166C124.879 4.20166 123.709 5.45577 123.709 7.00279C123.709 8.54981 124.879 9.80392 126.323 9.80392Z" fill="white"/>
<path d="M133.839 9.80392C135.283 9.80392 136.454 8.54981 136.454 7.00279C136.454 5.45577 135.283 4.20166 133.839 4.20166C132.395 4.20166 131.225 5.45577 131.225 7.00279C131.225 8.54981 132.395 9.80392 133.839 9.80392Z" fill="white"/>
<path d="M141.356 9.80392C142.8 9.80392 143.97 8.54981 143.97 7.00279C143.97 5.45577 142.8 4.20166 141.356 4.20166C139.912 4.20166 138.741 5.45577 138.741 7.00279C138.741 8.54981 139.912 9.80392 141.356 9.80392Z" fill="white"/>
<path d="M172.017 34.7807H135.416C134.607 34.7807 133.831 34.4364 133.259 33.8236C132.687 33.2107 132.366 32.3795 132.366 31.5127C132.366 30.646 132.687 29.8148 133.259 29.2019C133.831 28.5891 134.607 28.2448 135.416 28.2448H172.017C172.826 28.2448 173.602 28.5891 174.174 29.2019C174.746 29.8148 175.068 30.646 175.068 31.5127C175.068 32.3795 174.746 33.2107 174.174 33.8236C173.602 34.4364 172.826 34.7807 172.017 34.7807Z" fill="#FFB3FF"/>
<path d="M222.127 50.6538H135.416C134.607 50.6538 133.831 50.3095 133.259 49.6966C132.687 49.0837 132.366 48.2525 132.366 47.3858C132.366 46.5191 132.687 45.6878 133.259 45.075C133.831 44.4621 134.607 44.1178 135.416 44.1178H222.127C222.936 44.1178 223.711 44.4621 224.283 45.075C224.855 45.6878 225.177 46.5191 225.177 47.3858C225.177 48.2525 224.855 49.0837 224.283 49.6966C223.711 50.3095 222.936 50.6538 222.127 50.6538Z" fill="#C0E7BE"/>
<path d="M250.109 56.967C246.025 63.3477 243.644 70.8023 243.224 78.5264C242.804 86.2506 244.36 93.951 247.726 100.797C251.091 107.642 256.137 113.374 262.32 117.372C268.503 121.37 275.587 123.483 282.808 123.483V86.3962L250.109 56.967Z" fill="#C0E7BE"/>
<path d="M282.808 38.5155C276.369 38.5111 270.025 40.1892 264.327 43.4044C258.629 46.6196 253.749 51.275 250.109 56.967L282.808 86.3962V38.5155Z" fill="#FFB3FF"/>
<path d="M282.808 123.95H282.373V38.0487H282.808C293.44 38.0487 303.637 42.5738 311.154 50.6287C318.672 58.6835 322.896 69.6082 322.896 80.9994C322.896 92.3906 318.672 103.315 311.154 111.37C303.637 119.425 293.44 123.95 282.808 123.95ZM283.244 38.9849V123.014C293.569 122.891 303.431 118.41 310.692 110.544C317.952 102.678 322.024 92.0621 322.024 80.9994C322.024 69.9367 317.952 59.3203 310.692 51.4544C303.431 43.5885 293.569 39.1079 283.244 38.9849V38.9849Z" fill="white"/>
<path d="M160.688 141.457H153.281C152.761 141.456 152.263 141.235 151.895 140.841C151.527 140.447 151.321 139.913 151.32 139.356V116.48C151.321 115.923 151.527 115.389 151.895 114.996C152.263 114.602 152.761 114.38 153.281 114.38H160.688C161.208 114.38 161.707 114.602 162.074 114.996C162.442 115.389 162.649 115.923 162.649 116.48V139.356C162.649 139.913 162.442 140.447 162.074 140.841C161.707 141.235 161.208 141.456 160.688 141.457V141.457Z" fill="#FFB3FF"/>
<path d="M182.475 141.457H175.068C174.548 141.456 174.049 141.235 173.682 140.841C173.314 140.447 173.107 139.913 173.107 139.356V105.743C173.107 105.186 173.314 104.652 173.682 104.258C174.049 103.864 174.548 103.642 175.068 103.642H182.475C182.995 103.642 183.493 103.864 183.861 104.258C184.228 104.652 184.435 105.186 184.436 105.743V139.356C184.435 139.913 184.228 140.447 183.861 140.841C183.493 141.235 182.995 141.456 182.475 141.457Z" fill="#697077"/>
<path d="M204.262 141.457H196.854C196.334 141.456 195.836 141.235 195.468 140.841C195.101 140.447 194.894 139.913 194.893 139.356V96.4055C194.894 95.8485 195.101 95.3145 195.468 94.9207C195.836 94.5268 196.334 94.3053 196.854 94.3047H204.262C204.781 94.3053 205.28 94.5268 205.647 94.9207C206.015 95.3145 206.222 95.8485 206.222 96.4055V139.356C206.222 139.913 206.015 140.447 205.647 140.841C205.28 141.235 204.781 141.456 204.262 141.457V141.457Z" fill="#C0E7BE"/>
<path d="M160.688 141.691H153.281C152.703 141.69 152.15 141.444 151.741 141.006C151.333 140.568 151.103 139.975 151.102 139.356V88.0022C151.103 87.3834 151.333 86.79 151.741 86.3524C152.15 85.9148 152.703 85.6687 153.281 85.668H160.688C161.266 85.6687 161.82 85.9148 162.228 86.3524C162.637 86.79 162.866 87.3834 162.867 88.0022V139.356C162.866 139.975 162.637 140.568 162.228 141.006C161.82 141.444 161.266 141.69 160.688 141.691ZM153.281 86.6017C152.934 86.6021 152.602 86.7498 152.357 87.0123C152.112 87.2749 151.974 87.6309 151.974 88.0022V139.356C151.974 139.728 152.112 140.084 152.357 140.346C152.602 140.609 152.934 140.756 153.281 140.757H160.688C161.035 140.756 161.367 140.609 161.612 140.346C161.857 140.084 161.995 139.728 161.996 139.356V88.0022C161.995 87.6309 161.857 87.2749 161.612 87.0123C161.367 86.7498 161.035 86.6021 160.688 86.6017H153.281Z" fill="white"/>
<path d="M182.475 141.691H175.068C174.49 141.69 173.936 141.444 173.528 141.006C173.119 140.568 172.89 139.975 172.889 139.356V88.0022C172.89 87.3834 173.119 86.79 173.528 86.3524C173.936 85.9148 174.49 85.6687 175.068 85.668H182.475C183.053 85.6687 183.606 85.9148 184.015 86.3524C184.423 86.79 184.653 87.3834 184.654 88.0022V139.356C184.653 139.975 184.423 140.568 184.015 141.006C183.606 141.444 183.053 141.69 182.475 141.691V141.691ZM175.068 86.6017C174.721 86.6021 174.389 86.7498 174.144 87.0123C173.899 87.2749 173.761 87.6309 173.76 88.0022V139.356C173.761 139.728 173.899 140.084 174.144 140.346C174.389 140.609 174.721 140.756 175.068 140.757H182.475C182.822 140.756 183.154 140.609 183.399 140.346C183.644 140.084 183.782 139.728 183.782 139.356V88.0022C183.782 87.6309 183.644 87.2749 183.399 87.0123C183.154 86.7498 182.822 86.6021 182.475 86.6017H175.068Z" fill="white"/>
<path d="M204.262 141.691H196.854C196.277 141.69 195.723 141.444 195.314 141.006C194.906 140.568 194.676 139.975 194.675 139.356V88.0022C194.676 87.3834 194.906 86.79 195.314 86.3524C195.723 85.9148 196.277 85.6687 196.854 85.668H204.262C204.839 85.6687 205.393 85.9148 205.801 86.3524C206.21 86.79 206.44 87.3834 206.44 88.0022V139.356C206.44 139.975 206.21 140.568 205.801 141.006C205.393 141.444 204.839 141.69 204.262 141.691ZM196.854 86.6017C196.508 86.6021 196.175 86.7498 195.93 87.0123C195.685 87.2749 195.547 87.6309 195.547 88.0022V139.356C195.547 139.728 195.685 140.084 195.93 140.346C196.175 140.609 196.508 140.756 196.854 140.757H204.262C204.608 140.756 204.94 140.609 205.186 140.346C205.431 140.084 205.568 139.728 205.569 139.356V88.0022C205.568 87.6309 205.431 87.2749 205.186 87.0123C204.94 86.7498 204.608 86.6021 204.262 86.6017H196.854Z" fill="white"/>
<path d="M48.99 167.602C49.1593 166.94 49.1911 166.247 49.0832 165.57C48.9752 164.894 48.7301 164.251 48.3652 163.687C48.0002 163.123 47.5243 162.651 46.9709 162.306C46.4175 161.96 45.8001 161.748 45.1622 161.686L41.415 145.493L35.9306 151.868L40.3298 166.267C40.3031 167.422 40.6728 168.548 41.3689 169.43C42.0649 170.313 43.039 170.891 44.1065 171.056C45.174 171.221 46.2607 170.96 47.1608 170.323C48.0608 169.687 48.7117 168.719 48.99 167.602H48.99Z" fill="#FFB8B8"/>
<path d="M38.9435 162.622C38.6893 162.508 38.4602 162.339 38.2712 162.124C38.0822 161.909 37.9375 161.654 37.8466 161.376L31.5911 140.751C29.9748 135.797 30.0931 130.383 31.9239 125.515L37.9537 109.476C38.0893 108.599 38.385 107.759 38.8238 107.004C39.2626 106.249 39.8361 105.594 40.5113 105.077C41.1865 104.559 41.9503 104.19 42.7589 103.989C43.5675 103.788 44.4052 103.76 45.224 103.906C46.0428 104.052 46.8267 104.37 47.5308 104.841C48.2349 105.312 48.8455 105.927 49.3276 106.651C49.8097 107.375 50.1539 108.194 50.3405 109.06C50.5271 109.927 50.5524 110.825 50.415 111.702L42.0958 137.639L45.0078 158.759C45.0465 159.189 44.9612 159.621 44.7632 159.997C44.5653 160.373 44.2643 160.675 43.9011 160.862L40.5421 162.579C40.1818 162.763 39.7777 162.825 39.3837 162.756C39.2325 162.73 39.0848 162.685 38.9435 162.622V162.622Z" fill="#2F2E41"/>
<path d="M69.8667 242.038L75.2087 242.037L77.7499 219.961L69.8658 219.961L69.8667 242.038Z" fill="#FFB8B8"/>
<path d="M85.5113 247.352L68.7222 247.353L68.7219 240.403L79.0243 240.402C80.7447 240.402 82.3947 241.134 83.6112 242.437C84.8278 243.741 85.5112 245.509 85.5113 247.352V247.352V247.352Z" fill="#2F2E41"/>
<path d="M43.287 242.038L48.6291 242.037L51.1702 219.961L43.2861 219.961L43.287 242.038Z" fill="#FFB8B8"/>
<path d="M58.9316 247.352L42.1425 247.353L42.1423 240.403L52.4447 240.402C54.165 240.402 55.815 241.134 57.0315 242.437C58.2481 243.741 58.9316 245.509 58.9316 247.352V247.352V247.352Z" fill="#2F2E41"/>
<path d="M71.3269 152.06L76.0227 191.923C76.6683 197.403 77.12 202.903 77.3777 208.424L78.6429 235.534C78.6547 235.787 78.6184 236.039 78.5362 236.277C78.4541 236.514 78.3277 236.731 78.1649 236.914C78.0021 237.097 77.8062 237.243 77.5892 237.343C77.3721 237.443 77.1383 237.494 76.9021 237.494H69.7751C69.3582 237.494 68.9551 237.334 68.6389 237.043C68.3227 236.752 68.1145 236.349 68.0519 235.907L61.6423 190.663C61.6114 190.445 61.5094 190.245 61.3544 190.1C61.1993 189.955 61.0014 189.873 60.7955 189.869C60.5896 189.865 60.3891 189.94 60.2296 190.079C60.0701 190.219 59.9618 190.415 59.924 190.631L52.2021 234.944C52.1257 235.342 51.9301 235.703 51.6449 235.971C51.3597 236.239 51.0006 236.401 50.6221 236.43L44.0625 236.876C43.819 236.895 43.5744 236.859 43.3447 236.771C43.115 236.682 42.9052 236.543 42.7289 236.362C42.5527 236.181 42.4139 235.962 42.3217 235.72C42.2294 235.477 42.1856 235.217 42.1933 234.956L44.3115 162.331L71.3269 152.06Z" fill="#2F2E41"/>
<path d="M50.5215 95.281C56.4321 95.281 61.2236 90.1473 61.2236 83.8146C61.2236 77.4818 56.4321 72.3481 50.5215 72.3481C44.611 72.3481 39.8195 77.4818 39.8195 83.8146C39.8195 90.1473 44.611 95.281 50.5215 95.281Z" fill="#FFB8B8"/>
<path d="M42.1328 163.265C44.7472 169.8 56.0763 174.469 58.6906 165.132C60.7125 157.914 68.7212 154.88 72.2549 153.876C72.6993 153.749 73.0791 153.44 73.3123 153.015C73.5456 152.591 73.6134 152.085 73.5013 151.607L63.6231 110.034C63.0477 107.612 61.9019 105.389 60.2951 103.578C58.6884 101.766 56.6746 100.427 54.4465 99.6881C46.5948 97.0831 38.3159 102.447 36.9868 111.135C36.6238 113.572 36.3925 116.028 36.294 118.493C35.4747 136.836 40.4116 158.96 42.1328 163.265Z" fill="#C0E7BE"/>
<path d="M77.597 163.253C77.533 162.57 77.3299 161.91 77.0022 161.32C76.6745 160.731 76.2301 160.225 75.7003 159.839C75.1705 159.454 74.5682 159.197 73.9359 159.088C73.3035 158.978 72.6564 159.019 72.0402 159.206L63.1109 145.539L60.1316 153.599L69.0678 165.342C69.4305 166.43 70.1531 167.338 71.0987 167.894C72.0444 168.449 73.1474 168.614 74.1987 168.356C75.25 168.099 76.1767 167.437 76.803 166.496C77.4293 165.556 77.7119 164.401 77.597 163.253L77.597 163.253Z" fill="#FFB8B8"/>
<path d="M66.5511 162.474C66.2758 162.466 66.0051 162.396 65.7568 162.269C65.5084 162.141 65.2878 161.959 65.1095 161.734L52.3526 144.897C49.1823 140.897 47.4761 135.799 47.5515 130.551L47.7973 113.262C47.63 112.391 47.6243 111.494 47.7808 110.621C47.9373 109.747 48.2529 108.916 48.7094 108.173C49.166 107.431 49.7546 106.792 50.4416 106.294C51.1286 105.795 51.9006 105.446 52.7135 105.267C53.5264 105.089 54.3641 105.083 55.179 105.251C55.9938 105.42 56.7697 105.758 57.4624 106.248C58.1551 106.737 58.7509 107.368 59.2159 108.105C59.6809 108.841 60.0059 109.668 60.1723 110.539L61.1111 137.947L70.9141 156.534C71.0944 156.92 71.1598 157.356 71.1012 157.783C71.0427 158.211 70.8631 158.608 70.5868 158.922L68.0285 161.818C67.754 162.129 67.3977 162.342 67.0071 162.43C66.8573 162.464 66.7042 162.479 66.5511 162.474V162.474Z" fill="#2F2E41"/>
<path d="M42.3984 93.1933C42.6289 93.3397 42.8877 93.4273 43.1549 93.4493C43.422 93.4714 43.6903 93.4272 43.939 93.3203C44.1877 93.2134 44.41 93.0467 44.5889 92.8329C44.7678 92.6191 44.8983 92.3641 44.9704 92.0877L44.9764 92.0616C45.1706 91.1913 45.0093 90.2825 44.9536 89.3897C44.8979 88.4969 44.9794 87.5161 45.547 86.8596C46.6049 85.636 48.4871 86.2846 50.0169 85.9752C50.9129 85.7609 51.7054 85.2041 52.246 84.409C52.7866 83.6139 53.0382 82.635 52.9538 81.6555C52.932 81.4699 52.8978 81.2841 52.8595 81.0984C52.7638 80.628 52.7712 80.1402 52.8811 79.6734C52.991 79.2065 53.2003 78.7733 53.4928 78.4077C53.7852 78.0422 54.1528 77.7542 54.5666 77.5665C54.9804 77.3787 55.4292 77.2963 55.8777 77.3256C57.4237 77.4204 59.0925 77.9222 60.3717 76.6953C60.8406 76.2114 61.1662 75.5902 61.3077 74.9093C61.4492 74.2284 61.4005 73.5179 61.1675 72.8665C60.4372 70.6077 58.3729 69.4252 56.3301 68.7751C53.8036 67.993 51.1462 67.8239 48.5511 68.2802C45.956 68.7364 43.4884 69.8065 41.3277 71.4127C40.0374 72.3871 38.8324 73.6115 38.2825 75.1969C37.7325 76.7823 37.9978 78.7825 39.2379 79.829C38.2767 80.9195 37.5998 82.2614 37.2751 83.7204C36.9503 85.1794 36.9892 86.7042 37.3877 88.1421C38.0002 90.2567 40.9235 92.284 42.3984 93.1933Z" fill="#2F2E41"/>
<path d="M120.308 248.106H4.83936C4.72379 248.106 4.61296 248.057 4.53125 247.969C4.44953 247.882 4.40363 247.763 4.40363 247.639C4.40363 247.515 4.44953 247.396 4.53125 247.309C4.61296 247.221 4.72379 247.172 4.83936 247.172H120.308C120.424 247.172 120.535 247.221 120.617 247.309C120.698 247.396 120.744 247.515 120.744 247.639C120.744 247.763 120.698 247.882 120.617 247.969C120.535 248.057 120.424 248.106 120.308 248.106Z" fill="#CACACA"/>
</g>
<defs>
<clipPath id="clip0_542_312">
<rect width="336.782" height="248.106" fill="white"/>
</clipPath>
</defs>
</svg>
