<svg viewBox="0 0 344 268" fill="none" xmlns="http://www.w3.org/2000/svg">
<g clip-path="url(#clip0_542_136)">
<path d="M175.688 267.326C186.034 267.326 194.422 258.058 194.422 246.624C194.422 235.191 186.034 225.922 175.688 225.922C165.341 225.922 156.954 235.191 156.954 246.624C156.954 258.058 165.341 267.326 175.688 267.326Z" fill="#FBFFFA"/>
<path d="M287.605 266.163C298.085 262.685 309.227 259.058 317.539 250.789C324.967 243.401 329.981 232.118 326.904 221.036C323.833 209.978 314.636 202.604 305.14 198.937C299.754 196.857 294.119 195.703 288.486 194.796C282.363 193.811 276.213 193.003 270.066 192.226C245.175 189.08 220.191 187.159 195.113 186.461C182.738 186.116 170.366 186.125 157.99 186.323C146.938 186.501 135.297 186.496 125.044 181.305C117.07 177.268 109.833 169.924 107.612 160.273C105.047 149.132 109.777 137.787 116.563 129.718C120.14 125.465 124.32 121.886 128.633 118.595C133.311 115.024 138.153 111.706 143.099 108.609C152.841 102.512 163.026 97.3233 173.548 93.0965C178.739 91.0108 184.007 89.2114 189.32 87.5513C193.807 86.1496 198.308 84.7458 202.644 82.836C211.027 79.144 219 72.8901 221.131 62.6373C223.151 52.9202 219.745 42.3715 213.774 35.1529C206.866 26.8014 196.45 23.1404 186.463 22.548C175.252 21.883 164.3 24.9837 153.762 28.9188C142.523 33.1159 131.526 37.9418 120.05 41.3415C108.67 44.7093 97.0689 47.0923 85.3534 48.4686C79.6183 49.1435 73.7099 49.9055 67.9407 49.3888C63.1055 48.9559 58.2951 47.3845 54.7317 43.5924C51.6762 40.341 49.856 35.8724 50.4818 31.1566C50.5955 30.3001 51.7729 30.6643 51.6599 31.5156C50.8982 37.2559 54.4293 42.5455 58.7805 45.2551C63.8094 48.3867 69.9288 48.3909 75.5276 48.0328C87.6675 47.2225 99.7252 45.2963 111.576 42.2742C123.22 39.3351 134.449 35.1336 145.665 30.6454C156.317 26.3828 167.207 22.2225 178.587 21.2992C188.462 20.4981 198.849 22.0878 207.452 27.7903C215.012 32.802 220.571 41.1599 222.343 50.7507C224.074 60.1227 221.676 69.5558 215.256 76.0959C208.609 82.8675 199.495 85.7625 191.002 88.4288C180.229 91.8106 169.687 95.7637 159.483 100.896C149.14 106.084 139.221 112.247 129.835 119.316C120.775 126.158 111.834 134.766 108.968 146.972C107.633 152.657 107.88 158.687 110.113 164.057C112.099 168.832 115.369 172.849 119.179 175.947C128.27 183.339 139.727 184.856 150.707 185.007C163.039 185.177 175.372 184.717 187.708 184.941C212.849 185.397 237.939 187.088 262.977 190.014C269.251 190.748 275.517 191.559 281.775 192.447C287.404 193.247 293.052 194.041 298.586 195.46C308.426 197.984 318.001 202.837 324.118 212.057C326.832 216.053 328.514 220.789 328.983 225.759C329.411 230.945 328.262 236.141 326.14 240.755C321.444 250.967 312.646 257.462 303.304 261.729C298.3 264.015 293.11 265.746 287.93 267.465C287.175 267.716 286.852 266.413 287.605 266.163L287.605 266.163Z" fill="#2F2E41"/>
<path d="M51.2708 42.0792C56.6689 42.0792 61.0449 37.2434 61.0449 31.2781C61.0449 25.3129 56.6689 20.4771 51.2708 20.4771C45.8726 20.4771 41.4966 25.3129 41.4966 31.2781C41.4966 37.2434 45.8726 42.0792 51.2708 42.0792Z" fill="#FFB3FF"/>
<path d="M119.079 62.5562C124.477 62.5562 128.853 57.7204 128.853 51.7552C128.853 45.7899 124.477 40.9541 119.079 40.9541C113.681 40.9541 109.305 45.7899 109.305 51.7552C109.305 57.7204 113.681 62.5562 119.079 62.5562Z" fill="#FFB3FF"/>
<path d="M176.502 21.6021C181.9 21.6021 186.276 16.7663 186.276 10.8011C186.276 4.8358 181.9 0 176.502 0C171.104 0 166.728 4.8358 166.728 10.8011C166.728 16.7663 171.104 21.6021 176.502 21.6021Z" fill="#FFB3FF"/>
<path d="M212.341 67.5067C217.739 67.5067 222.115 62.6709 222.115 56.7056C222.115 50.7403 217.739 45.9045 212.341 45.9045C206.943 45.9045 202.567 50.7403 202.567 56.7056C202.567 62.6709 206.943 67.5067 212.341 67.5067Z" fill="#FFB3FF"/>
<path d="M163.877 120.612C169.275 120.612 173.651 115.776 173.651 109.811C173.651 103.846 169.275 99.0098 163.877 99.0098C158.479 99.0098 154.103 103.846 154.103 109.811C154.103 115.776 158.479 120.612 163.877 120.612Z" fill="#FFB3FF"/>
<path d="M102.381 146.264C107.78 146.264 112.156 141.429 112.156 135.463C112.156 129.498 107.78 124.662 102.381 124.662C96.9833 124.662 92.6073 129.498 92.6073 135.463C92.6073 141.429 96.9833 146.264 102.381 146.264Z" fill="#FFB3FF"/>
<path d="M167.543 186.318C172.941 186.318 177.317 181.483 177.317 175.517C177.317 169.552 172.941 164.716 167.543 164.716C162.144 164.716 157.768 169.552 157.768 175.517C157.768 181.483 162.144 186.318 167.543 186.318Z" fill="#FFB3FF"/>
<path d="M237.591 208.821C242.989 208.821 247.365 203.985 247.365 198.02C247.365 192.054 242.989 187.219 237.591 187.219C232.193 187.219 227.817 192.054 227.817 198.02C227.817 203.985 232.193 208.821 237.591 208.821Z" fill="#F2F2F2"/>
<path d="M319.45 203.87C324.848 203.87 329.224 199.034 329.224 193.069C329.224 187.104 324.848 182.268 319.45 182.268C314.051 182.268 309.675 187.104 309.675 193.069C309.675 199.034 314.051 203.87 319.45 203.87Z" fill="#FFB3FF"/>
<path d="M173.681 30.6046C144.403 30.8331 120.43 57.1257 120.014 89.4778C120.01 89.7765 120.008 91.8767 120.008 94.6237C120.009 98.6513 121.456 102.514 124.034 105.362C126.611 108.21 130.106 109.81 133.751 109.811C135.557 109.81 137.346 109.417 139.015 108.652C140.684 107.887 142.201 106.766 143.478 105.354C144.754 103.941 145.767 102.265 146.457 100.419C147.147 98.5743 147.502 96.597 147.5 94.6004C147.499 92.7318 147.498 91.4385 147.498 91.3591C147.497 86.3591 148.674 81.4449 150.913 77.1001C153.152 72.7552 156.376 69.1292 160.268 66.5788C164.159 64.0284 168.585 62.6415 173.109 62.5544C177.633 62.4673 182.099 63.6832 186.069 66.0822C190.039 68.4813 193.375 71.9811 195.749 76.2372C198.124 80.4933 199.455 85.3591 199.612 90.3561C199.768 95.3531 198.745 100.309 196.643 104.736C194.54 109.164 191.431 112.91 187.621 115.607L187.626 115.614C187.626 115.614 168.066 129.529 162.103 148.618L162.108 148.619C161.059 152.53 160.528 156.587 160.53 160.666C160.53 162.343 160.619 177.012 160.792 188.919C160.852 193.027 162.372 196.944 165.022 199.826C167.673 202.707 171.242 204.321 174.96 204.32C176.829 204.32 178.679 203.912 180.403 203.119C182.128 202.326 183.694 201.164 185.011 199.699C186.328 198.235 187.37 196.497 188.077 194.586C188.784 192.675 189.142 190.628 189.131 188.564C189.071 177.66 189.038 164.963 189.038 164.041C189.038 152.32 199.271 140.641 207.676 133.025C217.355 124.255 224.32 112.304 227.117 98.8224C227.736 96.0468 228.077 93.2044 228.135 90.3465C228.135 82.4645 226.724 74.6605 223.982 67.384C221.241 60.1075 217.223 53.5024 212.162 47.9492C207.1 42.396 201.094 38.0045 194.49 35.0277C187.885 32.0509 180.813 30.5476 173.681 30.6046Z" fill="#FBFFFA"/>
<path d="M343.515 267.894H0.484855C0.356491 267.894 0.233514 267.837 0.142879 267.737C0.0522427 267.636 0.00134277 267.5 0.00134277 267.358C0.00134277 267.217 0.0522427 267.08 0.142879 266.98C0.233514 266.88 0.356491 266.823 0.484855 266.823H343.515C343.644 266.823 343.767 266.879 343.858 266.979C343.949 267.08 344 267.216 344 267.358C344 267.501 343.949 267.637 343.858 267.737C343.767 267.838 343.644 267.894 343.515 267.894V267.894Z" fill="#3F3D56"/>
<path d="M255.94 122.86C262.688 122.86 268.158 116.816 268.158 109.359C268.158 101.902 262.688 95.8577 255.94 95.8577C249.193 95.8577 243.723 101.902 243.723 109.359C243.723 116.816 249.193 122.86 255.94 122.86Z" fill="#2F2E41"/>
<path d="M233.363 261.984H228.371L225.995 240.702H233.364L233.363 261.984Z" fill="#A0616A"/>
<path d="M224.804 260.407H234.433V267.107H218.741C218.741 266.227 218.898 265.356 219.203 264.543C219.508 263.73 219.954 262.992 220.517 262.37C221.08 261.748 221.748 261.254 222.484 260.917C223.22 260.581 224.008 260.407 224.804 260.407Z" fill="#2F2E41"/>
<path d="M272.053 261.984H267.06L264.684 240.702H272.054L272.053 261.984Z" fill="#A0616A"/>
<path d="M263.493 260.407H273.123V267.107H257.431C257.431 266.227 257.588 265.356 257.892 264.543C258.197 263.73 258.643 262.992 259.206 262.37C259.769 261.748 260.438 261.254 261.173 260.917C261.909 260.581 262.697 260.407 263.493 260.407V260.407Z" fill="#2F2E41"/>
<path d="M254.084 122.939C259.608 122.939 264.086 117.99 264.086 111.886C264.086 105.781 259.608 100.832 254.084 100.832C248.559 100.832 244.081 105.781 244.081 111.886C244.081 117.99 248.559 122.939 254.084 122.939Z" fill="#A0616A"/>
<path d="M260.045 158.598L264.521 147.235C265.608 144.569 265.92 141.596 265.413 138.726C264.906 135.857 263.605 133.231 261.691 131.213C261.298 130.784 260.88 130.382 260.44 130.011C258.232 128.102 255.51 127.062 252.707 127.055C250.821 127.063 248.96 127.52 247.249 128.396C247.103 128.468 246.96 128.544 246.814 128.621C246.533 128.769 246.256 128.931 245.987 129.098C244.234 130.21 242.742 131.763 241.631 133.629C240.52 135.496 239.822 137.625 239.593 139.845L237.618 158.135C237.121 159.57 219.397 211.416 225.596 250.997C225.662 251.42 225.848 251.808 226.128 252.105C226.408 252.402 226.766 252.593 227.151 252.649L233.435 253.594C233.894 253.663 234.36 253.538 234.738 253.243C235.117 252.948 235.38 252.506 235.476 252.005L246.02 196.465C246.085 196.12 246.254 195.809 246.498 195.582C246.742 195.356 247.049 195.226 247.367 195.214C247.686 195.202 248 195.309 248.257 195.517C248.515 195.725 248.702 196.022 248.789 196.362L263.686 254.768C263.792 255.193 264.022 255.567 264.339 255.834C264.656 256.1 265.043 256.245 265.442 256.245C265.56 256.244 265.679 256.232 265.796 256.208L273.473 254.575C273.919 254.483 274.318 254.21 274.591 253.809C274.865 253.409 274.993 252.91 274.951 252.41C273.823 238.508 267.828 168.873 260.045 158.598Z" fill="#2F2E41"/>
<path d="M215.211 121.084C215.141 121.742 215.203 122.407 215.392 123.035C215.58 123.663 215.891 124.238 216.303 124.719C216.714 125.199 217.216 125.574 217.773 125.818C218.329 126.061 218.928 126.166 219.525 126.126L225.116 140.974L229.346 134.046L223.388 121.009C223.261 119.904 222.771 118.888 222.012 118.156C221.253 117.423 220.277 117.023 219.269 117.033C218.261 117.042 217.291 117.46 216.543 118.206C215.795 118.953 215.321 119.977 215.211 121.084L215.211 121.084Z" fill="#A0616A"/>
<path d="M253.529 173.549C254.123 173.471 254.695 173.249 255.204 172.9C255.712 172.551 256.145 172.083 256.473 171.529C256.8 170.975 257.013 170.348 257.097 169.693C257.182 169.038 257.135 168.37 256.961 167.738L268.724 158.269L261.642 155.339L251.557 164.779C250.614 165.173 249.835 165.936 249.367 166.922C248.899 167.909 248.775 169.051 249.018 170.132C249.261 171.213 249.854 172.158 250.686 172.788C251.517 173.418 252.529 173.688 253.529 173.549V173.549Z" fill="#A0616A"/>
<path d="M234.352 150.873C233.901 150.873 233.451 150.824 233.009 150.727C231.939 150.502 230.935 149.99 230.087 149.235C229.238 148.48 228.571 147.506 228.143 146.399L220.31 135.844C220.144 135.621 220.023 135.362 219.956 135.083C219.889 134.804 219.876 134.512 219.919 134.228C219.962 133.943 220.059 133.672 220.204 133.432C220.35 133.192 220.54 132.99 220.762 132.838L226.335 129.026C226.541 128.885 226.77 128.79 227.009 128.748C227.248 128.706 227.492 128.716 227.727 128.778C227.962 128.84 228.184 128.954 228.38 129.111C228.575 129.269 228.741 129.468 228.866 129.696L234.387 139.748L244.96 131.113C245.802 130.625 246.775 130.488 247.7 130.727C248.626 130.967 249.443 131.566 250.001 132.415C250.56 133.265 250.824 134.309 250.744 135.355C250.664 136.402 250.246 137.382 249.566 138.116L239.013 148.754C237.773 150.112 236.098 150.874 234.352 150.873Z" fill="#2F2E41"/>
<path d="M262.921 166.748C262.907 166.748 262.892 166.748 262.878 166.747C262.621 166.74 262.368 166.674 262.136 166.552C261.904 166.43 261.697 166.256 261.53 166.04L256.575 159.653C256.406 159.435 256.281 159.181 256.208 158.906C256.135 158.631 256.115 158.342 256.151 158.058C256.186 157.774 256.276 157.502 256.413 157.259C256.551 157.016 256.734 156.809 256.95 156.65L266.228 149.815L257.822 138.648C257.333 137.747 257.154 136.682 257.317 135.647C257.48 134.612 257.975 133.677 258.71 133.012C259.446 132.347 260.373 131.996 261.324 132.024C262.274 132.052 263.183 132.457 263.885 133.165L274.101 144.197C274.905 145.009 275.519 146.024 275.889 147.155C276.26 148.287 276.377 149.501 276.23 150.693C276.083 151.885 275.676 153.02 275.044 154.001C274.413 154.981 273.575 155.777 272.604 156.321L264.255 166.112C264.083 166.312 263.877 166.472 263.647 166.582C263.418 166.691 263.171 166.747 262.921 166.748Z" fill="#2F2E41"/>
<path d="M251.54 143.211C251.461 143.211 251.381 143.205 251.302 143.194C250.957 143.148 250.632 142.993 250.364 142.748C250.096 142.503 249.897 142.179 249.791 141.813L246.068 129.198C245.975 128.879 245.989 128.534 246.108 128.226C246.228 127.918 246.444 127.668 246.717 127.522L246.838 127.459C246.948 127.401 247.056 127.345 247.167 127.29C248.903 126.4 250.793 125.936 252.707 125.93C255.191 125.935 257.62 126.741 259.696 128.25C259.974 128.455 260.168 128.772 260.237 129.134C260.306 129.495 260.243 129.872 260.063 130.183L253.078 142.275C252.915 142.562 252.688 142.798 252.419 142.962C252.15 143.126 251.847 143.211 251.54 143.211V143.211Z" fill="#FFB3FF"/>
<path d="M265.573 103.331C267.781 103.331 269.571 101.354 269.571 98.9135C269.571 96.4736 267.781 94.4956 265.573 94.4956C263.365 94.4956 261.575 96.4736 261.575 98.9135C261.575 101.354 263.365 103.331 265.573 103.331Z" fill="#2F2E41"/>
<path d="M251.868 94.0575C249.059 94.0575 246.366 95.2903 244.38 97.4847C242.395 99.6791 241.279 102.655 241.279 105.759V110.709H246.789L249.424 105.759L250.215 110.709H266.936L262.456 105.759C262.456 102.655 261.341 99.6791 259.355 97.4847C257.369 95.2903 254.676 94.0575 251.868 94.0575V94.0575Z" fill="#2F2E41"/>
<path d="M267.628 95.8874C268.07 94.3597 268.985 93.0532 270.213 92.1975C271.44 91.3418 272.901 90.9918 274.339 91.2089C276.887 91.6796 278.902 93.9427 280.102 96.4704C281.302 98.9981 281.856 101.827 282.663 104.539C283.47 107.25 284.615 109.977 286.652 111.732C288.689 113.488 291.815 113.964 293.815 112.158C293.587 114.04 292.828 115.795 291.648 117.174C290.467 118.554 288.924 119.489 287.237 119.846C285.549 120.203 283.803 119.965 282.244 119.166C280.686 118.366 279.394 117.045 278.552 115.39C277.497 113.314 277.224 110.882 276.911 108.526C276.598 106.171 276.191 103.733 274.931 101.802C273.671 99.8715 271.311 98.6103 269.309 99.4898L267.628 95.8874Z" fill="#2F2E41"/>
<path d="M137.631 102.627C133.986 102.627 130.491 101.027 127.914 98.1787C125.337 95.3306 123.889 91.468 123.889 87.4403C123.888 84.6933 123.89 82.5931 123.894 82.2944C124.01 72.8855 126.154 63.6427 130.149 55.3328C123.585 65.2621 119.976 77.2 119.821 89.4951C119.818 89.7938 119.816 91.894 119.816 94.641C119.816 98.6687 121.264 102.531 123.841 105.379C126.418 108.227 129.914 109.828 133.559 109.828V109.828C136.554 109.827 139.466 108.745 141.854 106.748C144.242 104.751 145.975 101.946 146.789 98.7613C144.273 101.255 141.011 102.632 137.631 102.627V102.627Z" fill="#3F3D56"/>
<path d="M174.613 62.6054C178.826 62.8278 182.928 64.1769 186.566 66.537C190.203 68.897 193.269 72.1974 195.498 76.1549C197.727 80.1123 199.054 84.6085 199.364 89.2574C199.675 93.9064 198.96 98.5691 197.28 102.845C199.709 99.6925 201.495 95.998 202.515 92.0136C203.535 88.0292 203.766 83.8486 203.191 79.7568C202.616 75.665 201.25 71.7582 199.185 68.3027C197.121 64.8473 194.406 61.9245 191.226 59.7336C188.047 57.5426 184.477 56.1351 180.761 55.6069C177.044 55.0787 173.268 55.4423 169.69 56.6728C166.113 57.9034 162.817 59.972 160.028 62.7376C157.239 65.5033 155.023 68.9009 153.53 72.6989C156.11 69.3449 159.353 66.6905 163.008 64.9405C166.664 63.1905 170.634 62.3916 174.613 62.6054V62.6054Z" fill="#3F3D56"/>
<path d="M178.841 197.137C175.123 197.138 171.553 195.523 168.903 192.642C166.252 189.761 164.732 185.843 164.672 181.735C164.5 169.829 164.41 155.159 164.41 153.482C164.408 149.404 164.939 145.346 165.988 141.436L165.983 141.434C166.602 139.471 167.35 137.561 168.221 135.718C165.548 139.654 163.422 144.007 161.91 148.635L161.915 148.636C160.867 152.547 160.335 156.605 160.338 160.683C160.338 162.36 160.427 177.029 160.6 188.936C160.66 193.044 162.179 196.961 164.83 199.843C167.481 202.724 171.05 204.338 174.768 204.337V204.337C177.834 204.337 180.817 203.238 183.269 201.205C185.722 199.173 187.512 196.317 188.371 193.065C185.766 195.69 182.366 197.142 178.841 197.137V197.137Z" fill="#3F3D56"/>
<path d="M51.5347 262.189L56.5273 262.189L58.9028 240.907L51.5335 240.908L51.5347 262.189Z" fill="#FFB8B8"/>
<path d="M66.1567 267.312L50.4648 267.313L50.4646 260.613L60.0937 260.612C61.7016 260.612 63.2438 261.318 64.3808 262.574C65.5178 263.831 66.1567 265.535 66.1567 267.312V267.312L66.1567 267.312Z" fill="#2F2E41"/>
<path d="M33.6154 262.189L38.608 262.189L40.9835 240.907L33.6142 240.908L33.6154 262.189Z" fill="#FFB8B8"/>
<path d="M48.2374 267.312L32.5455 267.313L32.5453 260.613L42.1744 260.612C43.7823 260.612 45.3244 261.318 46.4615 262.574C47.5985 263.831 48.2374 265.535 48.2374 267.312V267.312L48.2374 267.312Z" fill="#2F2E41"/>
<path d="M37.9785 255.644L33.1015 255.36C32.8501 255.346 32.6037 255.276 32.3768 255.156C32.1498 255.035 31.9468 254.866 31.7794 254.658C31.612 254.45 31.4837 254.208 31.4017 253.944C31.3198 253.681 31.2859 253.403 31.3021 253.125L37.131 181.808L63.9737 189.813L66.5599 189.033L58.4725 252.167C58.4036 252.642 58.1902 253.077 57.8675 253.4C57.5448 253.723 57.1321 253.914 56.6976 253.943L51.4403 254.213C51.1775 254.229 50.9144 254.185 50.6678 254.083C50.4212 253.981 50.1965 253.824 50.0077 253.621C49.819 253.418 49.6704 253.174 49.5712 252.905C49.4721 252.635 49.4247 252.346 49.432 252.055L50.3845 214.163C50.389 213.988 50.3339 213.817 50.2301 213.684C50.1263 213.552 49.9814 213.467 49.8238 213.447C49.6663 213.426 49.5075 213.472 49.3789 213.575C49.2503 213.677 49.1611 213.829 49.1289 214.001L39.9424 253.97C39.8557 254.445 39.6228 254.871 39.2835 255.177C38.9442 255.483 38.5194 255.649 38.0816 255.647C38.0474 255.647 38.0131 255.646 37.9785 255.644Z" fill="#2F2E41"/>
<path d="M52.4311 123.456C57.9554 123.456 62.4338 118.507 62.4338 112.403C62.4338 106.298 57.9554 101.349 52.4311 101.349C46.9068 101.349 42.4285 106.298 42.4285 112.403C42.4285 118.507 46.9068 123.456 52.4311 123.456Z" fill="#FFB8B8"/>
<path d="M35.7774 144.877L36.8772 171.1L37.2748 180.641C37.2906 181.056 37.4182 181.457 37.6412 181.791C37.8643 182.126 38.1726 182.38 38.5268 182.52L64.3208 192.845C64.5292 192.931 64.75 192.974 64.9723 192.971C65.2263 192.973 65.478 192.918 65.7124 192.809C65.9467 192.701 66.1588 192.541 66.3361 192.34C66.5134 192.139 66.6522 191.9 66.7442 191.638C66.8362 191.377 66.8795 191.097 66.8716 190.817L65.8141 143.667C65.7446 139.798 64.456 136.078 62.1704 133.147C59.8848 130.216 56.7455 128.258 53.2935 127.61C53.044 127.568 52.7902 127.526 52.5363 127.489C50.3959 127.195 48.2231 127.424 46.1711 128.158C44.119 128.892 42.2374 130.114 40.6587 131.738C39.024 133.399 37.7395 135.437 36.896 137.708C36.0525 139.978 35.6706 142.426 35.7773 144.877L35.7774 144.877Z" fill="#C0E7BE"/>
<path d="M76.6426 187.613C76.0325 187.404 75.4751 187.04 75.0149 186.55C74.5547 186.061 74.2044 185.459 73.992 184.793C73.7796 184.128 73.711 183.416 73.7915 182.716C73.8721 182.016 74.0997 181.346 74.4561 180.76L65.709 167.907L73.2572 167.391L80.4064 179.675C81.1717 180.329 81.7043 181.26 81.9107 182.305C82.1171 183.349 81.9841 184.44 81.5351 185.387C81.0861 186.334 80.3497 187.076 79.455 187.483C78.5604 187.89 77.5647 187.936 76.6426 187.613H76.6426Z" fill="#FFB8B8"/>
<path d="M70.4926 178.434C70.2608 178.33 70.05 178.176 69.8724 177.982C69.6948 177.787 69.5538 177.556 69.4577 177.301L56.2796 142.605C56.021 141.925 55.8861 141.197 55.8826 140.46C55.8791 139.723 56.007 138.992 56.2591 138.31C56.5112 137.628 56.8824 137.007 57.3517 136.483C57.821 135.96 58.379 135.543 58.9939 135.258C59.6089 134.973 60.2686 134.824 60.9355 134.821C61.6024 134.818 62.2633 134.96 62.8806 135.239C63.4978 135.518 64.0592 135.929 64.5327 136.448C65.0062 136.967 65.3825 137.584 65.6401 138.263L78.8182 172.96C79.013 173.474 79.0152 174.053 78.8243 174.569C78.6334 175.085 78.265 175.497 77.7999 175.713L71.9495 178.426C71.7192 178.534 71.4718 178.59 71.2217 178.592C70.9716 178.593 70.7238 178.539 70.4926 178.434Z" fill="#C0E7BE"/>
<path d="M49.2151 177.21L61.8724 150.429C62.1165 149.914 62.5355 149.527 63.0375 149.352C63.5395 149.178 64.0834 149.231 64.5501 149.5L82.9221 160.103C83.3882 160.373 83.7384 160.836 83.8959 161.391C84.0535 161.945 84.0054 162.546 83.7624 163.062L71.1052 189.844C70.8611 190.359 70.4421 190.746 69.9401 190.92C69.4381 191.094 68.8941 191.041 68.4275 190.772L50.0555 180.169C49.5894 179.9 49.2392 179.437 49.0816 178.882C48.9241 178.327 48.9721 177.726 49.2151 177.21Z" fill="#3F3D56"/>
<path d="M57.7036 164.974C57.4786 164.314 57.1169 163.72 56.6475 163.242C56.1781 162.763 55.614 162.412 55.0001 162.217C54.3861 162.022 53.7395 161.988 53.1117 162.119C52.4839 162.249 51.8923 162.539 51.3842 162.967L39.2567 154.077L39.2361 162.434L50.7557 169.595C51.3916 170.401 52.2639 170.933 53.2196 171.099C54.1753 171.265 55.1534 171.054 55.9823 170.503C56.8112 169.952 57.438 169.096 57.7527 168.085C58.0675 167.074 58.0501 165.973 57.7036 164.974V164.974Z" fill="#FFB8B8"/>
<path d="M42.3703 166.854L32.459 158.178C31.3868 157.78 30.4179 157.101 29.6357 156.198C28.8534 155.295 28.281 154.196 27.9677 152.995C27.6543 151.794 27.6094 150.527 27.8367 149.303C28.0641 148.079 28.5569 146.934 29.2728 145.966L38.2721 132.933C38.8974 132.088 39.7769 131.521 40.7498 131.334C41.7227 131.147 42.7239 131.353 43.5705 131.915C44.4171 132.477 45.0525 133.356 45.3606 134.393C45.6686 135.43 45.6287 136.554 45.2482 137.561L38.1278 150.433L48.5919 155.917C48.8352 156.045 49.0513 156.228 49.2258 156.454C49.4003 156.681 49.5294 156.946 49.6043 157.232C49.6793 157.518 49.6986 157.818 49.6608 158.113C49.623 158.407 49.5291 158.69 49.3853 158.941L45.1613 166.328C45.0185 166.578 44.8299 166.791 44.6077 166.955C44.3856 167.118 44.1348 167.229 43.8716 167.278C43.8612 167.28 43.8507 167.282 43.8401 167.284C43.5815 167.327 43.3177 167.311 43.0649 167.237C42.8121 167.163 42.5757 167.033 42.3703 166.854V166.854Z" fill="#C0E7BE"/>
<path d="M44.8728 119.804C44.8299 119.665 44.8163 119.518 44.8331 119.372C44.8498 119.227 44.8964 119.088 44.9694 118.965C45.0424 118.843 45.1397 118.74 45.2541 118.666C45.3684 118.591 45.4966 118.547 45.6289 118.536C45.8998 118.552 46.1649 118.629 46.4082 118.761C46.6515 118.894 46.868 119.08 47.0445 119.307C47.4065 119.769 47.828 120.168 48.2953 120.494C48.7792 120.764 49.4354 120.725 49.7112 120.211C49.9703 119.729 49.7928 119.083 49.636 118.522C49.2369 117.096 49.0137 115.617 48.9722 114.125C48.927 112.46 49.1396 110.722 49.9739 109.423C51.0507 107.747 52.976 107.11 54.7981 107.157C56.6201 107.203 58.4127 107.824 60.2175 108.217C60.8406 108.353 61.5729 108.422 61.9897 107.889C62.4328 107.321 62.2701 106.403 62.0816 105.637C61.5925 103.649 61.0736 101.593 59.9373 99.9875C58.7086 98.3192 56.9535 97.2273 55.0254 96.9317C53.1743 96.6783 51.2953 96.914 49.5428 97.6195C46.6874 98.614 44.1749 100.548 42.3413 103.163C40.4511 105.945 39.6343 109.44 40.0696 112.884C40.4948 115.885 41.9335 118.595 44.0956 120.47L44.8728 119.804Z" fill="#2F2E41"/>
<path d="M171.56 262.277C168.899 260.996 166.544 259.049 164.68 256.59C162.816 254.131 161.495 251.227 160.821 248.107C160.147 244.987 160.138 241.737 160.795 238.612C161.452 235.488 162.758 232.575 164.608 230.104C162.463 231.835 160.675 234.05 159.364 236.603C158.052 239.156 157.247 241.988 157.002 244.911C156.757 247.834 157.077 250.782 157.941 253.557C158.805 256.333 160.194 258.874 162.015 261.012C163.836 263.149 166.047 264.834 168.503 265.955C170.958 267.076 173.601 267.607 176.256 267.513C178.911 267.418 181.518 266.701 183.903 265.409C186.288 264.116 188.397 262.278 190.09 260.016C187.449 262.148 184.349 263.479 181.098 263.876C177.847 264.273 174.559 263.722 171.56 262.277V262.277Z" fill="#3F3D56"/>
</g>
<defs>
<clipPath id="clip0_542_136">
<rect width="344" height="267.894" fill="white"/>
</clipPath>
</defs>
</svg>
