<svg class="work__image" width="339" height="247" viewBox="0 0 339 247" fill="none" xmlns="http://www.w3.org/2000/svg">
<g clip-path="url(#clip0_261_757)">
<path d="M173.134 246.477C183.33 246.477 191.596 237.931 191.596 227.389C191.596 216.847 183.33 208.302 173.134 208.302C162.938 208.302 154.673 216.847 154.673 227.389C154.673 237.931 162.938 246.477 173.134 246.477Z" fill="#C0E7BE"/>
<path d="M283.424 245.404C293.753 242.197 304.733 238.853 312.924 231.229C320.243 224.417 325.185 214.014 322.153 203.797C319.127 193.601 310.063 186.802 300.705 183.421C295.397 181.503 289.844 180.439 284.293 179.603C278.259 178.695 272.199 177.95 266.141 177.234C241.612 174.333 216.99 172.561 192.277 171.918C180.082 171.6 167.89 171.608 155.694 171.791C144.802 171.955 133.331 171.951 123.226 167.164C115.369 163.442 108.237 156.671 106.048 147.773C103.52 137.501 108.182 127.04 114.869 119.601C118.394 115.68 122.513 112.38 126.763 109.345C131.374 106.053 136.145 102.994 141.019 100.138C150.619 94.5166 160.656 89.7326 171.026 85.8355C176.141 83.9125 181.332 82.2534 186.569 80.7228C190.99 79.4304 195.425 78.1361 199.699 76.3752C207.96 72.9712 215.817 67.205 217.917 57.752C219.908 48.7927 216.551 39.0668 210.667 32.4111C203.859 24.711 193.594 21.3355 183.753 20.7894C172.705 20.1762 161.912 23.0351 151.527 26.6633C140.452 30.533 129.615 34.9826 118.305 38.117C107.09 41.2222 95.6581 43.4193 84.1129 44.6883C78.4612 45.3105 72.6386 46.0131 66.9532 45.5368C62.1884 45.1376 57.4479 43.6887 53.9362 40.1925C50.9252 37.1946 49.1315 33.0745 49.7481 28.7266C49.8602 27.9369 51.0205 28.2726 50.9092 29.0575C50.1585 34.3502 53.6382 39.2272 57.9262 41.7254C62.882 44.6127 68.9125 44.6167 74.4299 44.2865C86.3934 43.5394 98.2758 41.7635 109.954 38.977C121.429 36.2672 132.495 32.3934 143.548 28.2552C154.045 24.3251 164.777 20.4892 175.992 19.638C185.723 18.8994 195.959 20.3651 204.436 25.6228C211.887 30.2436 217.365 37.9496 219.111 46.7924C220.817 55.4335 218.454 64.1309 212.128 70.1609C205.577 76.4043 196.596 79.0735 188.225 81.5319C177.609 84.6499 167.221 88.2946 157.165 93.0271C146.972 97.8104 137.197 103.492 127.948 110.01C119.019 116.318 110.208 124.255 107.384 135.509C106.069 140.751 106.312 146.311 108.513 151.262C110.47 155.664 113.693 159.368 117.447 162.224C126.405 169.039 137.696 170.439 148.516 170.578C160.67 170.734 172.823 170.31 184.98 170.516C209.756 170.937 234.48 172.496 259.155 175.194C265.337 175.871 271.512 176.618 277.679 177.438C283.227 178.174 288.792 178.907 294.246 180.215C303.943 182.543 313.379 187.017 319.407 195.518C322.082 199.202 323.739 203.569 324.201 208.151C324.623 212.933 323.491 217.724 321.4 221.977C316.772 231.393 308.102 237.381 298.896 241.316C293.965 243.423 288.85 245.019 283.745 246.605C283.001 246.836 282.683 245.634 283.424 245.404L283.424 245.404Z" fill="#2F2E41"/>
<path d="M50.5254 38.7972C55.8451 38.7972 60.1575 34.3385 60.1575 28.8385C60.1575 23.3385 55.8451 18.8799 50.5254 18.8799C45.2057 18.8799 40.8933 23.3385 40.8933 28.8385C40.8933 34.3385 45.2057 38.7972 50.5254 38.7972Z" fill="#FFB3FF"/>
<path d="M117.348 57.6772C122.668 57.6772 126.98 53.2185 126.98 47.7185C126.98 42.2185 122.668 37.7599 117.348 37.7599C112.029 37.7599 107.716 42.2185 107.716 47.7185C107.716 53.2185 112.029 57.6772 117.348 57.6772Z" fill="#FFB3FF"/>
<path d="M173.937 19.9173C179.256 19.9173 183.569 15.4587 183.569 9.95865C183.569 4.45864 179.256 0 173.937 0C168.617 0 164.305 4.45864 164.305 9.95865C164.305 15.4587 168.617 19.9173 173.937 19.9173Z" fill="#FFB3FF"/>
<path d="M209.255 62.2415C214.574 62.2415 218.887 57.7829 218.887 52.2829C218.887 46.7829 214.574 42.3242 209.255 42.3242C203.935 42.3242 199.623 46.7829 199.623 52.2829C199.623 57.7829 203.935 62.2415 209.255 62.2415Z" fill="#F2F2F2"/>
<path d="M161.495 111.205C166.815 111.205 171.127 106.746 171.127 101.246C171.127 95.7462 166.815 91.2876 161.495 91.2876C156.176 91.2876 151.863 95.7462 151.863 101.246C151.863 106.746 156.176 111.205 161.495 111.205Z" fill="#FFB3FF"/>
<path d="M100.893 134.857C106.213 134.857 110.525 130.398 110.525 124.898C110.525 119.398 106.213 114.939 100.893 114.939C95.5737 114.939 91.2612 119.398 91.2612 124.898C91.2612 130.398 95.5737 134.857 100.893 134.857Z" fill="#FFB3FF"/>
<path d="M165.107 171.787C170.427 171.787 174.74 167.328 174.74 161.828C174.74 156.328 170.427 151.869 165.107 151.869C159.788 151.869 155.475 156.328 155.475 161.828C155.475 167.328 159.788 171.787 165.107 171.787Z" fill="#F2F2F2"/>
<path d="M234.137 192.534C239.457 192.534 243.77 188.075 243.77 182.575C243.77 177.075 239.457 172.617 234.137 172.617C228.818 172.617 224.505 177.075 224.505 182.575C224.505 188.075 228.818 192.534 234.137 192.534Z" fill="#F2F2F2"/>
<path d="M314.806 187.969C320.126 187.969 324.439 183.511 324.439 178.011C324.439 172.511 320.126 168.052 314.806 168.052C309.487 168.052 305.174 172.511 305.174 178.011C305.174 183.511 309.487 187.969 314.806 187.969Z" fill="#FFB3FF"/>
<path d="M171.156 28.2176C142.304 28.4283 118.679 52.6702 118.269 82.499C118.265 82.7744 118.264 84.7109 118.264 87.2436C118.264 90.9571 119.691 94.5185 122.231 97.1445C124.77 99.7704 128.215 101.246 131.807 101.246H131.807C133.587 101.246 135.35 100.883 136.995 100.178C138.639 99.4725 140.134 98.4393 141.392 97.1369C142.65 95.8345 143.648 94.2885 144.328 92.5873C145.009 90.8861 145.358 89.063 145.356 87.2221C145.355 85.4992 145.354 84.3068 145.354 84.2336C145.353 79.6236 146.513 75.0927 148.719 71.0867C150.926 67.0807 154.103 63.7375 157.938 61.3861C161.773 59.0346 166.134 57.7558 170.593 57.6755C175.051 57.5953 179.452 58.7163 183.364 60.9282C187.276 63.1402 190.564 66.367 192.904 70.2911C195.244 74.2153 196.556 78.7016 196.71 83.3089C196.865 87.9161 195.856 92.4855 193.784 96.5677C191.713 100.65 188.649 104.104 184.894 106.59L184.899 106.596C184.899 106.596 165.623 119.426 159.746 137.026L159.751 137.028C158.718 140.633 158.194 144.374 158.197 148.135C158.197 149.681 158.285 163.206 158.455 174.184C158.514 177.972 160.011 181.584 162.624 184.24C165.236 186.897 168.753 188.385 172.417 188.384H172.417C174.258 188.384 176.081 188.008 177.781 187.277C179.481 186.545 181.024 185.474 182.322 184.124C183.62 182.774 184.647 181.171 185.343 179.409C186.04 177.648 186.393 175.76 186.381 173.857C186.322 163.803 186.29 152.097 186.29 151.247C186.29 140.44 196.374 129.672 204.657 122.65C214.195 114.564 221.059 103.545 223.816 91.1148C224.426 88.5557 224.762 85.935 224.819 83.3C224.819 76.0328 223.428 68.8374 220.726 62.1284C218.025 55.4195 214.066 49.3295 209.078 44.2094C204.09 39.0893 198.171 35.0403 191.663 32.2957C185.154 29.5511 178.185 28.1651 171.156 28.2176Z" fill="#C0E7BE"/>
<path d="M338.522 247H0.477705C0.351207 247 0.230018 246.947 0.140699 246.855C0.0513808 246.762 0.0012207 246.637 0.0012207 246.506C0.0012207 246.375 0.0513808 246.25 0.140699 246.157C0.230018 246.064 0.351207 246.012 0.477705 246.012H338.522C338.649 246.012 338.77 246.064 338.86 246.157C338.95 246.249 339 246.375 339 246.506C339 246.637 338.95 246.763 338.86 246.855C338.77 246.948 338.649 247 338.522 247Z" fill="#3F3D56"/>
<path d="M252.22 113.278C258.87 113.278 264.26 107.705 264.26 100.83C264.26 93.9546 258.87 88.3813 252.22 88.3813C245.571 88.3813 240.18 93.9546 240.18 100.83C240.18 107.705 245.571 113.278 252.22 113.278Z" fill="#2F2E41"/>
<path d="M229.971 241.551H225.051L222.71 221.929H229.972L229.971 241.551Z" fill="#A0616A"/>
<path d="M221.537 240.097H231.026V246.274H215.562C215.562 245.463 215.717 244.66 216.017 243.91C216.317 243.161 216.757 242.48 217.312 241.906C217.867 241.333 218.525 240.878 219.25 240.567C219.975 240.257 220.752 240.097 221.537 240.097Z" fill="#2F2E41"/>
<path d="M268.098 241.551H263.178L260.837 221.929H268.1L268.098 241.551Z" fill="#A0616A"/>
<path d="M259.664 240.097H269.153V246.274H253.689C253.689 245.463 253.843 244.66 254.144 243.91C254.444 243.161 254.884 242.48 255.439 241.906C255.994 241.333 256.652 240.878 257.377 240.567C258.102 240.257 258.879 240.097 259.664 240.097Z" fill="#2F2E41"/>
<path d="M250.39 113.351C255.834 113.351 260.248 108.788 260.248 103.159C260.248 97.5306 255.834 92.9678 250.39 92.9678C244.946 92.9678 240.533 97.5306 240.533 103.159C240.533 108.788 244.946 113.351 250.39 113.351Z" fill="#A0616A"/>
<path d="M256.266 146.229L260.676 135.751C261.748 133.293 262.055 130.552 261.555 127.906C261.055 125.26 259.774 122.84 257.887 120.979C257.5 120.583 257.088 120.213 256.655 119.871C254.479 118.111 251.797 117.152 249.034 117.145C247.176 117.153 245.342 117.574 243.656 118.382C243.511 118.448 243.371 118.519 243.226 118.589C242.949 118.726 242.677 118.875 242.412 119.029C240.684 120.055 239.213 121.486 238.119 123.207C237.024 124.928 236.336 126.891 236.111 128.938L234.164 145.801C233.674 147.125 216.208 194.926 222.317 231.421C222.382 231.81 222.566 232.168 222.841 232.442C223.117 232.716 223.471 232.892 223.85 232.943L230.042 233.815C230.495 233.879 230.953 233.763 231.326 233.491C231.7 233.22 231.959 232.812 232.053 232.35L242.444 181.142C242.508 180.824 242.675 180.537 242.915 180.328C243.156 180.119 243.458 179.999 243.772 179.988C244.086 179.977 244.395 180.076 244.649 180.267C244.903 180.459 245.087 180.734 245.173 181.046L259.854 234.898C259.958 235.289 260.184 235.634 260.497 235.88C260.809 236.126 261.191 236.259 261.584 236.259C261.701 236.258 261.817 236.247 261.933 236.226L269.498 234.719C269.938 234.634 270.331 234.383 270.6 234.013C270.87 233.644 270.996 233.184 270.955 232.724C269.843 219.906 263.935 155.702 256.266 146.229Z" fill="#2F2E41"/>
<path d="M212.083 111.641C212.014 112.246 212.075 112.86 212.261 113.439C212.447 114.018 212.753 114.548 213.159 114.991C213.564 115.434 214.059 115.78 214.607 116.005C215.156 116.229 215.746 116.326 216.335 116.289L221.844 129.979L226.012 123.592L220.141 111.571C220.016 110.552 219.533 109.616 218.785 108.94C218.037 108.265 217.075 107.896 216.082 107.905C215.089 107.914 214.133 108.299 213.396 108.987C212.659 109.676 212.191 110.62 212.083 111.641L212.083 111.641Z" fill="#A0616A"/>
<path d="M249.844 160.013C250.43 159.941 250.993 159.736 251.494 159.415C251.995 159.093 252.422 158.661 252.745 158.15C253.067 157.639 253.277 157.062 253.36 156.458C253.443 155.854 253.398 155.238 253.226 154.655L264.818 145.925L257.839 143.223L247.9 151.927C246.971 152.291 246.203 152.994 245.742 153.903C245.281 154.813 245.159 155.866 245.398 156.863C245.638 157.859 246.223 158.731 247.042 159.311C247.861 159.892 248.858 160.142 249.844 160.013Z" fill="#A0616A"/>
<path d="M230.946 139.106C230.501 139.106 230.058 139.06 229.622 138.971C228.567 138.764 227.578 138.291 226.742 137.595C225.906 136.899 225.248 136.002 224.827 134.981L217.107 125.249C216.944 125.044 216.825 124.804 216.759 124.547C216.693 124.29 216.68 124.021 216.722 123.759C216.764 123.496 216.86 123.246 217.004 123.025C217.147 122.804 217.334 122.617 217.553 122.477L223.045 118.962C223.248 118.833 223.474 118.746 223.709 118.706C223.945 118.667 224.185 118.677 224.417 118.734C224.649 118.792 224.868 118.896 225.06 119.041C225.253 119.187 225.416 119.37 225.54 119.581L230.98 128.848L241.4 120.887C242.229 120.437 243.188 120.311 244.1 120.531C245.012 120.752 245.817 121.304 246.368 122.088C246.918 122.871 247.178 123.833 247.099 124.798C247.021 125.763 246.609 126.667 245.939 127.344L235.539 137.152C234.317 138.404 232.666 139.107 230.946 139.106Z" fill="#2F2E41"/>
<path d="M259.099 153.742C259.085 153.742 259.071 153.742 259.057 153.742C258.804 153.735 258.555 153.674 258.326 153.562C258.097 153.45 257.893 153.289 257.728 153.09L252.846 147.201C252.679 147 252.556 146.765 252.484 146.512C252.412 146.259 252.393 145.992 252.428 145.73C252.462 145.469 252.551 145.218 252.686 144.994C252.822 144.77 253.002 144.578 253.215 144.432L262.358 138.13L254.075 127.834C253.593 127.004 253.416 126.022 253.577 125.068C253.738 124.113 254.225 123.251 254.95 122.638C255.675 122.024 256.589 121.701 257.525 121.727C258.462 121.753 259.358 122.126 260.05 122.779L270.117 132.95C270.909 133.699 271.514 134.635 271.879 135.678C272.245 136.721 272.36 137.84 272.215 138.94C272.07 140.039 271.669 141.086 271.047 141.99C270.424 142.893 269.599 143.628 268.642 144.129L260.414 153.156C260.245 153.341 260.041 153.488 259.815 153.589C259.589 153.69 259.346 153.742 259.099 153.742Z" fill="#2F2E41"/>
<path d="M247.884 132.041C247.806 132.041 247.727 132.036 247.65 132.026C247.31 131.983 246.989 131.84 246.725 131.614C246.461 131.389 246.265 131.089 246.161 130.752L242.491 119.122C242.399 118.828 242.414 118.509 242.531 118.225C242.649 117.941 242.862 117.71 243.131 117.576L243.25 117.518C243.358 117.465 243.465 117.412 243.574 117.362C245.285 116.542 247.148 116.114 249.034 116.108C251.482 116.112 253.876 116.856 255.921 118.248C256.195 118.436 256.387 118.729 256.455 119.062C256.522 119.395 256.461 119.743 256.283 120.029L249.4 131.178C249.238 131.443 249.015 131.661 248.75 131.812C248.485 131.963 248.187 132.042 247.884 132.041Z" fill="#FFB3FF"/>
<path d="M261.713 95.2722C263.889 95.2722 265.653 93.4485 265.653 91.1989C265.653 88.9492 263.889 87.1255 261.713 87.1255C259.537 87.1255 257.773 88.9492 257.773 91.1989C257.773 93.4485 259.537 95.2722 261.713 95.2722Z" fill="#2F2E41"/>
<path d="M248.207 86.7216C245.439 86.7216 242.785 87.8582 240.828 89.8814C238.871 91.9047 237.772 94.6488 237.772 97.5101V102.074H243.202L245.799 97.5101L246.578 102.074H263.056L258.642 97.5101C258.642 94.6488 257.542 91.9047 255.585 89.8814C253.628 87.8582 250.974 86.7216 248.207 86.7216Z" fill="#2F2E41"/>
<path d="M263.738 88.4087C264.173 87.0002 265.075 85.7955 266.285 85.0066C267.495 84.2177 268.935 83.8949 270.352 84.0951C272.863 84.5291 274.848 86.6157 276.031 88.9462C277.213 91.2768 277.76 93.8851 278.555 96.3853C279.35 98.8855 280.478 101.399 282.485 103.018C284.493 104.636 287.573 105.075 289.544 103.41C289.319 105.145 288.572 106.763 287.409 108.035C286.245 109.308 284.725 110.169 283.062 110.499C281.399 110.828 279.677 110.609 278.142 109.871C276.606 109.134 275.333 107.916 274.504 106.39C273.463 104.477 273.195 102.234 272.886 100.062C272.578 97.89 272.177 95.6428 270.935 93.8624C269.693 92.082 267.368 90.9192 265.395 91.7302L263.738 88.4087Z" fill="#2F2E41"/>
<path d="M135.631 94.6231C132.039 94.6227 128.594 93.1472 126.055 90.5213C123.515 87.8953 122.088 84.3339 122.088 80.6204C122.088 78.0877 122.089 76.1512 122.093 75.8758C122.207 67.2008 124.32 58.6789 128.257 51.0171C121.789 60.1719 118.233 71.1788 118.08 82.5149C118.076 82.7903 118.074 84.7268 118.074 87.2595C118.075 90.973 119.502 94.5344 122.041 97.1604C124.581 99.7863 128.025 101.262 131.617 101.262C134.569 101.261 137.439 100.264 139.792 98.4222C142.146 96.5806 143.853 93.995 144.656 91.0585C142.176 93.3576 138.961 94.6273 135.631 94.6231Z" fill="#3F3D56"/>
<path d="M172.074 57.7225C176.227 57.9275 180.269 59.1714 183.854 61.3474C187.439 63.5234 190.459 66.5664 192.656 70.2152C194.853 73.864 196.161 78.0095 196.467 82.2958C196.772 86.5821 196.068 90.8812 194.413 94.8238C196.807 91.917 198.566 88.5107 199.571 84.837C200.577 81.1634 200.804 77.3088 200.238 73.5361C199.671 69.7635 198.325 66.1614 196.29 62.9755C194.255 59.7895 191.58 57.0947 188.447 55.0746C185.313 53.0546 181.796 51.7568 178.133 51.2698C174.471 50.7828 170.75 51.118 167.224 52.2526C163.698 53.3872 160.45 55.2945 157.702 57.8444C154.954 60.3943 152.77 63.527 151.299 67.0287C153.841 63.9363 157.037 61.489 160.639 59.8754C164.241 58.2619 168.153 57.5253 172.074 57.7225Z" fill="#3F3D56"/>
<path d="M176.241 181.761C172.577 181.762 169.06 180.274 166.447 177.617C163.835 174.96 162.338 171.349 162.279 167.561C162.109 156.583 162.021 143.057 162.021 141.512C162.018 137.751 162.542 134.01 163.575 130.404L163.57 130.403C164.181 128.593 164.918 126.832 165.775 125.133C163.142 128.761 161.046 132.775 159.557 137.042L159.562 137.044C158.529 140.649 158.005 144.39 158.007 148.151C158.007 149.697 158.095 163.222 158.265 174.2C158.325 177.988 159.822 181.6 162.434 184.256C165.046 186.913 168.564 188.401 172.228 188.4C175.249 188.4 178.188 187.386 180.605 185.513C183.022 183.639 184.786 181.005 185.633 178.007C183.066 180.427 179.715 181.766 176.241 181.761Z" fill="#3F3D56"/>
<path d="M50.7856 241.74L55.7056 241.74L58.0466 222.118L50.7844 222.118L50.7856 241.74Z" fill="#FFB8B8"/>
<path d="M65.1951 246.463L49.7312 246.464L49.731 240.287L59.2201 240.286C60.8047 240.286 62.3244 240.937 63.4449 242.095C64.5655 243.254 65.195 244.825 65.1951 246.463L65.1951 246.463Z" fill="#2F2E41"/>
<path d="M33.1267 241.74L38.0467 241.74L40.3877 222.118L33.1255 222.118L33.1267 241.74Z" fill="#FFB8B8"/>
<path d="M47.5364 246.463L32.0726 246.464L32.0723 240.287L41.5615 240.286C43.146 240.286 44.6657 240.937 45.7862 242.095C46.9068 243.254 47.5363 244.825 47.5364 246.463L47.5364 246.463Z" fill="#2F2E41"/>
<path d="M37.4265 235.705L32.6204 235.444C32.3726 235.43 32.1298 235.366 31.9062 235.255C31.6825 235.144 31.4824 234.988 31.3175 234.796C31.1526 234.604 31.0261 234.381 30.9453 234.138C30.8646 233.896 30.8312 233.639 30.8471 233.383L36.5913 167.628L63.0439 175.008L65.5925 174.289L57.6226 232.5C57.5547 232.938 57.3444 233.338 57.0264 233.636C56.7084 233.934 56.3017 234.11 55.8735 234.137L50.6927 234.386C50.4336 234.401 50.1744 234.36 49.9314 234.266C49.6884 234.172 49.4669 234.027 49.2809 233.84C49.0949 233.653 48.9484 233.428 48.8508 233.18C48.7531 232.931 48.7064 232.664 48.7135 232.396L49.6522 197.459C49.6566 197.298 49.6023 197.141 49.5001 197.018C49.3978 196.896 49.2549 196.818 49.0997 196.799C48.9444 196.78 48.788 196.822 48.6612 196.917C48.5345 197.012 48.4466 197.152 48.4148 197.31L39.3619 234.162C39.2764 234.599 39.0469 234.993 38.7125 235.274C38.3782 235.556 37.9596 235.71 37.5281 235.708C37.4944 235.708 37.4606 235.707 37.4265 235.705Z" fill="#2F2E41"/>
<path d="M51.669 113.827C57.113 113.827 61.5263 109.264 61.5263 103.636C61.5263 98.0072 57.113 93.4443 51.669 93.4443C46.225 93.4443 41.8118 98.0072 41.8118 103.636C41.8118 109.264 46.225 113.827 51.669 113.827Z" fill="#FFB8B8"/>
<path d="M35.2573 133.578L36.3411 157.755L36.7329 166.552C36.7485 166.935 36.8743 167.304 37.0941 167.613C37.3139 167.921 37.6177 168.155 37.9668 168.284L63.3859 177.804C63.5912 177.883 63.8088 177.923 64.0278 177.921C64.2782 177.922 64.5262 177.871 64.7572 177.771C64.9881 177.671 65.1971 177.524 65.3718 177.338C65.5465 177.153 65.6833 176.933 65.774 176.692C65.8646 176.45 65.9073 176.193 65.8995 175.934L64.8574 132.462C64.789 128.895 63.5191 125.465 61.2667 122.762C59.0143 120.06 55.9206 118.254 52.5188 117.658C52.273 117.619 52.0228 117.58 51.7727 117.545C49.6633 117.275 47.5222 117.485 45.4999 118.162C43.4777 118.839 41.6234 119.966 40.0676 121.463C38.4567 122.995 37.1908 124.874 36.3596 126.967C35.5284 129.061 35.1521 131.317 35.2573 133.578L35.2573 133.578Z" fill="#75A575"/>
<path d="M75.5285 172.98C74.9273 172.787 74.378 172.452 73.9245 172C73.471 171.549 73.1258 170.994 72.9165 170.38C72.7072 169.767 72.6395 169.111 72.7189 168.465C72.7983 167.819 73.0226 167.202 73.3738 166.662L64.7539 154.811L72.1924 154.335L79.2376 165.662C79.9919 166.265 80.5167 167.123 80.7201 168.086C80.9235 169.049 80.7924 170.055 80.3499 170.928C79.9074 171.801 79.1817 172.485 78.3001 172.861C77.4185 173.236 76.4373 173.278 75.5285 172.98H75.5285Z" fill="#FFB8B8"/>
<path d="M69.468 164.517C69.2396 164.421 69.0319 164.28 68.8569 164.1C68.6818 163.921 68.5429 163.708 68.4482 163.472L55.4616 131.482C55.2068 130.856 55.0738 130.184 55.0704 129.505C55.0669 128.825 55.193 128.152 55.4414 127.522C55.6898 126.893 56.0557 126.321 56.5182 125.838C56.9806 125.355 57.5305 124.972 58.1365 124.709C58.7425 124.446 59.3927 124.309 60.0499 124.306C60.7071 124.303 61.3584 124.434 61.9667 124.691C62.5749 124.948 63.1281 125.327 63.5948 125.805C64.0614 126.284 64.4322 126.853 64.6861 127.48L77.6727 159.47C77.8646 159.944 77.8667 160.478 77.6786 160.954C77.4905 161.43 77.1274 161.809 76.6691 162.008L70.9037 164.51C70.6768 164.609 70.433 164.661 70.1866 164.662C69.9401 164.664 69.6959 164.614 69.468 164.517L69.468 164.517Z" fill="#75A575"/>
<path d="M48.4997 163.389L60.973 138.696C61.2135 138.221 61.6264 137.864 62.1211 137.704C62.6158 137.543 63.1519 137.592 63.6118 137.84L81.7167 147.616C82.176 147.865 82.5212 148.292 82.6764 148.803C82.8317 149.315 82.7843 149.869 82.5448 150.344L70.0716 175.037C69.831 175.512 69.4181 175.869 68.9234 176.029C68.4287 176.19 67.8926 176.141 67.4328 175.893L49.3279 166.117C48.8685 165.868 48.5234 165.442 48.3682 164.93C48.2129 164.419 48.2602 163.864 48.4997 163.389Z" fill="#3F3D56"/>
<path d="M56.8649 152.107C56.6431 151.498 56.2867 150.951 55.8242 150.51C55.3616 150.068 54.8056 149.745 54.2006 149.565C53.5956 149.385 52.9584 149.354 52.3397 149.474C51.721 149.594 51.138 149.862 50.6373 150.257L38.6861 142.06L38.6658 149.765L50.018 156.368C50.6446 157.111 51.5042 157.602 52.446 157.755C53.3878 157.908 54.3517 157.713 55.1685 157.205C55.9854 156.696 56.6031 155.907 56.9133 154.975C57.2234 154.043 57.2063 153.028 56.8649 152.107Z" fill="#FFB8B8"/>
<path d="M41.7544 153.84L31.9871 145.841C30.9305 145.474 29.9758 144.848 29.2048 144.015C28.4339 143.183 27.8699 142.17 27.5611 141.063C27.2523 139.955 27.208 138.787 27.4321 137.658C27.6561 136.529 28.1417 135.474 28.8473 134.581L37.7157 122.565C38.332 121.786 39.1987 121.263 40.1575 121.091C41.1162 120.918 42.1029 121.108 42.9372 121.626C43.7715 122.144 44.3976 122.955 44.7012 123.911C45.0048 124.867 44.9655 125.904 44.5905 126.832L37.5736 138.7L47.8855 143.757C48.1253 143.874 48.3382 144.043 48.5102 144.252C48.6822 144.461 48.8094 144.705 48.8833 144.969C48.9572 145.232 48.9762 145.509 48.9389 145.781C48.9017 146.052 48.8092 146.313 48.6674 146.545L44.5048 153.356C44.3641 153.586 44.1783 153.782 43.9593 153.933C43.7404 154.084 43.4932 154.186 43.2339 154.232C43.2236 154.234 43.2132 154.235 43.2029 154.237C42.948 154.277 42.688 154.262 42.4389 154.194C42.1897 154.126 41.9568 154.005 41.7544 153.84Z" fill="#75A575"/>
<path d="M44.2205 110.46C44.1782 110.332 44.1648 110.196 44.1813 110.062C44.1978 109.928 44.2437 109.799 44.3157 109.686C44.3876 109.574 44.4835 109.479 44.5962 109.411C44.7088 109.342 44.8351 109.301 44.9655 109.29C45.2325 109.305 45.4938 109.376 45.7335 109.499C45.9733 109.621 46.1866 109.792 46.3606 110.002C46.7174 110.427 47.1327 110.796 47.5932 111.096C48.07 111.345 48.7167 111.309 48.9886 110.836C49.2438 110.391 49.0689 109.795 48.9144 109.278C48.5212 107.963 48.3011 106.6 48.2603 105.224C48.2157 103.689 48.4253 102.086 49.2474 100.889C50.3085 99.3432 52.2059 98.7565 54.0014 98.799C55.797 98.8416 57.5635 99.4146 59.3421 99.7769C59.9561 99.902 60.6779 99.9659 61.0885 99.4739C61.5252 98.9507 61.3648 98.104 61.1791 97.3976C60.6971 95.5646 60.1858 93.6695 59.0659 92.1891C57.8551 90.6509 56.1255 89.6441 54.2255 89.3716C52.4013 89.138 50.5496 89.3553 48.8225 90.0058C46.0087 90.9227 43.5327 92.7061 41.7257 95.1173C39.863 97.6816 39.0581 100.904 39.487 104.08C39.9061 106.846 41.3239 109.346 43.4546 111.074L44.2205 110.46Z" fill="#2F2E41"/>
<path d="M169.067 241.821C166.444 240.64 164.123 238.845 162.286 236.578C160.45 234.31 159.148 231.633 158.483 228.756C157.819 225.879 157.81 222.883 158.458 220.002C159.106 217.121 160.392 214.436 162.216 212.157C160.101 213.753 158.34 215.796 157.047 218.15C155.755 220.503 154.962 223.115 154.72 225.81C154.478 228.505 154.794 231.222 155.645 233.781C156.497 236.341 157.866 238.684 159.66 240.654C161.455 242.625 163.634 244.179 166.053 245.212C168.473 246.245 171.077 246.735 173.694 246.648C176.311 246.561 178.879 245.9 181.23 244.708C183.58 243.517 185.659 241.822 187.327 239.736C184.725 241.702 181.67 242.93 178.466 243.295C175.262 243.661 172.021 243.153 169.067 241.821Z" fill="#3F3D56"/>
</g>
<defs>
<clipPath id="clip0_261_757">
<rect width="339" height="247" fill="white"/>
</clipPath>
</defs>
</svg>
