<svg width="641" height="544" viewBox="0 0 641 544" fill="none" xmlns="http://www.w3.org/2000/svg">
<g clip-path="url(#clip0_39_284)">
<path d="M447.804 191.285H223.399C219.547 191.281 215.854 189.909 213.13 187.469C210.406 185.03 208.874 181.722 208.87 178.272V20.4213C208.873 17.8938 209.995 15.4706 211.991 13.6834C213.986 11.8961 216.692 10.8907 219.514 10.8878H451.505C454.376 10.8907 457.129 11.9135 459.159 13.7316C461.189 15.5498 462.331 18.0149 462.334 20.5861V178.272C462.33 181.722 460.797 185.03 458.074 187.469C455.35 189.909 451.657 191.281 447.804 191.285Z" fill="#F2F2F2"/>
<path d="M237.489 178.272H433.715C437.452 178.272 441.036 176.943 443.678 174.577C446.32 172.21 447.804 169.001 447.804 165.654V44.5587C447.804 41.2121 446.32 38.0025 443.678 35.6361C441.036 33.2697 437.452 31.9403 433.715 31.9403H237.489C233.752 31.9403 230.168 33.2697 227.526 35.6361C224.884 38.0025 223.399 41.2121 223.399 44.5587V165.654C223.399 169.001 224.884 172.21 227.526 174.577C230.168 176.943 233.752 178.272 237.489 178.272Z" fill="white"/>
<path d="M462.132 19.677H208.666V13.052C208.672 9.59053 210.21 6.27239 212.944 3.82552C215.678 1.37865 219.383 0.00287019 223.248 0H447.549C451.414 0.00284308 455.12 1.37862 457.854 3.82549C460.588 6.27237 462.126 9.59052 462.132 13.052V19.677Z" fill="#CCCCCC"/>
<path d="M235.167 13.2362C237.25 13.2362 238.939 11.7238 238.939 9.8581C238.939 7.99241 237.25 6.47998 235.167 6.47998C233.084 6.47998 231.395 7.99241 231.395 9.8581C231.395 11.7238 233.084 13.2362 235.167 13.2362Z" fill="white"/>
<path d="M249.484 13.2362C251.568 13.2362 253.256 11.7238 253.256 9.8581C253.256 7.99241 251.568 6.47998 249.484 6.47998C247.401 6.47998 245.713 7.99241 245.713 9.8581C245.713 11.7238 247.401 13.2362 249.484 13.2362Z" fill="white"/>
<path d="M263.802 13.2362C265.885 13.2362 267.573 11.7238 267.573 9.8581C267.573 7.99241 265.885 6.47998 263.802 6.47998C261.718 6.47998 260.03 7.99241 260.03 9.8581C260.03 11.7238 261.718 13.2362 263.802 13.2362Z" fill="white"/>
<path d="M251.929 88.6883H242.211C241.684 88.6878 241.178 88.5001 240.806 88.1663C240.433 87.8326 240.223 87.38 240.223 86.908V78.2045C240.223 77.7325 240.433 77.28 240.806 76.9462C241.178 76.6125 241.684 76.4247 242.211 76.4242H251.929C252.456 76.4247 252.961 76.6125 253.334 76.9462C253.706 77.28 253.916 77.7325 253.917 78.2045V86.908C253.916 87.38 253.706 87.8325 253.334 88.1663C252.961 88.5 252.456 88.6878 251.929 88.6883Z" fill="#FFB3FF"/>
<path d="M251.929 111.238H242.211C241.684 111.238 241.178 111.05 240.806 110.716C240.433 110.383 240.223 109.93 240.223 109.458V100.755C240.223 100.283 240.433 99.8301 240.806 99.4963C241.178 99.1626 241.684 98.9749 242.211 98.9743H251.929C252.456 98.9749 252.961 99.1626 253.334 99.4963C253.706 99.8301 253.916 100.283 253.917 100.755V109.458C253.916 109.93 253.706 110.383 253.334 110.716C252.961 111.05 252.456 111.238 251.929 111.238Z" fill="#C0E7BE"/>
<path d="M251.929 133.788H242.211C241.684 133.788 241.178 133.6 240.806 133.266C240.433 132.933 240.223 132.48 240.223 132.008V123.305C240.223 122.833 240.433 122.38 240.806 122.046C241.178 121.713 241.684 121.525 242.211 121.524H251.929C252.456 121.525 252.961 121.713 253.334 122.046C253.706 122.38 253.916 122.833 253.917 123.305V132.008C253.916 132.48 253.706 132.933 253.334 133.266C252.961 133.6 252.456 133.788 251.929 133.788Z" fill="#CCCCCC"/>
<path d="M315.538 84.3365H268.714C268.188 84.3356 267.683 84.1476 267.312 83.8138C266.94 83.48 266.731 83.0278 266.731 82.5563C266.731 82.0848 266.94 81.6325 267.312 81.2988C267.683 80.965 268.188 80.777 268.714 80.776H315.538C315.799 80.7755 316.058 80.8212 316.3 80.9104C316.541 80.9997 316.761 81.1307 316.946 81.2961C317.131 81.4615 317.278 81.6579 317.378 81.8741C317.478 82.0904 317.53 82.3222 317.53 82.5563C317.53 82.7904 317.478 83.0222 317.378 83.2384C317.278 83.4547 317.131 83.6511 316.946 83.8164C316.761 83.9818 316.541 84.1129 316.3 84.2021C316.058 84.2914 315.799 84.337 315.538 84.3365Z" fill="#CCCCCC"/>
<path d="M315.538 106.887H268.714C268.188 106.886 267.683 106.698 267.312 106.364C266.94 106.03 266.731 105.578 266.731 105.106C266.731 104.635 266.94 104.183 267.312 103.849C267.683 103.515 268.188 103.327 268.714 103.326H315.538C316.065 103.326 316.571 103.514 316.943 103.848C317.316 104.181 317.526 104.634 317.526 105.106C317.526 105.579 317.316 106.031 316.943 106.365C316.571 106.699 316.065 106.887 315.538 106.887Z" fill="#CCCCCC"/>
<path d="M315.538 129.437H268.714C268.188 129.436 267.683 129.248 267.312 128.914C266.94 128.58 266.731 128.128 266.731 127.656C266.731 127.185 266.94 126.733 267.312 126.399C267.683 126.065 268.188 125.877 268.714 125.876H315.538C315.799 125.876 316.058 125.921 316.3 126.011C316.541 126.1 316.761 126.231 316.946 126.396C317.131 126.562 317.278 126.758 317.378 126.974C317.478 127.191 317.53 127.422 317.53 127.656C317.53 127.891 317.478 128.122 317.378 128.339C317.278 128.555 317.131 128.751 316.946 128.917C316.761 129.082 316.541 129.213 316.3 129.302C316.058 129.392 315.799 129.437 315.538 129.437Z" fill="#CCCCCC"/>
<path d="M430.903 105.672C430.953 104.923 430.981 104.17 430.981 103.41C430.981 93.513 426.591 84.0213 418.777 77.023C410.963 70.0247 400.365 66.0931 389.314 66.0931V105.672H430.903Z" fill="#FFB3FF"/>
<path d="M386.158 109.064V69.4855C378.024 69.4852 370.068 71.6169 363.272 75.6176C356.475 79.6183 351.134 85.3132 347.907 91.9999C344.681 98.6866 343.71 106.073 345.115 113.248C346.52 120.423 350.239 127.072 355.813 132.377C361.387 137.682 368.573 141.409 376.484 143.1C384.395 144.791 392.686 144.371 400.334 141.893C407.982 139.414 414.653 134.985 419.524 129.151C424.395 123.318 427.253 116.335 427.746 109.064H386.158Z" fill="#C0E7BE"/>
<path d="M670.119 544H0.880577C0.647034 544 0.423055 543.917 0.257914 543.769C0.0927742 543.621 0 543.42 0 543.211C0 543.002 0.0927742 542.802 0.257914 542.654C0.423055 542.506 0.647034 542.423 0.880577 542.423H670.119C670.353 542.423 670.577 542.506 670.742 542.654C670.907 542.802 671 543.002 671 543.211C671 543.42 670.907 543.621 670.742 543.769C670.577 543.917 670.353 544 670.119 544Z" fill="#CCCCCC"/>
<path d="M444.419 325.653C444.712 326.011 444.974 326.388 445.202 326.782L489.331 331.226L495.749 323.46L510.101 330.603L497.467 349.467L443.404 336.76C442.028 337.944 440.282 338.726 438.398 339C436.515 339.274 434.583 339.028 432.859 338.295C431.135 337.562 429.701 336.376 428.748 334.895C427.795 333.414 427.368 331.709 427.524 330.005C427.679 328.302 428.41 326.681 429.619 325.359C430.829 324.037 432.458 323.075 434.293 322.603C436.127 322.13 438.078 322.169 439.887 322.714C441.695 323.259 443.276 324.284 444.419 325.653Z" fill="#FFB8B8"/>
<path d="M219.252 315.45C218.136 316.037 216.89 316.399 215.601 316.508C214.313 316.618 213.013 316.473 211.793 316.084C210.574 315.694 209.465 315.071 208.543 314.256C207.622 313.441 206.912 312.456 206.462 311.368L175.002 311.956L183.717 299.565L212.257 300.906C214.346 300.351 216.59 300.501 218.564 301.328C220.538 302.155 222.105 303.603 222.967 305.395C223.83 307.188 223.928 309.202 223.243 311.055C222.558 312.908 221.139 314.472 219.252 315.45V315.45Z" fill="#FFB8B8"/>
<path d="M205.426 311.903C205.176 312.65 204.659 313.302 203.954 313.76C203.249 314.218 202.396 314.456 201.526 314.437L143.948 313.127L91.8119 299.302C90.3773 298.922 89.0413 298.29 87.8818 297.443C86.7223 296.596 85.7624 295.552 85.0578 294.369C84.3532 293.187 83.9181 291.892 83.7776 290.558C83.6372 289.223 83.7943 287.878 84.2398 286.598C84.6852 285.319 85.4102 284.132 86.3725 283.106C87.3349 282.08 88.5154 281.236 89.8454 280.622C91.1754 280.008 92.6283 279.637 94.1198 279.531C95.6112 279.425 97.1114 279.585 98.5331 280.002L145.636 293.834L202.169 298.72C203.16 298.81 204.077 299.228 204.739 299.893C205.402 300.558 205.763 301.421 205.751 302.313L205.588 310.949C205.582 311.272 205.528 311.593 205.426 311.903Z" fill="#3F3D56"/>
<path d="M121.926 533.601L132.721 533.6L137.857 496.306L121.924 496.307L121.926 533.601Z" fill="#FFB8B8"/>
<path d="M119.172 530.444L140.432 530.443H140.433C142.212 530.443 143.974 530.757 145.618 531.366C147.262 531.976 148.755 532.87 150.014 533.997C151.272 535.124 152.27 536.461 152.951 537.934C153.632 539.406 153.982 540.984 153.982 542.577V542.972L119.172 542.973L119.172 530.444Z" fill="#2F2E41"/>
<path d="M90.2249 533.601L101.02 533.6L106.156 496.306L90.2231 496.307L90.2249 533.601Z" fill="#FFB8B8"/>
<path d="M87.4708 530.444L108.731 530.443H108.732C110.511 530.443 112.273 530.757 113.917 531.366C115.561 531.976 117.055 532.87 118.313 533.997C119.571 535.124 120.569 536.461 121.25 537.934C121.931 539.406 122.281 540.984 122.281 542.577V542.972L87.4715 542.973L87.4708 530.444Z" fill="#2F2E41"/>
<path d="M82.9795 382.883L85.5573 519.867C85.5655 520.301 85.6735 520.728 85.8745 521.123C86.0756 521.518 86.3654 521.871 86.7259 522.161C87.0864 522.451 87.5097 522.671 87.9695 522.808C88.4292 522.944 88.9156 522.995 89.398 522.955L102.031 521.927C102.86 521.859 103.635 521.531 104.219 521.001C104.804 520.471 105.16 519.772 105.224 519.029L112.62 433.583C112.637 433.382 112.739 433.195 112.906 433.06C113.072 432.924 113.29 432.851 113.515 432.855C113.74 432.859 113.954 432.94 114.115 433.081C114.275 433.222 114.369 433.413 114.378 433.614L118.074 521.016C118.109 521.832 118.495 522.604 119.151 523.169C119.807 523.735 120.683 524.052 121.594 524.052H135.142C136.039 524.052 136.902 523.745 137.556 523.195C138.209 522.644 138.603 521.891 138.658 521.089L148.142 382.095L91.7853 369.476L82.9795 382.883Z" fill="#2F2E41"/>
<path d="M123.857 254.258C135.802 254.258 145.485 245.585 145.485 234.888C145.485 224.19 135.802 215.518 123.857 215.518C111.912 215.518 102.229 224.19 102.229 234.888C102.229 245.585 111.912 254.258 123.857 254.258Z" fill="#FFB8B8"/>
<path d="M147.313 387.962C147.292 387.962 147.271 387.961 147.25 387.961L96.6778 387.264C95.7057 387.251 94.773 386.918 94.0572 386.329C93.3414 385.739 92.8924 384.935 92.7958 384.069L92.2233 378.94C92.2124 378.843 92.1615 378.753 92.0806 378.687C91.9996 378.621 91.8944 378.585 91.7852 378.585C91.676 378.585 91.5707 378.621 91.4897 378.687C91.4088 378.753 91.3579 378.843 91.347 378.94L90.7556 384.237C90.6639 385.067 90.2488 385.84 89.5833 386.423C88.9178 387.005 88.0444 387.359 87.1166 387.422L83.5427 387.668C82.9128 387.712 82.2804 387.62 81.6983 387.4C81.1162 387.18 80.6013 386.839 80.1965 386.404C79.7916 385.97 79.5086 385.455 79.3711 384.903C79.2335 384.351 79.2454 383.777 79.4057 383.23L82.483 372.722C88.8509 350.883 89.3631 328.005 83.978 305.955L82.4488 299.725C81.2961 295.071 81.8237 290.209 83.9556 285.841C86.0874 281.473 89.7134 277.825 94.3104 275.422L104.244 270.207L108.75 264.152C109.622 262.984 110.796 262.021 112.172 261.345C113.549 260.669 115.087 260.3 116.656 260.27C122.942 260.147 133.727 261.178 135.753 269.411C140.774 270.948 145.123 273.87 148.173 277.758C151.224 281.647 152.82 286.301 152.732 291.053L151.273 384.462C151.259 385.394 150.835 386.284 150.094 386.939C149.353 387.594 148.354 387.961 147.313 387.962Z" fill="#3F3D56"/>
<path d="M122.165 246.053C122.076 248.791 119.954 250.375 117.348 251.809C114.742 253.244 111.696 253.865 108.711 254.465C108.31 254.656 107.862 254.751 107.408 254.741C106.954 254.731 106.511 254.616 106.121 254.408C105.731 254.2 105.408 253.906 105.182 253.553C104.956 253.201 104.836 252.802 104.832 252.395L102.095 243.071C101.127 240.093 100.422 237.05 99.9877 233.972C99.3285 228.05 100.896 221.68 105.511 217.398C110.126 213.116 118.13 211.595 123.661 214.894C130.224 207.386 160.226 223.974 152.825 229.195C151.508 230.123 149.496 228.948 147.825 228.834C146.154 228.72 144.281 228.984 143.219 230.145C141.832 231.663 142.436 233.923 141.865 235.816C141.629 236.482 141.247 237.1 140.743 237.633C140.239 238.167 139.622 238.606 138.927 238.924C138.233 239.243 137.475 239.436 136.697 239.491C135.919 239.546 135.136 239.463 134.394 239.246C133.013 238.636 131.713 237.887 130.52 237.015C129.238 236.25 127.618 235.685 126.175 236.167C124.274 236.803 123.598 238.888 123.426 240.7C123.136 242.507 122.715 244.295 122.165 246.053Z" fill="#2F2E41"/>
<path opacity="0.2" d="M127.216 297.967L130.738 336.61L149.231 376.831L121.933 337.399L127.216 297.967Z" fill="black"/>
<path d="M354.713 509.583L161.717 407.037C158.406 405.274 156.012 402.406 155.059 399.063C154.106 395.72 154.673 392.175 156.634 389.206L246.563 253.449C248.006 251.276 250.352 249.705 253.086 249.08C255.82 248.455 258.72 248.826 261.149 250.114L460.67 356.126C463.137 357.44 464.922 359.577 465.632 362.069C466.342 364.56 465.92 367.202 464.458 369.415L374.623 505.031C372.653 507.996 369.451 510.14 365.719 510.994C361.987 511.847 358.029 511.34 354.713 509.583Z" fill="#F2F2F2"/>
<path d="M181.247 402.284L350.01 491.953C353.223 493.661 357.063 494.155 360.683 493.327C364.304 492.499 367.409 490.417 369.316 487.539L438.304 383.393C440.211 380.514 440.763 377.076 439.839 373.833C438.914 370.59 436.59 367.81 433.376 366.102L264.614 276.433C261.4 274.726 257.561 274.231 253.94 275.059C250.32 275.887 247.214 277.969 245.308 280.847L176.319 384.994C174.412 387.872 173.86 391.31 174.785 394.553C175.709 397.796 178.034 400.577 181.247 402.284Z" fill="white"/>
<path d="M464.802 368.54L246.812 252.715L250.586 247.018C252.563 244.043 255.776 241.892 259.522 241.037C263.267 240.182 267.238 240.692 270.563 242.456L463.47 344.954C466.793 346.722 469.196 349.599 470.153 352.953C471.11 356.306 470.543 359.863 468.576 362.843L464.802 368.54Z" fill="#CCCCCC"/>
<path d="M275.198 259.759C277.281 259.759 278.97 258.247 278.97 256.381C278.97 254.515 277.281 253.003 275.198 253.003C273.115 253.003 271.426 254.515 271.426 256.381C271.426 258.247 273.115 259.759 275.198 259.759Z" fill="white"/>
<path d="M287.511 266.301C289.594 266.301 291.283 264.789 291.283 262.923C291.283 261.058 289.594 259.545 287.511 259.545C285.428 259.545 283.739 261.058 283.739 262.923C283.739 264.789 285.428 266.301 287.511 266.301Z" fill="white"/>
<path d="M299.824 272.844C301.907 272.844 303.596 271.331 303.596 269.466C303.596 267.6 301.907 266.088 299.824 266.088C297.741 266.088 296.052 267.6 296.052 269.466C296.052 271.331 297.741 272.844 299.824 272.844Z" fill="white"/>
<path d="M416.299 388.312L416.054 388.683L418.535 390.001L418.78 389.63L416.299 388.312Z" fill="#E6E6E6"/>
<path d="M411.041 386.019L406.029 383.356L406.274 382.986L411.287 385.649L411.041 386.019ZM401.016 380.693L396.004 378.029L396.249 377.659L401.262 380.322L401.016 380.693ZM390.992 375.366L385.979 372.703L386.224 372.333L391.237 374.996L390.992 375.366ZM380.967 370.04L375.954 367.376L376.2 367.006L381.212 369.669L380.967 370.04ZM370.942 364.713L365.929 362.05L366.175 361.679L371.187 364.343L370.942 364.713ZM360.917 359.387L355.905 356.723L356.15 356.353L361.162 359.016L360.917 359.387ZM350.892 354.06L345.88 351.397L346.125 351.026L351.137 353.69L350.892 354.06ZM340.867 348.733L335.855 346.07L336.1 345.7L341.113 348.363L340.867 348.733ZM330.842 343.407L325.83 340.744L326.075 340.373L331.088 343.037L330.842 343.407ZM320.817 338.08L315.805 335.417L316.05 335.047L321.063 337.71L320.817 338.08ZM310.793 332.754L305.78 330.091L306.026 329.72L311.038 332.384L310.793 332.754ZM300.768 327.427L295.755 324.764L296.001 324.394L301.013 327.057L300.768 327.427ZM290.743 322.101L285.73 319.438L285.976 319.067L290.988 321.73L290.743 322.101ZM280.718 316.774L275.705 314.111L275.951 313.741L280.963 316.404L280.718 316.774ZM270.693 311.448L265.681 308.784L265.926 308.414L270.938 311.077L270.693 311.448ZM260.668 306.121L255.656 303.458L255.901 303.088L260.914 305.751L260.668 306.121Z" fill="#E6E6E6"/>
<path d="M248.408 299.106L248.162 299.476L250.643 300.795L250.889 300.424L248.408 299.106Z" fill="#E6E6E6"/>
<path d="M312.019 379.47L311.773 379.841L314.254 381.159L314.5 380.789L312.019 379.47Z" fill="#E6E6E6"/>
<path d="M306.835 377.217L301.897 374.593L302.142 374.223L307.08 376.847L306.835 377.217ZM296.959 371.97L292.021 369.346L292.267 368.975L297.205 371.599L296.959 371.97ZM287.083 366.722L282.145 364.098L282.391 363.728L287.329 366.352L287.083 366.722ZM277.207 361.475L272.269 358.851L272.515 358.481L277.453 361.104L277.207 361.475ZM267.331 356.227L262.393 353.603L262.639 353.233L267.577 355.857L267.331 356.227ZM257.455 350.98L252.517 348.356L252.763 347.986L257.701 350.609L257.455 350.98ZM247.579 345.732L242.641 343.109L242.887 342.738L247.825 345.362L247.579 345.732ZM237.703 340.485L232.765 337.861L233.011 337.491L237.949 340.115L237.703 340.485Z" fill="#E6E6E6"/>
<path d="M225.592 333.549L225.346 333.919L227.827 335.238L228.073 334.867L225.592 333.549Z" fill="#E6E6E6"/>
<path d="M252.842 370.059L252.596 370.429L255.077 371.747L255.323 371.377L252.842 370.059Z" fill="#E6E6E6"/>
<path d="M247.516 367.73L242.435 365.03L242.681 364.66L247.761 367.359L247.516 367.73ZM237.355 362.331L232.274 359.632L232.52 359.261L237.6 361.961L237.355 362.331ZM227.194 356.932L222.113 354.233L222.359 353.862L227.439 356.562L227.194 356.932Z" fill="#E6E6E6"/>
<path d="M214.797 349.845L214.552 350.215L217.033 351.533L217.278 351.163L214.797 349.845Z" fill="#E6E6E6"/>
<path d="M234.42 397.868L234.175 398.238L236.656 399.556L236.901 399.186L234.42 397.868Z" fill="#E6E6E6"/>
<path d="M229.094 395.539L224.014 392.839L224.259 392.469L229.34 395.168L229.094 395.539ZM218.933 390.14L213.853 387.44L214.098 387.07L219.179 389.77L218.933 390.14ZM208.773 384.741L203.692 382.042L203.937 381.671L209.018 384.371L208.773 384.741Z" fill="#E6E6E6"/>
<path d="M196.376 377.654L196.131 378.024L198.612 379.342L198.857 378.972L196.376 377.654Z" fill="#E6E6E6"/>
<path d="M209.931 385.741L352.945 461.729C356.411 463.565 360.548 464.096 364.449 463.204C368.35 462.312 371.697 460.07 373.755 456.971L415.541 393.89L415.254 393.747L320.446 415.42L312.936 389.085C312.799 388.598 312.538 388.146 312.173 387.765C311.808 387.383 311.35 387.083 310.834 386.887C310.045 386.602 309.172 386.558 308.352 386.762L258.669 398.118L253.177 378.863C253.059 378.448 252.85 378.057 252.563 377.714C252.276 377.37 251.917 377.081 251.505 376.862C251.093 376.643 250.637 376.499 250.163 376.438C249.689 376.377 249.206 376.4 248.742 376.507C248.407 376.586 216.077 384.258 209.931 385.741Z" fill="#C0E7BE"/>
<path d="M209.076 385.787L208.957 385.37L248.715 376.28C249.765 376.041 250.878 376.184 251.81 376.68C252.742 377.175 253.417 377.981 253.686 378.921L259.066 397.797L308.474 386.501C309.524 386.262 310.637 386.406 311.569 386.901C312.501 387.396 313.175 388.202 313.445 389.142L320.843 415.1L416.145 393.311L416.264 393.728L320.496 415.623L312.979 389.249C312.862 388.838 312.655 388.452 312.371 388.112C312.088 387.772 311.732 387.486 311.325 387.27C310.917 387.054 310.466 386.911 309.998 386.851C309.529 386.79 309.052 386.813 308.593 386.918L258.719 398.321L253.22 379.027C252.982 378.198 252.387 377.487 251.565 377.05C250.743 376.613 249.76 376.486 248.834 376.697L209.076 385.787Z" fill="#75A575"/>
<path d="M255.2 374.577C257.059 374.577 258.566 373.227 258.566 371.562C258.566 369.897 257.059 368.548 255.2 368.548C253.341 368.548 251.834 369.897 251.834 371.562C251.834 373.227 253.341 374.577 255.2 374.577Z" fill="#3F3D56"/>
<path d="M314.377 383.988C316.236 383.988 317.743 382.639 317.743 380.974C317.743 379.309 316.236 377.959 314.377 377.959C312.518 377.959 311.011 379.309 311.011 380.974C311.011 382.639 312.518 383.988 314.377 383.988Z" fill="#3F3D56"/>
<path d="M417.474 391.248C419.333 391.248 420.84 389.898 420.84 388.233C420.84 386.568 419.333 385.219 417.474 385.219C415.615 385.219 414.109 386.568 414.109 388.233C414.109 389.898 415.615 391.248 417.474 391.248Z" fill="#3F3D56"/>
<path d="M153.555 391.81C152.545 391.084 151.726 390.168 151.154 389.128C150.582 388.088 150.272 386.948 150.246 385.789C150.219 384.63 150.476 383.48 151 382.419C151.523 381.359 152.3 380.414 153.275 379.652L141.494 353.519L157.523 356.418L166.253 380.789C167.574 382.342 168.214 384.274 168.051 386.22C167.889 388.167 166.934 389.992 165.369 391.351C163.804 392.709 161.737 393.506 159.559 393.591C157.382 393.675 155.245 393.041 153.555 391.81Z" fill="#FFB8B8"/>
<path d="M153.359 380.487C152.491 380.543 151.626 380.342 150.898 379.914C150.17 379.487 149.619 378.857 149.33 378.122L130.258 329.448L126.183 280.888C126.07 279.552 126.256 278.209 126.728 276.937C127.2 275.666 127.95 274.491 128.934 273.481C129.918 272.472 131.116 271.647 132.459 271.056C133.802 270.465 135.262 270.119 136.756 270.038C138.249 269.956 139.746 270.142 141.159 270.584C142.571 271.025 143.872 271.714 144.985 272.61C146.097 273.506 147 274.591 147.641 275.802C148.281 277.013 148.646 278.326 148.715 279.664L150.997 324.012L165.964 373.081C166.222 373.942 166.111 374.858 165.652 375.65C165.193 376.441 164.42 377.049 163.485 377.355L154.412 380.284C154.073 380.394 153.719 380.462 153.359 380.487Z" fill="#3F3D56"/>
<path d="M506.965 337.359C506.61 337.219 506.279 337.034 505.982 336.81L488.247 323.429C487.82 323.107 487.473 322.71 487.227 322.262C486.981 321.814 486.841 321.325 486.817 320.827C486.792 320.328 486.884 319.83 487.085 319.365C487.287 318.899 487.594 318.476 487.987 318.123L504.082 303.649C504.757 303.036 505.657 302.661 506.615 302.593C507.574 302.525 508.528 302.767 509.304 303.277L521.475 311.192C522.234 311.686 522.777 312.403 523.01 313.217C523.243 314.032 523.151 314.894 522.75 315.654L512.221 335.592C511.773 336.441 510.973 337.099 509.992 337.429C509.011 337.759 507.926 337.734 506.965 337.359L506.965 337.359Z" fill="#4D844E"/>
<path d="M576.141 526.605L565.548 529.186L549.391 493.822L565.024 490.013L576.141 526.605Z" fill="#FFB8B8"/>
<path d="M556.945 528.371L577.587 523.341L581.087 534.861L547.796 542.973L547.738 542.782C546.825 539.777 547.282 536.571 549.009 533.868C550.736 531.166 553.591 529.188 556.945 528.371Z" fill="#2F2E41"/>
<path d="M485.586 533.844L474.609 533.843L469.386 495.921L485.589 495.921L485.586 533.844Z" fill="#FFB8B8"/>
<path d="M466.547 531.034H487.939V542.972H453.438V542.774C453.438 539.66 454.819 536.674 457.278 534.472C459.736 532.271 463.07 531.034 466.547 531.034Z" fill="#2F2E41"/>
<path d="M502.124 283.462C514.27 283.462 524.116 274.644 524.116 263.766C524.116 252.888 514.27 244.069 502.124 244.069C489.978 244.069 480.131 252.888 480.131 263.766C480.131 274.644 489.978 283.462 502.124 283.462Z" fill="#FFB8B8"/>
<path d="M484.915 506.805H469.913C468.888 506.803 467.901 506.453 467.154 505.824C466.406 505.195 465.954 504.335 465.888 503.419C461.418 439.776 464.032 394.123 474.116 359.748C474.161 359.598 474.215 359.45 474.28 359.306L475.083 357.507C475.38 356.836 475.896 356.261 476.563 355.856C477.231 355.451 478.019 355.236 478.825 355.238H509.673C510.255 355.238 510.829 355.35 511.357 355.568C511.886 355.785 512.355 356.103 512.733 356.498L516.923 360.877C517.005 360.962 517.081 361.049 517.155 361.141C536.049 384.739 552.982 430.873 572.592 492.882C572.882 493.784 572.767 494.75 572.272 495.577C571.777 496.403 570.942 497.024 569.943 497.306L553.821 501.927C552.896 502.188 551.896 502.143 551.005 501.799C550.113 501.456 549.389 500.838 548.964 500.057L507.127 422.343C506.835 421.8 506.355 421.355 505.758 421.076C505.162 420.796 504.48 420.696 503.815 420.79C503.15 420.884 502.537 421.167 502.066 421.598C501.594 422.029 501.291 422.584 501.199 423.182L488.907 503.685C488.772 504.548 488.294 505.339 487.561 505.912C486.827 506.485 485.888 506.802 484.915 506.805Z" fill="#2F2E41"/>
<path d="M515.232 361.197C515.19 361.197 515.148 361.196 515.105 361.196L477.633 360.136C476.67 360.112 475.748 359.778 475.037 359.196C474.325 358.614 473.871 357.822 473.758 356.965C469.007 322.529 482.035 313.303 487.856 310.936C488.343 310.739 488.764 310.433 489.08 310.048C489.396 309.662 489.595 309.21 489.658 308.736L490.162 305.126C490.248 304.489 490.523 303.884 490.958 303.374C500.086 292.784 512.549 289.393 519.166 288.315C519.703 288.228 520.253 288.24 520.785 288.35C521.316 288.461 521.817 288.666 522.256 288.955C522.696 289.244 523.066 289.609 523.343 290.03C523.62 290.451 523.799 290.917 523.868 291.402L524.623 296.585C524.7 297.079 524.92 297.547 525.262 297.941C544.297 320.229 523.091 353.136 518.646 359.506C518.283 360.024 517.779 360.45 517.182 360.746C516.585 361.041 515.914 361.197 515.232 361.197Z" fill="#FFB3FF"/>
<path d="M526.321 251.516C524.688 247.081 523.482 242.529 522.717 237.91C522.477 235.221 523.246 232.327 525.433 230.471C529.525 226.999 536.479 228.653 540.758 231.939C546.944 236.689 550.029 243.988 551.194 251.21C552.36 258.432 551.847 265.776 552.128 273.069C552.409 280.362 553.573 287.86 557.725 294.139C561.876 300.418 569.58 305.238 577.705 304.703C580.985 304.545 584.1 303.363 586.508 301.362C587.69 300.355 588.586 299.109 589.119 297.727C589.652 296.346 589.808 294.871 589.573 293.424C593.727 300.085 591.621 309.112 585.426 314.348C579.232 319.584 569.703 321.064 561.559 318.828C553.415 316.593 546.712 310.988 542.708 304.254C538.705 297.521 537.238 289.742 537.45 282.116C537.614 276.259 538.725 270.355 537.62 264.581C536.515 258.807 532.48 252.944 526.118 251.585L526.321 251.516Z" fill="#2F2E41"/>
<path d="M497.749 259.107C496.664 262.353 492.515 264.354 488.782 263.805C486.924 263.459 485.205 262.669 483.808 261.518C482.411 260.368 481.387 258.901 480.846 257.271C479.821 253.971 480.241 250.444 482.02 247.411C483 245.593 484.371 243.966 486.055 242.623C487.738 241.28 489.701 240.247 491.83 239.585C493.972 238.949 496.252 238.784 498.48 239.102C500.708 239.421 502.817 240.215 504.631 241.416C504.824 240.687 505.23 240.018 505.809 239.476C506.387 238.934 507.116 238.541 507.921 238.335C509.541 237.944 511.251 237.967 512.857 238.4C517.487 239.582 521.499 242.196 524.179 245.777C526.825 249.347 528.576 253.389 529.31 257.623C530.573 263.973 530.107 270.912 526.125 276.286C522.143 281.661 513.996 284.834 507.387 282.272C506.975 280.385 507.951 278.485 509.081 276.85C510.21 275.215 511.549 273.622 511.983 271.739C512.417 269.856 511.585 267.553 509.551 266.937C507.816 266.412 505.966 267.263 504.138 267.366C503.1 267.424 502.063 267.237 501.132 266.823C500.2 266.409 499.406 265.783 498.829 265.008C498.253 264.232 497.915 263.335 497.848 262.405C497.781 261.476 497.988 260.547 498.449 259.712L497.749 259.107Z" fill="#2F2E41"/>
<path d="M442.011 340.25C442.375 340.551 442.711 340.877 443.018 341.226L487.291 338.14L491.959 329.43L507.558 334.021L499.121 354.68L443.352 351.328C442.25 352.724 440.7 353.786 438.908 354.373C437.116 354.96 435.166 355.045 433.319 354.616C431.472 354.187 429.814 353.265 428.566 351.971C427.319 350.678 426.54 349.075 426.335 347.376C426.129 345.677 426.506 343.962 427.415 342.459C428.324 340.956 429.723 339.737 431.424 338.963C433.126 338.19 435.05 337.898 436.941 338.128C438.832 338.358 440.601 339.098 442.011 340.249V340.25Z" fill="#FFB8B8"/>
<path d="M507.318 347.782C506.944 347.686 506.588 347.544 506.26 347.357L486.654 336.266C486.183 336 485.778 335.648 485.466 335.235C485.154 334.821 484.942 334.354 484.842 333.863C484.742 333.372 484.756 332.867 484.885 332.382C485.014 331.896 485.254 331.439 485.59 331.041L499.331 314.738C499.908 314.049 500.742 313.567 501.681 313.383C502.62 313.198 503.603 313.322 504.448 313.732L517.71 320.088C518.538 320.485 519.185 321.128 519.539 321.907C519.894 322.686 519.934 323.551 519.652 324.353L512.255 345.39C511.941 346.285 511.249 347.035 510.327 347.482C509.406 347.928 508.326 348.036 507.318 347.782Z" fill="#FFB3FF"/>
</g>
<defs>
<clipPath id="clip0_39_284">
<rect width="671" height="544" fill="white"/>
</clipPath>
</defs>
</svg>
