<?xml version="1.0" encoding="UTF-8"?><svg id="Calque_2" xmlns="http://www.w3.org/2000/svg" viewBox="0 0 1032.37 440.82"><g id="Logo"><g><path d="M158.39,357.79h-55.78c-1.47,0-2.67-1.19-2.67-2.67V73.65c0-1.47,1.19-2.67,2.67-2.67h55.78V38.2H70.9c-1.93,0-3.49,1.56-3.49,3.49V434.96c0,1.93,1.56,3.49,3.49,3.49h87.48v-80.66Z" style="fill:#c0e7be;"/><path d="M67.41,434.96v-77.17H35.2c-1.47,0-2.67-1.19-2.67-2.67V73.65c0-1.47,1.19-2.67,2.67-2.67h32.21v-29.29c0-1.93,1.56-3.49,3.49-3.49H3.49c-1.93,0-3.49,1.56-3.49,3.49V434.96c0,1.93,1.56,3.49,3.49,3.49H70.9c-1.93,0-3.49-1.56-3.49-3.49Z" style="fill:#e8ffe6;"/><path d="M346.42,38.2H138.92c-1.93,0-3.49,1.56-3.49,3.49V434.96c0,1.93,1.56,3.49,3.49,3.49h207.5c1.93,0,3.49-1.56,3.49-3.49V41.69c0-1.93-1.56-3.49-3.49-3.49Zm-103.75,382.09c-11.66,0-21.1-9.45-21.1-21.1s9.45-21.1,21.1-21.1,21.1,9.45,21.1,21.1-9.45,21.1-21.1,21.1Zm74.71-65.16c0,1.47-1.19,2.67-2.67,2.67H170.63c-1.47,0-2.67-1.19-2.67-2.67V73.65c0-1.47,1.19-2.67,2.67-2.67h144.09c1.47,0,2.67,1.19,2.67,2.67V355.13Z" style="fill:#9cc69b;"/><path d="M415.89,4.55c-2.89-3.78-7.52-5.31-12.81-4.19-4.83,1.03-7.26,4.54-8.72,6.65l-3.12,4.37c-5.54,7.75-11.08,15.5-16.53,23.3-1.74,2.48-3.53,4.94-5.32,7.38-3.86,5.27-7.85,10.72-10.98,16l-30.06,42.08-15,20.36-1.87,2.7c-1.26,1.82-2.51,3.63-3.81,5.43l-30.29,42.17c-6.69,9.48-13.38,18.96-20.1,28.43-2.98,4.2-5.99,8.4-9.01,12.59-2.37,3.29-4.74,6.59-7.16,9.98-8.96-10.31-17.74-20.95-26.26-31.29l-7.69-9.32c-5.23-6.34-10.99-7.88-17.14-4.54-3.08,1.68-9.67,6.75-4.57,17.82l41.36,89.45c1.22,2.6,2.44,5.19,3.61,7.81,.87,1.92,3.5,7.77,11.09,8.35,.38,.03,.75,.04,1.12,.04,4.82,0,8.7-2.41,11.54-7.19l40.7-68.62c.2-.34,.39-.68,.69-1.25l1.21-.82,5.44-10.33c4.68-7.94,9.35-15.88,14.12-23.79,1.04-1.72,2.04-3.47,3.03-5.22,2.2-3.85,4.28-7.5,6.77-10.77l.74-1.18c3.92-7.58,8.6-15.51,14.72-24.94l53-89.61,1.05-1.87c.69-1.25,1.39-2.51,2.12-3.74l18.49-31.11c4.41-7.44,1.2-13.06-.38-15.13Z" style="fill:#697077;"/><path d="M805.49,345.93c0-29.9,.06-59.8-.08-89.7-.02-3.77,.69-5.18,4.89-5.13,29.2,.35,58.4,0,87.59,.68,25.35,.59,50.38,3.94,74.09,13.65,16.09,6.59,30.57,15.65,41.91,29.13,25.01,29.73,24.56,73.09-.89,102.48-16.85,19.45-38.72,30.03-63.08,36.4-20.7,5.41-41.87,6.72-63.11,6.91-25.59,.23-51.18-.06-76.76,.17-4.09,.04-4.68-1.3-4.63-4.89,.19-15.02,.08-30.04,.08-45.07,0-14.88,0-29.76,0-44.63Zm38.7-.48c0,23.1,.07,46.21-.08,69.31-.02,3.27,.85,4.09,4.08,4.04,14.44-.19,28.88-.03,43.32-.69,20.27-.92,40.24-3.17,59.13-11.35,25.44-11.01,40.57-29.19,41.41-57.8,.65-22.22-6.35-40.92-24.87-54.16-17.91-12.8-38.63-17.65-60.07-19.96-19.42-2.09-38.93-1.65-58.42-1.84-3.51-.03-4.61,.72-4.58,4.43,.19,22.67,.09,45.34,.09,68.01Z" style="fill:#697077;"/><path d="M537.62,440.4c4.7-9.28,9.08-18,13.52-26.68,22.94-44.78,45.9-89.56,68.86-134.33,4.34-8.47,8.79-16.88,13.01-25.41,1.06-2.14,2.32-2.85,4.66-2.83,13.59,.11,27.18,.12,40.76,0,2.55-.02,3.81,.88,4.93,3.09,20.63,40.46,41.32,80.89,62.03,121.31,10.06,19.63,20.17,39.24,30.24,58.87,.91,1.77,1.74,3.58,2.91,6-9.4,0-18.28,.03-27.15-.01-4.47-.02-9.88,1.35-13.15-.68-3.26-2.02-4.44-7.47-6.42-11.47-6.2-12.53-12.4-25.06-18.47-37.66-1.08-2.25-2.32-3.13-4.9-3.13-34.26,.09-68.52,.09-102.78,0-2.39,0-3.52,.78-4.54,2.89-7.54,15.57-15.29,31.04-22.81,46.62-1.22,2.52-2.54,3.57-5.49,3.52-11.51-.21-23.02-.08-35.22-.08Zm119.5-162.89c-14.75,29.78-29.13,58.84-43.73,88.32,28.57,0,56.33-.05,84.08,.06,3.46,.01,3.07-1.14,1.91-3.46-13.97-27.99-27.88-56-42.26-84.92Z" style="fill:#697077;"/><path d="M376.79,345.61c0-30.04,.05-60.09-.07-90.13-.01-3.38,.86-4.39,4.32-4.36,28.18,.24,56.38-.12,84.55,.5,21.74,.48,43.19,3.31,62.92,13.55,10.17,5.28,19.2,11.98,24.75,22.26,10.53,19.51,4.95,43.33-13.69,58.59-15.06,12.33-32.88,18.23-51.75,21.51-22.37,3.89-44.95,2.45-67.47,2.55-3.92,.02-5.01,.95-4.96,4.93,.22,20.36,.03,40.73,.17,61.09,.02,3.24-.59,4.49-4.19,4.39-10.11-.27-20.24-.25-30.35-.01-3.44,.08-4.32-.91-4.31-4.31,.13-30.19,.08-60.37,.08-90.56Zm38.7-35c0,11.4,.07,22.81-.05,34.21-.03,2.63,.42,3.77,3.47,3.75,17.75-.16,35.52,.19,53.21-1.8,13.42-1.51,26.01-5.13,36.26-14.62,15.28-14.13,12.87-38.09-5.01-48.75-8.59-5.12-18.07-7.45-27.87-8.62-18.84-2.24-37.77-1.56-56.67-1.77-2.67-.03-3.43,.7-3.4,3.38,.14,11.4,.06,22.81,.06,34.21Z" style="fill:#697077;"/><path d="M847.08,114.52c-6.34,14.87-12.34,28.91-18.31,42.95-7.9,18.58-15.84,37.13-23.6,55.77-1.12,2.69-2.42,3.68-5.38,3.57-7.08-.25-14.17-.18-21.25-.03-2.36,.05-3.57-.57-4.38-2.94-14.51-42.27-29.08-84.52-43.76-126.73-1.15-3.3-.74-4.25,2.89-4.14,7.37,.23,14.77,.39,22.11-.05,4.42-.27,6.15,1.14,7.42,5.37,9.36,31.21,19.02,62.32,28.6,93.47,.32,1.05,.73,2.08,1.43,4.04,2.33-5.62,4.35-10.5,6.37-15.38,11.48-27.71,23.02-55.39,34.36-83.15,1.28-3.14,2.65-4.54,6.21-4.32,5.62,.35,11.29,.36,16.9,0,3.52-.22,4.66,1.51,5.83,4.28,13.18,31.22,26.45,62.39,39.71,93.57,.61,1.43,.91,3.03,2.42,4.35,5.6-19.21,11.14-38.22,16.68-57.24,4.03-13.84,8.12-27.66,12.01-41.54,.72-2.57,1.8-3.44,4.46-3.39,7.8,.17,15.62,.18,23.42,0,3.21-.08,3.93,.55,2.8,3.81-10.47,30.24-20.79,60.53-31.15,90.81-4.06,11.87-8.27,23.68-12.13,35.62-.95,2.94-2.32,3.67-5.2,3.58-6.79-.21-13.6-.28-20.38,.02-3.35,.15-4.71-1.16-5.95-4.08-13.17-31.06-26.49-62.06-39.78-93.07-.62-1.45-1.31-2.88-2.35-5.16Z" style="fill:#9cc69b;"/><path d="M366.82,104.61c4.45-19.61,15.39-35,30.85-47.46,1.25-.8,2.5-1.6,3.75-2.4,4.99-3.36,12.52-7.83,22.32-11.55,7.27-2.75,16.05-5.03,31.11-6.82,30.13-3.59,59.83,1.47,89.25,12.71,2.47,.94,3.2,2.26,3.14,4.79-.16,6.93-.01,13.87-.09,20.8-.01,1.34,.79,3.12-.76,3.96-1.56,.85-2.99-.17-4.37-1.06-9.36-6.06-19.14-11.29-29.79-14.73-22.21-7.18-44.66-9.13-67.26-2.12-27.82,8.62-45.12,31.1-46.72,60.2-.88,15.97,.83,31.44,9.41,45.45,12.28,20.05,30.98,29.73,53.68,32.12,29.38,3.09,56.43-3.93,81.01-20.35,1.23-.82,2.47-1.79,3.96-1.11,1.55,.7,.83,2.3,.84,3.49,.07,7.08,.03,14.16,.04,21.23,0,1.76,.09,3.31-2.13,4.13-19.85,7.29-40.01,13.27-61.3,14.2-20.61,.9-41-.37-60.65-7.48-29.73-10.76-49.36-30.67-56.39-62.03-.09-.4-.72-4.59-.97-6.29-1.06-7.26-1.62-14.56-1.21-21.89,.05-2.84,.26-6,.72-9.42,.41-3.05,.96-5.85,1.56-8.36Z" style="fill:#9cc69b;"/><path d="M683.32,202.66c-4.07,2.31-7.5,4.35-11.01,6.25-21.37,11.57-43.96,14.68-67.45,8.56-14.41-3.75-26.02-11.72-32.01-26.11-7.01-16.85-1.12-35.74,14.23-45.62,11.91-7.67,25.37-10.89,39.12-13.03,17.57-2.73,35.31-3.6,53.05-4.32,3.05-.12,4.22-.59,4.16-3.99-.2-11.09-4.68-17.76-15.5-21.3-11.16-3.65-22.78-3.7-34.32-3.06-15.17,.84-30.07,3.58-44.65,7.9-3.04,.9-4.58,.52-4.41-3.18,.24-5.19,.19-10.4,0-15.59-.09-2.65,.68-3.75,3.45-4.26,21.66-4,43.46-6.14,65.49-5.02,14.35,.73,28.47,2.54,41.27,9.89,11.87,6.81,18.6,17.05,18.78,30.61,.41,31.19,.18,62.38,.29,93.57,0,2.42-.96,2.85-3.08,2.83-8.09-.09-16.19-.12-24.28,.01-2.47,.04-3.31-.73-3.18-3.19,.18-3.4,.05-6.83,.05-10.93Zm0-37.08c0-5.34-.06-10.68,.03-16.01,.04-2.22-.53-2.96-2.98-2.74-12.49,1.16-25.02,1.9-37.5,3.19-10.94,1.12-21.69,3.21-31.25,9.2-4.43,2.77-7.81,6.31-9.17,11.54-3.33,12.8,3.55,23.53,17.73,26.76,20.66,4.71,39.65-.13,57.7-10.47,4.12-2.36,6.12-4.93,5.53-9.79-.47-3.84-.09-7.78-.1-11.67Z" style="fill:#9cc69b;"/><path d="M992.58,149.54c0-20.8,.06-41.61-.07-62.41-.02-3.1,.57-4.3,3.98-4.17,7.22,.28,14.46,.3,21.68,0,3.88-.16,5.07,.84,5.05,4.92-.17,37.13-.1,74.26-.1,111.39,0,4.91-.07,9.83,.03,14.74,.04,2.02-.56,2.8-2.69,2.77-8.39-.1-16.78-.17-25.16,.02-3.46,.08-2.72-2.1-2.72-3.98-.02-21.09-.01-42.19-.01-63.28Z" style="fill:#9cc69b;"/><path d="M1007.33,61.55c-4.62,0-9.24-.11-13.85,.04-2.37,.08-3.34-.55-3.27-3.11,.17-5.91,.14-11.82,.01-17.73-.05-2.33,.87-2.95,3.05-2.93,9.67,.08,19.33,.08,29,0,2.18-.02,3.09,.62,3.04,2.94-.13,6.05-.11,12.11,0,18.16,.04,2.15-.84,2.7-2.83,2.66-5.05-.1-10.1-.03-15.15-.03Z" style="fill:#9cc69b;"/><path d="M366.82,104.61c-.25,.39-.49,.79-.74,1.18,.25-.39,.49-.79,.74-1.18Z" style="fill:#62696f;"/></g></g></svg>